<?xml version="1.0" encoding="utf-8"?>
<!-- Generator: Adobe Illustrator 24.0.0, SVG Export Plug-In . SVG Version: 6.00 Build 0)  -->
<svg version="1.1" id="Calque_1" xmlns="http://www.w3.org/2000/svg" xmlns:xlink="http://www.w3.org/1999/xlink" x="0px" y="0px"
	 viewBox="0 0 512 512" style="enable-background:new 0 0 512 512;" xml:space="preserve">
<style type="text/css">
	.st0{fill:#8E7961;}
</style>
<path class="st0" d="M472,16H40c-13.3,0-24,10.7-24,24v432c0,13.3,10.7,24,24,24h432c13.3,0,24-10.7,24-24V40
	C496,26.7,485.3,16,472,16z M40,32h432c4.4,0,8,3.6,8,8v40H32V40C32,35.6,35.6,32,40,32z M472,480H40c-4.4,0-8-3.6-8-8V96h448v376
	C480,476.4,476.4,480,472,480z"/>
<path class="st0" d="M56,64h8c4.4,0,8-3.6,8-8s-3.6-8-8-8h-8c-4.4,0-8,3.6-8,8S51.6,64,56,64z"/>
<path class="st0" d="M96,64h8c4.4,0,8-3.6,8-8s-3.6-8-8-8h-8c-4.4,0-8,3.6-8,8S91.6,64,96,64z"/>
<path class="st0" d="M136,64h8c4.4,0,8-3.6,8-8s-3.6-8-8-8h-8c-4.4,0-8,3.6-8,8S131.6,64,136,64z"/>
<path class="st0" d="M256,144c-79.5,0-144,64.5-144,144s64.5,144,144,144s144-64.5,144-144C399.9,208.5,335.5,144.1,256,144z
	 M256,416c-70.7,0-128-57.3-128-128s57.3-128,128-128s128,57.3,128,128C383.9,358.7,326.7,415.9,256,416z"/>
<path class="st0" d="M312.6,386.5c-2.1,0-4.2-0.8-5.7-2.3L256,333.2l-50.9,50.9c-3.1,3.1-8.2,3.1-11.3,0l-33.9-33.9
	c-3.1-3.1-3.1-8.2,0-11.3l50.9-50.9l-50.9-50.9c-3.1-3.1-3.1-8.2,0-11.3l33.9-33.9c3.1-3.1,8.2-3.1,11.3,0l50.9,50.9l50.9-50.9
	c3.1-3.1,8.2-3.1,11.3,0l33.9,33.9c3.1,3.1,3.1,8.2,0,11.3L301.2,288l50.9,50.9c3.1,3.1,3.1,8.2,0,11.3l-33.9,33.9
	C316.7,385.6,314.7,386.5,312.6,386.5L312.6,386.5z M256,313.9c2.1,0,4.2,0.8,5.7,2.3l50.9,50.9l22.6-22.6l-50.9-50.9
	c-3.1-3.1-3.1-8.2,0-11.3l50.9-50.9l-22.6-22.6l-50.9,50.9c-3.1,3.1-8.2,3.1-11.3,0l-50.9-50.9l-22.6,22.6l50.9,50.9
	c3.1,3.1,3.1,8.2,0,11.3l-50.9,50.9l22.6,22.6l50.9-50.9C251.8,314.8,253.9,313.9,256,313.9L256,313.9z"/>
</svg>
