<?xml version="1.0" encoding="utf-8"?>
<!-- Generator: Adobe Illustrator 24.0.1, SVG Export Plug-In . SVG Version: 6.00 Build 0)  -->
<svg version="1.1" id="Capa_1" xmlns="http://www.w3.org/2000/svg" xmlns:xlink="http://www.w3.org/1999/xlink" x="0px" y="0px"
	 viewBox="0 0 512 512" style="enable-background:new 0 0 512 512;" xml:space="preserve">
<style type="text/css">
	.st0{fill:#A0A0A0;}
</style>
<g>
	<g>
		<path class="st0" d="M442.7,182.6L391,156.7V15c0-8.3-6.7-15-15-15c-8.3,0-15,6.7-15,15v15H151V15h0c0-8.3-6.7-15-15-15
			s-15,6.7-15,15v141.7l-51.7,25.9c-4.2,2.1-8.3,7.6-8.3,13.4v90c0,24.8,20.2,45,45,45h25l100,75l-104,79c-6.6,5-8,14.4-3,21
			c5,6.6,14.3,8,21,3l111-84.3L367,509c6.6,5,16,3.6,21-3c5-6.6,3.6-16-3-21l-104-79l100-75h25c24.8,0,45-20.2,45-45v-90
			C451,190.1,447,184.7,442.7,182.6z M121,241h-15c-5.3,0-10.3,1.1-15,2.8v-38.5l30-15V241z M256,387.3L181,331h150L256,387.3z
			 M361,241H151v-60h210V241z M421,243.8c-4.7-1.7-9.7-2.8-15-2.8h-15v-50.7l30,15V243.8z"/>
	</g>
</g>
</svg>
