<?xml version="1.0" encoding="utf-8"?>
<!-- Generator: Adobe Illustrator 24.0.1, SVG Export Plug-In . SVG Version: 6.00 Build 0)  -->
<svg version="1.1" id="Calque_1" xmlns="http://www.w3.org/2000/svg" xmlns:xlink="http://www.w3.org/1999/xlink" x="0px" y="0px"
	 viewBox="0 0 28.7 8.6" style="enable-background:new 0 0 28.7 8.6;" xml:space="preserve">
<style type="text/css">
	.st0{fill:#D2CEC7;}
</style>
<polygon class="st0" points="14.4,1.1 15.4,3.2 17.7,3.6 16.1,5.2 16.5,7.5 14.4,6.4 12.3,7.5 12.7,5.2 11,3.6 13.3,3.2 "/>
<polygon class="st0" points="4.1,1.1 5.1,3.2 7.5,3.6 5.8,5.2 6.2,7.5 4.1,6.4 2,7.5 2.4,5.2 0.7,3.6 3,3.2 "/>
<polygon class="st0" points="24.6,1.1 25.7,3.2 28,3.6 26.3,5.2 26.7,7.5 24.6,6.4 22.5,7.5 22.9,5.2 21.2,3.6 23.6,3.2 "/>
</svg>
