<?xml version="1.0" encoding="utf-8"?>
<!-- Generator: Adobe Illustrator 24.0.1, SVG Export Plug-In . SVG Version: 6.00 Build 0)  -->
<svg version="1.1" id="Calque_1" xmlns="http://www.w3.org/2000/svg" xmlns:xlink="http://www.w3.org/1999/xlink" x="0px" y="0px"
	 viewBox="0 0 9 9" style="enable-background:new 0 0 9 9;" xml:space="preserve">
<style type="text/css">
	.st0{fill:#3F0805;}
</style>
<path class="st0" d="M5.9,5.6c0,0.3-0.2,0.5-0.5,0.5H3.5C3.2,6.1,3,5.9,3,5.6V3.4c0-0.3,0.2-0.5,0.5-0.5h1.9c0.3,0,0.5,0.2,0.5,0.5
	V5.6L5.9,5.6z"/>
<path class="st0" d="M5.9,5.6c0,0.3-0.2,0.5-0.5,0.5h-2C3.2,6.2,3,5.9,3,5.6V3.4c0-0.3,0.2-0.5,0.5-0.5h2c0.3,0,0.5,0.2,0.5,0.5V5.6
	L5.9,5.6z"/>
</svg>
