<?xml version="1.0" encoding="utf-8"?>
<!-- Generator: Adobe Illustrator 24.0.0, SVG Export Plug-In . SVG Version: 6.00 Build 0)  -->
<svg version="1.1" id="Calque_1" xmlns="http://www.w3.org/2000/svg" xmlns:xlink="http://www.w3.org/1999/xlink" x="0px" y="0px"
	 viewBox="0 0 9 9" style="enable-background:new 0 0 9 9;" xml:space="preserve">
<style type="text/css">
	.st0{fill:#3F0805;}
</style>
<path class="st0" d="M5.9,5.7c0,0.3-0.2,0.5-0.5,0.5h-2C3.2,6.2,3,6,3,5.7V3.3C3,3,3.2,2.8,3.5,2.8h2c0.3,0,0.5,0.2,0.5,0.5V5.7
	L5.9,5.7z"/>
<path class="st0" d="M5.9,5.7c0,0.3-0.2,0.5-0.5,0.5H3.4C3.2,6.3,3,6,3,5.7V3.3C3,3,3.2,2.8,3.5,2.8h2.1c0.3,0,0.5,0.2,0.5,0.5v2.3
	H5.9z"/>
</svg>
