<?xml version="1.0" encoding="utf-8"?>
<!-- Generator: Adobe Illustrator 24.0.1, SVG Export Plug-In . SVG Version: 6.00 Build 0)  -->
<svg version="1.1" id="Calque_1" xmlns="http://www.w3.org/2000/svg" xmlns:xlink="http://www.w3.org/1999/xlink" x="0px" y="0px"
	 viewBox="0 0 16 16" style="enable-background:new 0 0 16 16;" xml:space="preserve">
<style type="text/css">
	.st0{opacity:0.3;enable-background:new    ;}
	.st1{fill:#A51F1E;}
</style>
<path class="st0" d="M16,8.3c0-4.3-3.4-7.7-7.6-7.7S0.7,4,0.7,8.3S4.2,16,8.4,16H16v-1.3h-3.4C14.7,13.3,16,10.8,16,8.3z M12.1,13.5
	c-0.9,0.6-2,0.4-2.7-0.4C8.8,12.2,9,11,9.9,10.3c0.9-0.6,2-0.4,2.7,0.4C13.2,11.6,13,12.8,12.1,13.5z M12,5c1-0.3,2.1,0.2,2.4,1.2
	c0.3,1-0.2,2.1-1.2,2.4c-1,0.3-2.1-0.2-2.4-1.2C10.5,6.4,11,5.3,12,5z M8.4,1.8c1.1,0,1.9,0.9,1.9,1.9S9.4,5.7,8.4,5.7
	S6.5,4.8,6.5,3.7S7.3,1.8,8.4,1.8z M2.3,6.3c0.3-1,1.4-1.6,2.4-1.2c1,0.3,1.5,1.4,1.2,2.4C5.6,8.5,4.6,9,3.6,8.7
	C2.6,8.4,2,7.3,2.3,6.3z M7.3,13c-0.6,0.9-1.8,1.1-2.7,0.4c-0.9-0.6-1-1.8-0.4-2.7C4.8,9.9,6,9.7,6.9,10.3C7.7,11,7.9,12.2,7.3,13z
	 M7.7,8.3c0-0.4,0.3-0.6,0.6-0.6S9,7.9,9,8.3c0,0.4-0.3,0.6-0.6,0.6S7.7,8.6,7.7,8.3z"/>
<path class="st1" d="M15.1,7.9c0-4.3-3.4-7.7-7.6-7.7s-7.6,3.5-7.6,7.7s3.4,7.7,7.6,7.7h7.6v-1.3h-3.4C13.9,12.9,15.1,10.5,15.1,7.9
	z M11.3,13.1c-0.9,0.6-2,0.4-2.7-0.4C8,11.8,8.2,10.6,9,10c0.9-0.6,2-0.4,2.7,0.4C12.3,11.3,12.1,12.5,11.3,13.1z M11.2,4.7
	c1-0.3,2.1,0.2,2.4,1.2c0.3,1-0.2,2.1-1.2,2.4c-1,0.3-2.1-0.2-2.4-1.2C9.6,6.1,10.2,5,11.2,4.7z M7.5,1.5c1.1,0,1.9,0.9,1.9,1.9
	S8.6,5.3,7.5,5.3S5.6,4.5,5.6,3.4S6.5,1.5,7.5,1.5z M1.5,5.9c0.3-1,1.4-1.6,2.4-1.2c1,0.3,1.5,1.4,1.2,2.4c-0.3,1-1.4,1.6-2.4,1.2
	C1.7,8,1.2,6.9,1.5,5.9z M6.4,12.7c-0.6,0.9-1.8,1.1-2.7,0.4c-0.9-0.6-1-1.8-0.4-2.7C4,9.6,5.2,9.4,6,10C6.9,10.6,7.1,11.8,6.4,12.7
	z M6.9,7.9c0-0.4,0.3-0.6,0.6-0.6c0.4,0,0.6,0.3,0.6,0.6c0,0.4-0.3,0.6-0.6,0.6C7.2,8.6,6.9,8.3,6.9,7.9z"/>
</svg>
