<?xml version="1.0" encoding="utf-8"?>
<!-- Generator: Adobe Illustrator 24.0.1, SVG Export Plug-In . SVG Version: 6.00 Build 0)  -->
<svg version="1.1" id="Calque_1" xmlns="http://www.w3.org/2000/svg" xmlns:xlink="http://www.w3.org/1999/xlink" x="0px" y="0px"
	 viewBox="0 0 500 500" style="enable-background:new 0 0 500 500;" xml:space="preserve">
<style type="text/css">
	.st0{fill:#F4F2EE;}
	.st1{fill:#FCF8F0;}
	.st2{opacity:0.26;}
	.st3{fill:none;stroke:#000000;stroke-width:4;stroke-linecap:round;stroke-linejoin:round;stroke-dasharray:1.0019,20.0376;}
	.st4{opacity:0.26;fill:none;stroke:#000000;stroke-miterlimit:10;enable-background:new    ;}
	.st5{fill:none;stroke:#000000;stroke-miterlimit:10;}
	.st6{opacity:0.2;}
	.st7{stroke:#000000;stroke-width:2;stroke-miterlimit:10;}
	.st8{fill:#A51F1E;}
	.st9{opacity:0.3;enable-background:new    ;}
</style>
<g id="BACKGROUND">
	<rect class="st0" width="500" height="500"/>
</g>
<rect x="-60.4" y="-45" width="639.1" height="559.1"/>
<circle cx="249.8" cy="249.8" r="246.5"/>
<circle class="st1" cx="250" cy="249.8" r="224"/>
<g>
	<g class="st2">
		<circle class="st1" cx="249.8" cy="251.8" r="197.6"/>
		<circle class="st3" cx="249.8" cy="251.8" r="197.6"/>
	</g>
	<path class="st4" d="M425.1,281.5c-13.8,84-87,147.1-175.3,147.1C161.4,428.6,88,364.2,74.4,280"/>
	<path class="st4" d="M249.8,74.8"/>
</g>
<g>
	<line class="st5" x1="76.4" y1="283.2" x2="425.2" y2="283.2"/>
	<line class="st5" x1="93.6" y1="333.9" x2="406.4" y2="333.9"/>
	<g>
		<g>
			<path d="M158.1,296.1v4.5h-9.5v5.1h7.3v4.3h-7.3v9.4H143v-23.1h15.1V296.1z"/>
			<path d="M180.7,319.2l-5-8.7h-1.3v8.7h-5.6v-23.1h9.6c1.8,0,3.4,0.3,4.6,1c1.3,0.6,2.2,1.5,2.9,2.6c0.6,1.1,0.9,2.4,0.9,3.8
				c0,1.7-0.5,3.1-1.4,4.3c-0.9,1.2-2.3,2-4,2.4l5.5,9.1L180.7,319.2L180.7,319.2z M174.4,306.6h3.5c1.1,0,1.9-0.3,2.5-0.7
				c0.5-0.5,0.8-1.2,0.8-2.2c0-0.9-0.3-1.6-0.8-2.2c-0.5-0.5-1.4-0.8-2.4-0.8h-3.5L174.4,306.6L174.4,306.6z"/>
			<path d="M211.8,315h-8.7l-1.4,4.2h-5.9l8.5-23h6.4l8.5,23h-6L211.8,315z M210.4,310.7l-2.9-8.5l-2.9,8.5H210.4z"/>
			<path d="M249.8,319.2h-5.6l-9.4-14.2v14.2h-5.6v-23.1h5.6l9.4,14.3v-14.3h5.6V319.2z"/>
			<path d="M279.4,298.2c1.9,1.5,3.2,3.6,3.8,6.3h-5.9c-0.4-1.1-1.1-1.9-2-2.5s-2-0.9-3.2-0.9c-1.6,0-3,0.6-4,1.8
				c-1,1.2-1.5,2.8-1.5,4.8s0.5,3.6,1.5,4.8c1,1.2,2.3,1.8,4,1.8c1.2,0,2.3-0.3,3.2-0.9c0.9-0.6,1.6-1.4,2-2.5h5.9
				c-0.6,2.6-1.8,4.7-3.8,6.3s-4.4,2.3-7.3,2.3c-2.3,0-4.2-0.5-5.9-1.5s-3-2.4-3.9-4.2c-0.9-1.8-1.4-3.8-1.4-6.1s0.5-4.3,1.4-6.1
				c0.9-1.8,2.2-3.2,3.9-4.2c1.7-1,3.7-1.5,5.9-1.5C275.1,295.8,277.5,296.6,279.4,298.2z M276.7,321.5c0.9,0.6,1.3,1.5,1.3,2.8
				s-0.4,2.2-1.3,2.8c-0.9,0.6-2,0.9-3.2,0.9h-4.8v-3h4.2c0.9,0,1.4-0.3,1.4-0.9c0-0.3-0.1-0.5-0.3-0.7s-0.6-0.2-1-0.2h-2.4V319h3.3
				v1.6C274.9,320.6,275.9,320.9,276.7,321.5z"/>
			<path d="M308.5,315h-8.7l-1.4,4.2h-5.9l8.5-23h6.5l8.5,23h-6L308.5,315z M307.1,310.7l-2.9-8.5l-2.9,8.5H307.1z"/>
			<path d="M331.5,296.1v23.1h-5.6v-23.1H331.5z"/>
			<path d="M359,316.1c-0.6,1-1.5,1.8-2.8,2.5c-1.2,0.6-2.7,0.9-4.4,0.9c-2.6,0-4.7-0.6-6.4-1.9c-1.7-1.3-2.6-3-2.8-5.3h6
				c0.1,0.9,0.4,1.6,0.9,2.1s1.2,0.8,2,0.8c0.7,0,1.3-0.2,1.7-0.6c0.4-0.4,0.6-0.9,0.6-1.6c0-0.6-0.2-1.1-0.6-1.5s-0.9-0.7-1.4-1
				c-0.6-0.3-1.4-0.5-2.4-0.9c-1.5-0.5-2.7-1-3.6-1.5s-1.7-1.2-2.4-2.1c-0.7-0.9-1-2.1-1-3.6c0-1.4,0.4-2.6,1-3.6
				c0.7-1,1.7-1.8,2.9-2.3c1.2-0.5,2.6-0.8,4.2-0.8c2.6,0,4.6,0.6,6.1,1.8c1.5,1.2,2.4,2.9,2.6,5h-6.1c-0.1-0.8-0.4-1.4-0.8-1.8
				c-0.5-0.5-1-0.7-1.8-0.7c-0.6,0-1.2,0.2-1.6,0.5c-0.4,0.4-0.6,0.9-0.6,1.5c0,0.5,0.2,1,0.5,1.4c0.4,0.4,0.8,0.7,1.4,0.9
				c0.5,0.2,1.3,0.5,2.4,0.9c1.5,0.5,2.7,1,3.6,1.5s1.8,1.2,2.4,2.1c0.7,0.9,1,2.2,1,3.7C359.9,313.9,359.6,315,359,316.1z"/>
		</g>
	</g>
</g>
<g>
	<path d="M145.8,113.3l20.7,20.8l-5.4,5.1l-8.6-8.7l-8.4,8l8.6,8.7l-5.4,5.1l-20.7-20.8l5.4-5.1l8,8.1l8.4-8l-8-8.1L145.8,113.3z"/>
	<path d="M169.5,98l15.3,24.9l-6.4,3.8l-15.3-24.9L169.5,98z"/>
	<path d="M216,106.2c-0.4,1.5-1.2,2.8-2.5,4.1c-1.3,1.2-3,2.2-5.2,2.9c-3.3,1.1-6.3,1.2-8.9,0.4c-2.7-0.8-4.5-2.5-5.7-5.1l7.6-2.5
		c0.5,1,1.1,1.7,2,2.1s1.9,0.4,2.9,0c0.9-0.3,1.5-0.8,1.9-1.4s0.4-1.3,0.2-2.1c-0.3-0.7-0.7-1.2-1.3-1.5s-1.4-0.5-2.2-0.6
		s-1.9-0.1-3.4-0.1c-2.1,0-3.8-0.1-5.1-0.2c-1.4-0.2-2.7-0.7-3.9-1.5s-2.1-2.1-2.8-3.9c-0.6-1.6-0.6-3.2-0.1-4.7s1.4-2.8,2.7-3.9
		s3-2.1,5.1-2.7c3.3-1.1,6.1-1.2,8.5-0.4c2.4,0.8,4.2,2.5,5.3,4.9l-7.7,2.5c-0.5-0.9-1-1.5-1.8-1.8s-1.6-0.4-2.6,0
		c-0.8,0.3-1.4,0.7-1.8,1.3c-0.4,0.6-0.4,1.3-0.1,2.1c0.2,0.6,0.6,1.1,1.3,1.4c0.6,0.3,1.3,0.5,2.1,0.5c0.8,0.1,1.9,0.1,3.4,0.1
		c2.1,0,3.8,0.1,5.2,0.3c1.4,0.2,2.7,0.7,4,1.5c1.2,0.8,2.2,2.1,2.8,3.9C216.3,103.3,216.3,104.7,216,106.2z"/>
	<path d="M251.3,76.9l0.4,5.6l-8.4,0.5l1.6,23.4l-7.5,0.5l-1.6-23.4l-8.3,0.5l-0.4-5.6L251.3,76.9z"/>
	<path d="M293.4,84.3c2,1.8,3.5,3.9,4.3,6.4s0.9,5.1,0.3,7.9s-1.9,5.1-3.8,7s-4.1,3.2-6.7,4c-2.6,0.7-5.3,0.8-8.1,0.2
		c-2.8-0.6-5.2-1.8-7.3-3.6c-2-1.8-3.5-3.9-4.3-6.4s-0.9-5.2-0.3-7.9c0.6-2.8,1.9-5.1,3.8-7s4.1-3.2,6.7-3.9
		c2.6-0.7,5.3-0.8,8.1-0.2C288.9,81.4,291.3,82.6,293.4,84.3z M278.4,88.1c-1.7,1.1-2.9,3-3.5,5.5s-0.3,4.6,0.8,6.4
		c1.1,1.8,2.8,2.9,5.2,3.5c2.4,0.5,4.4,0.2,6.2-1c1.8-1.1,2.9-3,3.5-5.4c0.6-2.5,0.3-4.6-0.8-6.4c-1.1-1.8-2.8-2.9-5.2-3.5
		C282.2,86.6,280.1,86.9,278.4,88.1z"/>
	<path d="M326.5,95.9l-13.4,25.9l-6.7-3.3l13.4-25.9L326.5,95.9z"/>
	<path d="M337.6,138.6l2-12.6l-1.3-1.1l-7.2,8.4l-5.8-4.7l19-22.3l9.9,8c1.9,1.5,3.2,3.1,4,4.8c0.8,1.7,1,3.3,0.8,4.9
		c-0.3,1.6-1,3.1-2.1,4.4c-1.4,1.6-3,2.6-4.9,3s-4,0-6.2-1l-1.8,13.4L337.6,138.6z M341.4,121.2l3.6,2.9c1.1,0.9,2.2,1.4,3.1,1.3
		s1.8-0.5,2.6-1.4c0.8-0.9,1.1-1.8,0.9-2.8c-0.1-1-0.7-1.9-1.9-2.8l-3.6-2.9L341.4,121.2z"/>
	<path d="M376,145.3l-5.1,3.5l6.1,8.3l-4.4,3.1l-6.1-8.3l-5.4,3.7l6.8,9.4l-4.7,3.3L352,152.9l24.2-16.8l11.2,15.3l-4.7,3.2
		L376,145.3z"/>
</g>
<g>
	<g>
		<path d="M246,177.4c-1,0-2-0.2-2.8-0.6c-0.8-0.4-1.6-0.9-2.2-1.4c-0.6-0.6-1.1-1.1-1.4-1.8c-0.4-0.6-0.5-1.2-0.6-1.6
			c-0.9,1-1.8,1.9-2.8,2.7c-0.8,0.7-1.8,1.3-2.9,1.9c-1.1,0.6-2.2,0.8-3.3,0.8c-0.8,0-1.5-0.2-2.3-0.5s-1.4-0.8-2-1.4
			c-0.6-0.6-1.1-1.3-1.4-2.1s-0.6-1.8-0.6-2.8c0-2.2,0.4-4.3,1.3-6.2c0.9-1.9,2-3.5,3.3-4.8s2.7-2.4,4.3-3.1
			c1.5-0.8,2.9-1.1,4.2-1.1c0.5,0,1,0.1,1.4,0.1c0.4,0.1,0.8,0.2,1.1,0.3c0.4,0.1,0.7,0.3,0.9,0.4c0.6-2.2,1.4-4.4,2.3-6.5
			c0.9-2.1,1.8-4,2.9-5.7c1-1.6,2.1-3,3.3-4s2.4-1.5,3.7-1.5c0.6,0,1.1,0.1,1.7,0.4c0.6,0.3,1.1,0.7,1.5,1.1c0.5,0.5,0.8,1,1.1,1.6
			s0.4,1.3,0.4,1.9c0,0.7-0.2,1.5-0.5,2.5c-0.4,1-0.8,2.1-1.4,3.2c-0.6,1.1-1.2,2.4-1.9,3.6c-0.7,1.3-1.5,2.5-2.2,3.7
			c-1.8,2.8-3.8,5.8-6.1,9c-0.1,0.5-0.1,0.9-0.2,1.4c0,0.5-0.1,0.9-0.1,1.4c0,1.5,0.2,2.8,0.7,3.8s1.2,1.5,2.3,1.5
			c0.7,0,1.4-0.2,2.1-0.7c0.7-0.5,1.3-1,1.9-1.6c0.7-0.7,1.3-1.4,1.8-2.4c0-0.1,0.1-0.2,0.3-0.4c0.1-0.1,0.2-0.2,0.3-0.3
			s0.3-0.1,0.5-0.1c0.3,0,0.6,0.1,0.8,0.3s0.4,0.5,0.4,0.8c0,0.1,0,0.3-0.1,0.4c-0.1,0.1-0.1,0.3-0.2,0.4c-0.1,0.1-0.1,0.3-0.2,0.5
			c-0.8,1.3-1.7,2.4-2.7,3.4c-0.8,0.8-1.8,1.6-3,2.3S247.4,177.4,246,177.4z M239.6,159.3c-0.1-0.1-0.3-0.3-0.4-0.4
			c-0.1-0.1-0.3-0.2-0.5-0.3s-0.4-0.1-0.6-0.1c-0.9,0-1.8,0.4-2.7,1.3s-1.7,1.9-2.4,3.1c-0.7,1.2-1.3,2.5-1.7,3.9s-0.7,2.7-0.7,3.8
			c0,1,0.2,1.8,0.6,2.3c0.4,0.6,0.9,0.8,1.5,0.8s1.2-0.2,1.9-0.7s1.4-1,2-1.6c0.7-0.7,1.4-1.4,2.1-2.3c0-1.6,0.1-3.3,0.3-4.9
			C239.1,162.6,239.4,161,239.6,159.3z M245.5,161.6c1.6-2.6,3.1-5.2,4.3-7.6c0.6-1,1.1-2.1,1.6-3.2s1-2.1,1.4-3.1s0.7-1.9,1-2.8
			c0.3-0.8,0.4-1.6,0.4-2.2s-0.3-0.9-0.8-0.9s-1.1,0.6-1.8,1.7s-1.4,2.7-2.2,4.5c-0.8,1.9-1.5,4-2.2,6.3
			C246.6,156.8,246,159.2,245.5,161.6z"/>
		<path d="M272.9,177.4c-1.1,0-2-0.1-2.7-0.4s-1.4-0.6-1.9-0.9c-0.5-0.4-1-0.8-1.3-1.3s-0.6-1-0.7-1.5c-0.4,0.5-0.9,1-1.5,1.5
			s-1.2,0.9-1.8,1.3c-0.7,0.4-1.4,0.7-2.1,0.9s-1.4,0.4-2.1,0.4c-0.6,0-1.3-0.1-2-0.4c-0.7-0.3-1.3-0.6-1.8-1.1
			c-0.6-0.5-1-1-1.4-1.7s-0.6-1.4-0.6-2.1c0-1,0.2-2.2,0.5-3.7s0.7-3,1.1-4.5c0.4-1.5,0.9-3,1.4-4.3c0.5-1.4,0.9-2.4,1.2-3.2
			c0.1-0.3,0.4-0.5,0.6-0.7c0.3-0.2,0.5-0.3,0.9-0.3s0.9,0.1,1.4,0.4c0.5,0.3,1,0.6,1.4,0.9s0.8,0.7,1.1,1s0.4,0.6,0.4,0.9
			c0,0.8-0.2,1.8-0.5,2.8c-0.4,1-0.8,2.1-1.2,3.3s-0.9,2.4-1.2,3.7s-0.5,2.6-0.5,3.9c0,0.4,0.1,0.8,0.3,1.1c0.2,0.3,0.5,0.5,0.9,0.5
			s0.9-0.1,1.4-0.4c0.5-0.2,0.9-0.6,1.4-0.9c0.4-0.4,0.8-0.8,1.2-1.3c0.4-0.5,0.7-0.9,0.9-1.4c0.3-0.6,0.6-1.5,1-2.7
			s0.8-2.5,1.2-3.9c0.4-1.4,0.8-2.7,1.2-4c0.4-1.3,0.8-2.3,1.1-3.1c0.1-0.3,0.4-0.5,0.6-0.7c0.3-0.2,0.6-0.3,0.9-0.3
			c0.4,0,0.9,0.1,1.4,0.4c0.5,0.3,1,0.6,1.4,0.9s0.8,0.7,1.1,1s0.4,0.6,0.4,0.9c0,0.8-0.2,1.8-0.5,2.7c-0.3,1-0.7,2-1.1,3.1
			s-0.7,2.3-1.1,3.5c-0.3,1.2-0.5,2.5-0.5,3.8c0,0.6,0.2,1.1,0.5,1.5s0.7,0.6,1.3,0.6c0.3,0,0.6-0.1,0.9-0.3s0.6-0.4,0.9-0.6
			c0.3-0.3,0.6-0.6,0.9-0.9c0.1-0.2,0.3-0.4,0.5-0.5c0.2-0.2,0.4-0.3,0.7-0.3c0.3,0,0.6,0.1,0.8,0.4c0.3,0.3,0.4,0.5,0.4,0.8
			c0,0.2-0.1,0.5-0.3,0.8c-0.1,0.1-0.2,0.3-0.3,0.4c-0.6,0.7-1.3,1.4-1.9,1.9s-1.3,1-2,1.4C274.4,177.2,273.7,177.4,272.9,177.4z"/>
	</g>
</g>
<g class="st6">
	<g>
		<path class="st7" d="M116.8,271.1c-4.2,0.1-8.3-0.3-12.4-1.5c-4.1-1.1-7.8-2.9-11.1-5.4s-6.1-5.6-8.2-9.5c-2.2-3.9-3.4-8.6-3.6-14
			c-0.1-2.4,0-4.9,0.3-7.3c0.3-2.4,0.7-4.9,1.3-7.4c-4-0.8-7.6-1.9-10.7-3.3c-3.2-1.4-5.9-3-8.1-4.8c-2.3-1.8-4-3.7-5.3-5.8
			c-1.2-2.1-1.9-4.1-2-6.2c-0.1-3.6,0.9-7.1,3-10.3s4.7-6,7.7-8.4s6-4.3,9.2-5.7c3.1-1.4,5.6-2.2,7.5-2.2c1.5-0.1,2.3,0.4,2.3,1.4
			c0,0.6-0.2,1.1-0.6,1.5s-1,0.9-1.8,1.5c-0.9,0.7-2,1.6-3.2,2.7c-1.2,1-2.2,2.3-3.3,3.8s-1.8,3.2-2.5,5.2s-0.9,4.3-0.8,7
			c0.1,2.9,0.9,5.7,2.5,8.5s4.4,5,8.7,6.6c2.3-6,5.3-11.7,9-17.1c3.7-5.4,7.8-10.2,12.2-14.3c4.4-4.1,9-7.4,13.7-9.9
			s9.2-3.8,13.5-3.9c2.6-0.1,5.2,0.4,7.6,1.6c2.4,1.1,4.4,2.6,6.2,4.4s3.1,3.7,4.2,5.8c1.1,2.1,1.6,4.1,1.7,5.9
			c0.1,3.4-1,7.2-3.4,11.4s-5.8,8.1-10.3,11.9s-10,6.9-16.5,9.6c-6.5,2.7-13.8,4.2-22.1,4.7c-0.9,4.5-1.3,8.9-1.1,13.2
			c0.3,8.4,2.2,14.3,5.8,17.7c3.5,3.5,8.5,5.1,14.8,4.9c2.4-0.1,4.8-0.6,7.1-1.4c2.4-0.9,4.6-2,6.8-3.4s4.3-3,6.1-4.9
			c1.9-1.9,3.5-3.8,5-5.9c0.1-0.3,0.3-0.6,0.6-0.9c0.2-0.2,0.4-0.4,0.8-0.6c0.3-0.2,0.7-0.4,1.2-0.4c0.8,0,1.5,0.2,2,0.7
			s0.8,1.1,0.9,1.8c0,0.4,0,0.7-0.2,1c-0.1,0.3-0.3,0.6-0.4,1s-0.3,0.8-0.5,1.2c-1.4,2.3-3.2,4.6-5.3,6.8s-4.6,4.3-7.5,6.2
			c-2.9,1.9-6,3.4-9.4,4.6C124.6,270.3,120.9,270.9,116.8,271.1z M135.9,180.9c-2.9,0.1-5.9,1.2-9,3.3c-3.1,2.1-6.1,4.9-9.1,8.5
			c-2.9,3.6-5.6,7.6-8.1,12.2c-2.5,4.6-4.5,9.4-6.1,14.4c6-0.4,11.4-1.8,16.1-4.2s8.7-5.3,12-8.6s5.7-6.9,7.3-10.6
			c1.6-3.7,2.4-7.1,2.3-10.3c-0.1-1.5-0.5-2.7-1.5-3.5C138.8,181.3,137.5,180.9,135.9,180.9z"/>
		<path class="st7" d="M161.3,253.3c0.1,1.5,0.5,2.7,1.3,3.5c0.8,0.9,1.8,1.3,3.2,1.3c1.8-0.1,3.5-0.7,5.2-1.9s3.2-2.5,4.4-4.1
			c1.5-1.6,2.9-3.5,4.2-5.8c0.1-0.3,0.3-0.6,0.6-0.9c0.2-0.2,0.4-0.4,0.8-0.6c0.3-0.2,0.7-0.4,1.2-0.4c0.7,0,1.4,0.2,1.9,0.7
			c0.6,0.5,0.9,1.1,0.9,1.8c0,0.4,0,0.7-0.2,1c-0.1,0.3-0.3,0.6-0.4,1c-0.2,0.4-0.3,0.8-0.5,1.2c-1.8,3.1-3.9,5.9-6.2,8.3
			c-2,2.1-4.3,4-7,5.7c-2.7,1.8-5.7,2.7-9,2.8c-5,0.2-9.1-1-12.3-3.5s-4.9-5.9-5-10.2c-0.1-2.4,0.2-5.2,0.9-8.5s1.5-6.7,2.4-10.1
			s1.9-6.7,3-9.8s2-5.6,2.7-7.4c0.3-0.7,0.8-1.3,1.4-1.8s1.3-0.8,2.1-0.8c1,0,2.1,0.2,3.4,0.8c1.3,0.6,2.4,1.2,3.5,2
			c1.1,0.7,2,1.5,2.7,2.3s1.1,1.5,1.1,2c0.1,2-0.3,4.2-1,6.5s-1.5,4.8-2.3,7.5s-1.6,5.4-2.2,8.4
			C161.4,247.1,161.2,250.2,161.3,253.3z M178.1,189.9c0.1,1.7-0.2,3.4-0.7,5.1c-0.5,1.6-1.3,3.1-2.2,4.4s-2.1,2.3-3.3,3.1
			c-1.3,0.8-2.6,1.2-4,1.3c-1.9,0.1-3.6-0.5-5.1-1.8s-2.2-3.1-2.3-5.4c-0.1-1.6,0.2-3.3,0.8-4.9s1.3-3,2.3-4.3s2.1-2.3,3.4-3.1
			c1.3-0.8,2.7-1.2,4.2-1.3c1.9-0.1,3.6,0.5,4.9,1.8C177.3,186,178,187.7,178.1,189.9z"/>
		<path class="st7" d="M226.1,251c0.1,1.5,0.5,2.7,1.3,3.6s1.8,1.3,3.2,1.3c1.8-0.1,3.5-0.7,5.2-1.9s3.2-2.6,4.4-4.1
			c1.5-1.6,2.9-3.5,4.2-5.8c0.1-0.3,0.3-0.6,0.6-0.9c0.2-0.2,0.4-0.4,0.8-0.6c0.3-0.2,0.7-0.4,1.2-0.4c0.7,0,1.4,0.2,1.9,0.7
			s0.9,1.1,0.9,1.8c0,0.4,0,0.7-0.2,1c-0.1,0.3-0.3,0.6-0.4,1c-0.2,0.4-0.3,0.8-0.5,1.2c-1.8,3.1-3.9,5.9-6.2,8.3
			c-2,2.1-4.3,4-7,5.7s-5.7,2.7-9,2.8c-5,0.2-9.1-1-12.3-3.4c-3.2-2.5-4.8-5.5-5-9.2c-0.1-2.7,0.2-5.3,0.8-7.8s1.3-4.9,2.1-7.3
			c0.8-2.4,1.4-4.6,2.1-6.8s0.9-4.2,0.8-6.2c0-0.6-0.3-1.1-0.9-1.5c-0.5-0.4-1.2-0.6-1.9-0.5c-2,0.1-4.2,1.1-6.5,3
			c-2.3,2-4.4,4.7-6.3,8.3c-1.9,3.6-3.5,7.9-4.7,13s-1.7,10.7-1.4,17c0,1.1-0.2,1.9-0.6,2.2c-0.5,0.3-1.2,0.5-2.2,0.5
			c-3.5,0.1-6.5-0.4-8.9-1.7s-3.7-2.9-3.8-5c-0.1-3.6,0.1-7.5,0.8-11.6s1.6-8,2.6-11.9c1-3.8,2.1-7.4,3.1-10.6
			c1.1-3.3,2-5.8,2.7-7.7c0.6-1.7,1.8-2.6,3.5-2.6c1,0,2.3,0.3,3.9,1s3.5,2.6,5.6,5.7c1.8-1.6,3.8-3.1,6.1-4.4
			c1.9-1.1,4.1-2.1,6.5-3.1s5.1-1.5,7.9-1.6c1.4-0.1,2.8,0.3,4.2,0.9c1.4,0.6,2.6,1.5,3.7,2.5c1.1,1.1,2,2.2,2.6,3.5
			c0.7,1.3,1,2.6,1.1,3.9c0.1,2-0.2,4.1-0.9,6.4c-0.7,2.2-1.4,4.6-2.1,6.9c-0.8,2.4-1.5,4.8-2.1,7.2
			C226.3,246.2,226,248.6,226.1,251z"/>
		<path class="st7" d="M296,246.1c-1.8,3.1-4.2,5.9-7,8.4c-2.4,2.1-5.4,4-9,5.8s-7.9,2.8-13,3c-3.4,0.1-6.5-0.3-9.3-1.1
			c-2.9-0.9-5.3-2.1-7.4-3.7c-2.1-1.6-3.8-3.6-5-5.9c-1.2-2.3-1.9-4.9-2-7.6c-0.2-5,0.6-9.5,2.3-13.7c1.7-4.1,3.9-7.7,6.6-10.8
			c2.7-3,5.7-5.4,9-7.1c3.3-1.7,6.3-2.6,9.3-2.7c2-0.1,3.9,0.3,5.7,1c1.8,0.7,3.4,1.7,4.8,2.9s2.5,2.6,3.3,4.3
			c0.8,1.6,1.3,3.3,1.3,5.1c0.1,1.6-0.2,3.5-0.9,5.7c-0.6,2.2-1.7,4.4-3.3,6.4c-1.6,2.1-3.7,3.9-6.4,5.4c-2.7,1.5-6.2,2.4-10.3,2.5
			c-1,0-2-0.1-3.1-0.3c-0.6-0.1-1.3-0.2-2-0.3c0.1,3.9,1.4,6.9,3.8,8.9s5.1,3,8.3,2.8c3.1-0.1,5.9-0.8,8.4-2.2s4.6-2.8,6.4-4.3
			c2.1-1.8,3.8-3.9,5.2-6.2c0.1-0.3,0.3-0.6,0.6-0.9c0.2-0.2,0.4-0.4,0.8-0.6c0.3-0.2,0.7-0.4,1.2-0.4c0.7,0,1.4,0.2,2,0.7
			s0.9,1.1,0.9,1.8c0,0.4,0,0.7-0.2,1c-0.1,0.3-0.3,0.6-0.4,1C296.3,245.3,296.1,245.7,296,246.1z M260,238c2.4-0.1,4.6-0.8,6.7-2.2
			s3.9-3,5.3-5c1.5-1.9,2.6-3.9,3.4-5.9s1.2-3.7,1.1-5.1c-0.1-1.7-0.9-2.6-2.5-2.5c-1.9,0.1-3.6,0.9-5.4,2.4
			c-1.7,1.5-3.2,3.4-4.5,5.5s-2.3,4.4-3.1,6.8C260.3,234.3,259.9,236.3,260,238z"/>
		<path class="st7" d="M347,246c-0.1-3,0.1-5.7,0.8-8.1s1.3-4.7,2.1-6.7c0.8-2,1.5-3.9,2.1-5.7s0.9-3.4,0.9-4.9
			c0-0.9-0.3-1.5-0.7-1.9c-0.5-0.4-1-0.6-1.7-0.5c-1.5,0.1-3.5,1.5-6,4.3s-4.7,7-6.7,12.4c-1.8,4.7-3,9-3.8,12.9s-1.1,7.4-1,10.4
			c0,1.1-0.2,1.9-0.6,2.2c-0.5,0.3-1.2,0.5-2.2,0.5c-3.5,0.1-6.5-0.4-9-1.7c-2.4-1.3-3.7-2.9-3.8-5c-0.1-2.7,0.2-5.6,0.9-8.7
			c0.7-3.1,1.5-6.2,2.4-9.2s1.7-5.8,2.4-8.3c0.7-2.6,1-4.6,1-6.2c-0.1-1.8-0.9-2.7-2.5-2.6s-3.4,1-5.4,2.8s-3.9,4.4-5.6,7.8
			s-3.1,7.6-4.1,12.6c-1.1,5-1.5,10.6-1.3,16.8c0,1.1-0.2,1.9-0.6,2.2c-0.5,0.3-1.2,0.5-2.2,0.5c-3.5,0.1-6.5-0.4-9-1.7
			s-3.7-2.9-3.8-5c-0.1-3.8,0.1-7.8,0.8-11.9c0.7-4.1,1.5-8.1,2.6-11.9c1-3.8,2.1-7.3,3.1-10.4c1.1-3.2,2-5.7,2.7-7.5
			c0.6-1.7,1.8-2.6,3.5-2.6c1,0,2.3,0.3,3.9,1s3.5,2.6,5.6,5.7c1.8-1.6,3.7-3.1,5.7-4.4c1.7-1.1,3.7-2.1,5.8-3.1s4.4-1.5,6.6-1.5
			c2.9-0.1,5.2,0.7,7,2.5c1.7,1.8,3.1,4,4.2,6.8c2-1.8,4-3.5,6.2-5.1c1.8-1.3,3.9-2.5,6.2-3.6c2.3-1.1,4.7-1.7,7.2-1.8
			c1.1,0,2.3,0.2,3.5,0.7s2.3,1.2,3.3,2.1c1,0.9,1.8,1.9,2.4,3s0.9,2.2,1,3.4c0.1,1.7-0.3,3.8-1,6.1c-0.8,2.3-1.6,4.7-2.6,7.3
			s-1.8,5.3-2.6,8c-0.7,2.7-1.1,5.4-1,8c0,1.5,0.5,2.7,1.3,3.6s1.8,1.3,3.2,1.3c1.8-0.1,3.5-0.7,5.2-1.9s3.2-2.6,4.4-4.1
			c1.5-1.6,2.9-3.5,4.2-5.8c0.1-0.3,0.3-0.6,0.6-0.9c0.2-0.2,0.4-0.4,0.8-0.6c0.3-0.2,0.7-0.4,1.2-0.4c0.7,0,1.4,0.2,2,0.7
			s0.9,1.1,0.9,1.8c0,0.4,0,0.7-0.2,1c-0.1,0.3-0.3,0.6-0.4,1c-0.2,0.4-0.3,0.8-0.5,1.2c-1.8,3.1-3.9,5.9-6.2,8.3
			c-2,2.1-4.3,4-7,5.7c-2.7,1.8-5.7,2.7-9,2.8c-5,0.2-9.1-1-12.3-3.5C348.9,253.6,347.2,250.2,347,246z"/>
		<path class="st7" d="M442.1,247.8c-1.4,1.8-2.9,3.4-4.5,4.7c-1.4,1.3-3,2.4-4.7,3.4c-1.8,1-3.6,1.5-5.6,1.6
			c-3.7,0.1-6.9-0.7-9.5-2.5s-4.2-4.5-4.8-8.1c-1.7,2.2-3.5,4.2-5.5,5.8c-1.7,1.5-3.7,2.8-5.8,4c-2.2,1.2-4.5,1.9-7.1,2
			c-1.8,0.1-3.5-0.2-5.1-0.8c-1.7-0.6-3.1-1.5-4.3-2.6c-1.2-1.2-2.2-2.6-3-4.2c-0.8-1.6-1.2-3.4-1.3-5.4c-0.2-4.7,0.6-9.4,2.2-14.1
			c1.6-4.7,3.9-8.9,6.6-12.7c2.8-3.8,5.9-6.9,9.5-9.3s7.1-3.6,10.7-3.8c2.6-0.1,4.9,0.1,6.8,0.7c1.9,0.6,3.4,1.3,4.6,2
			c1.4,0.9,2.5,1.9,3.3,2.9c1,0,2,0,3.1,0.2s2.1,0.5,3.1,0.9s1.7,1.1,2.4,1.8c0.6,0.8,1,1.7,1,2.8c0,1-0.3,2.5-1,4.7
			s-1.5,4.6-2.4,7.3s-1.7,5.5-2.4,8.3c-0.7,2.9-1,5.4-0.9,7.5c0,1,0.4,1.9,1.1,2.6c0.7,0.7,1.6,1,2.8,0.9c0.7,0,1.4-0.3,2.1-0.7
			c0.7-0.5,1.4-1,2.1-1.5c0.8-0.6,1.5-1.4,2.2-2.3c0.3-0.4,0.7-0.9,1.1-1.3c0.4-0.4,1-0.6,1.6-0.6c0.7,0,1.4,0.3,2,0.8
			c0.6,0.6,1,1.2,1,1.9c0,0.5-0.2,1.1-0.7,1.9C442.5,247.1,442.3,247.4,442.1,247.8z M418,218.6c-0.1-1.9-0.6-3.3-1.5-4.2
			c-1-0.9-2.1-1.3-3.4-1.3c-1.9,0.1-3.9,1.1-5.9,3.2c-2,2.1-3.7,4.6-5.2,7.6s-2.8,6.2-3.7,9.6c-0.9,3.4-1.4,6.5-1.3,9.2
			c0.1,3.9,1.5,5.8,4,5.7c1.6-0.1,3.4-1.2,5.4-3.3s3.9-4.8,5.6-7.9c1.8-3.1,3.2-6.4,4.4-9.8C417.5,224.1,418,221.1,418,218.6z"/>
	</g>
</g>
<g>
	<g>
		<path class="st8" d="M115.7,262c-4.2,0.1-8.3-0.3-12.4-1.5c-4.1-1.1-7.8-2.9-11.1-5.4s-6.1-5.6-8.2-9.5c-2.2-3.9-3.4-8.6-3.6-14
			c-0.1-2.4,0-4.9,0.3-7.3c0.3-2.4,0.7-4.9,1.3-7.4c-4-0.8-7.6-1.9-10.7-3.3c-3.2-1.4-5.9-3-8.1-4.8c-2.3-1.8-4-3.7-5.3-5.8
			c-1.2-2.1-1.9-4.1-2-6.2c-0.1-3.6,0.9-7.1,3-10.3s4.7-6,7.7-8.4s6-4.3,9.2-5.7c3.1-1.4,5.6-2.2,7.5-2.2c1.5-0.1,2.3,0.4,2.3,1.4
			c0,0.6-0.2,1.1-0.6,1.5s-1,0.9-1.8,1.5c-0.9,0.7-2,1.6-3.2,2.7c-1.2,1-2.2,2.3-3.3,3.8s-1.8,3.2-2.5,5.2s-0.9,4.3-0.8,7
			c0.1,2.9,0.9,5.7,2.5,8.5s4.4,5,8.7,6.6c2.3-6,5.3-11.7,9-17.1c3.7-5.4,7.8-10.2,12.2-14.3c4.4-4.1,9-7.4,13.7-9.9
			s9.2-3.8,13.5-3.9c2.6-0.1,5.2,0.4,7.6,1.6c2.4,1.1,4.4,2.6,6.2,4.4s3.1,3.7,4.2,5.8c1.1,2.1,1.6,4.1,1.7,5.9
			c0.1,3.4-1,7.2-3.4,11.4s-5.8,8.1-10.3,11.9s-10,6.9-16.5,9.6c-6.5,2.7-13.8,4.2-22.1,4.7c-0.9,4.5-1.3,8.9-1.1,13.2
			c0.3,8.4,2.2,14.3,5.8,17.8c3.5,3.5,8.5,5.1,14.8,4.9c2.4-0.1,4.8-0.6,7.1-1.4c2.4-0.9,4.6-2,6.8-3.4s4.3-3,6.1-4.9
			c1.9-1.9,3.5-3.8,5-5.9c0.1-0.3,0.3-0.6,0.6-0.9c0.2-0.2,0.4-0.4,0.8-0.6c0.3-0.2,0.7-0.4,1.2-0.4c0.8,0,1.5,0.2,2,0.7
			s0.8,1.1,0.9,1.8c0,0.4,0,0.7-0.2,1c-0.1,0.3-0.3,0.6-0.4,1s-0.3,0.8-0.5,1.2c-1.4,2.3-3.2,4.6-5.3,6.9s-4.6,4.3-7.5,6.2
			s-6,3.4-9.4,4.6C123.6,261.1,119.8,261.8,115.7,262z M134.8,171.8c-2.9,0.1-5.9,1.2-9,3.3s-6.1,4.9-9.1,8.5
			c-2.9,3.6-5.6,7.6-8.1,12.2c-2.5,4.6-4.5,9.4-6.1,14.4c6-0.4,11.4-1.8,16.1-4.2s8.7-5.3,12-8.6s5.7-6.9,7.3-10.6
			c1.6-3.7,2.4-7.1,2.3-10.3c-0.1-1.5-0.5-2.7-1.5-3.5C137.8,172.2,136.5,171.8,134.8,171.8z"/>
		<path class="st8" d="M160.2,244.2c0.1,1.5,0.5,2.7,1.3,3.6s1.8,1.3,3.2,1.3c1.8-0.1,3.5-0.7,5.2-1.9s3.2-2.6,4.4-4.1
			c1.5-1.6,2.9-3.5,4.2-5.8c0.1-0.3,0.3-0.6,0.6-0.9c0.2-0.2,0.4-0.4,0.8-0.6c0.3-0.2,0.7-0.4,1.2-0.4c0.7,0,1.4,0.2,1.9,0.7
			c0.6,0.5,0.9,1.1,0.9,1.8c0,0.4,0,0.7-0.2,1c-0.1,0.3-0.3,0.6-0.4,1c-0.2,0.4-0.3,0.8-0.5,1.2c-1.8,3.1-3.9,5.9-6.2,8.3
			c-2,2.1-4.3,4-7,5.7c-2.7,1.8-5.7,2.7-9,2.8c-5,0.2-9.1-1-12.3-3.5s-4.9-5.9-5-10.2c-0.1-2.4,0.2-5.2,0.9-8.5s1.5-6.7,2.4-10.1
			s1.9-6.7,3-9.8s2-5.6,2.7-7.4c0.3-0.7,0.8-1.3,1.4-1.8s1.3-0.8,2.1-0.8c1,0,2.1,0.2,3.4,0.8c1.3,0.6,2.4,1.2,3.5,2
			c1.1,0.7,2,1.5,2.7,2.3s1.1,1.5,1.1,2c0.1,2-0.3,4.2-1,6.5s-1.5,4.8-2.3,7.5s-1.6,5.4-2.2,8.4C160.4,238,160.1,241.1,160.2,244.2z
			 M177,180.8c0.1,1.7-0.2,3.4-0.7,5.1c-0.5,1.6-1.3,3.1-2.2,4.4s-2.1,2.3-3.3,3.1c-1.3,0.8-2.6,1.2-4,1.3c-1.9,0.1-3.6-0.5-5.1-1.8
			s-2.2-3.1-2.3-5.4c-0.1-1.6,0.2-3.3,0.8-4.9s1.3-3,2.3-4.3s2.1-2.3,3.4-3.1c1.3-0.8,2.7-1.2,4.2-1.3c1.9-0.1,3.6,0.5,4.9,1.8
			C176.3,176.9,176.9,178.6,177,180.8z"/>
		<path class="st8" d="M225,241.9c0.1,1.5,0.5,2.7,1.3,3.6s1.8,1.3,3.2,1.3c1.8-0.1,3.5-0.7,5.2-1.9s3.2-2.6,4.4-4.1
			c1.5-1.6,2.9-3.5,4.2-5.8c0.1-0.3,0.3-0.6,0.6-0.9c0.2-0.2,0.4-0.4,0.8-0.6c0.3-0.2,0.7-0.4,1.2-0.4c0.7,0,1.4,0.2,1.9,0.7
			s0.9,1.1,0.9,1.8c0,0.4,0,0.7-0.2,1c-0.1,0.3-0.3,0.6-0.4,1c-0.2,0.4-0.3,0.8-0.5,1.2c-1.8,3.1-3.9,5.9-6.2,8.3
			c-2,2.1-4.3,4-7,5.7c-2.7,1.8-5.7,2.7-9,2.8c-5,0.2-9.1-1-12.3-3.4s-4.8-5.5-5-9.2c-0.1-2.7,0.2-5.3,0.8-7.8s1.3-4.9,2.1-7.3
			c0.8-2.4,1.4-4.6,2.1-6.8s0.9-4.2,0.8-6.2c0-0.6-0.3-1.1-0.9-1.5c-0.5-0.4-1.2-0.6-1.9-0.5c-2,0.1-4.2,1.1-6.5,3
			c-2.3,2-4.4,4.7-6.3,8.3c-1.9,3.6-3.5,7.9-4.7,13s-1.7,10.7-1.4,17c0,1.1-0.2,1.9-0.6,2.2c-0.5,0.3-1.2,0.5-2.2,0.5
			c-3.5,0.1-6.5-0.4-8.9-1.7s-3.7-2.9-3.8-5c-0.1-3.6,0.1-7.5,0.8-11.6s1.6-8,2.6-11.9c1-3.8,2.1-7.4,3.1-10.6
			c1.1-3.3,2-5.8,2.7-7.7c0.6-1.7,1.8-2.6,3.5-2.6c1,0,2.3,0.3,3.9,1s3.5,2.6,5.6,5.7c1.8-1.6,3.8-3.1,6.1-4.4
			c1.9-1.1,4.1-2.1,6.5-3.1s5.1-1.5,7.9-1.6c1.4-0.1,2.8,0.3,4.2,0.9c1.4,0.6,2.6,1.5,3.7,2.5c1.1,1.1,2,2.2,2.6,3.5
			c0.7,1.3,1,2.6,1.1,3.9c0.1,2-0.2,4.1-0.9,6.4c-0.7,2.2-1.4,4.6-2.1,6.9c-0.8,2.4-1.5,4.8-2.1,7.2
			C225.2,237.1,224.9,239.5,225,241.9z"/>
		<path class="st8" d="M294.9,237c-1.8,3.1-4.2,5.9-7,8.4c-2.4,2.1-5.4,4-9,5.8s-7.9,2.8-13,2.9c-3.4,0.1-6.5-0.3-9.3-1.1
			c-2.9-0.9-5.3-2.1-7.4-3.7c-2.1-1.6-3.8-3.6-5-5.9c-1.2-2.3-1.9-4.9-2-7.6c-0.2-5,0.6-9.5,2.3-13.7c1.7-4.1,3.9-7.7,6.6-10.8
			c2.7-3,5.7-5.4,9-7.1c3.3-1.7,6.3-2.6,9.3-2.7c2-0.1,3.9,0.3,5.7,1c1.8,0.7,3.4,1.7,4.8,2.9s2.5,2.6,3.3,4.3
			c0.8,1.6,1.3,3.3,1.3,5.1c0.1,1.6-0.2,3.5-0.9,5.7c-0.6,2.2-1.7,4.4-3.3,6.4c-1.6,2.1-3.7,3.9-6.4,5.4c-2.7,1.5-6.2,2.4-10.3,2.5
			c-1,0-2-0.1-3.1-0.3c-0.6-0.1-1.3-0.2-2-0.3c0.1,3.9,1.4,6.9,3.8,8.9s5.1,2.9,8.3,2.8c3.1-0.1,5.9-0.8,8.4-2.2s4.6-2.8,6.4-4.3
			c2.1-1.8,3.8-3.9,5.2-6.2c0.1-0.3,0.3-0.6,0.6-0.9c0.2-0.2,0.4-0.4,0.8-0.6c0.3-0.2,0.7-0.4,1.2-0.4c0.7,0,1.4,0.2,2,0.7
			s0.9,1.1,0.9,1.8c0,0.4,0,0.7-0.2,1c-0.1,0.3-0.3,0.6-0.4,1C295.2,236.1,295,236.6,294.9,237z M258.9,228.9
			c2.4-0.1,4.6-0.8,6.7-2.2s3.9-3,5.3-5c1.5-1.9,2.6-3.9,3.4-5.9s1.2-3.7,1.1-5.1c-0.1-1.7-0.9-2.6-2.5-2.5
			c-1.9,0.1-3.6,0.9-5.4,2.4c-1.7,1.5-3.2,3.4-4.5,5.5s-2.3,4.4-3.1,6.8C259.2,225.2,258.8,227.2,258.9,228.9z"/>
		<path class="st8" d="M346,236.9c-0.1-3,0.1-5.7,0.8-8.1s1.3-4.7,2.1-6.7c0.8-2,1.5-3.9,2.1-5.7s0.9-3.4,0.9-4.9
			c0-0.9-0.3-1.5-0.7-1.9c-0.5-0.4-1-0.6-1.7-0.5c-1.5,0.1-3.5,1.5-6,4.3s-4.7,7-6.7,12.4c-1.8,4.7-3,9-3.8,12.9s-1.1,7.4-1,10.4
			c0,1.1-0.2,1.9-0.6,2.2c-0.5,0.3-1.2,0.5-2.2,0.5c-3.5,0.1-6.5-0.4-9-1.7c-2.4-1.3-3.7-2.9-3.8-5c-0.1-2.7,0.2-5.6,0.9-8.7
			c0.7-3.1,1.5-6.2,2.4-9.2s1.7-5.8,2.4-8.3c0.7-2.6,1-4.6,1-6.2c-0.1-1.8-0.9-2.7-2.5-2.6s-3.4,1-5.4,2.8s-3.9,4.4-5.6,7.8
			s-3.1,7.6-4.1,12.6c-1.1,5-1.5,10.6-1.3,16.8c0,1.1-0.2,1.9-0.6,2.2c-0.5,0.3-1.2,0.5-2.2,0.5c-3.5,0.1-6.5-0.4-9-1.7
			s-3.7-2.9-3.8-5c-0.1-3.8,0.1-7.8,0.8-11.9c0.7-4.1,1.5-8.1,2.6-11.9c1-3.8,2.1-7.3,3.1-10.4c1.1-3.2,2-5.7,2.7-7.5
			c0.6-1.7,1.8-2.6,3.5-2.6c1,0,2.3,0.3,3.9,1s3.5,2.6,5.6,5.7c1.8-1.6,3.7-3.1,5.7-4.4c1.7-1.1,3.7-2.1,5.8-3.1s4.4-1.5,6.6-1.5
			c2.9-0.1,5.2,0.7,7,2.5c1.7,1.8,3.1,4,4.2,6.8c2-1.8,4-3.5,6.2-5.1c1.8-1.3,3.9-2.5,6.2-3.6c2.3-1.1,4.7-1.7,7.2-1.8
			c1.1,0,2.3,0.2,3.5,0.7s2.3,1.2,3.3,2.1c1,0.9,1.8,1.9,2.4,3s0.9,2.2,1,3.4c0.1,1.7-0.3,3.8-1,6.1c-0.8,2.3-1.6,4.7-2.6,7.3
			s-1.8,5.3-2.6,8c-0.7,2.7-1.1,5.4-1,8c0,1.5,0.5,2.7,1.3,3.6s1.8,1.3,3.2,1.3c1.8-0.1,3.5-0.7,5.2-1.9s3.2-2.6,4.4-4.1
			c1.5-1.6,2.9-3.5,4.2-5.8c0.1-0.3,0.3-0.6,0.6-0.9c0.2-0.2,0.4-0.4,0.8-0.6c0.3-0.2,0.7-0.4,1.2-0.4c0.7,0,1.4,0.2,2,0.7
			s0.9,1.1,0.9,1.8c0,0.4,0,0.7-0.2,1c-0.1,0.3-0.3,0.6-0.4,1c-0.2,0.4-0.3,0.8-0.5,1.2c-1.8,3.1-3.9,5.9-6.2,8.3
			c-2,2.1-4.3,4-7,5.7c-2.7,1.8-5.7,2.7-9,2.8c-5,0.2-9.1-1-12.3-3.5C347.8,244.5,346.1,241.1,346,236.9z"/>
		<path class="st8" d="M441,238.7c-1.4,1.8-2.9,3.4-4.5,4.7c-1.4,1.3-3,2.4-4.7,3.4c-1.8,1-3.6,1.5-5.6,1.6
			c-3.7,0.1-6.9-0.7-9.5-2.5s-4.2-4.5-4.8-8.1c-1.7,2.2-3.5,4.2-5.5,5.8c-1.7,1.5-3.7,2.8-5.8,4c-2.2,1.2-4.5,1.9-7.1,1.9
			c-1.8,0.1-3.5-0.2-5.1-0.8c-1.7-0.6-3.1-1.5-4.3-2.6s-2.2-2.6-3-4.2c-0.8-1.6-1.2-3.4-1.3-5.4c-0.2-4.7,0.6-9.4,2.2-14.1
			c1.6-4.7,3.9-8.9,6.6-12.7c2.8-3.8,5.9-6.9,9.5-9.3s7.1-3.6,10.7-3.8c2.6-0.1,4.9,0.1,6.8,0.7c1.9,0.6,3.4,1.3,4.6,2
			c1.4,0.9,2.5,1.9,3.3,2.9c1,0,2,0,3.1,0.2s2.1,0.5,3.1,0.9s1.7,1.1,2.4,1.8c0.6,0.8,1,1.7,1,2.8c0,1-0.3,2.5-1,4.7
			s-1.5,4.6-2.4,7.3s-1.7,5.5-2.4,8.3c-0.7,2.9-1,5.4-0.9,7.5c0,1,0.4,1.9,1.1,2.6c0.7,0.7,1.6,1,2.8,0.9c0.7,0,1.4-0.3,2.1-0.7
			c0.7-0.5,1.4-1,2.1-1.5c0.8-0.6,1.5-1.4,2.2-2.3c0.3-0.4,0.7-0.9,1.1-1.3c0.4-0.4,1-0.6,1.6-0.6c0.7,0,1.4,0.3,2,0.8
			c0.6,0.6,1,1.2,1,1.9c0,0.5-0.2,1.1-0.7,1.9C441.4,238,441.2,238.3,441,238.7z M416.9,209.5c-0.1-1.9-0.6-3.3-1.5-4.2
			c-1-0.9-2.1-1.3-3.4-1.3c-1.9,0.1-3.9,1.1-5.9,3.2c-2,2.1-3.7,4.6-5.2,7.6s-2.8,6.2-3.7,9.6c-0.9,3.4-1.4,6.5-1.3,9.2
			c0.1,3.9,1.5,5.8,4,5.7c1.6-0.1,3.4-1.2,5.4-3.3s3.9-4.8,5.6-7.9c1.8-3.1,3.2-6.4,4.4-9.8C416.4,215,417,212,416.9,209.5z"/>
	</g>
</g>
<path class="st9" d="M231.5,405.1v2.4h-2.1c-1.6,0-6.6,0.8-6.6,2.4v0.4h-1.9l-5.1-3c-0.2-0.1-0.4,0-0.6,0.1l-2.8,0.1l0,0
	c-0.1,0-0.3-0.1-0.4,0c-0.1,0.1-0.2,0.1-0.2,0.2l-0.1,14.4c0,0.1,0,0.3,0.1,0.4s0.2,0.1,0.3,0.1h2.9c0.1,0-0.1,0-0.1,0
	c0.1,0-0.3,0-0.2,0l6-2.9h1.9v24.1c0,1.6,5,5.6,6.6,5.6h15.9V447c0,1,1.9,1.8,2.7,2.3l-11.1,31.1c-0.5,1.3-0.1,2.8,1.3,3.3
	c0.3,0.1,0.2,0.2,0.6,0.2c1,0,1.2-0.6,1.6-1.6l10.2-29.3v28.9c0,1.4,2,2.5,3.5,2.5s3.5-1.1,3.5-2.5V453l12.5,29.3
	c0.4,1,2,1.6,3.1,1.6c0.3,0,0.4,0,0.7-0.2c1.3-0.5,1.6-2,1-3.3l-13.4-31.1c0.8-0.5-0.4-1.3-0.4-2.3v2.4h22.4c1.6,0,0.1-4,0.1-5.6
	v-10L294,434l12.7,5.5c0.1,0,0.1,0.5,0.2,0.5v0.9l0,0h5.1l0,0c0.1,0,0.3-0.9,0.4-1s0.2-1,0.2-1.2v-25.1c0-0.3-0.2-0.2-0.5-0.2
	L307,414l0,0c-0.1,0-0.3,0.1-0.4,0.2v0.1l-11,6.4h-12.3v-11c0-1.6,1.5-2.4-0.1-2.4h-8.5v-1.7c3.5,0.5,7,0.9,9.4,0.9
	c16.3,0,31.9-12.7,31.9-28.4c0-15.7-13.3-28.4-29.5-28.4c-16.3,0-29.5,13.1-29.5,28.8c0,1.6,0.1,3.6,0.4,5.3h-4c0,0-0.2-0.4-0.3,0
	c0.4-1.7,0.4-4.1,0.4-6c0-15.7-13.4-28.5-29.6-28.5c-16.3,0-29.8,12.8-29.8,28.5s12.6,28.5,28.9,28.5
	C226.5,406.7,226.3,406.1,231.5,405.1z M205.7,389.1c0-0.9,0.2-1.7,0.5-2.5c1-2.5,3.5-4.3,6.5-4.3c3.9,0,7,3,7,6.8
	c0,1.6-0.6,3.1-1.6,4.3c-1.3,1.5-3.3,2.5-5.5,2.5C208.9,395.9,205.7,392.8,205.7,389.1z M202.8,366c3.9,0,7,3,7,6.8s-3.2,6.8-7,6.8
	c-0.2,0-0.5,0-0.7,0c-3.5-0.4-6.3-3.2-6.3-6.7c0-1,0.3-2,0.7-3c0.7-1.4,1.9-2.5,3.4-3.2c0.8-0.3,1.6-0.5,2.4-0.6
	C202.4,366,202.6,366,202.8,366z M219.8,357.7c0,3.1-2.1,5.8-5.2,6.5c-2.1,0.5-4.2,0.1-5.8-1c-1.3-0.9-2.1-2.1-2.6-3.4
	c-0.2-0.6-0.4-1.4-0.4-2.1c0-3.7,3.1-6.8,7-6.8c2,0,3.8,0.8,5.1,2.1C219.1,354.2,219.8,355.9,219.8,357.7z M303.9,379.8
	c-3.9,0-7-3-7-6.8c0-0.2,0-0.4,0-0.6c0.3-3.5,3.3-6.1,7-6.1c0.3,0,0.6,0,0.9,0c3.5,0.5,6.1,3.3,6.1,6.7c0,0.2,0,0.4,0,0.6
	c-0.2,1.7-1,3.3-2.3,4.4c-1,0.9-2.3,1.5-3.7,1.7C304.5,379.7,304.2,379.8,303.9,379.8z M287,389.1c0-3.7,3.1-6.8,7-6.8
	c3.1,0,5.7,1.9,6.6,4.5c0.3,0.7,0.4,1.5,0.4,2.2c0,3.7-3.1,6.8-7,6.8c-2.2,0-4.1-1-5.4-2.5C287.6,392.2,287,390.7,287,389.1z
	 M287,357.8c0-1.9,0.8-3.5,2-4.8c1.3-1.2,3.1-2,5-2c3.9,0,7,3,7,6.8c0,0.6-0.1,1.3-0.3,1.9c-0.8,2.8-3.5,4.9-6.7,4.9
	C290.1,364.5,287,361.5,287,357.8z M265.1,366c3.9,0,7,3,7,6.8s-3.2,6.8-7,6.8c-0.2,0-0.5,0-0.7,0c-3.5-0.4-6.3-3.2-6.3-6.7
	c0-1,0.3-2,0.7-3c0.7-1.4,1.9-2.5,3.4-3.2c0.8-0.3,1.6-0.5,2.4-0.6C264.8,366,265,366,265.1,366z M282.1,357.7
	c0,3.1-2.1,5.8-5.2,6.5c-2.1,0.5-4.2,0.1-5.8-1c-1.3-0.9-2.1-2.1-2.6-3.4c-0.2-0.6-0.4-1.4-0.4-2.1c0-3.7,3.1-6.8,7-6.8
	c2,0,3.8,0.8,5.1,2.1C281.4,354.2,282.1,355.9,282.1,357.7z M275,395.9c-3.8,0-7-3-7-6.8c0-0.9,0.2-1.7,0.5-2.5
	c1-2.5,3.5-4.3,6.5-4.3c3.9,0,7,3,7,6.8c0,1.6-0.6,3.1-1.6,4.3C279.2,394.9,277.2,395.9,275,395.9z M224.6,389.1
	c0-3.7,3.1-6.8,7-6.8c3.1,0,5.7,1.9,6.6,4.5c0.3,0.7,0.4,1.5,0.4,2.2c0,3.7-3.1,6.8-7,6.8c-2.2,0-4.1-1-5.4-2.5
	C225.2,392.2,224.6,390.7,224.6,389.1z M238.6,357.8c0,0.6-0.1,1.3-0.3,1.9c-0.8,2.8-3.5,4.9-6.7,4.9c-3.9,0-7-3-7-6.8
	c0-1.9,0.8-3.5,2-4.8c1.3-1.2,3.1-2,5-2C235.5,351,238.6,354,238.6,357.8z M248.5,373c0,0.2,0,0.4,0,0.6c-0.2,1.7-1,3.3-2.3,4.4
	c-1,0.9-2.3,1.5-3.7,1.7c-0.3,0-0.7,0.1-1,0.1c-3.9,0-7-3-7-6.8c0-0.2,0-0.4,0-0.6c0.3-3.5,3.3-6.1,7-6.1c0.3,0,0.6,0,0.9,0
	C245.9,366.7,248.5,369.5,248.5,373z"/>
<path d="M225.06,399.05v2.31h-2.02c-1.54,0-6.36,0.77-6.36,2.31v0.39h-1.83l-4.91-2.89c-0.19-0.1-0.39,0-0.58,0.1l-2.7,0.1l0,0
	c-0.1,0-0.29-0.1-0.39,0s-0.19,0.1-0.19,0.19l-0.1,13.87c0,0.1,0,0.29,0.1,0.39s0.19,0.1,0.29,0.1h2.79c0.1,0-0.1,0-0.1,0
	c0.1,0-0.29,0-0.19,0l5.78-2.79h1.83v23.22c0,1.54,4.82,5.39,6.36,5.39h15.32v-2.31c0,0.96,1.83,1.73,2.6,2.22l-10.69,29.96
	c-0.48,1.25-0.1,2.7,1.25,3.18c0.29,0.1,0.19,0.19,0.58,0.19c0.96,0,1.16-0.58,1.54-1.54l9.83-28.23v27.84
	c0,1.35,1.93,2.41,3.37,2.41c1.45,0,3.37-1.06,3.37-2.41V445.2l11.95,28.23c0.39,0.96,1.93,1.54,2.99,1.54c0.29,0,0.39,0,0.67-0.19
	c1.25-0.48,1.54-1.93,0.96-3.18l-12.91-29.96c0.77-0.48-0.39-1.25-0.39-2.22v2.31h21.58c1.54,0,0.1-3.85,0.1-5.39v-9.63l10.21,0.19
	l12.23,5.3c0.1,0,0.1,0.48,0.19,0.48v0.87l0,0h4.91l0,0c0.1,0,0.29-0.87,0.39-0.96c0.1-0.1,0.19-0.96,0.19-1.16v-24.18
	c0-0.29-0.19-0.19-0.48-0.19l-4.91,0.58l0,0c-0.1,0-0.29,0.1-0.39,0.19v0.1l-10.6,6.17h-11.85v-10.6c0-1.54,1.45-2.31-0.1-2.31
	h-8.19v-1.64c3.37,0.48,6.74,0.87,9.06,0.87c15.7,0,30.73-12.23,30.73-27.36s-12.81-27.36-28.42-27.36
	c-15.7,0-28.42,12.62-28.42,27.74c0,1.54,0.1,3.47,0.39,5.11h-3.85c0,0-0.19-0.39-0.29,0c0.39-1.64,0.39-3.95,0.39-5.78
	c0-15.12-12.91-27.45-28.51-27.45c-15.7,0-28.71,12.33-28.71,27.45s12.14,27.45,27.84,27.45
	C220.24,400.6,220.05,400.02,225.06,399.05z M202.23,388.46c0-0.87,0.19-1.64,0.48-2.41c0.96-2.41,3.37-4.14,6.26-4.14
	c3.76,0,6.74,2.89,6.74,6.55c0,1.54-0.58,2.99-1.54,4.14c-1.25,1.45-3.18,2.41-5.3,2.41C205.22,395.01,202.23,392.02,202.23,388.46z
	 M199.34,366.2c3.76,0,6.74,2.89,6.74,6.55s-3.08,6.55-6.74,6.55c-0.19,0-0.48,0-0.67,0c-3.37-0.39-6.07-3.08-6.07-6.45
	c0-0.96,0.29-1.93,0.67-2.89c0.67-1.35,1.83-2.41,3.28-3.08c0.77-0.29,1.54-0.48,2.31-0.58C199.05,366.2,199.24,366.2,199.34,366.2z
	 M215.72,358.21c0,2.99-2.02,5.59-5.01,6.26c-2.02,0.48-4.05,0.1-5.59-0.96c-1.25-0.87-2.02-2.02-2.5-3.28
	c-0.19-0.58-0.39-1.35-0.39-2.02c0-3.56,2.99-6.55,6.74-6.55c1.93,0,3.66,0.77,4.91,2.02C215.04,354.84,215.72,356.47,215.72,358.21
	z M296.73,379.5c-3.76,0-6.74-2.89-6.74-6.55c0-0.19,0-0.39,0-0.58c0.29-3.37,3.18-5.88,6.74-5.88c0.29,0,0.58,0,0.87,0
	c3.37,0.48,5.88,3.18,5.88,6.45c0,0.19,0,0.39,0,0.58c-0.19,1.64-0.96,3.18-2.22,4.24c-0.96,0.87-2.22,1.45-3.56,1.64
	C297.41,379.4,297.02,379.5,296.73,379.5z M280.45,388.46c0-3.56,2.99-6.55,6.74-6.55c2.99,0,5.49,1.83,6.36,4.33
	c0.29,0.67,0.39,1.44,0.39,2.12c0,3.56-2.99,6.55-6.74,6.55c-2.12,0-3.95-0.96-5.2-2.41C281.03,391.44,280.45,390,280.45,388.46z
	 M280.45,358.3c0-1.83,0.77-3.37,1.93-4.62c1.25-1.16,2.99-1.93,4.82-1.93c3.76,0,6.74,2.89,6.74,6.55c0,0.58-0.1,1.25-0.29,1.83
	c-0.77,2.7-3.37,4.72-6.45,4.72C283.44,364.76,280.45,361.87,280.45,358.3z M259.45,366.2c3.76,0,6.74,2.89,6.74,6.55
	s-3.08,6.55-6.74,6.55c-0.19,0-0.48,0-0.67,0c-3.37-0.39-6.07-3.08-6.07-6.45c0-0.96,0.29-1.93,0.67-2.89
	c0.67-1.35,1.83-2.41,3.28-3.08c0.77-0.29,1.54-0.48,2.31-0.58C259.07,366.2,259.26,366.2,259.45,366.2z M275.83,358.21
	c0,2.99-2.02,5.59-5.01,6.26c-2.02,0.48-4.05,0.1-5.59-0.96c-1.25-0.87-2.02-2.02-2.5-3.28c-0.19-0.58-0.39-1.35-0.39-2.02
	c0-3.56,2.99-6.55,6.74-6.55c1.93,0,3.66,0.77,4.91,2.02C275.15,354.84,275.83,356.47,275.83,358.21z M268.99,395.01
	c-3.66,0-6.74-2.89-6.74-6.55c0-0.87,0.19-1.64,0.48-2.41c0.96-2.41,3.37-4.14,6.26-4.14c3.76,0,6.74,2.89,6.74,6.55
	c0,1.54-0.58,2.99-1.54,4.14C273.03,394.04,271.11,395.01,268.99,395.01z M220.44,388.46c0-3.56,2.99-6.55,6.74-6.55
	c2.99,0,5.49,1.83,6.36,4.33c0.29,0.67,0.39,1.44,0.39,2.12c0,3.56-2.99,6.55-6.74,6.55c-2.12,0-3.95-0.96-5.2-2.41
	C220.92,391.44,220.44,390,220.44,388.46z M233.92,358.3c0,0.58-0.1,1.25-0.29,1.83c-0.77,2.7-3.37,4.72-6.45,4.72
	c-3.76,0-6.74-2.89-6.74-6.55c0-1.83,0.77-3.37,1.93-4.62c1.25-1.16,2.99-1.93,4.82-1.93C230.84,351.75,233.92,354.64,233.92,358.3z
	 M243.46,372.95c0,0.19,0,0.39,0,0.58c-0.19,1.64-0.96,3.18-2.22,4.24c-0.96,0.87-2.22,1.45-3.56,1.64c-0.29,0-0.67,0.1-0.96,0.1
	c-3.76,0-6.74-2.89-6.74-6.55c0-0.19,0-0.39,0-0.58c0.29-3.37,3.18-5.88,6.74-5.88c0.29,0,0.58,0,0.87,0
	C240.86,366.88,243.46,369.58,243.46,372.95z"/>
</svg>
