<?xml version="1.0" encoding="utf-8"?>
<!-- Generator: Adobe Illustrator 24.0.0, SVG Export Plug-In . SVG Version: 6.00 Build 0)  -->
<svg version="1.1" id="Calque_1" xmlns="http://www.w3.org/2000/svg" xmlns:xlink="http://www.w3.org/1999/xlink" x="0px" y="0px"
	 viewBox="0 0 510 510" style="enable-background:new 0 0 510 510;" xml:space="preserve">
<style type="text/css">
	.st0{fill:#FCF8F0;}
	.st1{opacity:0.26;}
	.st2{fill:none;stroke:#000000;stroke-width:4;stroke-linecap:round;stroke-linejoin:round;stroke-dasharray:1.0019,20.0376;}
	.st3{opacity:0.26;fill:none;stroke:#000000;stroke-miterlimit:10;enable-background:new    ;}
	.st4{fill:none;stroke:#000000;stroke-miterlimit:10;}
	.st5{fill:#D3D2D1;}
	.st6{fill:#A51F1E;}
	.st7{fill:#C9C8C7;}
</style>
<polygon points="-86.9,-41.1 634,-42.3 634,566.6 -86.9,567.8 "/>
<g id="BACKGROUND">
</g>
<circle cx="254.8" cy="253.8" r="254"/>
<circle class="st0" cx="255" cy="253.8" r="224"/>
<g class="st1">
	<circle class="st0" cx="255.4" cy="260.4" r="197.6"/>
	<circle class="st2" cx="254.8" cy="259.8" r="197.6"/>
</g>
<path class="st3" d="M430.1,291.4c-13.2,82.7-87,145.2-175.3,145.2c-88.4,0-161.8-63.1-175.4-145.7"/>
<path class="st3" d="M81.4,285.2"/>
<g>
	<g>
		<path d="M122.4,304.4c1.9,1,3.4,2.5,4.4,4.3c1.1,1.9,1.6,3.9,1.6,6.3c0,2.4-0.5,4.5-1.6,6.2c-1.1,1.9-2.5,3.2-4.4,4.3
			c-2,1-4.1,1.6-6.6,1.6h-9v-24h9C118.2,302.9,120.5,303.4,122.4,304.4z M120.6,320c1.3-1.2,1.9-2.9,1.9-5.2s-0.6-4-1.9-5.2
			c-1.3-1.3-2.9-1.9-5.2-1.9h-2.8v14h2.8C117.5,321.8,119.3,321.2,120.6,320z"/>
		<path d="M141.1,302.9h6l-3.8,9.1h-4L141.1,302.9z"/>
		<path d="M173.8,322.7h-8.9l-1.5,4.3h-6.1l8.6-24h6.8l8.6,24h-6.1L173.8,322.7z M172.2,318.1l-3-8.8l-2.9,8.8H172.2z"/>
		<path d="M198,302.9v14.4c0,1.5,0.4,2.5,1.1,3.3c0.7,0.8,1.8,1.2,3.1,1.2c1.3,0,2.5-0.4,3.1-1.2c0.8-0.8,1.1-1.9,1.1-3.3v-14.4h5.8
			v14.4c0,2.2-0.5,4-1.4,5.4c-0.9,1.5-2.2,2.6-3.7,3.4c-1.5,0.8-3.3,1.2-5.2,1.2c-1.9,0-3.6-0.4-5.1-1.1c-1.5-0.8-2.7-1.9-3.5-3.4
			c-0.9-1.5-1.3-3.3-1.3-5.4V303L198,302.9L198,302.9z"/>
		<path d="M241.8,302.9v4.7h-6.4v19.3h-5.7v-19.3h-6.4v-4.7H241.8z"/>
		<path d="M265.2,326.8l-5-9h-1.4v9H253v-24h9.8c1.9,0,3.5,0.3,4.9,1c1.4,0.7,2.4,1.6,3,2.7c0.7,1.2,1,2.5,1,3.9
			c0,1.6-0.5,3-1.4,4.3c-0.9,1.3-2.3,2.2-4,2.6l5.5,9.5L265.2,326.8L265.2,326.8z M258.9,313.7h3.6c1.1,0,1.9-0.3,2.5-0.8
			c0.6-0.5,0.8-1.3,0.8-2.3c0-0.9-0.3-1.7-0.8-2.2c-0.6-0.5-1.4-0.8-2.5-0.8h-3.6V313.7z"/>
		<path d="M289.4,307.5v4.9h7.8v4.6h-7.8v5.3h8.8v4.7h-14.8v-24h14.8v4.7H289.4L289.4,307.5z"/>
		<path d="M325.9,302.9v4.7h-9.8v5.1h7.3v4.6h-7.3v9.7h-5.8v-24H325.9z"/>
		<path d="M342.4,325.5c-1.9-1.1-3.4-2.5-4.5-4.4s-1.7-4-1.7-6.3s0.6-4.5,1.7-6.3s2.6-3.3,4.5-4.4c1.9-1.1,4-1.6,6.2-1.6
			s4.4,0.5,6.2,1.6s3.4,2.5,4.5,4.4s1.7,4,1.7,6.3s-0.6,4.5-1.7,6.3s-2.6,3.3-4.5,4.4s-4,1.6-6.2,1.6
			C346.3,327.1,344.3,326.6,342.4,325.5z M353.2,319.8c1.2-1.3,1.8-3,1.8-5.1c0-2.2-0.6-3.8-1.8-5.1c-1.2-1.3-2.7-2-4.6-2
			c-2,0-3.5,0.6-4.7,1.9c-1.2,1.3-1.8,2.9-1.8,5.2c0,2.2,0.6,3.8,1.8,5.1c1.2,1.3,2.7,2,4.7,2C350.4,321.8,352,321.1,353.2,319.8z"
			/>
		<path d="M378.2,302.9v24h-5.8v-24H378.2z"/>
		<path d="M394.5,326.2c-1.4-0.6-2.5-1.5-3.3-2.5c-0.9-1.2-1.3-2.5-1.4-4.1h6.2c0.1,0.9,0.4,1.6,1,2.1c0.5,0.5,1.2,0.7,2.1,0.7
			c0.9,0,1.6-0.2,2.1-0.6s0.8-1,0.8-1.7c0-0.6-0.2-1.1-0.6-1.5s-0.9-0.7-1.5-1c-0.6-0.3-1.5-0.6-2.5-0.9c-1.6-0.5-2.8-1-3.8-1.5
			c-1-0.5-1.9-1.2-2.5-2.2c-0.6-1-1.1-2.2-1.1-3.7c0-2.3,0.8-4,2.5-5.3s3.7-2,6.3-2s4.8,0.7,6.4,2c1.7,1.3,2.5,3,2.6,5.3h-6.3
			c0-0.8-0.3-1.4-0.9-1.9c-0.5-0.5-1.2-0.7-2.1-0.7c-0.7,0-1.3,0.2-1.8,0.6c-0.4,0.4-0.7,0.9-0.7,1.7c0,0.8,0.4,1.4,1.1,1.9
			c0.8,0.4,1.9,0.9,3.4,1.4c1.5,0.5,2.8,1.1,3.8,1.5c1,0.5,1.9,1.2,2.5,2.1c0.6,0.9,1.1,2.2,1.1,3.5c0,1.3-0.4,2.6-1.1,3.7
			c-0.7,1.2-1.8,2.1-3,2.6c-1.4,0.7-2.9,1-4.7,1C397.6,327.1,396,326.8,394.5,326.2z"/>
	</g>
</g>
<g>
	<line class="st4" x1="93.3" y1="339.4" x2="415.9" y2="339.4"/>
</g>
<g>
	<g>
		<path class="st5" d="M439.8,183.9c-0.5-0.5-1.1-0.8-1.7-0.8c-0.5,0-1,0.2-1.3,0.5c-0.4,0.3-0.7,0.7-1,1c-0.6,0.7-1.2,1.3-1.9,1.8
			c-0.1,0-0.1,0.1-0.2,0.1c0.8-0.7,1.6-1.6,2.4-2.4c0.2-0.3,0.3-0.6,0.6-0.9c0.4-0.6,0.7-1.1,0.7-1.5c0-0.6-0.3-1.1-0.8-1.7
			c-0.5-0.5-1.1-0.8-1.7-0.8c-0.5,0-1,0.2-1.3,0.5c-0.4,0.3-0.7,0.7-1,1c-0.6,0.7-1.2,1.3-1.9,1.8c-0.6,0.4-1.2,0.8-1.8,1.2
			c-0.5,0.3-1.1,0.5-1.6,0.5c0.1-1.7,0.4-3.5,1-5.6c0.7-2.4,1.5-4.7,2.3-6.9s1.6-4.2,2.3-6.1c0.7-1.8,1-3.1,1-3.9
			c0-0.9-0.2-1.8-0.8-2.4c-0.5-0.7-1.2-1.2-1.9-1.6c-0.2-0.1-0.4-0.2-0.6-0.2c-0.1-0.7-0.3-1.4-0.7-1.9c-0.5-0.7-1.2-1.2-1.9-1.6
			c-0.8-0.4-1.6-0.7-2.6-0.9c-0.9-0.2-1.8-0.3-2.6-0.3c-0.7-0.9-1.5-1.7-2.7-2.5c-1-0.7-2.2-1.3-3.8-1.8c-1.6-0.6-3.4-0.9-5.7-0.9
			c-3,0-6.1,0.9-9.2,2.8c-3.1,1.9-5.8,4.4-8.3,7.4c-2.5,3.1-4.5,6.6-6,10.4c-1.1,2.6-1.8,5.3-2.1,8c-0.8,1.1-1.7,2.1-2.6,3
			c-1.1,1.2-2.4,2.3-3.9,3.3c-1.5,0.9-2.9,1.4-4.4,1.4c-0.1,0-0.2,0-0.3,0c0-0.1,0-0.2,0-0.4c0-2.2,0.4-4.4,1.1-6.7s1.5-4.5,2.5-6.6
			c0.9-2.1,1.7-4.2,2.4-6.1c0.7-1.9,1.1-3.6,1.1-5c0-0.9-0.2-1.9-0.7-2.9s-1.1-1.8-1.9-2.6c-0.4-0.4-0.8-0.7-1.2-1
			c0-0.1-0.1-0.1-0.1-0.2c-0.5-1-1.1-1.8-1.9-2.6s-1.7-1.4-2.7-1.9s-2-0.7-2.9-0.7c-2.1,0-4.1,0.4-6.1,1.2s-3.7,1.7-5.3,2.7
			c-1.5,1-3,2.1-4.4,3.2c-0.3-0.5-0.7-0.9-1-1.3c-0.4-0.4-0.9-0.8-1.3-1.1c-0.6-1-1.2-1.9-1.9-2.7c-1.4-1.5-3.3-2.3-5.8-2.4
			c-1.9,0-3.8,0.3-5.6,1c-1.8,0.7-3.5,1.5-5,2.4c-1.7,1-3.3,2.1-4.8,3.3c-0.2-0.2-0.4-0.3-0.5-0.5c-1.5-2.3-2.9-3.8-4.1-4.4
			c-1.3-0.7-2.4-1-3.2-1c-1.4,0-2.4,0.7-3,2.1c-0.7,1.5-1.5,3.6-2.6,6.2c-1,2.6-2,5.5-3,8.6s-1.9,6.4-2.6,9.8c0,0.2-0.1,0.4-0.1,0.5
			c-1.1,1.4-2.3,2.6-3.7,3.7c-1.5,1.2-3.3,2.4-5.5,3.4s-4.5,1.6-7.1,1.5c-2.1,0-4-0.6-5.6-1.7c-0.6-1.4-0.9-3-0.9-4.8
			c0.6,0.2,1.1,0.3,1.7,0.3c0.9,0.2,1.7,0.3,2.6,0.4c3.5,0,6.4-0.5,8.8-1.7c2.3-1.2,4.2-2.6,5.6-4.3s2.4-3.4,3-5.3
			c0.6-1.9,0.9-3.4,0.9-4.8c0-1.5-0.3-2.9-0.9-4.3c-0.6-1.4-1.5-2.6-2.6-3.7c-0.3-0.3-0.7-0.6-1.1-0.9c-0.6-1.1-1.3-2-2.2-2.9
			c-1.1-1.1-2.4-1.9-3.9-2.6c-1.5-0.7-3.1-1-4.8-1c-2.4,0-5.1,0.6-7.9,1.9c-2.8,1.3-5.4,3.2-7.8,5.6c-2.4,2.4-4.4,5.4-6,8.8
			c-1.6,3.4-2.4,7.2-2.4,11.4c0,0.2,0,0.4,0,0.7c-0.9,1.3-1.8,2.4-2.8,3.4c-1.1,1.2-2.4,2.3-3.9,3.3c-1.5,0.9-2.9,1.4-4.4,1.4
			c-0.1,0-0.2,0-0.3,0c0-0.1,0-0.2,0-0.4c0-2,0.3-4,1-6c0.6-2,1.3-4,2.1-6c0.7-2,1.4-3.9,2.1-5.7c0.6-1.9,1-3.6,1-5.3
			c0-1.1-0.2-2.2-0.8-3.3c-0.5-1.1-1.2-2.1-2.1-3c-0.4-0.4-0.9-0.9-1.4-1.2c-0.5-0.9-1.1-1.8-1.9-2.6c-0.9-0.9-1.9-1.7-3-2.3
			c-1.1-0.6-2.3-0.9-3.5-0.9c-2.4,0-4.6,0.3-6.7,1c-2.1,0.7-3.9,1.5-5.6,2.4c-1.9,1-3.6,2.1-5.1,3.3c-0.2-0.2-0.4-0.3-0.5-0.5
			c-1.5-2.3-2.9-3.8-4.1-4.4c-1.3-0.7-2.4-1-3.2-1c-1.4,0-2.4,0.7-3,2.1c-0.7,1.5-1.5,3.6-2.6,6.3c-1,2.7-2,5.6-3,8.8
			s-1.9,6.5-2.6,9.8c0,0.1,0,0.2-0.1,0.3c-0.9,1.2-1.8,2.3-2.8,3.3c-1.1,1.2-2.4,2.3-3.9,3.3c-1.5,0.9-2.9,1.4-4.4,1.4
			c-0.1,0-0.2,0-0.3,0c0-0.1,0-0.2,0-0.4c0-2.6,0.4-5.2,1-7.6c0.7-2.4,1.4-4.8,2.2-6.9c0.8-2.2,1.5-4.2,2.2-6.2c0.7-1.9,1-3.7,1-5.4
			c0-0.4-0.3-1-0.9-1.7c-0.6-0.7-1.3-1.4-2.2-2c-0.1,0-0.1-0.1-0.2-0.1c0-0.4-0.3-1-0.9-1.6c-0.6-0.7-1.3-1.4-2.2-2
			c-0.9-0.7-1.8-1.3-2.9-1.8c-1-0.5-2-0.8-2.8-0.8c-0.7,0-1.3,0.2-1.8,0.6c-0.5,0.4-0.9,0.9-1.2,1.5c-0.7,1.5-1.5,3.6-2.6,6.1
			c-1,2.5-2,5.2-2.9,8.1c-0.9,2.8-1.7,5.6-2.4,8.4c-0.4,1.5-0.6,2.8-0.8,4c-0.9,1.1-1.9,2.1-3,3.1c-1.6,1.5-3.4,2.8-5.3,3.8
			c-1.9,1.1-3.9,1.9-5.9,2.6c-2,0.6-4,1-6,0.9c-4.5,0-8-1.1-10.7-3.3c-1.7-3.1-2.5-7.3-2.5-12.7c0-3.7-0.4-18.4,0.5-22.2
			c6.9-0.1,13.1-1.1,18.7-3.1c5.5-2,10.3-4.5,14.2-7.4c3.9-3,6-6.2,8.1-9.6c2.1-3.4,3.2-7.5,3.3-10.4c0-1.5-0.4-3.2-1.2-5
			s-0.9-2.5-2.3-4c-0.4-0.5-0.8-0.9-1.3-1.3c-0.6-0.9-1.2-1.7-1.9-2.5c-1.4-1.5-3.1-2.8-5-3.9c-2-1-4.1-1.6-6.3-1.6
			c-3.6,0-7.4,0.9-11.4,2.8c-4.1,1.9-8,4.5-11.9,7.8s-6.5,18.2-9.9,22.6c4.9-6.5-2-0.6-8.2,14c-1.5-0.6-5.1-16.7-6.2-17.5
			c-1.1-2.3-1.7-4.7-1.7-7s0.3-4.2,0.9-5.9c0.6-1.6,1.4-3.1,2.3-4.3c0.9-1.2,1.9-2.2,2.9-3s1.9-1.5,2.7-2.1c0.7-0.5,1.2-0.9,1.6-1.2
			c0.4-0.3,0.6-0.7,0.6-1.2c0-0.8-0.6-2.2-1.9-2.2c-1.3,0-3.1,1.4-5.3,2.2c0.7-0.5,1.3-1,1.8-1.4c0.7-0.5,1.2-0.9,1.6-1.2
			c0.4-0.3,0.6-0.7,0.6-1.2c0-0.8-0.6-1.2-1.9-1.2c-1.6,0-3.7,0.5-6.4,1.6c-2.7,1.1-5.3,2.5-7.9,4.4s-4.8,4.1-6.7,6.7
			c-1.9,2.6-1.6,9.7-1.6,12.7c0,1.8,0.5,3.5,1.4,5.3c0.9,1.6,2.1,3.1,3.7,4.6c0.9,1.5,2.1,2.9,3.7,4.2c1.8,1.6,4.1,3,6.6,4.3
			c1.5,0.8,3.2,1.4,5,2c-0.3,1.2,0.4,13.4,0.2,14.6c-0.3,2-0.5,4.1-0.5,6.1c0,4.6,0.8,8.6,2.5,11.9c1.4,2.7,3.1,5.1,5.2,7
			c1.3,1.9,2.8,3.6,4.6,5c2.7,2.2,5.7,3.8,9.1,4.9c3.4,1.1,6.9,1.6,10.3,1.7c3.4,0,6.6-0.4,9.5-1.3c2.9-0.9,5.6-2.1,8.1-3.5
			c2.3-1.4,4.4-2.9,6.2-4.6c0.2,0.2,0.3,0.3,0.5,0.5s0.4,0.3,0.6,0.5c0.6,1.2,1.5,2.3,2.6,3.3c2.6,2.3,6,3.4,10.2,3.4
			c2.7,0,5.3-0.6,7.6-2c2-1.1,3.7-2.4,5.2-3.7c0.2,0.1,0.4,0.3,0.6,0.4c0.1,0.1,0.2,0.1,0.3,0.2c0.2,1.4,1.2,2.7,2.9,3.6
			c2,1.1,4.5,1.7,7.4,1.8c0.8,0,1.4-0.1,1.8-0.4c0.4-0.3,0.6-0.9,0.6-1.8c0-5.3,0.7-10,1.8-14.2c1.2-4.2,2.7-7.8,4.4-10.7
			c1.8-2.9,3.6-5.2,5.6-6.7c1.5-1.2,3-1.9,4.3-2.2c-0.2,1-0.4,2-0.7,3.1c-0.6,1.8-1.3,3.7-2,5.6c-0.7,2-1.4,4-2,6.1
			s-0.9,4.3-0.9,6.5c0,3.1,1.2,5.7,3.8,7.9c0.1,0.1,0.3,0.2,0.4,0.3c0.6,1.3,1.6,2.4,2.8,3.5c2.6,2.2,6,3.3,10.2,3.3
			c2.7,0,5.3-0.7,7.6-2c2.4-1.4,4.4-2.9,6.1-4.6c0.8-0.8,1.6-1.6,2.3-2.5c0.3,0.3,0.6,0.6,0.9,0.8c0.9,1.4,1.9,2.7,3.2,3.8
			c1.7,1.4,3.7,2.6,6.1,3.4c2.4,0.8,5,1.2,7.8,1.3c4.2,0,7.9-0.6,11-2c2.8-1.2,5.1-2.6,7.1-4c0.3,0.3,0.7,0.5,1.1,0.7
			c0.1,0.1,0.2,0.1,0.3,0.2c0.2,1.4,1.2,2.7,2.9,3.6c2,1.1,4.5,1.7,7.4,1.8c0.8,0,1.4-0.1,1.8-0.4c0.4-0.3,0.6-0.9,0.6-1.8
			c0-5.3,0.6-10,1.7-14.1s2.4-7.6,3.9-10.4c1.5-2.8,3.2-4.9,5-6.4c1.2-1,2.2-1.6,3.2-1.9c-0.2,1-0.4,2.1-0.9,3.4
			c-0.7,2.1-1.5,4.4-2.3,6.9c-0.9,2.5-1.7,5-2.3,7.6c-0.7,2.6-1,5-1.1,7.3c0,1.8,1,3.2,3,4.4c0.1,0.1,0.2,0.1,0.3,0.2
			c0.2,1.4,1.2,2.7,2.9,3.6c2,1.1,4.5,1.7,7.4,1.8c0.8,0,1.4-0.1,1.8-0.4c0.4-0.3,0.6-0.9,0.6-1.8c0-2.6,0.4-5.5,1.2-8.7
			c0.8-3.2,2-6.8,3.7-10.7c1.9-4.5,3.9-7.9,6.1-10.2c1.4-1.5,2.6-2.4,3.6-3c-0.2,0.6-0.4,1.2-0.6,1.9c-0.6,1.5-1.3,3-2,4.7
			s-1.4,3.5-2,5.6c-0.6,2-0.9,4.3-0.9,6.8c0,3.6,1.2,6.5,3.8,8.7c0.2,0.2,0.4,0.3,0.6,0.5c0.6,1.2,1.5,2.3,2.6,3.3
			c2.6,2.3,6,3.4,10.2,3.4c2.7,0,5.3-0.7,7.6-2c2.4-1.4,4.4-2.9,6.1-4.6c0.1-0.1,0.3-0.3,0.4-0.4c0.1,0.1,0.1,0.1,0.2,0.2
			c0.4,0.4,0.9,0.8,1.3,1.1c0.5,1,1.1,1.9,1.9,2.7c1,1,2.2,1.8,3.5,2.4c1.4,0.6,2.8,0.8,4.3,0.9c2.2,0,4.2-0.4,6-1.4
			c1.9-0.9,3.5-2,5-3.1c1.2-0.9,2.4-2,3.6-3.2c0.5,0.7,1.1,1.2,1.8,1.8c0.1,0.1,0.3,0.2,0.4,0.3c0.6,1.4,1.6,2.6,2.8,3.5
			c2.1,1.6,4.8,2.4,7.9,2.4c1.6,0,3.2-0.4,4.7-1.1c1.5-0.8,2.9-1.6,4.1-2.7c1.3-1.1,2.7-2.4,3.9-3.8c0.2-0.3,0.3-0.6,0.6-0.9
			c0.4-0.6,0.7-1.1,0.7-1.5C440.6,184.9,440.3,184.4,439.8,183.9z M401.6,182c0-2.3,0.5-4.8,1.4-7.7c0.9-2.8,2.1-5.5,3.5-7.9
			s3-4.5,4.7-6.2s3.4-2.5,5-2.5c0.2,0,0.5,0,0.7,0.1c0,0.3,0.1,0.6,0,0.9c0,2.1-0.6,4.6-1.7,7.4c-1.1,2.8-2.4,5.5-4,8
			s-3.3,4.7-5,6.4s-3.2,2.6-4.6,2.6C401.6,182.8,401.6,182.4,401.6,182z M294.9,157.8c1-0.8,2-1.4,3.1-1.6c-0.2,0.8-0.5,1.6-0.9,2.5
			c-0.8,1.7-1.8,3.3-3.1,4.9c-1.3,1.6-2.9,2.9-4.7,4c-0.5,0.3-0.9,0.5-1.4,0.7c0-0.1,0.1-0.2,0.1-0.4c0.8-2,1.7-3.8,2.9-5.6
			C292.1,160.6,293.4,159.1,294.9,157.8z M270.8,180.9c-0.2,0.3-0.5,0.5-0.7,0.8C270.4,181.4,270.6,181.2,270.8,180.9L270.8,180.9z
			 M185,109.4c0,0.1,0,0.2,0,0.3c0,2.6-0.8,5.5-2.3,8.5c-1.5,3.1-3.7,5.9-6.5,8.6c-2.8,2.7-4.8,7.8-8.9,9.7
			c-2.7,1.2-10.7,2.9-13.8,3.4c1.2-2.6,6.1-9,7.6-11.4c2.3-3.7,4.7-7,7.3-9.9s5.2-5.1,7.9-6.8s5.3-2.5,7.7-2.5
			C184.4,109.3,184.7,109.3,185,109.4z M355.9,159c-0.1-0.2-0.1-0.3-0.2-0.4c1.8-1.8,3.2-2.7,4.4-2.7
			C358.7,156.9,357.3,157.9,355.9,159z"/>
		<path class="st5" d="M205.2,136.3c0.3,1.1,0.7,1.9,1.5,2.7c1.2,1.1,2.6,1.7,4.2,1.7c1.2,0,2.3-0.3,3.4-0.9
			c1.1-0.6,2.1-1.4,2.9-2.5c0.9-1.1,1.5-2.3,2-3.6s0.7-2.8,0.8-4.2c0-1.8-0.5-3.3-1.6-4.4c-0.6-0.6-1.2-1-1.9-1.3
			c-0.2-1-0.7-1.8-1.3-2.5c-1.1-1.1-2.4-1.7-4.1-1.7c-1.3,0-2.5,0.3-3.6,0.9c-1.1,0.6-2.1,1.4-3,2.5s-1.6,2.2-2.1,3.5
			s-0.8,2.7-0.8,4c0,2,0.6,3.5,1.7,4.6C204,135.7,204.5,136.1,205.2,136.3z"/>
	</g>
	<g>
		<g>
			<path class="st6" d="M156.8,188.3c-3.7,0-7.2-0.7-10.8-2c-3.6-1.3-6.8-3.2-9.6-5.8c-2.8-2.6-5.1-5.8-6.9-9.8
				c-1.8-3.9-2.6-8.6-2.6-14c0-2.4,0.2-4.8,0.5-7.2c0.3-2.4,0.8-4.8,1.5-7.2c-3.5-0.9-6.6-2.2-9.4-3.8c-2.7-1.5-5-3.2-6.9-5.1
				c-1.9-1.9-3.4-3.9-4.4-5.9c-1.1-2.1-1.5-4.1-1.5-6.2c0-3.6,1.1-6.9,3-10c2-3.1,4.4-5.8,7-7.9c2.7-2.2,5.5-4,8.3-5.2
				c2.8-1.3,5-1.9,6.7-1.9c1.4,0,2,0.5,2,1.4c0,0.6-0.2,1.1-0.6,1.4c-0.4,0.4-0.9,0.8-1.7,1.4c-0.8,0.7-1.8,1.5-2.8,2.5
				s-2.1,2.1-3,3.5c-0.9,1.4-1.8,3.1-2.4,5.1c-0.6,1.9-0.9,4.2-0.9,6.9c0,2.8,0.6,5.7,1.9,8.5s3.7,5.1,7.4,6.8
				c2.2-5.9,5.1-11.3,8.6-16.5c3.5-5.2,7.2-9.7,11.3-13.5c4.1-3.9,8.2-6.9,12.5-9.2c4.3-2.2,8.3-3.3,12-3.3c2.3,0,4.5,0.6,6.6,1.9
				c2.1,1.2,3.8,2.7,5.3,4.6c1.5,1.8,2.6,3.8,3.5,5.9c0.8,2.1,1.3,4.1,1.3,5.9c0,3.3-1.2,7.1-3.5,11.1c-2.2,4-5.5,7.8-9.6,11.3
				c-4.1,3.5-9.1,6.4-14.9,8.7c-5.8,2.4-12.4,3.5-19.6,3.6c-0.9,4.4-1.5,8.7-1.5,13.1c-0.1,8.2,1.4,14.2,4.4,17.8
				c2.9,3.6,7.2,5.4,12.9,5.5c2.1,0,4.2-0.4,6.3-1.1s4.2-1.8,6.2-3.1c2-1.3,3.9-2.8,5.6-4.5c1.7-1.8,3.3-3.6,4.6-5.5
				c0.1-0.2,0.3-0.6,0.6-0.9c0.1-0.1,0.4-0.4,0.7-0.6s0.6-0.4,1.1-0.4c0.7,0,1.3,0.2,1.8,0.8c0.4,0.5,0.7,1.2,0.7,1.8
				c0,0.4-0.1,0.7-0.2,0.9c-0.1,0.4-0.2,0.6-0.4,0.9c-0.2,0.4-0.3,0.7-0.5,1.2c-1.4,2.2-3,4.4-4.9,6.6c-2,2.1-4.2,4.1-6.8,5.8
				c-2.6,1.8-5.5,3.2-8.5,4.1C163.8,187.8,160.4,188.3,156.8,188.3z M177.1,100c-2.5,0-5.3,0.9-8.1,2.9c-2.8,2-5.6,4.6-8.3,8
				c-2.7,3.4-5.3,7.3-7.7,11.7c-2.4,4.4-4.3,9.1-6,13.9c5.3-0.1,10.1-1.3,14.4-3.4c4.3-2.1,7.9-4.8,10.9-8c2.9-3.2,5.3-6.5,6.8-10.1
				c1.6-3.6,2.4-6.9,2.4-10c0-1.4-0.4-2.7-1.2-3.5C179.7,100.5,178.7,100.1,177.1,100z"/>
			<path class="st6" d="M196.5,175c0,1.2,0.3,2.3,0.9,3c0.6,0.8,1.5,1.2,2.6,1.2c1.5,0,3-0.4,4.4-1.4c1.5-0.9,2.7-2,3.9-3.3
				c1.3-1.3,2.6-2.9,3.7-4.7c0.1-0.2,0.3-0.5,0.6-0.8c0.1-0.1,0.4-0.3,0.7-0.5s0.6-0.3,1-0.3c0.6,0,1.1,0.2,1.6,0.7
				c0.5,0.4,0.7,1,0.7,1.5c0,0.3-0.1,0.6-0.2,0.8c-0.1,0.3-0.2,0.5-0.4,0.8s-0.3,0.6-0.5,1c-1.7,2.5-3.5,4.8-5.5,6.7
				c-1.7,1.7-3.8,3.2-6.1,4.6c-2.4,1.4-4.9,2-7.6,2c-4.2,0-7.6-1.2-10.2-3.4c-2.6-2.3-3.9-5.2-3.8-8.7c0-2,0.4-4.3,1.1-7.1
				c0.7-2.8,1.5-5.6,2.4-8.4c0.9-2.8,1.9-5.5,2.9-8.1c1-2.5,1.9-4.6,2.6-6.1c0.3-0.6,0.7-1.1,1.2-1.5s1.1-0.6,1.8-0.6
				c0.8,0,1.7,0.3,2.8,0.8c1,0.5,2,1.1,2.9,1.8s1.6,1.3,2.2,2c0.6,0.7,0.9,1.3,0.9,1.7c0,1.7-0.4,3.5-1,5.4c-0.7,1.9-1.4,4-2.2,6.2
				s-1.5,4.5-2.2,6.9C196.8,169.8,196.5,172.4,196.5,175z M213,122.4c0,1.5-0.3,2.9-0.8,4.2s-1.2,2.5-2,3.6
				c-0.9,1.1-1.8,1.9-2.9,2.5c-1.1,0.6-2.2,0.9-3.4,0.9c-1.6,0-3-0.6-4.2-1.7c-1.2-1.1-1.8-2.6-1.7-4.6c0-1.4,0.3-2.7,0.8-4
				s1.2-2.5,2.1-3.5c0.9-1.1,1.9-1.9,3-2.5s2.3-0.9,3.6-0.9c1.6,0,3,0.6,4.1,1.7C212.4,119.1,213,120.6,213,122.4z"/>
			<path class="st6" d="M250.9,175.5c0,1.2,0.3,2.3,0.9,3c0.6,0.8,1.5,1.2,2.6,1.2c1.5,0,3-0.4,4.4-1.4c1.5-0.9,2.7-2,3.9-3.3
				c1.3-1.3,2.6-2.9,3.7-4.7c0.1-0.2,0.3-0.5,0.6-0.8c0.1-0.1,0.4-0.3,0.7-0.5c0.3-0.2,0.6-0.3,1-0.3c0.6,0,1.1,0.2,1.6,0.7
				c0.5,0.4,0.7,1,0.7,1.5c0,0.3-0.1,0.6-0.2,0.8c-0.1,0.3-0.2,0.5-0.4,0.8c-0.2,0.3-0.3,0.6-0.5,1c-1.7,2.5-3.5,4.8-5.5,6.7
				c-1.7,1.7-3.8,3.2-6.1,4.6s-4.9,2-7.6,2c-4.2,0-7.6-1.1-10.2-3.3c-2.6-2.2-3.9-4.8-3.8-7.9c0-2.3,0.3-4.4,0.9-6.5
				c0.6-2.1,1.3-4.1,2-6.1s1.4-3.8,2-5.6s0.9-3.5,0.9-5.2c0-0.5-0.2-0.9-0.7-1.3c-0.4-0.3-1-0.5-1.6-0.5c-1.7,0-3.6,0.8-5.5,2.3
				c-2,1.6-3.9,3.8-5.6,6.7c-1.8,2.9-3.2,6.5-4.4,10.7s-1.8,8.9-1.8,14.2c0,1-0.2,1.6-0.6,1.8c-0.4,0.3-1,0.4-1.8,0.4
				c-3,0-5.5-0.6-7.4-1.8c-2-1.1-3-2.6-3-4.4c0-3.1,0.4-6.3,1.1-9.7c0.7-3.4,1.6-6.7,2.6-9.8c1-3.2,2-6.1,3-8.8s1.9-4.8,2.6-6.3
				c0.6-1.4,1.6-2.1,3-2.1c0.8,0,1.9,0.3,3.2,1s2.8,2.3,4.5,5c1.6-1.3,3.3-2.5,5.3-3.5c1.6-0.9,3.5-1.7,5.6-2.4s4.3-1.1,6.7-1
				c1.2,0,2.4,0.3,3.5,0.9c1.1,0.6,2.2,1.4,3,2.3c0.9,0.9,1.6,1.9,2.1,3c0.5,1.1,0.8,2.2,0.8,3.3c0,1.7-0.3,3.5-1,5.3
				c-0.6,1.9-1.3,3.8-2.1,5.7c-0.7,2-1.4,4-2.1,6C251.3,171.5,250.9,173.5,250.9,175.5z"/>
			<path class="st6" d="M309.7,174c-1.7,2.5-3.7,4.8-6.2,6.7c-2.1,1.7-4.7,3.2-7.8,4.5c-3.1,1.4-6.8,2-11,2c-2.8,0-5.4-0.4-7.8-1.3
				c-2.4-0.8-4.4-2-6.1-3.4s-3-3.2-4-5.1c-0.9-2-1.4-4.1-1.4-6.5c0-4.2,0.8-8,2.4-11.4s3.6-6.3,6-8.8c2.4-2.4,5-4.3,7.8-5.6
				s5.4-1.9,7.9-1.9c1.7,0,3.3,0.4,4.8,1c1.5,0.7,2.8,1.5,3.9,2.6s2,2.3,2.6,3.7s0.9,2.8,0.9,4.3c0,1.3-0.3,2.9-0.9,4.8
				c-0.6,1.9-1.6,3.6-3,5.3s-3.3,3.1-5.6,4.3c-2.3,1.2-5.3,1.8-8.8,1.7c-0.8,0-1.7-0.1-2.6-0.4c-0.5-0.1-1.1-0.2-1.7-0.3
				c0,3.3,0.9,5.8,2.8,7.6s4.2,2.7,6.9,2.7c2.6,0,5-0.5,7.1-1.5c2.2-1,4-2.2,5.5-3.4c1.8-1.4,3.3-3.1,4.6-5c0.1-0.2,0.3-0.5,0.6-0.8
				c0.1-0.1,0.4-0.3,0.7-0.5c0.3-0.2,0.6-0.3,1-0.3c0.6,0,1.1,0.2,1.6,0.7c0.5,0.4,0.7,1,0.7,1.5c0,0.3-0.1,0.6-0.2,0.8
				c-0.1,0.3-0.2,0.5-0.4,0.8C310,173.3,309.9,173.6,309.7,174z M279.8,165.9c2,0,3.9-0.5,5.7-1.6c1.8-1.1,3.3-2.4,4.7-4
				c1.3-1.6,2.3-3.2,3.1-4.9c0.8-1.7,1.1-3.1,1.2-4.3c0-1.5-0.6-2.2-2-2.2c-1.6,0-3.1,0.6-4.6,1.8s-2.8,2.7-4,4.5
				c-1.2,1.7-2.1,3.6-2.9,5.6C280.2,162.8,279.9,164.5,279.8,165.9z"/>
			<path class="st6" d="M352.6,175.8c0-2.5,0.3-4.7,0.9-6.8c0.6-2,1.3-3.9,2-5.6c0.7-1.7,1.4-3.2,2-4.7s0.9-2.8,0.9-4
				c0-0.7-0.2-1.3-0.5-1.6c-0.4-0.3-0.8-0.5-1.4-0.5c-1.3,0-3,1.1-5.2,3.4c-2.2,2.3-4.2,5.7-6.1,10.2c-1.7,3.9-2.9,7.4-3.7,10.7
				c-0.8,3.2-1.2,6.1-1.2,8.7c0,1-0.2,1.6-0.6,1.8c-0.4,0.3-1,0.4-1.8,0.4c-3,0-5.5-0.6-7.4-1.8c-2-1.1-3-2.6-3-4.4
				c0-2.3,0.4-4.7,1.1-7.3s1.5-5.1,2.3-7.6c0.9-2.5,1.7-4.8,2.3-6.9c0.7-2.1,1-3.8,1-5.1c0-1.5-0.6-2.3-2-2.3
				c-1.3,0-2.9,0.7-4.6,2.2c-1.8,1.4-3.4,3.6-5,6.4c-1.5,2.8-2.9,6.3-3.9,10.4c-1.1,4.1-1.6,8.8-1.7,14.1c0,1-0.2,1.6-0.6,1.8
				c-0.4,0.3-1,0.4-1.8,0.4c-3,0-5.5-0.6-7.4-1.8s-3-2.6-3-4.4c0-3.2,0.4-6.5,1.1-10c0.7-3.4,1.6-6.7,2.6-9.8s2-6,3-8.6
				s1.9-4.7,2.6-6.2c0.6-1.4,1.6-2.1,3-2.1c0.8,0,1.9,0.3,3.2,1c1.3,0.7,2.8,2.3,4.5,5c1.6-1.3,3.2-2.5,4.9-3.5
				c1.5-0.9,3.2-1.7,5-2.4s3.7-1.1,5.6-1c2.4,0,4.4,0.8,5.8,2.4c1.4,1.5,2.5,3.5,3.3,5.8c1.7-1.4,3.5-2.8,5.4-4
				c1.6-1,3.3-1.9,5.3-2.7s4-1.2,6.1-1.2c1,0,1.9,0.3,2.9,0.7c1,0.5,1.9,1.1,2.7,1.9c0.8,0.8,1.5,1.6,1.9,2.6c0.5,1,0.7,1.9,0.7,2.9
				c0,1.5-0.4,3.1-1.1,5s-1.5,3.9-2.4,6.1c-0.9,2.1-1.7,4.4-2.5,6.6c-0.7,2.3-1.1,4.5-1.1,6.7c0,1.2,0.3,2.3,0.9,3
				c0.6,0.8,1.5,1.2,2.6,1.2c1.5,0,3-0.4,4.4-1.4c1.5-0.9,2.7-2,3.9-3.3c1.3-1.3,2.6-2.9,3.7-4.7c0.1-0.2,0.3-0.5,0.6-0.8
				c0.1-0.1,0.4-0.3,0.7-0.5c0.3-0.2,0.6-0.3,1-0.3c0.6,0,1.1,0.2,1.6,0.7c0.5,0.4,0.7,1,0.7,1.5c0,0.3-0.1,0.6-0.2,0.8
				c-0.1,0.3-0.2,0.5-0.4,0.8c-0.2,0.3-0.3,0.6-0.5,1c-1.7,2.5-3.5,4.8-5.5,6.7c-1.7,1.7-3.8,3.2-6.1,4.6s-4.9,2-7.6,2
				c-4.2,0-7.6-1.2-10.2-3.4C353.8,182.3,352.6,179.4,352.6,175.8z"/>
			<path class="st6" d="M432.3,180.9c-1.3,1.5-2.6,2.7-3.9,3.8c-1.2,1-2.6,1.9-4.1,2.7s-3.1,1.1-4.7,1.1c-3.1,0-5.7-0.8-7.9-2.4
				c-2.1-1.6-3.4-3.9-3.7-7c-1.5,1.8-3.1,3.4-4.8,4.7c-1.5,1.2-3.2,2.2-5,3.1c-1.9,0.9-3.9,1.4-6,1.4c-1.5,0-2.9-0.3-4.3-0.9
				c-1.4-0.6-2.5-1.4-3.5-2.4s-1.8-2.2-2.4-3.6c-0.6-1.4-0.9-2.9-0.9-4.6c0-3.9,0.8-7.8,2.4-11.7s3.6-7.3,6-10.4
				c2.5-3.1,5.2-5.6,8.3-7.4c3.1-1.9,6.1-2.8,9.2-2.8c2.2,0,4.1,0.3,5.7,0.9c1.6,0.6,2.8,1.2,3.8,1.8c1.1,0.8,2,1.7,2.7,2.5
				c0.8,0,1.7,0.1,2.6,0.3s1.8,0.5,2.6,0.9c0.8,0.4,1.4,0.9,1.9,1.6c0.5,0.7,0.8,1.5,0.8,2.4c0,0.8-0.4,2.1-1,3.9
				c-0.7,1.8-1.4,3.8-2.3,6.1c-0.8,2.2-1.6,4.5-2.3,6.9c-0.7,2.4-1,4.5-1.1,6.3c0,0.9,0.3,1.6,0.8,2.2c0.6,0.6,1.3,0.9,2.3,0.9
				c0.6,0,1.2-0.2,1.8-0.5c0.6-0.4,1.2-0.8,1.8-1.2c0.7-0.5,1.3-1.1,1.9-1.8c0.3-0.4,0.6-0.7,1-1s0.8-0.5,1.3-0.5
				c0.6,0,1.1,0.3,1.7,0.8c0.5,0.5,0.8,1.1,0.8,1.7c0,0.4-0.2,0.9-0.7,1.5C432.6,180.3,432.4,180.6,432.3,180.9z M413.1,155.5
				c0-1.6-0.4-2.8-1.1-3.6c-0.8-0.8-1.7-1.2-2.8-1.2c-1.6,0-3.3,0.8-5,2.5s-3.3,3.7-4.7,6.2c-1.4,2.4-2.5,5.1-3.5,7.9
				c-0.9,2.8-1.4,5.4-1.4,7.7c0,3.3,1,4.9,3.2,5c1.3,0,2.9-0.9,4.6-2.6c1.8-1.7,3.4-3.9,5-6.4s2.9-5.2,4-8
				C412.5,160.1,413.1,157.6,413.1,155.5z"/>
		</g>
	</g>
</g>
<g>
	<g>
		<g>
			<g>
				<path class="st5" d="M113.8,250.8c-0.7,1.2-1.6,2.6-2.6,4.1c-1,1.5-2.3,3-3.8,4.3s-4.5,2.6-8,3.2c-2.3,0.5-5.3,0.2-8.1,0.2
					c1.2,1.2,2.3,2.6,3.2,4.3c0.9,1.4,1.6,3.2,2.3,5.4c0.7,2.2,1,4.6,1,7.4c0,1.6-0.2,3.3-0.8,5.1c-0.5,1.8-1.2,3.4-2.2,5
					c-0.9,1.5-2.1,2.8-3.5,3.8c-1.4,1-3,1.5-4.8,1.5c-1.6,0.1-3.4-0.2-5.4-1c-2-0.7-3.8-1.8-5.5-3.6s-3.1-3.9-4.1-6.6
					c-1.2-2.7-1.7-6.2-1.7-10.3c0-6.9,0.5-14.2,1.4-21.8c1-7.6,2.3-15.1,3.9-22.4c1.7-7.3,3.7-14.3,6-20.9
					c2.4-6.6,4.8-12.4,7.4-17.3c2.7-5,6.8-12.5,8.2-16.4c3.1-8.5,7.1-12.7,9.9-12.8c1.3,0,2.4,2.4,3.6,3.1c1.2,0.7,2.4,1.6,3.4,2.7
					c1,1.1,1.8,2.3,2.4,3.6c0.6,1.3,1,2.5,1,3.6c0,1.8-1.5,14.9-2.3,17.7c-0.8,2.9-2.1,6-3.6,9.4c-1.4,3.4-3.3,7-5.2,10.7
					c-1.9,3.8-4.1,7.4-6.2,10.7c-2.1,3.5-4.5,6.7-6.7,9.6c-2.2,3-4.4,5.5-6.5,7.3c-0.6,2-1,4.1-1.4,6.3c-0.3,2.2-0.5,4.5-0.8,6.7
					c0.5,0.8,1.2,1.4,1.9,1.9c0.6,0.4,1.4,0.8,2.3,1.1c0.9,0.4,1.3,1.1,2.5,1c1.9-0.1,4.9,0.2,6.6,0c3.5-0.6,5.6-2,6.8-3
					c1.2-1.1,1.1-1.3,2.4-2.4c1.8-1.6,3.2-4,4.1-5.2c0.1-0.3,0.5,0.1,0.8-0.3c0.1-0.2-0.3,0.2,0,0c0.3-0.2,0.6-1.6,1-1.6
					c0.6,0,1.1,0.2,1.6,0.7s0.8,1.1,0.8,1.8c0,0.3,0,0.7-0.1,1s-0.2,0.6-0.4,1C114.1,250,113.9,250.4,113.8,250.8z M82.8,260.4
					c-0.1,1.7-0.2,3.5-0.4,5.3c-0.1,1.5-0.2,3.2-0.3,5.1c0,1.8,0,3.6-0.1,5.3c0,5.1,0.5,8.5,1.6,10.5c1.1,1.9,2.1,2.9,3,2.8
					c0.7,0,1.2-0.3,1.7-0.9c0.5-0.6,0.8-1.3,1.1-2.2c0.3-0.9,0.5-1.8,0.6-2.9s0.2-2.1,0.1-3.2c-0.1-2.7-0.4-5.3-1.2-7.8
					c-0.8-2.5-1.6-4.6-2.6-6.3C85.4,264.1,84.1,262.1,82.8,260.4z M109.8,185.8c0-1.7,0.2-13.3-1.4-13.2c-1,0-1.4-1.8-3.8,0.1
					c-5,3.8-9.8,27.3-11.4,31.8c-1.6,4.4,2.2,3.1,0.4,8.7c-1.8,5.6-3.2,11.2-4.6,16.9c1.2-1.1,2.5-2.7,4.1-5
					c1.5-2.3,3.1-4.8,4.7-7.6c1.5-2.8,3-5.8,4.5-9c1.4-3.2,2.7-6.2,3.9-9.1c1.2-2.9,2.1-5.6,2.8-8
					C109.5,189,109.8,187.1,109.8,185.8z"/>
				<path class="st5" d="M139.4,255.2c0,1.4,0.4,2.4,1.2,3.1c0.7,0.7,1.7,1,2.9,1c1.6,0,3.1-0.6,4.7-1.6c1.5-1.1,2.9-2.3,4-3.7
					c1.4-1.5,2.6-3.2,3.9-5.2c0.1-0.2,0.3-0.5,0.6-0.9c0.2-0.2,0.4-0.3,0.7-0.6c0.3-0.2,0.7-0.3,1.1-0.3c0.6,0,1.2,0.2,1.7,0.7
					s0.8,1,0.8,1.6c0,0.3,0,0.6-0.2,0.9c-0.1,0.3-0.2,0.6-0.4,0.9s-0.3,0.7-0.4,1.1c-1.7,2.8-3.6,5.4-5.8,7.5
					c-1.8,1.9-3.9,3.6-6.4,5.1c-2.5,1.6-5.2,2.3-8.1,2.3c-2.3,0.1-4.4-0.2-6.2-0.9c-1.8-0.6-3.5-1.4-4.8-2.5c-1.4-1-2.4-2.3-3.2-3.7
					c-0.8-1.4-1.2-2.9-1.1-4.6c-0.1-2.6,0.4-5.1,1.2-7.4c0.7-2.3,1.5-4.5,2.5-6.4c0.9-1.9,1.7-3.6,2.5-5.1c0.8-1.5,1.1-2.7,1.1-3.7
					c0-0.6-0.4-1.1-1.2-1.4c-0.8-0.3-1.6-0.5-2.5-0.8c-1-0.2-2.2-0.4-3.6-0.5c-2.2,5.9-4.4,10.7-6.4,14.3c-2,3.8-3.7,6.6-5,8.3
					c-0.2,0.2-0.4,0.6-0.9,1.1c-0.4,0.5-1,0.7-1.7,0.8c-0.6,0-1.2-0.2-1.7-0.7s-0.8-1.1-0.8-1.7c0-0.6,0.1-1.1,0.5-1.6
					c0.3-0.5,0.6-1,0.7-1.3c1.1-1.6,2.6-4.2,4.7-7.6c1.9-3.5,3.9-8.1,5.6-13.7c-0.8-0.5-1.5-1.2-2.1-2.1c-0.5-0.7-1-1.6-1.4-2.7
					c-0.4-1.1-0.7-2.4-0.7-3.9c0-1.2,0.2-2.3,0.6-3.4c0.4-1.1,1-2,1.6-2.8c0.7-0.8,1.4-1.5,2.2-2c0.8-0.5,1.5-0.8,2.2-0.8
					c0.8,0,1.6,0.2,2.5,0.6c0.9,0.4,1.7,0.9,2.4,1.5s1.3,1.2,1.8,2c0.5,0.7,0.8,1.4,0.8,1.9c0,1.6-0.2,2.9-0.7,4c-0.5,1-0.7,2-0.7,3
					c0,0.9,0.5,1.5,1.5,1.9c1,0.4,2.2,0.5,3.6,0.5c1.3,0,2.5-0.2,3.4-0.3c0.9-0.2,1.7-0.4,2.4-0.6c0.7-0.2,1.4-0.4,2-0.6
					c0.6-0.2,1.3-0.3,2-0.3c1.4,0,2.6,0.5,3.6,1.6c0.9,1.1,1.4,2.4,1.5,4c0,1.4-0.4,3-1.3,4.9c-0.9,1.9-1.8,4-3,6.2
					c-1,2.3-2.1,4.6-3,7.1C139.7,250.4,139.3,252.8,139.4,255.2z"/>
				<path class="st5" d="M216.3,251.8c-1.7,2.8-3.6,5.4-5.8,7.5c-1.8,1.9-3.9,3.6-6.4,5.1c-2.5,1.6-5.2,2.3-8.1,2.3
					c-3.3,0.1-6.2-0.8-8.5-2.5c-2.4-1.6-3.8-4.1-4.1-7.4c-1.5,2-3.2,3.8-5.1,5.2c-1.6,1.3-3.3,2.5-5.3,3.5c-2,1.1-4.1,1.7-6.4,1.6
					c-1.6,0-3.1-0.2-4.6-0.9c-1.5-0.6-2.8-1.4-3.9-2.4c-1.1-1.1-2-2.4-2.7-3.9c-0.7-1.5-1-3.1-1-5c-0.1-4.3,0.8-8.6,2.3-12.8
					c1.5-4.3,3.7-8.1,6.2-11.5c2.5-3.5,5.5-6.2,8.8-8.2c3.2-2.2,6.4-3.2,9.7-3.2c2.4-0.1,4.4,0.2,6.1,0.8c1.7,0.5,3.1,1.2,4.1,1.8
					c1.2,0.8,2.2,1.7,2.9,2.7c0.9,0,1.8,0,2.8,0.2c1,0.2,1.9,0.5,2.8,0.9c0.8,0.4,1.6,1,2.1,1.7c0.6,0.7,0.9,1.6,0.9,2.6
					c0,0.9-0.3,2.3-0.9,4.3c-0.7,2-1.4,4.2-2.4,6.7c-0.8,2.4-1.6,5-2.4,7.6c-0.6,2.6-1,4.9-1.1,6.9c0,1,0.3,1.7,1,2.4
					c0.6,0.6,1.4,0.9,2.5,0.9c1.6,0,3.1-0.6,4.7-1.6c1.5-1.1,2.9-2.3,4-3.7c1.4-1.5,2.6-3.2,3.9-5.2c0.1-0.2,0.3-0.5,0.6-0.9
					c0.2-0.2,0.4-0.3,0.7-0.6c0.3-0.2,0.7-0.3,1.1-0.3c0.6,0,1.2,0.2,1.7,0.7s0.8,1,0.8,1.6c0,0.3,0,0.6-0.2,0.9
					c-0.1,0.3-0.2,0.6-0.4,0.9C216.6,251,216.5,251.4,216.3,251.8z M188.5,231c-0.1-1.7-0.5-3-1.4-3.8c-0.9-0.8-1.9-1.2-3.1-1.2
					c-1.7,0.1-3.5,1-5.3,2.8c-1.8,1.9-3.4,4.2-4.9,6.8c-1.4,2.7-2.6,5.6-3.6,8.7c-0.9,3.1-1.4,5.9-1.4,8.4c0.1,3.6,1.2,5.3,3.5,5.3
					c1.4,0,3-1,4.9-2.9c1.8-2,3.5-4.4,5.3-7.1c1.7-2.8,3-5.8,4.2-8.9C188.1,236,188.6,233.3,188.5,231z"/>
				<path class="st5" d="M254.2,253.5c0,1.4,0.4,2.4,1.1,3.2c0.7,0.8,1.6,1.2,2.8,1.2c1.6,0,3.1-0.6,4.7-1.6c1.5-1.1,2.9-2.3,4-3.7
					c1.4-1.5,2.6-3.2,3.9-5.2c0.1-0.2,0.3-0.5,0.6-0.9c0.2-0.2,0.4-0.3,0.7-0.6c0.3-0.2,0.7-0.3,1.1-0.3c0.6,0,1.2,0.2,1.7,0.7
					c0.5,0.5,0.8,1,0.8,1.6c0,0.3,0,0.6-0.2,0.9c-0.1,0.3-0.2,0.6-0.4,0.9c-0.2,0.3-0.3,0.7-0.4,1.1c-1.7,2.8-3.6,5.4-5.8,7.5
					c-1.8,1.9-3.9,3.6-6.4,5.1c-2.5,1.6-5.2,2.3-8.1,2.3c-4.5,0.1-8.2-1.1-11.1-3.4c-2.8-2.3-4.2-5.1-4.2-8.4
					c-0.1-2.5,0.3-4.8,0.9-7.1c0.6-2.3,1.2-4.5,2.1-6.7c0.7-2.2,1.3-4.2,2-6.2c0.6-2,0.8-3.9,0.9-5.7c0-0.6-0.3-1-0.8-1.3
					c-0.5-0.3-1-0.5-1.7-0.5c-1.8,0.1-3.8,1-5.8,2.6c-2.1,1.8-4,4.3-5.9,7.5c-1.8,3.3-3.4,7.2-4.5,11.8c-1.2,4.6-1.8,9.8-1.7,15.5
					c0,1-0.2,1.7-0.6,2c-0.4,0.3-1.1,0.5-2,0.5c-3.2,0.1-5.9-0.5-8-1.8c-2.2-1.2-3.3-2.7-3.2-4.6c-0.1-3.3,0.4-6.9,1-10.6
					c0.6-3.7,1.6-7.3,2.6-10.8c0.9-3.5,2.1-6.7,3.1-9.7s1.9-5.3,2.7-7c0.6-1.5,1.6-2.3,3.1-2.4c0.9,0,2,0.3,3.5,1
					c1.4,0.7,3.1,2.4,4.9,5.3c1.6-1.5,3.5-2.8,5.5-3.9c1.7-1,3.7-1.9,5.9-2.7c2.2-0.9,4.6-1.2,7.1-1.2c1.3,0,2.5,0.2,3.8,0.8
					c1.2,0.6,2.4,1.4,3.3,2.3c1,1,1.8,2,2.4,3.2c0.6,1.2,0.9,2.4,0.9,3.5c0.1,1.8-0.2,3.8-0.9,5.8c-0.6,2-1.3,4.2-2.1,6.3
					c-0.7,2.2-1.3,4.4-2.2,6.6C254.6,249.2,254.2,251.4,254.2,253.5z"/>
				<path class="st5" d="M318.7,250.7c-1.7,2.3-3.6,4.4-5.9,6.4c-1.9,1.7-4.2,3.4-7,4.8c-2.7,1.6-5.9,2.7-9.4,3.2
					c0,0.9,0.2,1.8,0.5,2.8c0.3,1,0.9,1.5,1.8,1.4c1,0,2-0.1,3-0.3c1.1-0.2,2-0.3,2.9-0.3c1.1,0,2,0.3,2.5,1.1
					c0.6,0.7,0.9,1.7,0.9,2.9c0,1.5-0.3,3.2-1.1,5c-0.7,1.8-1.9,3.6-3.6,5.2c-1.6,1.6-3.5,3-5.9,4.1c-2.4,1.1-5.1,1.7-8.3,1.7
					c-2.5,0.1-4.5-0.4-6.1-1.4c-1.6-0.9-2.4-2.2-2.5-3.8c0-1.3,0.4-2.4,1.2-3.4c0.8-1,1.8-1.5,2.9-1.6c0.8,0,1.4,0.1,1.9,0.5
					c0.5,0.3,1,0.7,1.4,1.2c0.4,0.5,1,0.9,1.6,1.2c0.6,0.3,1.6,0.5,2.8,0.5c1.2,0,2.4-0.3,3.6-0.8c1.2-0.5,2.2-1.1,3.1-1.8
					c0.9-0.7,1.6-1.4,2.1-2c0.5-0.7,0.8-1.1,0.8-1.5c0-0.4-0.2-0.6-0.6-0.6c-1.7,0.1-3.5,0.4-5.2,0.9c-1.7,0.6-3.2,1-4.6,0.9
					c-1,0-1.7-0.3-2.2-0.9c-0.5-0.7-0.8-1.3-0.8-1.9c0-1.3,0.1-2.8,0.4-4.7c0.3-1.8,0.5-3.3,0.7-4.4c-2.4-0.1-4.7-0.6-7.1-1.3
					c-2.3-0.6-4.4-1.7-6.3-3.1c-1.9-1.4-3.4-3.2-4.5-5.4c-1.2-2.2-1.7-4.8-1.7-7.9c-0.1-4,0.8-7.8,2.3-11.4c1.5-3.7,3.7-6.9,6.2-9.6
					s5.4-4.9,8.6-6.5c3.1-1.7,6.2-2.5,9.2-2.5c2.1-0.1,4.1,0.2,5.7,0.9c1.7,0.6,3.1,1.5,4.3,2.6s2.1,2.3,2.8,3.7s1,2.7,1.1,4.1
					c0,1-0.2,2.1-0.6,3.2c-0.4,1.1-1,2.1-1.6,3c-0.7,0.9-1.4,1.6-2.3,2.2c-0.8,0.6-1.6,0.9-2.4,0.9c-1.6,0-3-0.4-4.3-1.4
					c-1.3-1-1.9-2.1-1.9-3.5c0-1,0.2-1.9,0.6-2.5c0.5-0.6,1-1.2,1.6-1.8c0.6-0.5,1.1-1,1.6-1.5c0.5-0.5,0.7-1,0.7-1.6
					c0-0.6-0.4-1.2-1.1-1.7s-1.5-0.7-2.5-0.7c-1.7,0.1-3.4,0.8-5,2c-1.6,1.4-3,3.1-4.3,5.3s-2.3,4.6-3.1,7.3
					c-0.7,2.7-1.1,5.4-1.2,8.1c0.1,4.1,1.1,7.2,3.5,9.1c2.3,1.9,5.1,2.9,8.5,2.9c2.7-0.1,5.1-0.6,7.3-1.7c2.2-1.2,4.1-2.5,5.6-3.8
					c1.9-1.6,3.5-3.5,4.9-5.5c0.2-0.2,0.4-0.5,0.7-0.9c0.2-0.2,0.5-0.4,0.8-0.6c0.3-0.2,0.7-0.3,1.1-0.3c0.7,0,1.3,0.2,1.8,0.7
					c0.5,0.5,0.7,1,0.8,1.6c0,0.3-0.1,0.6-0.2,0.9c-0.2,0.3-0.3,0.6-0.5,0.9C319,249.9,318.8,250.3,318.7,250.7z"/>
				<path class="st5" d="M375.2,250.1c-1.7,2.8-3.6,5.4-5.8,7.5c-1.8,1.9-3.9,3.6-6.4,5.1c-2.5,1.6-5.2,2.3-8.1,2.3
					c-3.3,0.1-6.2-0.8-8.5-2.5c-2.4-1.6-3.8-4.1-4.1-7.4c-1.5,2-3.2,3.8-5.1,5.2c-1.6,1.3-3.3,2.5-5.3,3.5s-4.1,1.7-6.4,1.6
					c-1.6,0-3.1-0.2-4.6-0.9c-1.5-0.6-2.8-1.4-3.9-2.4c-1.1-1.1-2-2.4-2.7-3.9c-0.7-1.5-1-3.1-1-5c-0.1-4.3,0.8-8.6,2.3-12.8
					c1.5-4.3,3.7-8.1,6.2-11.5c2.5-3.5,5.5-6.2,8.8-8.2c3.2-2.2,6.4-3.2,9.7-3.2c2.4-0.1,4.4,0.2,6.1,0.8s3.1,1.2,4.1,1.8
					c1.2,0.8,2.2,1.7,2.9,2.7c0.9,0,1.8,0,2.8,0.2c1,0.2,1.9,0.5,2.8,0.9c0.8,0.4,1.6,1,2.1,1.7c0.6,0.7,0.9,1.6,0.9,2.6
					c0,0.9-0.3,2.3-0.9,4.3c-0.7,2-1.4,4.2-2.4,6.7c-0.8,2.4-1.6,5-2.4,7.6c-0.6,2.6-1,4.9-1.1,6.9c0,1,0.3,1.7,1,2.4
					c0.6,0.6,1.4,0.9,2.5,0.9c1.6,0,3.1-0.6,4.7-1.6c1.5-1.1,2.9-2.3,4-3.7c1.4-1.5,2.6-3.2,3.9-5.2c0.1-0.2,0.3-0.5,0.6-0.9
					c0.2-0.2,0.4-0.3,0.7-0.6c0.3-0.2,0.7-0.3,1.1-0.3c0.6,0,1.2,0.2,1.7,0.7c0.5,0.5,0.8,1,0.8,1.6c0,0.3,0,0.6-0.2,0.9
					c-0.1,0.3-0.2,0.6-0.4,0.9C375.5,249.3,375.4,249.7,375.2,250.1z M347.4,229.3c-0.1-1.7-0.5-3-1.4-3.8s-1.9-1.2-3.1-1.2
					c-1.7,0.1-3.5,1-5.3,2.8c-1.8,1.9-3.4,4.2-4.9,6.8c-1.4,2.7-2.6,5.6-3.6,8.7c-0.9,3.1-1.4,5.9-1.4,8.4c0.1,3.6,1.2,5.3,3.5,5.3
					c1.4,0,3-1,4.9-2.9c1.8-2,3.5-4.4,5.3-7.1c1.6-2.8,3-5.8,4.2-8.9C346.9,234.2,347.4,231.6,347.4,229.3z"/>
				<path class="st5" d="M385.1,252.1c0,1.4,0.4,2.4,1.1,3.2s1.6,1.2,2.8,1.2c1.6,0,3.1-0.6,4.7-1.6c1.5-1.1,2.9-2.3,4-3.7
					c1.4-1.5,2.6-3.2,3.9-5.2c0.1-0.2,0.3-0.5,0.6-0.9c0.2-0.2,0.4-0.3,0.7-0.6c0.3-0.2,0.7-0.3,1.1-0.3c0.6,0,1.2,0.2,1.7,0.7
					c0.5,0.5,0.8,1,0.8,1.6c0,0.3,0,0.6-0.2,0.9c-0.1,0.3-0.2,0.6-0.4,0.9c-0.2,0.3-0.3,0.7-0.4,1.1c-1.7,2.8-3.6,5.4-5.8,7.5
					c-1.8,1.9-3.9,3.6-6.4,5.1c-2.5,1.6-5.2,2.3-8.1,2.3c-4.5,0.1-8.2-1.2-11.1-3.5c-2.8-2.3-4.2-5.5-4.2-9.3
					c-0.1-2.1,0.3-4.7,1-7.8c0.6-3,1.5-6.1,2.4-9.2c0.9-3.1,1.9-6.1,3-8.9c1.1-2.8,0.4-3.3,1.2-5c0.3-0.6,0.7-1.2,1.3-1.6
					c0.5-0.5,1.2-0.7,1.9-0.7c0.9,0,1.9,0.2,3,0.7c1.1,0.5,2.2,1.1,3.2,1.8s2.3,2,2.9,2.7c0.7,0.7,1,1.3,1,1.8
					c0.1,1.8-0.2,3.8-1,5.9c-0.7,2.1-0.5,2.1-1.4,4.5c-0.8,2.4-1.5,5-2.2,7.6C385.3,246.5,385,249.3,385.1,252.1z"/>
				<path class="st5" d="M420.6,265c-2.9,0.1-5.7-0.5-8.4-1.7c-2.7-1.1-5-2.6-7-4.3s-3.6-3.5-4.7-5.7c-1.2-2-1.8-3.9-1.8-5.7
					c0-1.7,0.5-3.2,1.7-4.5c1.2-1.2,2.4-2.3,3.8-3.1c1.6-0.9,3.5-1.7,5.7-2.2c0.5-0.8,1.1-1.8,1.8-3c0.6-1,1.4-2.4,2.4-3.9
					c1-1.6,2.1-3.5,3.5-5.6c2.7-4.3,5.2-7.2,7.1-8.8c1.9-1.7,3.7-2.6,5.2-2.5c0.6,0,1.3,0.1,2,0.5c0.7,0.3,1.3,0.7,1.9,1.2
					s1.1,0.9,1.5,1.4c0.4,0.5,0.6,0.9,0.6,1.2c0,0.4-0.1,0.9-0.4,1.5c-0.3,0.6-0.6,1.3-1,1.9c-0.3,0.7-0.6,1.4-0.9,2.2
					c-0.3,0.8-0.4,1.5-0.3,2.3c0.1,2.4,0.4,4.4,0.8,6.2c0.5,1.7,1.1,3.4,1.6,4.9s1.2,3,1.7,4.5c0.5,1.5,0.8,3.1,0.8,4.9
					c0.1,2.5-0.4,4.9-1.2,7.1c-0.7,2.2-1.8,4.1-3.4,5.8c-1.5,1.6-3.3,2.9-5.5,3.8C426,264.5,423.5,265,420.6,265z M420.4,231.2
					c-1.6,2.6-3.1,4.9-4.4,7c-1.1,1.9-2,3.6-3,5.2c-0.9,1.6-1.3,2.6-1.3,3c0.1,1.7,0.2,3.4,0.3,5.1c0.2,1.6,0.6,3.1,1.1,4.3
					c0.5,1.3,1.1,2.3,1.9,3c0.7,0.7,1.7,1.1,2.8,1c1.8-0.1,3.4-1.1,4.6-3c1.3-2,1.8-4.4,2-7.1c0-1.5-0.3-3.1-0.6-4.7
					c-0.4-1.7-0.9-3.3-1.3-4.9c-0.5-1.6-0.9-3.2-1.3-4.7C420.5,233.7,420.3,232.4,420.4,231.2z"/>
			</g>
			<g>
				<path class="st5" d="M111.2,246.2c-0.7,1.2-1.6,2.6-2.6,4.1s-2.3,3-3.8,4.3c-1.5,1.3-4.5,2.6-8,3.2c-2.3,0.5-5.3,0.2-8.1,0.2
					c1.2,1.2,2.3,2.6,3.2,4.3c0.9,1.4,1.6,3.2,2.3,5.4c0.7,2.2,1,4.6,1,7.4c0,1.6-0.2,3.3-0.8,5.1c-0.5,1.8-1.2,3.4-2.2,5
					c-0.9,1.5-2.1,2.8-3.5,3.8c-1.4,1-3,1.5-4.8,1.5c-1.6,0.1-3.4-0.2-5.4-1c-2-0.7-3.8-1.8-5.5-3.6c-1.7-1.7-3.1-3.9-4.1-6.6
					c-1.2-2.7-1.7-6.2-1.7-10.3c0-6.9,0.5-14.2,1.4-21.8c1-7.6,2.3-15.1,3.9-22.4c1.7-7.3,3.7-14.3,6-20.9
					c2.4-6.6,4.8-12.4,7.4-17.3c2.7-5,6.8-12.5,8.2-16.4c3.1-8.5,7.1-12.7,9.9-12.8c1.3,0,2.4,2.4,3.6,3.1c1.2,0.7,2.4,1.6,3.4,2.7
					c1,1.1,1.8,2.3,2.4,3.6c0.6,1.3,1,2.5,1,3.6c0,1.8-1.5,14.9-2.3,17.7c-0.8,2.9-2.1,6-3.6,9.4c-1.4,3.4-3.3,7-5.2,10.7
					c-1.9,3.8-4.1,7.4-6.2,10.7c-2.1,3.5-4.5,6.7-6.7,9.6c-2.2,3-4.4,5.5-6.5,7.3c-0.6,2-1,4.1-1.4,6.3c-0.3,2.2-0.5,4.5-0.8,6.7
					c0.5,0.8,1.2,1.4,1.9,1.9c0.6,0.4,1.4,0.8,2.3,1.1c0.9,0.4,1.3,1.1,2.5,1c1.9-0.1,4.9,0.2,6.6,0c3.5-0.6,5.6-2,6.8-3
					c1.2-1,1.1-1.3,2.4-2.4c1.8-1.6,3.2-4,4.1-5.2c0.1-0.3,0.5,0.1,0.8-0.3c0.1-0.2-0.3,0.2,0,0c0.3-0.2,0.6-1.6,1-1.6
					c0.6,0,1.1,0.2,1.6,0.7s0.8,1.1,0.8,1.8c0,0.3,0,0.7-0.1,1s-0.2,0.6-0.4,1C111.5,245.3,111.3,245.7,111.2,246.2z M80.1,255.5
					c-0.1,1.7-0.2,3.5-0.4,5.3c-0.1,1.5-0.2,3.2-0.3,5.1c0,1.8,0,3.6-0.1,5.3c0,5.1,0.5,8.5,1.6,10.5c1.1,1.9,2.1,2.9,3,2.8
					c0.7,0,1.2-0.3,1.7-0.9c0.5-0.6,0.8-1.3,1.1-2.2c0.3-0.9,0.5-1.8,0.6-2.9s0.2-2.1,0.1-3.2c-0.1-2.7-0.4-5.3-1.2-7.8
					s-1.6-4.6-2.6-6.3C82.7,259.4,81.4,257.3,80.1,255.5z M107.2,181c0-1.7,0.2-13.3-1.4-13.2c-1,0-1.4-1.8-3.8,0.1
					c-5,3.8-9.8,27.3-11.4,31.8c-1.6,4.4,2.2,3.1,0.4,8.7c-1.7,5.6-3.2,11.2-4.6,16.9c1.2-1.1,2.5-2.7,4.1-5s3.1-4.8,4.7-7.6
					c1.5-2.8,3-5.8,4.5-9c1.4-3.2,2.7-6.2,3.9-9.1c1.1-2.9,2.1-5.6,2.8-8C106.7,184.2,107.2,182.3,107.2,181z"/>
				<path class="st5" d="M136.6,250.4c0,1.4,0.4,2.4,1.2,3.1c0.7,0.7,1.7,1,2.9,1c1.6,0,3.1-0.6,4.7-1.6c1.5-1.1,2.9-2.3,4-3.7
					c1.4-1.5,2.6-3.2,3.9-5.2c0.1-0.2,0.3-0.5,0.6-0.9c0.2-0.2,0.4-0.3,0.7-0.6c0.3-0.2,0.7-0.3,1.1-0.3c0.6,0,1.2,0.2,1.7,0.7
					s0.8,1,0.8,1.6c0,0.3,0,0.6-0.2,0.9c-0.1,0.3-0.2,0.6-0.4,0.9c-0.2,0.3-0.3,0.7-0.4,1.1c-1.7,2.8-3.6,5.4-5.8,7.5
					c-1.8,1.9-3.9,3.6-6.4,5.1c-2.5,1.6-5.2,2.3-8.1,2.3c-2.3,0.1-4.4-0.2-6.2-0.9c-1.8-0.6-3.5-1.4-4.8-2.5c-1.4-1-2.4-2.3-3.2-3.7
					c-0.8-1.4-1.2-2.9-1.1-4.6c-0.1-2.6,0.4-5.1,1.2-7.4c0.7-2.3,1.5-4.5,2.5-6.4c0.9-1.9,1.7-3.6,2.5-5.1c0.8-1.5,1.1-2.7,1.1-3.7
					c0-0.6-0.4-1.1-1.2-1.4c-0.8-0.3-1.6-0.5-2.5-0.8c-1-0.2-2.2-0.4-3.6-0.5c-2.2,5.9-4.4,10.7-6.4,14.3c-2,3.8-3.7,6.6-5,8.3
					c-0.2,0.2-0.4,0.6-0.9,1.1c-0.4,0.5-1,0.7-1.7,0.8c-0.6,0-1.2-0.2-1.7-0.7s-0.8-1.1-0.8-1.7c0-0.6,0.1-1.1,0.5-1.6
					c0.3-0.5,0.6-1,0.7-1.3c1.1-1.6,2.6-4.2,4.7-7.6c1.9-3.5,3.9-8.1,5.6-13.7c-0.8-0.5-1.5-1.2-2.1-2.1c-0.5-0.7-1-1.6-1.4-2.7
					c-0.4-1.1-0.7-2.4-0.7-3.9c0-1.2,0.2-2.3,0.6-3.4c0.4-1.1,1-2,1.6-2.8c0.7-0.8,1.4-1.5,2.2-2c0.8-0.5,1.5-0.8,2.2-0.8
					c0.8,0,1.6,0.2,2.5,0.6c0.9,0.4,1.7,0.9,2.4,1.5s1.3,1.2,1.8,2c0.5,0.7,0.8,1.4,0.8,1.9c0,1.6-0.2,2.9-0.7,4c-0.5,1-0.7,2-0.7,3
					c0,0.9,0.5,1.5,1.5,1.9c1,0.4,2.2,0.5,3.6,0.5c1.3,0,2.5-0.2,3.4-0.3c0.9-0.2,1.7-0.4,2.4-0.6c0.7-0.2,1.4-0.4,2-0.6
					s1.3-0.3,2-0.3c1.4,0,2.6,0.5,3.6,1.6c0.9,1.1,1.4,2.4,1.5,4c0,1.4-0.4,3-1.3,4.9c-0.9,1.9-1.8,4-3,6.2c-1,2.3-2.1,4.6-3,7.1
					C137.1,245.7,136.6,248,136.6,250.4z"/>
				<path class="st5" d="M213.7,247.1c-1.7,2.8-3.6,5.4-5.8,7.5c-1.8,1.9-3.9,3.6-6.4,5.1c-2.5,1.6-5.2,2.3-8.1,2.3
					c-3.3,0.1-6.2-0.8-8.5-2.5c-2.4-1.6-3.8-4.1-4.1-7.4c-1.5,2-3.2,3.8-5.1,5.2c-1.6,1.3-3.3,2.5-5.3,3.5c-2,1.1-4.1,1.7-6.4,1.6
					c-1.6,0-3.1-0.2-4.6-0.9c-1.5-0.6-2.8-1.4-3.9-2.4c-1.1-1.1-2-2.4-2.7-3.9c-0.7-1.5-1-3.1-1-5c-0.1-4.3,0.8-8.6,2.3-12.8
					c1.5-4.3,3.7-8.1,6.2-11.5c2.5-3.5,5.5-6.2,8.8-8.2c3.2-2.2,6.4-3.2,9.7-3.2c2.4-0.1,4.4,0.2,6.1,0.8c1.7,0.5,3.1,1.2,4.1,1.8
					c1.2,0.8,2.2,1.7,2.9,2.7c0.9,0,1.8,0,2.8,0.2c1,0.2,1.9,0.5,2.8,0.9c0.8,0.4,1.6,1,2.1,1.7c0.6,0.7,0.9,1.6,0.9,2.6
					c0,0.9-0.3,2.3-0.9,4.3c-0.7,2-1.4,4.2-2.4,6.7c-0.8,2.4-1.6,5-2.4,7.6c-0.6,2.6-1,4.9-1.1,6.9c0,1,0.3,1.7,1,2.4
					c0.6,0.6,1.4,0.9,2.5,0.9c1.6,0,3.1-0.6,4.7-1.6c1.5-1.1,2.9-2.3,4-3.7c1.4-1.5,2.6-3.2,3.9-5.2c0.1-0.2,0.3-0.5,0.6-0.9
					c0.2-0.2,0.4-0.3,0.7-0.6c0.3-0.2,0.7-0.3,1.1-0.3c0.6,0,1.2,0.2,1.7,0.7s0.8,1,0.8,1.6c0,0.3,0,0.6-0.2,0.9
					c-0.1,0.3-0.2,0.6-0.4,0.9C214,246.4,213.9,246.7,213.7,247.1z M185.8,226.3c-0.1-1.7-0.5-3-1.4-3.8s-1.9-1.2-3.1-1.2
					c-1.7,0.1-3.5,1-5.3,2.8c-1.8,1.9-3.4,4.2-4.9,6.8c-1.4,2.7-2.6,5.6-3.6,8.7c-0.9,3.1-1.4,5.9-1.4,8.4c0.1,3.6,1.2,5.3,3.5,5.3
					c1.4,0,3-1,4.9-2.9c1.8-2,3.5-4.4,5.3-7.1c1.6-2.8,3-5.8,4.2-8.9C185.3,231.3,185.9,228.6,185.8,226.3z"/>
				<path class="st5" d="M251.5,248.8c0,1.4,0.4,2.4,1.1,3.2c0.7,0.8,1.6,1.2,2.8,1.2c1.6,0,3.1-0.6,4.7-1.6c1.5-1.1,2.9-2.3,4-3.7
					c1.4-1.5,2.6-3.2,3.9-5.2c0.1-0.2,0.3-0.5,0.6-0.9c0.2-0.2,0.4-0.3,0.7-0.6c0.3-0.2,0.7-0.3,1.1-0.3c0.6,0,1.2,0.2,1.7,0.7
					c0.5,0.5,0.8,1,0.8,1.6c0,0.3,0,0.6-0.2,0.9c-0.1,0.3-0.2,0.6-0.4,0.9c-0.2,0.3-0.3,0.7-0.4,1.1c-1.7,2.8-3.6,5.4-5.8,7.5
					c-1.8,1.9-3.9,3.6-6.4,5.1c-2.5,1.6-5.2,2.3-8.1,2.3c-4.5,0.1-8.2-1.1-11.1-3.4c-2.8-2.3-4.2-5.1-4.2-8.4
					c-0.1-2.5,0.3-4.8,0.9-7.1s1.2-4.5,2.1-6.7c0.7-2.2,1.3-4.2,2-6.2c0.6-2,0.8-3.9,0.9-5.7c0-0.6-0.3-1-0.8-1.3
					c-0.5-0.3-1-0.5-1.7-0.5c-1.8,0.1-3.8,1-5.8,2.6c-2.1,1.8-4,4.3-5.9,7.5c-1.8,3.3-3.4,7.2-4.5,11.8c-1.2,4.6-1.8,9.8-1.7,15.5
					c0,1-0.2,1.7-0.6,2c-0.4,0.3-1.1,0.5-2,0.5c-3.2,0.1-5.9-0.5-8-1.8c-2.2-1.2-3.3-2.7-3.2-4.6c-0.1-3.3,0.4-6.9,1-10.6
					c0.6-3.7,1.6-7.3,2.6-10.8c0.9-3.5,2.1-6.7,3.1-9.7s1.9-5.3,2.7-7c0.6-1.5,1.6-2.3,3.1-2.4c0.9,0,2,0.3,3.5,1
					c1.4,0.7,3.1,2.4,4.9,5.3c1.6-1.5,3.5-2.8,5.5-3.9c1.7-1,3.7-1.9,5.9-2.7c2.2-0.9,4.6-1.2,7.1-1.2c1.3,0,2.5,0.2,3.8,0.8
					c1.2,0.6,2.4,1.4,3.3,2.3c1,1,1.8,2,2.4,3.2s0.9,2.4,0.9,3.5c0.1,1.8-0.2,3.8-0.9,5.8s-1.3,4.2-2.1,6.3
					c-0.7,2.2-1.3,4.4-2.2,6.6C251.9,244.5,251.6,246.7,251.5,248.8z"/>
				<path class="st5" d="M316,245.9c-1.7,2.3-3.6,4.4-5.9,6.4c-1.9,1.7-4.2,3.4-7,4.8c-2.7,1.6-5.9,2.7-9.4,3.2
					c0,0.9,0.2,1.8,0.5,2.8c0.3,1,0.9,1.5,1.8,1.4c1,0,2-0.1,3-0.3c1.1-0.2,2-0.3,2.9-0.3c1.1,0,2,0.3,2.5,1.1
					c0.6,0.7,0.9,1.7,0.9,2.9c0,1.5-0.3,3.2-1.1,5s-1.9,3.6-3.6,5.2c-1.6,1.6-3.5,3-5.9,4.1c-2.4,1.1-5.1,1.7-8.3,1.7
					c-2.5,0.1-4.5-0.4-6.1-1.4c-1.6-0.9-2.4-2.2-2.5-3.8c0-1.3,0.4-2.4,1.2-3.4c0.8-1,1.8-1.5,2.9-1.6c0.8,0,1.4,0.1,1.9,0.5
					c0.5,0.3,1,0.7,1.4,1.2c0.4,0.5,1,0.9,1.6,1.2c0.6,0.3,1.6,0.5,2.8,0.5c1.2,0,2.4-0.3,3.6-0.8s2.2-1.1,3.1-1.8
					c0.9-0.7,1.6-1.4,2.1-2c0.5-0.7,0.8-1.1,0.8-1.5s-0.2-0.6-0.6-0.6c-1.7,0.1-3.5,0.4-5.2,0.9c-1.7,0.6-3.2,1-4.6,0.9
					c-1,0-1.7-0.3-2.2-0.9c-0.5-0.7-0.8-1.3-0.8-1.9c0-1.3,0.1-2.8,0.4-4.7c0.3-1.8,0.5-3.3,0.7-4.4c-2.4-0.1-4.7-0.6-7.1-1.3
					c-2.3-0.6-4.4-1.7-6.3-3.1c-1.9-1.4-3.4-3.2-4.5-5.4c-1.2-2.2-1.7-4.8-1.7-7.9c-0.1-4,0.8-7.8,2.3-11.4c1.5-3.7,3.7-6.9,6.2-9.6
					c2.5-2.8,5.4-4.9,8.6-6.5c3.1-1.7,6.2-2.5,9.2-2.5c2.1-0.1,4.1,0.2,5.7,0.9c1.7,0.6,3.1,1.5,4.3,2.6c1.2,1.1,2.1,2.3,2.8,3.7
					c0.7,1.4,1,2.7,1.1,4.1c0,1-0.2,2.1-0.6,3.2s-1,2.1-1.6,3c-0.7,0.9-1.4,1.6-2.3,2.2c-0.8,0.6-1.6,0.9-2.4,0.9
					c-1.6,0-3-0.4-4.3-1.4c-1.3-1-1.9-2.1-1.9-3.5c0-1,0.2-1.9,0.6-2.5c0.5-0.6,1-1.2,1.6-1.8c0.6-0.5,1.1-1,1.6-1.5
					c0.5-0.5,0.7-1,0.7-1.6c0-0.6-0.4-1.2-1.1-1.7c-0.7-0.5-1.5-0.7-2.5-0.7c-1.7,0.1-3.4,0.8-5,2c-1.6,1.4-3,3.1-4.3,5.3
					c-1.2,2.2-2.3,4.6-3.1,7.3c-0.7,2.7-1.1,5.4-1.2,8.1c0.1,4.1,1.1,7.2,3.5,9.1c2.3,1.9,5.1,2.9,8.5,2.9c2.7-0.1,5.1-0.6,7.3-1.7
					c2.2-1.2,4.1-2.5,5.6-3.8c1.9-1.6,3.5-3.5,4.9-5.5c0.2-0.2,0.4-0.5,0.7-0.9c0.2-0.2,0.5-0.4,0.8-0.6c0.3-0.2,0.7-0.3,1.1-0.3
					c0.7,0,1.3,0.2,1.8,0.7c0.5,0.5,0.7,1,0.8,1.6c0,0.3-0.1,0.6-0.2,0.9c-0.2,0.3-0.3,0.6-0.5,0.9
					C316.3,245.1,316.1,245.5,316,245.9z"/>
				<path class="st5" d="M372.5,245.3c-1.7,2.8-3.6,5.4-5.8,7.5c-1.8,1.9-3.9,3.6-6.4,5.1c-2.5,1.6-5.2,2.3-8.1,2.3
					c-3.3,0.1-6.2-0.8-8.5-2.5c-2.4-1.6-3.8-4.1-4.1-7.4c-1.5,2-3.2,3.8-5.1,5.2c-1.6,1.3-3.3,2.5-5.3,3.5c-2,1.1-4.1,1.7-6.4,1.6
					c-1.6,0-3.1-0.2-4.6-0.9c-1.5-0.6-2.8-1.4-3.9-2.4c-1.1-1.1-2-2.4-2.7-3.9c-0.7-1.5-1-3.1-1-5c-0.1-4.3,0.8-8.6,2.3-12.8
					c1.5-4.3,3.7-8.1,6.2-11.5c2.5-3.5,5.5-6.2,8.8-8.2c3.2-2.2,6.4-3.2,9.7-3.2c2.4-0.1,4.4,0.2,6.1,0.8c1.7,0.5,3.1,1.2,4.1,1.8
					c1.2,0.8,2.2,1.7,2.9,2.7c0.9,0,1.8,0,2.8,0.2c1,0.2,1.9,0.5,2.8,0.9c0.8,0.4,1.6,1,2.1,1.7c0.6,0.7,0.9,1.6,0.9,2.6
					c0,0.9-0.3,2.3-0.9,4.3c-0.7,2-1.4,4.2-2.4,6.7c-0.8,2.4-1.6,5-2.4,7.6c-0.6,2.6-1,4.9-1.1,6.9c0,1,0.3,1.7,1,2.4
					c0.6,0.6,1.4,0.9,2.5,0.9c1.6,0,3.1-0.6,4.7-1.6c1.5-1.1,2.9-2.3,4-3.7c1.4-1.5,2.6-3.2,3.9-5.2c0.1-0.2,0.3-0.5,0.6-0.9
					c0.2-0.2,0.4-0.3,0.7-0.6c0.3-0.2,0.7-0.3,1.1-0.3c0.6,0,1.2,0.2,1.7,0.7c0.5,0.5,0.8,1,0.8,1.6c0,0.3,0,0.6-0.2,0.9
					c-0.1,0.3-0.2,0.6-0.4,0.9C372.8,244.5,372.7,244.9,372.5,245.3z M344.7,224.5c-0.1-1.7-0.5-3-1.4-3.8s-1.9-1.2-3.1-1.2
					c-1.7,0.1-3.5,1-5.3,2.8c-1.8,1.9-3.4,4.2-4.9,6.8c-1.4,2.7-2.6,5.6-3.6,8.7c-0.9,3.1-1.4,5.9-1.4,8.4c0.1,3.6,1.2,5.3,3.5,5.3
					c1.4,0,3-1,4.9-2.9c1.8-2,3.5-4.4,5.3-7.1c1.6-2.8,3-5.8,4.2-8.9C344.3,229.5,344.7,226.8,344.7,224.5z"/>
				<path class="st5" d="M382.4,247.2c0,1.4,0.4,2.4,1.1,3.2c0.7,0.8,1.6,1.2,2.8,1.2c1.6,0,3.1-0.6,4.7-1.6c1.5-1.1,2.9-2.3,4-3.7
					c1.4-1.5,2.6-3.2,3.9-5.2c0.1-0.2,0.3-0.5,0.6-0.9c0.2-0.2,0.4-0.3,0.7-0.6c0.3-0.2,0.7-0.3,1.1-0.3c0.6,0,1.2,0.2,1.7,0.7
					c0.5,0.5,0.8,1,0.8,1.6c0,0.3,0,0.6-0.2,0.9c-0.1,0.3-0.2,0.6-0.4,0.9c-0.2,0.3-0.3,0.7-0.4,1.1c-1.7,2.8-3.6,5.4-5.8,7.5
					c-1.8,1.9-3.9,3.6-6.4,5.1c-2.5,1.6-5.2,2.3-8.1,2.3c-4.5,0.1-8.2-1.2-11.1-3.5c-2.8-2.3-4.2-5.5-4.2-9.3
					c-0.1-2.1,0.3-4.7,1-7.8c0.6-3,1.5-6.1,2.4-9.2s1.9-6.1,3-8.9c1.1-2.8,0.8-3.2,1.6-4.9c0.3-0.6,0.7-1.2,1.3-1.6
					c0.5-0.5,1.2-0.7,1.9-0.7c0.9,0,2.5,0.8,3.5,1.3c1.1,0.5,2.2,1.1,3.2,1.8s1.8,1.4,2.4,2.1c0.7,0.7,1,1.3,1,1.8
					c0.1,1.8-0.8,3.2-1.5,5.3c-0.7,2.1-0.4,2.5-1.2,4.9c-0.8,2.4-1.5,5-2.2,7.6C382.5,241.7,382.3,244.4,382.4,247.2z"/>
				<path class="st5" d="M417.8,260.2c-2.9,0.1-5.7-0.5-8.4-1.7c-2.7-1.1-5-2.6-7-4.3c-2-1.7-3.6-3.5-4.7-5.7
					c-1.2-2-1.8-3.9-1.8-5.7c0-1.7,0.5-3.2,1.7-4.5c1.2-1.2,2.4-2.3,3.8-3.1c1.6-0.9,3.5-1.7,5.7-2.2c0.5-0.8,1.1-1.8,1.8-3
					c0.6-1,1.4-2.4,2.4-3.9c1-1.6,2.1-3.5,3.5-5.6c2.7-4.3,5.2-7.2,7.1-8.8c1.9-1.7,3.7-2.6,5.2-2.5c0.6,0,1.3,0.1,2,0.5
					c0.7,0.3,1.3,0.7,1.9,1.2c0.6,0.5,1.1,0.9,1.5,1.4s0.6,0.9,0.6,1.2c0,0.4-0.1,0.9-0.4,1.5c-0.3,0.6-0.6,1.3-1,1.9
					c-0.3,0.7-0.6,1.4-0.9,2.2c-0.3,0.8-0.4,1.5-0.3,2.3c0.1,2.4,0.4,4.4,0.8,6.2c0.5,1.7,1.1,3.4,1.6,4.9c0.6,1.5,1.2,3,1.7,4.5
					c0.5,1.5,0.8,3.1,0.8,4.9c0.1,2.5-0.4,4.9-1.2,7.1c-0.8,2.2-1.8,4.1-3.4,5.8c-1.5,1.6-3.3,2.9-5.5,3.8
					C423.2,259.8,420.7,260.2,417.8,260.2z M417.7,226.4c-1.6,2.6-3.1,4.9-4.4,7c-1.1,1.9-2,3.6-3,5.2c-0.9,1.6-1.3,2.6-1.3,3
					c0.1,1.7,0.2,3.4,0.3,5.1c0.2,1.6,0.6,3.1,1.1,4.3c0.5,1.3,1.1,2.3,1.9,3c0.7,0.7,1.7,1.1,2.8,1c1.8-0.1,3.4-1.1,4.6-3
					c1.3-2,1.8-4.4,2-7.1c0-1.5-0.3-3.1-0.6-4.7c-0.4-1.7-0.9-3.3-1.3-4.9c-0.5-1.6-0.9-3.2-1.3-4.7
					C417.8,228.9,417.6,227.6,417.7,226.4z"/>
			</g>
		</g>
	</g>
</g>
<path class="st7" d="M251,477.8l4.4-12.6v12.6h7v-12.6l5.2,12.2l5.4-0.4l-6.7-15.5h22.1c1.6,0,0.1-4,0.1-5.6v-10.1l10.7,0.2
	l12.8,5.5c0.1,0,0.1,0.5,0.2,0.5v0.9h5.1c0.1,0,0.3-0.9,0.4-1s0.2-1,0.2-1.2v-25.2c0-0.3-0.2-0.2-0.5-0.2l-5.1,0.6
	c-0.1,0-0.3,0.1-0.4,0.2v0.1l-11.1,6.4h-12.4v-11.1c0-1.6,1.5-2.4-0.1-2.4h-8.5v-1.7c3.4,0.4,6.9,0.8,9.4,0.8
	c16.4,0,32.1-12.8,32.1-28.6c0-15.8-13.4-28.6-29.7-28.6c-3.5,0-6.8,0.6-9.9,1.7c1.4,0.3,2.6,1,3.6,1.9c1.2,1.1,1.9,2.8,1.9,4.7
	c0,3.1-2.1,5.8-5.2,6.5c-2.1,0.5-4.2,0.1-5.8-1c-1.3-0.9-2.1-2.1-2.6-3.4c-0.2-0.6-0.4-1.4-0.4-2.1c0-0.8,0.2-1.6,0.4-2.3
	c-7.1,5.3-11.7,13.7-11.7,23c0,1.6,0.1,3.6,0.4,5.3h-4c0,0-0.2-0.4-0.3,0c0.4-1.7,0.4-4.1,0.4-6c0-15.8-13.5-28.7-29.8-28.7
	c-3.8,0-7.4,0.7-10.7,1.9c1.8,0.1,3.5,0.9,4.7,2.1c1.2,1.1,1.9,2.8,1.9,4.7c0,3.1-2.1,5.8-5.2,6.5c-2.1,0.5-4.2,0.1-5.8-1
	c-1.3-0.9-2.1-2.1-2.6-3.4c-0.2-0.6-0.4-1.4-0.4-2.1c0-1.3,0.4-2.5,1-3.5c-7.8,5.2-12.9,13.8-12.9,23.5c0,15.8,12.7,28.7,29.1,28.7
	c3.6,0.5,3.4-0.1,8.6-1.1v2.4h-2.1c-1.6,0-6.6,0.8-6.6,2.4v0.4h-1.9l-5.1-3c-0.2-0.1-0.4,0-0.6,0.1l-2.8,0.1c-0.1,0-0.3-0.1-0.4,0
	c-0.1,0.1-0.2,0.1-0.2,0.2l-0.1,14.5c0,0.1,0,0.3,0.1,0.4s0.2,0.1,0.3,0.1h2.6l6-2.9h1.9v24.2c0,1.6,5,5.6,6.6,5.6h16v-2.4
	c0,1,1.9,1.8,2.7,2.3l-5.8,16.3L251,477.8z M310.1,378.1c3.5,0.5,6.1,3.3,6.1,6.7c0,0.2,0,0.4,0,0.6c-0.2,1.7-1,3.3-2.3,4.4
	c-1,0.9-2.3,1.5-3.7,1.7c-0.4,0-0.7,0.1-1,0.1c-3.9,0-7-3-7-6.8c0-0.2,0-0.4,0-0.6c0.3-3.5,3.3-6.1,7-6.1
	C309.5,378.1,309.8,378.1,310.1,378.1z M294.2,364.7c1.3-1.2,3.1-2,5-2c3.9,0,7,3,7,6.8c0,0.6-0.1,1.3-0.3,1.9
	c-0.8,2.8-3.5,4.9-6.7,4.9c-3.9-0.1-7-3.1-7-6.8C292.2,367.6,293,366,294.2,364.7z M299.2,394.1c3.1,0,5.7,1.9,6.6,4.5
	c0.3,0.7,0.4,1.5,0.4,2.2c0,3.7-3.1,6.8-7,6.8c-2.2,0-4.1-1-5.4-2.5c-1-1.1-1.6-2.6-1.6-4.2C292.2,397.2,295.3,394.1,299.2,394.1z
	 M206.8,391.3c-3.5-0.4-6.3-3.2-6.3-6.7c0-1,0.3-2,0.7-3c0.7-1.4,1.9-2.5,3.4-3.2c0.8-0.3,1.6-0.5,2.4-0.6c0.1-0.1,0.3-0.1,0.5-0.1
	c3.9,0,7,3,7,6.8s-3.2,6.8-7,6.8C207.3,391.3,207,391.3,206.8,391.3z M222.8,405.2c-1.3,1.5-3.3,2.5-5.5,2.5c-3.6,0.1-6.9-3-6.9-6.8
	c0-0.9,0.2-1.7,0.5-2.5c1-2.5,3.5-4.3,6.5-4.3c3.9,0,7,3,7,6.8C224.4,402.5,223.8,404,222.8,405.2z M231.5,364.7c1.3-1.2,3.1-2,5-2
	c3.9-0.1,7,2.9,7,6.8c0,0.6-0.1,1.3-0.3,1.9c-0.8,2.8-3.5,4.9-6.7,4.9c-3.9,0-7-3-7-6.8C229.5,367.6,230.3,366,231.5,364.7z
	 M236.4,407.6c-2.2,0-4.1-1-5.4-2.5c-1-1.1-1.6-2.6-1.6-4.2c0-3.7,3.1-6.8,7-6.8c3.1,0,5.7,1.9,6.6,4.5c0.3,0.7,0.4,1.5,0.4,2.2
	C243.4,404.5,240.3,407.6,236.4,407.6z M253.5,385.3c-0.2,1.7-1,3.3-2.3,4.4c-1,0.9-2.3,1.5-3.7,1.7c-0.3,0-0.7,0.1-1,0.1
	c-3.9,0-7-3-7-6.8c0-0.2,0-0.4,0-0.6c0.3-3.5,3.3-6.1,7-6.1c0.3,0,0.6,0,0.9,0c3.5,0.4,6.1,3.2,6.1,6.7
	C253.5,384.9,253.5,385.1,253.5,385.3z M269.5,391.3c-3.5-0.4-6.3-3.2-6.3-6.7c0-1,0.3-2,0.7-3c0.7-1.4,1.9-2.5,3.4-3.2
	c0.8-0.3,1.6-0.5,2.4-0.6c0.2-0.1,0.4-0.1,0.5-0.1c3.9,0,7,3,7,6.8s-3.2,6.8-7,6.8C270,391.3,269.7,391.3,269.5,391.3z M273.1,401
	c0-0.9,0.2-1.7,0.5-2.5c1-2.5,3.5-4.3,6.5-4.3c3.9,0,7,3,7,6.8c0,1.6-0.6,3.1-1.6,4.3c-1.2,1.5-3.2,2.5-5.4,2.5
	C276.3,407.8,273.1,404.8,273.1,401z"/>
<path d="M229.8,408v2.3h-2c-1.5,0-6.4,0.8-6.4,2.3v0.4h-1.8l-4.9-2.9c-0.2-0.1-0.4,0-0.6,0.1l-2.7,0.1l0,0c-0.1,0-0.3-0.1-0.4,0
	c-0.1,0.1-0.2,0.1-0.2,0.2l-0.1,14c0,0.1,0,0.3,0.1,0.4s0.2,0.1,0.3,0.1h2.8c0.1,0-0.1,0-0.1,0c0.1,0-0.3,0-0.2,0l5.8-2.8h1.8v23.3
	c0,1.5,4.8,5.4,6.4,5.4H243v-2.3c0,1,1.8,1.7,2.6,2.2L234.9,481c-0.5,1.3-0.1,2.7,1.3,3.2c0.3,0.1,0.2,0.2,0.6,0.2
	c1,0,1.2-0.6,1.5-1.5l9.9-28.4v27.9c0,1.4,1.9,2.4,3.4,2.4c1.4,0,3.4-1.1,3.4-2.4v-28l12,28.4c0.4,1,1.9,1.5,3,1.5
	c0.3,0,0.4,0,0.7-0.2c1.3-0.5,1.5-1.9,1-3.2l-13-30.2c0.8-0.5-0.4-1.3-0.4-2.2v2.3H280c1.5,0,0.1-3.9,0.1-5.4v-9.7l10.3,0.2
	l12.3,5.3c0.1,0,0.1,0.5,0.2,0.5v0.9l0,0h4.9l0,0c0.1,0,0.3-0.9,0.4-1c0.1-0.1,0.2-1,0.2-1.2v-24.3c0-0.3-0.2-0.2-0.5-0.2l-4.9,0.6
	l0,0c-0.1,0-0.3,0.1-0.4,0.2v0.1l-10.7,6.3h-12v-10.7c0-1.5,1.5-2.3-0.1-2.3h-8.2v-1.6c3.4,0.5,6.7,0.9,9.2,0.9
	c15.8,0,30.9-12.3,30.9-27.6c0-15.3-12.9-27.6-28.6-27.6c-15.8,0-28.6,12.7-28.6,27.9c0,1.5,0.1,3.5,0.4,5.1h-4c0,0-0.2-0.4-0.3,0
	c0.4-1.6,0.4-4,0.4-5.8c0-15.2-13-27.7-28.7-27.7c-15.8,0-28.9,12.4-28.9,27.7s12.2,27.7,28,27.7C224.9,409.6,224.8,409,229.8,408z
	 M206.8,397.4c0-0.9,0.2-1.6,0.5-2.4c1-2.4,3.4-4.1,6.3-4.1c3.8,0,6.7,2.9,6.7,6.5c0,1.5-0.6,3-1.5,4.1c-1.3,1.5-3.2,2.4-5.3,2.4
	C209.8,404,206.8,400.9,206.8,397.4z M203.9,375c3.8,0,6.7,2.9,6.7,6.5s-3.1,6.5-6.7,6.5c-0.2,0-0.5,0-0.7,0
	c-3.4-0.4-6.1-3.1-6.1-6.5c0-1,0.3-1.9,0.7-2.9c0.7-1.4,1.8-2.4,3.3-3.1c0.8-0.3,1.5-0.5,2.3-0.6C203.7,375,203.8,375,203.9,375z
	 M220.4,367c0,3-2,5.6-5,6.3c-2,0.5-4.1,0.1-5.6-1c-1.3-0.9-2-2-2.5-3.3c-0.2-0.6-0.4-1.4-0.4-2c0-3.6,3-6.5,6.7-6.5
	c1.9,0,3.7,0.8,4.9,2C219.7,363.5,220.4,365.3,220.4,367z M301.8,388.4c-3.8,0-6.7-2.9-6.7-6.5c0-0.2,0-0.4,0-0.6
	c0.3-3.4,3.2-5.9,6.7-5.9c0.3,0,0.6,0,0.9,0c3.4,0.5,5.9,3.2,5.9,6.5c0,0.2,0,0.4,0,0.6c-0.2,1.6-1,3.2-2.2,4.2
	c-1,0.9-2.2,1.5-3.6,1.6C302.5,388.3,302.1,388.4,301.8,388.4z M285.6,397.4c0-3.6,3-6.5,6.7-6.5c3,0,5.5,1.8,6.4,4.3
	c0.3,0.7,0.4,1.4,0.4,2.1c0,3.6-3,6.5-6.7,6.5c-2.1,0-4-1-5.2-2.4C286.1,400.3,285.6,398.9,285.6,397.4z M285.6,367.1
	c0-1.8,0.8-3.4,1.9-4.6c1.3-1.2,3-1.9,4.8-1.9c3.8,0,6.7,2.9,6.7,6.5c0,0.6-0.1,1.3-0.3,1.8c-0.8,2.7-3.4,4.7-6.5,4.7
	C288.5,373.6,285.6,370.7,285.6,367.1z M264.4,375c3.8,0,6.7,2.9,6.7,6.5s-3.1,6.5-6.7,6.5c-0.2,0-0.5,0-0.7,0
	c-3.4-0.4-6.1-3.1-6.1-6.5c0-1,0.3-1.9,0.7-2.9c0.7-1.4,1.8-2.4,3.3-3.1c0.8-0.3,1.5-0.5,2.3-0.6C264,375,264.2,375,264.4,375z
	 M280.8,367c0,3-2,5.6-5,6.3c-2,0.5-4,0.1-5.6-1c-1.3-0.9-2-2-2.5-3.3c-0.2-0.6-0.4-1.4-0.4-2c0-3.6,3-6.5,6.7-6.5
	c1.9,0,3.7,0.8,4.9,2C280.1,363.5,280.8,365.3,280.8,367z M274,404c-3.7,0-6.7-2.9-6.7-6.5c0-0.9,0.2-1.6,0.5-2.4
	c1-2.4,3.4-4.1,6.3-4.1c3.8,0,6.7,2.9,6.7,6.5c0,1.5-0.6,3-1.5,4.1C278,403,276.1,404,274,404z M225.1,397.4c0-3.6,3-6.5,6.7-6.5
	c3,0,5.5,1.8,6.4,4.3c0.3,0.7,0.4,1.4,0.4,2.1c0,3.6-3,6.5-6.7,6.5c-2.1,0-3.9-1-5.2-2.4C225.6,400.3,225.1,398.9,225.1,397.4z
	 M238.7,367.1c0,0.6-0.1,1.3-0.3,1.8c-0.8,2.7-3.4,4.7-6.4,4.7c-3.8,0-6.7-2.9-6.7-6.5c0-1.8,0.8-3.4,1.9-4.6c1.3-1.2,3-1.9,4.8-1.9
	C235.6,360.5,238.7,363.3,238.7,367.1z M248.4,381.8c0,0.2,0,0.4,0,0.6c-0.2,1.6-1,3.2-2.2,4.2c-1,0.9-2.2,1.5-3.6,1.6
	c-0.3,0-0.7,0.1-1,0.1c-3.8,0-6.7-2.9-6.7-6.5c0-0.2,0-0.4,0-0.6c0.3-3.4,3.2-5.9,6.7-5.9c0.3,0,0.6,0,0.9,0
	C245.7,375.7,248.4,378.4,248.4,381.8z"/>
<line class="st4" x1="79.4" y1="289.7" x2="430.2" y2="289.7"/>
<g>
	<g>
		<path class="st6" d="M109.2,235.5c-0.8,1.4,1.9,5.1,0.7,6.9c-1.1,1.7-2.5,3.3-4.2,4.8c-1.6,1.5-5.1,2.6-8.6,2.9
			c-2.5,0.3-5.7,0.2-8.7,0.2c1.3,1.3,2.4,2.9,3.3,4.8c0.9,1.6,1.7,3.6,2.4,6c0.8,2.4,1.1,5.2,1.1,8.2c0,1.8-0.2,3.7-0.8,5.7
			c-0.5,2-1.3,3.8-2.4,5.6c-1,1.7-2.2,3.1-3.7,4.2c-1.5,1.1-3.2,1.7-5.1,1.7c-1.7,0.1-3.7-0.3-5.7-1.1c-2.1-0.7-4-2-5.8-4
			c-1.8-1.9-3.3-4.3-4.4-7.4c-1.3-3.1-1.7-6.9-1.8-11.5c0-7.8,0.5-15.9,1.6-24.5c1.1-8.5,2.4-16.9,4.3-25.2
			c1.8-8.2,3.9-16.1,6.5-23.4c2.5-7.4,5.2-13.9,7.9-19.4c2.8-5.6,5.8-10,8.8-13.3c3-3.4,6.1-5,9.2-5c1.3-0.1,2.7,0.3,4,1.1
			s2.5,1.8,3.6,3c1.1,1.3,1.9,2.6,2.6,4.1c0.7,1.5,1,2.8,1,4.1c0,2-0.5,4.6-1.5,7.8c-0.9,3.2-2.3,6.7-3.8,10.6
			c-1.5,3.9-3.5,7.9-5.5,12c-2,4.2-4.3,8.3-6.6,12c-2.3,3.9-4.8,7.4-7.1,10.7c-2.3,3.4-4.7,6-6.9,8.1c-0.6,2.2-1.1,4.6-1.6,7.1
			c-0.3,2.5-0.7,5-0.9,7.5c0.6,0.8,1.3,1.5,2.1,2.1c0.6,0.5,1.5,0.9,2.4,1.3c1,0.4,2.1,0.4,3.3,0.5c6.1,0.6,4.2,0.6,6.1,0.6
			c5.1-0.1,6.3-1.4,7.6-2.6c1.3-1.3,2.5-2.6,3.5-4.2c1-1.5,2-3,2.8-4.4c0.1-0.3,0.3-0.6,0.6-1c0.2-0.2,0.4-0.4,0.7-0.7
			c0.3-0.2,0.7-0.4,1.1-0.4c0.6,0,1.2,0.2,1.7,0.8c0.5,0.6,0.8,1.2,0.8,2c0,0.4,0,0.7-0.2,1.1c-0.1,0.3-0.2,0.7-0.4,1.1
			C113.1,236.9,109.3,235.1,109.2,235.5z M79.6,247.6c-0.1,1.9-0.2,3.9-0.4,5.9c-0.1,1.7-0.2,3.6-0.3,5.7c0,2.1,0,4.1-0.1,6
			c0,5.7,0.6,9.6,1.7,11.8c1.1,2.2,2.2,3.2,3.2,3.2c0.7,0,1.3-0.4,1.8-1c0.5-0.6,0.9-1.5,1.2-2.4c0.3-1,0.5-2.1,0.6-3.3
			c0.1-1.2,0.2-2.4,0.2-3.5c-0.1-3.1-0.5-6-1.2-8.7c-0.9-2.8-1.7-5.1-2.6-7.1C82.3,251.9,81.1,249.6,79.6,247.6z M108.5,164.1
			c0-1.9-0.9-2.9-2.6-2.8c-1.1,0-2.4,1.6-4.1,4.7c-1.6,3.1-3.4,7.1-5.2,12s-3.7,10.6-5.5,16.7c-1.8,6.3-3.4,12.6-4.9,18.9
			c1.2-1.2,2.7-3.1,4.3-5.6c1.6-2.6,3.3-5.4,5-8.5c1.6-3.2,3.3-6.6,4.8-10c1.5-3.6,3-7,4.1-10.2c1.2-3.3,2.2-6.3,3-9
			C108.1,167.5,108.5,165.5,108.5,164.1z"/>
		<path class="st6" d="M135.3,246.7c0,1.4,0.4,2.4,1.2,3.1c0.7,0.7,1.7,1,2.9,1c1.6,0,3.1-0.6,4.7-1.6c1.5-1.1,2.9-2.3,4-3.7
			c1.4-1.5,2.6-3.2,3.9-5.2c0.1-0.2,0.3-0.5,0.6-0.9c0.2-0.2,0.4-0.3,0.7-0.6c0.3-0.2,0.7-0.3,1.1-0.3c0.6,0,1.2,0.2,1.7,0.7
			s0.8,1,0.8,1.6c0,0.3,0,0.6-0.2,0.9c-0.1,0.3-0.2,0.6-0.4,0.9c-0.2,0.3-0.3,0.7-0.4,1.1c-1.7,2.8-3.6,5.4-5.8,7.5
			c-1.8,1.9-3.9,3.6-6.4,5.1c-2.5,1.6-5.2,2.3-8.1,2.3c-2.3,0.1-4.4-0.2-6.2-0.9c-1.8-0.6-3.5-1.4-4.8-2.5c-1.4-1-2.4-2.3-3.2-3.7
			c-0.8-1.4-1.2-2.9-1.1-4.6c-0.1-2.6,0.4-5.1,1.2-7.4c0.7-2.3,1.5-4.5,2.5-6.4c0.9-1.9,1.7-3.6,2.5-5.1c0.8-1.5,1.1-2.7,1.1-3.7
			c0-0.6-0.4-1.1-1.2-1.4c-0.8-0.3-1.6-0.5-2.5-0.8c-1-0.2-2.2-0.4-3.6-0.5c-2.2,5.9-4.4,10.7-6.4,14.3c-4.4,8.1-7.5,10.4-6,8.3
			c-0.2,0.2-3.7,0.7-4.1,1.1c-0.4,0.5,3.3,0.7,2.6,0.7c-0.6,0-1.2-0.2-1.7-0.7s-0.8-1.1-0.8-1.7c0-0.6,0.1-1.1,0.5-1.6
			c0.3-0.5,0.6-1,0.7-1.3c1.1-1.6-2.1,2.6-0.1-0.9c1.9-3.5,8.6-14.7,10.3-20.4c-0.8-0.5-1.5-1.2-2.1-2.1c-0.5-0.7-1-1.6-1.4-2.7
			c-0.4-1.1-0.7-2.4-0.7-3.9c0-1.2,0.2-2.3,0.6-3.4c0.4-1.1,1-2,1.6-2.8c0.7-0.8,1.4-1.5,2.2-2c0.8-0.5,1.5-0.8,2.2-0.8
			c0.8,0,1.6,0.2,2.5,0.6s1.7,0.9,2.4,1.5s1.3,1.2,1.8,2c0.5,0.7,0.8,1.4,0.8,1.9c0,1.6-0.2,2.9-0.7,4c-0.5,1-0.7,2-0.7,3
			c0,0.9,0.5,1.5,1.5,1.9c1,0.4,2.2,0.5,3.6,0.5c1.3,0,2.5-0.2,3.4-0.3c0.9-0.2,1.7-0.4,2.4-0.6c0.7-0.2,1.4-0.4,2-0.6
			c0.6-0.2,1.3-0.3,2-0.3c1.4,0,2.6,0.5,3.6,1.6c0.9,1.1,1.4,2.4,1.5,4c0,1.4-0.4,3-1.3,4.9c-0.9,1.9-1.8,4-3,6.2
			c-1,2.3-2.1,4.6-3,7.1C135.6,241.9,135.2,244.3,135.3,246.7z"/>
		<path class="st6" d="M212.2,243.4c-1.7,2.8-3.6,5.4-5.8,7.5c-1.8,1.9-3.9,3.6-6.4,5.1c-2.5,1.6-5.2,2.3-8.1,2.3
			c-3.3,0.1-6.2-0.8-8.5-2.5c-2.4-1.6-3.8-4.1-4.1-7.4c-1.5,2-3.2,3.8-5.1,5.2c-1.6,1.3-3.3,2.5-5.3,3.5s-4.1,1.7-6.4,1.6
			c-1.6,0-3.1-0.2-4.6-0.9c-1.5-0.6-2.8-1.4-3.9-2.4c-1.1-1.1-2-2.4-2.7-3.9c-0.7-1.5-1-3.1-1-5c-0.1-4.3,0.8-8.6,2.3-12.8
			c1.5-4.3,3.7-8.1,6.2-11.5s5.5-6.2,8.8-8.2c3.2-2.2,6.4-3.2,9.7-3.2c2.4-0.1,4.4,0.2,6.1,0.8c1.7,0.5,3.1,1.2,4.1,1.8
			c1.2,0.8,2.2,1.7,2.9,2.7c0.9,0,1.8,0,2.8,0.2c1,0.2,1.9,0.5,2.8,0.9c0.8,0.4,1.6,1,2.1,1.7c0.6,0.7,0.9,1.6,0.9,2.6
			c0,0.9-0.3,2.3-0.9,4.3c-0.7,2-1.4,4.2-2.4,6.7c-0.8,2.4-1.6,5-2.4,7.6c-0.6,2.6-1,4.9-1.1,6.9c0,1,0.3,1.7,1,2.4
			c0.6,0.6,1.4,0.9,2.5,0.9c1.6,0,3.1-0.6,4.7-1.6c1.5-1.1,2.9-2.3,4-3.7c1.4-1.5,2.6-3.2,3.9-5.2c0.1-0.2,0.3-0.5,0.6-0.9
			c0.2-0.2,0.4-0.3,0.7-0.6c0.3-0.2,0.7-0.3,1.1-0.3c0.6,0,1.2,0.2,1.7,0.7s0.8,1,0.8,1.6c0,0.3,0,0.6-0.2,0.9
			c-0.1,0.3-0.2,0.6-0.4,0.9C212.5,242.6,212.4,243,212.2,243.4z M184.4,222.6c-0.1-1.7-0.5-3-1.4-3.8s-1.9-1.2-3.1-1.2
			c-1.7,0.1-3.5,1-5.3,2.8s-3.4,4.2-4.9,6.8c-1.4,2.7-2.6,5.6-3.6,8.7c-0.9,3.1-1.4,5.9-1.4,8.4c0.1,3.6,1.2,5.3,3.5,5.3
			c1.4,0,3-1,4.9-2.9c1.8-2,3.5-4.4,5.3-7.1c1.6-2.8,3-5.8,4.2-8.9C183.9,227.6,184.5,224.9,184.4,222.6z"/>
		<path class="st6" d="M250.2,245c0,1.4,0.4,2.4,1.1,3.2c0.7,0.8,1.6,1.2,2.8,1.2c1.6,0,3.1-0.6,4.7-1.6c1.5-1.1,2.9-2.3,4-3.7
			c1.4-1.5,2.6-3.2,3.9-5.2c0.1-0.2,0.3-0.5,0.6-0.9c0.2-0.2,0.4-0.3,0.7-0.6c0.3-0.2,0.7-0.3,1.1-0.3c0.6,0,1.2,0.2,1.7,0.7
			c0.5,0.5,0.8,1,0.8,1.6c0,0.3,0,0.6-0.2,0.9c-0.1,0.3-0.2,0.6-0.4,0.9c-0.2,0.3-0.3,0.7-0.4,1.1c-1.7,2.8-3.6,5.4-5.8,7.5
			c-1.8,1.9-3.9,3.6-6.4,5.1c-2.5,1.6-5.2,2.3-8.1,2.3c-4.5,0.1-8.2-1.1-11.1-3.4c-2.8-2.3-4.2-5.1-4.2-8.4
			c-0.1-2.5,0.3-4.8,0.9-7.1c0.6-2.3,1.2-4.5,2.1-6.7c0.7-2.2,1.3-4.2,2-6.2s0.8-3.9,0.9-5.7c0-0.6-0.3-1-0.8-1.3
			c-0.5-0.3-1-0.5-1.7-0.5c-1.8,0.1-3.8,1-5.8,2.6c-2.1,1.8-4,4.3-5.9,7.5c-1.8,3.3-3.4,7.2-4.5,11.8s-1.8,9.8-1.7,15.5
			c0,1-0.2,1.7-0.6,2s-1.1,0.5-2,0.5c-3.2,0.1-5.9-0.5-8-1.8c-2.2-1.2-3.3-2.7-3.2-4.6c-0.1-3.3,0.4-6.9,1-10.6
			c0.6-3.7,1.6-7.3,2.6-10.8c0.9-3.5,2.1-6.7,3.1-9.7s1.9-5.3,2.7-7c0.6-1.5,1.6-2.3,3.1-2.4c0.9,0,2,0.3,3.5,1
			c1.4,0.7,3.1,2.4,4.9,5.3c1.6-1.5,3.5-2.8,5.5-3.9c1.7-1,3.7-1.9,5.9-2.7c2.2-0.9,4.6-1.2,7.1-1.2c1.3,0,2.5,0.2,3.8,0.8
			c1.2,0.6,2.4,1.4,3.3,2.3c1,1,1.8,2,2.4,3.2s0.9,2.4,0.9,3.5c0.1,1.8-0.2,3.8-0.9,5.8c-0.6,2-1.3,4.2-2.1,6.3
			c-0.7,2.2-1.3,4.4-2.2,6.6C250.4,240.7,250.1,242.9,250.2,245z"/>
		<path class="st6" d="M314.5,242.2c-1.7,2.3-3.6,4.4-5.9,6.4c-1.9,1.7-4.2,3.4-7,4.8c-2.7,1.6-5.9,2.7-9.4,3.2
			c0,0.9,0.2,1.8,0.5,2.8c0.3,1,0.9,1.5,1.8,1.4c1,0,2-0.1,3-0.3c1.1-0.2,2-0.3,2.9-0.3c1.1,0,2,0.3,2.5,1.1
			c0.6,0.7,0.9,1.7,0.9,2.9c0,1.5-0.3,3.2-1.1,5s-1.9,3.6-3.6,5.2c-1.6,1.6-3.5,3-5.9,4.1c-2.4,1.1-5.1,1.7-8.3,1.7
			c-2.5,0.1-4.5-0.4-6.1-1.4c-1.6-0.9-2.4-2.2-2.5-3.8c0-1.3,0.4-2.4,1.2-3.4c0.8-1,1.8-1.5,2.9-1.6c0.8,0,1.4,0.1,1.9,0.5
			c0.5,0.3,1,0.7,1.4,1.2c0.4,0.5,1,0.9,1.6,1.2c0.6,0.3,1.6,0.5,2.8,0.5c1.2,0,2.4-0.3,3.6-0.8c1.2-0.5,2.2-1.1,3.1-1.8
			c0.9-0.7,1.6-1.4,2.1-2c0.5-0.7,0.8-1.1,0.8-1.5c0-0.4-0.2-0.6-0.6-0.6c-1.7,0.1-3.5,0.4-5.2,0.9s-3.2,1-4.6,0.9
			c-1,0-1.7-0.3-2.2-0.9c-0.5-0.7-0.8-1.3-0.8-1.9c0-1.3,0.1-2.8,0.4-4.7c0.3-1.8,0.5-3.3,0.7-4.4c-2.4-0.1-4.7-0.6-7.1-1.3
			c-2.3-0.6-4.4-1.7-6.3-3.1c-1.9-1.4-3.4-3.2-4.5-5.4c-1.2-2.2-1.7-4.8-1.7-7.9c-0.1-4,0.8-7.8,2.3-11.4c1.5-3.7,3.7-6.9,6.2-9.6
			c2.5-2.8,5.4-4.9,8.6-6.5c3.1-1.7,6.2-2.5,9.2-2.5c2.1-0.1,4.1,0.2,5.7,0.9c1.7,0.6,3.1,1.5,4.3,2.6c1.2,1.1,2.1,2.3,2.8,3.7
			c0.7,1.4,1,2.7,1.1,4.1c0,1-0.2,2.1-0.6,3.2c-0.4,1.1-1,2.1-1.6,3c-0.7,0.9-1.4,1.6-2.3,2.2c-0.8,0.6-1.6,0.9-2.4,0.9
			c-1.6,0-3-0.4-4.3-1.4c-1.3-1-1.9-2.1-1.9-3.5c0-1,0.2-1.9,0.6-2.5c0.5-0.6,1-1.2,1.6-1.8c0.6-0.5,1.1-1,1.6-1.5
			c0.5-0.5,0.7-1,0.7-1.6c0-0.6-0.4-1.2-1.1-1.7c-0.7-0.5-1.5-0.7-2.5-0.7c-1.7,0.1-3.4,0.8-5,2c-1.6,1.4-3,3.1-4.3,5.3
			c-1.2,2.2-2.3,4.6-3.1,7.3c-0.7,2.7-1.1,5.4-1.2,8.1c0.1,4.1,1.1,7.2,3.5,9.1c2.3,1.9,5.1,2.9,8.5,2.9c2.7-0.1,5.1-0.6,7.3-1.7
			c2.2-1.1,4.1-2.5,5.6-3.8c1.9-1.6,3.5-3.5,4.9-5.5c0.2-0.2,0.4-0.5,0.7-0.9c0.2-0.2,0.5-0.4,0.8-0.6s0.7-0.3,1.1-0.3
			c0.7,0,1.3,0.2,1.8,0.7c0.5,0.5,0.7,1,0.8,1.6c0,0.3-0.1,0.6-0.2,0.9c-0.2,0.3-0.3,0.6-0.5,0.9
			C314.8,241.4,314.7,241.8,314.5,242.2z"/>
		<path class="st6" d="M371.2,241.6c-1.7,2.8-3.6,5.4-5.8,7.5c-1.8,1.9-3.9,3.6-6.4,5.1c-2.5,1.6-5.2,2.3-8.1,2.3
			c-3.3,0.1-6.2-0.8-8.5-2.5c-2.4-1.6-3.8-4.1-4.1-7.4c-1.5,2-3.2,3.8-5.1,5.2c-1.6,1.3-3.3,2.5-5.3,3.5s-4.1,1.7-6.4,1.6
			c-1.6,0-3.1-0.2-4.6-0.9c-1.5-0.6-2.8-1.4-3.9-2.4c-1.1-1.1-2-2.4-2.7-3.9s-1-3.1-1-5c-0.1-4.3,0.8-8.6,2.3-12.8
			c1.5-4.3,3.7-8.1,6.2-11.5c2.5-3.5,5.5-6.2,8.8-8.2c3.2-2.2,6.4-3.2,9.7-3.2c2.4-0.1,4.4,0.2,6.1,0.8c1.7,0.5,3.1,1.2,4.1,1.8
			c1.2,0.8,2.2,1.7,2.9,2.7c0.9,0,1.8,0,2.8,0.2s1.9,0.5,2.8,0.9c0.8,0.4,1.6,1,2.1,1.7c0.6,0.7,0.9,1.6,0.9,2.6
			c0,0.9-0.3,2.3-0.9,4.3c-0.7,2-1.4,4.2-2.4,6.7c-0.8,2.4-1.6,5-2.4,7.6c-0.6,2.6-1,4.9-1.1,6.9c0,1,0.3,1.7,1,2.4
			c0.6,0.6,1.4,0.9,2.5,0.9c1.6,0,3.1-0.6,4.7-1.6c1.5-1.1,2.9-2.3,4-3.7c1.4-1.5,2.6-3.2,3.9-5.2c0.1-0.2,0.3-0.5,0.6-0.9
			c0.2-0.2,0.4-0.3,0.7-0.6c0.3-0.2,0.7-0.3,1.1-0.3c0.6,0,1.2,0.2,1.7,0.7c0.5,0.5,0.8,1,0.8,1.6c0,0.3,0,0.6-0.2,0.9
			c-0.1,0.3-0.2,0.6-0.4,0.9C371.5,240.8,371.3,241.2,371.2,241.6z M343.3,220.7c-0.1-1.7-0.5-3-1.4-3.8s-1.9-1.2-3.1-1.2
			c-1.7,0.1-3.5,1-5.3,2.8c-1.8,1.9-3.4,4.2-4.9,6.8c-1.4,2.7-2.6,5.6-3.6,8.7c-1,3.1-1.4,5.9-1.4,8.4c0.1,3.6,1.2,5.3,3.5,5.3
			c1.4,0,3-1,4.9-2.9c1.8-2,3.5-4.4,5.3-7.1c1.6-2.8,3-5.8,4.2-8.9C342.8,225.7,343.3,223,343.3,220.7z"/>
		<path class="st6" d="M380.9,243.5c0,1.4,0.4,2.4,1.1,3.2c0.7,0.8,1.6,1.2,2.8,1.2c1.6,0,3.1-0.6,4.7-1.6c1.5-1.1,2.9-2.3,4-3.7
			c1.4-1.5,2.6-3.2,3.9-5.2c0.1-0.2,0.3-0.5,0.6-0.9c0.2-0.2,0.4-0.3,0.7-0.6c0.3-0.2,0.7-0.3,1.1-0.3c0.6,0,1.2,0.2,1.7,0.7
			c0.5,0.5,0.8,1,0.8,1.6c0,0.3,0,0.6-0.2,0.9c-0.1,0.3-0.2,0.6-0.4,0.9c-0.2,0.3-0.3,0.7-0.4,1.1c-1.7,2.8-3.6,5.4-5.8,7.5
			c-1.8,1.9-3.9,3.6-6.4,5.1c-2.5,1.6-5.2,2.3-8.1,2.3c-4.5,0.1-8.2-1.2-11.1-3.5c-2.8-2.3-4.2-5.5-4.2-9.3c-0.1-2.1,0.3-4.7,1-7.8
			c0.6-3,1.5-6.1,2.4-9.2c0.9-3.1,1-3.7,2.1-6.5c1-2.8,1.9-5.1,2.7-6.8c0.3-0.6,0.7-1.2,1.3-1.6c0.5-0.5,1.2-0.7,1.9-0.7
			c0.9,0,1.9,0.2,3,0.7c1.1,0.5,2.2,1.1,3.2,1.8s1.8,1.4,2.4,2.1c0.7,0.7,1,1.3,1,1.8c0.1,1.8-0.2,3.8-1,5.9s-0.5,2-1.4,4.4
			c-0.8,2.4-1.5,5-2.2,7.6C381.3,237.9,380.9,240.7,380.9,243.5z"/>
		<path class="st6" d="M416.4,256.5c-2.9,0.1-5.7-0.5-8.4-1.7c-2.7-1.1-5-2.6-7-4.3s-3.6-3.5-4.7-5.7c-1.2-2-1.8-3.9-1.8-5.7
			c0-1.7,0.5-3.2,1.7-4.5c1.2-1.2,2.4-2.3,3.8-3.1c1.6-0.9,3.5-1.7,5.7-2.2c0.5-0.8,1.1-1.8,1.8-3c0.6-1,1.4-2.4,2.4-3.9
			c1-1.6,2.1-3.5,3.5-5.6c2.7-4.3,5.2-7.2,7.1-8.8c1.9-1.7,3.7-2.6,5.2-2.5c0.6,0,1.3,0.1,2,0.5c0.7,0.3,1.3,0.7,1.9,1.2
			c0.6,0.5,1.1,0.9,1.5,1.4c0.4,0.5,0.6,0.9,0.6,1.2c0,0.4-0.1,0.9-0.4,1.5c-0.3,0.6-0.6,1.3-1,1.9c-0.3,0.7-0.6,1.4-0.9,2.2
			c-0.3,0.8-0.4,1.5-0.3,2.3c0.1,2.4,0.4,4.4,0.8,6.2c0.5,1.7,1.1,3.4,1.6,4.9c0.6,1.5,1.2,3,1.7,4.5s0.8,3.1,0.8,4.9
			c0.1,2.5-0.4,4.9-1.2,7.1c-0.7,2.2-1.8,4.1-3.4,5.8c-1.5,1.6-3.3,2.9-5.5,3.8C421.8,256.1,419.3,256.4,416.4,256.5z M416.2,222.7
			c-1.6,2.6-3.1,4.9-4.4,7c-1.1,1.9-2,3.6-3,5.2c-0.9,1.6-1.3,2.6-1.3,3c0.1,1.7,0.2,3.4,0.3,5.1c0.2,1.6,0.6,3.1,1.1,4.3
			c0.5,1.3,1.1,2.3,1.9,3c0.7,0.7,1.7,1.1,2.8,1c1.8-0.1,3.4-1.1,4.6-3c1.3-2,1.8-4.4,2-7.1c0-1.5-0.3-3.1-0.6-4.7
			c-0.4-1.7-0.9-3.3-1.3-4.9c-0.5-1.6-0.9-3.2-1.3-4.7C416.4,225.2,416.2,223.9,416.2,222.7z"/>
	</g>
</g>
<g>
	<path class="st5" d="M398.9,202.2c0.1,1.2-0.1,2.4-0.6,3.5c-0.5,1.1-1.1,2.1-1.9,3c-0.8,0.9-1.8,1.6-2.9,2.2
		c-1.1,0.5-2.3,0.8-3.5,0.9c-1.7,0-3.2-0.4-4.5-1.2c-1.3-0.9-1.9-2.1-2-3.7c-0.1-1.1,0.2-2.3,0.7-3.4c0.5-1.1,1.2-2.1,2-3
		c0.8-0.9,1.8-1.6,3-2.2c1.1-0.5,2.4-0.8,3.7-0.9c1.7,0,3.1,0.4,4.3,1.2C398.2,199.5,398.8,200.7,398.9,202.2z"/>
	<path class="st6" d="M393.4,199.1c0.1,1.2-0.1,2.3-0.6,3.4c-0.4,1.1-1.1,2.1-1.9,3c-0.8,0.9-1.8,1.6-2.8,2.1
		c-1.1,0.5-2.2,0.8-3.4,0.9c-1.7,0-3.1-0.4-4.4-1.2c-1.2-0.8-1.9-2.1-2-3.7c-0.1-1.1,0.2-2.2,0.6-3.3c0.5-1.1,1.1-2.1,2-2.9
		c0.8-0.9,1.8-1.6,2.9-2.1c1.1-0.5,2.3-0.8,3.6-0.9c1.7,0,3.1,0.4,4.2,1.2C392.8,196.5,393.4,197.6,393.4,199.1z"/>
</g>
</svg>
