<?xml version="1.0" encoding="utf-8"?>
<!-- Generator: Adobe Illustrator 24.0.1, SVG Export Plug-In . SVG Version: 6.00 Build 0)  -->
<svg version="1.1" id="Calque_1" xmlns="http://www.w3.org/2000/svg" xmlns:xlink="http://www.w3.org/1999/xlink" x="0px" y="0px"
	 viewBox="0 0 510 510" style="enable-background:new 0 0 510 510;" xml:space="preserve">
<style type="text/css">
	.st0{fill:#FCF8F0;}
	.st1{opacity:0.26;}
	.st2{fill:none;stroke:#000000;stroke-width:4;stroke-linecap:round;stroke-linejoin:round;stroke-dasharray:1.0019,20.0376;}
	.st3{opacity:0.26;fill:none;stroke:#000000;stroke-miterlimit:10;enable-background:new    ;}
	.st4{fill:none;stroke:#000000;stroke-miterlimit:10;}
	.st5{opacity:0.2;}
	.st6{stroke:#000000;stroke-width:2;stroke-miterlimit:10;}
	.st7{fill:#a51f1e;}
	.st8{opacity:0.3;enable-background:new    ;}
</style>
<rect x="-87.1" y="-40.7" width="720.9" height="608.9"/>
<g id="BACKGROUND">
</g>
<circle cx="254.8" cy="253.8" r="254"/>
<circle class="st0" cx="255" cy="253.8" r="224"/>
<g>
	<g class="st1">
		<circle class="st0" cx="254.8" cy="255.8" r="197.6"/>
		<circle class="st2" cx="254.8" cy="255.8" r="197.6"/>
	</g>
	<path class="st3" d="M430.1,285.5c-13.8,84-87,147.1-175.3,147.1C166.4,432.6,93,368.2,79.4,284"/>
	<path class="st3" d="M254.8,78.8"/>
</g>
<g>
	<line class="st4" x1="81.4" y1="287.2" x2="430.2" y2="287.2"/>
	<line class="st4" x1="98.6" y1="337.9" x2="411.4" y2="337.9"/>
	<g>
		<g>
			<path d="M163.1,300.1v4.5h-9.5v5.1h7.3v4.3h-7.3v9.4H148v-23.1h15.1V300.1z"/>
			<path d="M185.7,323.2l-5-8.7h-1.3v8.7h-5.6v-23.1h9.6c1.8,0,3.4,0.3,4.6,1c1.3,0.6,2.2,1.5,2.9,2.6c0.6,1.1,0.9,2.4,0.9,3.8
				c0,1.7-0.5,3.1-1.4,4.3c-0.9,1.2-2.3,2-4,2.4l5.5,9.1L185.7,323.2L185.7,323.2z M179.4,310.6h3.5c1.1,0,1.9-0.3,2.5-0.7
				c0.5-0.5,0.8-1.2,0.8-2.2c0-0.9-0.3-1.6-0.8-2.2c-0.5-0.5-1.4-0.8-2.4-0.8h-3.5L179.4,310.6L179.4,310.6z"/>
			<path d="M216.8,319h-8.7l-1.4,4.2h-5.9l8.5-23h6.4l8.5,23h-6L216.8,319z M215.4,314.7l-2.9-8.5l-2.9,8.5H215.4z"/>
			<path d="M254.8,323.2h-5.6l-9.4-14.2v14.2h-5.6v-23.1h5.6l9.4,14.3v-14.3h5.6V323.2z"/>
			<path d="M284.4,302.2c1.9,1.5,3.2,3.6,3.8,6.3h-5.9c-0.4-1.1-1.1-1.9-2-2.5s-2-0.9-3.2-0.9c-1.6,0-3,0.6-4,1.8
				c-1,1.2-1.5,2.8-1.5,4.8s0.5,3.6,1.5,4.8c1,1.2,2.3,1.8,4,1.8c1.2,0,2.3-0.3,3.2-0.9c0.9-0.6,1.6-1.4,2-2.5h5.9
				c-0.6,2.6-1.8,4.7-3.8,6.3s-4.4,2.3-7.3,2.3c-2.3,0-4.2-0.5-5.9-1.5s-3-2.4-3.9-4.2c-0.9-1.8-1.4-3.8-1.4-6.1s0.5-4.3,1.4-6.1
				c0.9-1.8,2.2-3.2,3.9-4.2c1.7-1,3.7-1.5,5.9-1.5C280.1,299.8,282.5,300.6,284.4,302.2z M281.7,325.5c0.9,0.6,1.3,1.5,1.3,2.8
				s-0.4,2.2-1.3,2.8c-0.9,0.6-2,0.9-3.2,0.9h-4.8v-3h4.2c0.9,0,1.4-0.3,1.4-0.9c0-0.3-0.1-0.5-0.3-0.7s-0.6-0.2-1-0.2h-2.4V323h3.3
				v1.6C279.9,324.6,280.9,324.9,281.7,325.5z"/>
			<path d="M313.5,319h-8.7l-1.4,4.2h-5.9l8.5-23h6.5l8.5,23h-6L313.5,319z M312.1,314.7l-2.9-8.5l-2.9,8.5H312.1z"/>
			<path d="M336.5,300.1v23.1h-5.6v-23.1H336.5z"/>
			<path d="M364,320.1c-0.6,1-1.5,1.8-2.8,2.5c-1.2,0.6-2.7,0.9-4.4,0.9c-2.6,0-4.7-0.6-6.4-1.9c-1.7-1.3-2.6-3-2.8-5.3h6
				c0.1,0.9,0.4,1.6,0.9,2.1s1.2,0.8,2,0.8c0.7,0,1.3-0.2,1.7-0.6c0.4-0.4,0.6-0.9,0.6-1.6c0-0.6-0.2-1.1-0.6-1.5s-0.9-0.7-1.4-1
				c-0.6-0.3-1.4-0.5-2.4-0.9c-1.5-0.5-2.7-1-3.6-1.5s-1.7-1.2-2.4-2.1c-0.7-0.9-1-2.1-1-3.6c0-1.4,0.4-2.6,1-3.6
				c0.7-1,1.7-1.8,2.9-2.3c1.2-0.5,2.6-0.8,4.2-0.8c2.6,0,4.6,0.6,6.1,1.8c1.5,1.2,2.4,2.9,2.6,5h-6.1c-0.1-0.8-0.4-1.4-0.8-1.8
				c-0.5-0.5-1-0.7-1.8-0.7c-0.6,0-1.2,0.2-1.6,0.5c-0.4,0.4-0.6,0.9-0.6,1.5c0,0.5,0.2,1,0.5,1.4c0.4,0.4,0.8,0.7,1.4,0.9
				c0.5,0.2,1.3,0.5,2.4,0.9c1.5,0.5,2.7,1,3.6,1.5s1.8,1.2,2.4,2.1c0.7,0.9,1,2.2,1,3.7C364.9,317.9,364.6,319,364,320.1z"/>
		</g>
	</g>
</g>
<g>
	<path d="M150.8,117.3l20.7,20.8l-5.4,5.1l-8.6-8.7l-8.4,8l8.6,8.7l-5.4,5.1l-20.7-20.8l5.4-5.1l8,8.1l8.4-8l-8-8.1L150.8,117.3z"/>
	<path d="M174.5,102l15.3,24.9l-6.4,3.8l-15.3-24.9L174.5,102z"/>
	<path d="M221,110.2c-0.4,1.5-1.2,2.8-2.5,4.1c-1.3,1.2-3,2.2-5.2,2.9c-3.3,1.1-6.3,1.2-8.9,0.4c-2.7-0.8-4.5-2.5-5.7-5.1l7.6-2.5
		c0.5,1,1.1,1.7,2,2.1s1.9,0.4,2.9,0c0.9-0.3,1.5-0.8,1.9-1.4s0.4-1.3,0.2-2.1c-0.3-0.7-0.7-1.2-1.3-1.5s-1.4-0.5-2.2-0.6
		s-1.9-0.1-3.4-0.1c-2.1,0-3.8-0.1-5.1-0.2c-1.4-0.2-2.7-0.7-3.9-1.5s-2.1-2.1-2.8-3.9c-0.6-1.6-0.6-3.2-0.1-4.7s1.4-2.8,2.7-3.9
		s3-2.1,5.1-2.7c3.3-1.1,6.1-1.2,8.5-0.4c2.4,0.8,4.2,2.5,5.3,4.9l-7.7,2.5c-0.5-0.9-1-1.5-1.8-1.8s-1.6-0.4-2.6,0
		c-0.8,0.3-1.4,0.7-1.8,1.3c-0.4,0.6-0.4,1.3-0.1,2.1c0.2,0.6,0.6,1.1,1.3,1.4c0.6,0.3,1.3,0.5,2.1,0.5c0.8,0.1,1.9,0.1,3.4,0.1
		c2.1,0,3.8,0.1,5.2,0.3c1.4,0.2,2.7,0.7,4,1.5c1.2,0.8,2.2,2.1,2.8,3.9C221.3,107.3,221.3,108.7,221,110.2z"/>
	<path d="M256.3,80.9l0.4,5.6l-8.4,0.5l1.6,23.4l-7.5,0.5l-1.6-23.4l-8.3,0.5l-0.4-5.6L256.3,80.9z"/>
	<path d="M298.4,88.3c2,1.8,3.5,3.9,4.3,6.4s0.9,5.1,0.3,7.9s-1.9,5.1-3.8,7s-4.1,3.2-6.7,4c-2.6,0.7-5.3,0.8-8.1,0.2
		c-2.8-0.6-5.2-1.8-7.3-3.6c-2-1.8-3.5-3.9-4.3-6.4s-0.9-5.2-0.3-7.9c0.6-2.8,1.9-5.1,3.8-7s4.1-3.2,6.7-3.9
		c2.6-0.7,5.3-0.8,8.1-0.2C293.9,85.4,296.3,86.6,298.4,88.3z M283.4,92.1c-1.7,1.1-2.9,3-3.5,5.5s-0.3,4.6,0.8,6.4
		c1.1,1.8,2.8,2.9,5.2,3.5c2.4,0.5,4.4,0.2,6.2-1c1.8-1.1,2.9-3,3.5-5.4c0.6-2.5,0.3-4.6-0.8-6.4c-1.1-1.8-2.8-2.9-5.2-3.5
		C287.2,90.6,285.1,90.9,283.4,92.1z"/>
	<path d="M331.5,99.9l-13.4,25.9l-6.7-3.3l13.4-25.9L331.5,99.9z"/>
	<path d="M342.6,142.6l2-12.6l-1.3-1.1l-7.2,8.4l-5.8-4.7l19-22.3l9.9,8c1.9,1.5,3.2,3.1,4,4.8c0.8,1.7,1,3.3,0.8,4.9
		c-0.3,1.6-1,3.1-2.1,4.4c-1.4,1.6-3,2.6-4.9,3s-4,0-6.2-1l-1.8,13.4L342.6,142.6z M346.4,125.2l3.6,2.9c1.1,0.9,2.2,1.4,3.1,1.3
		c0.9-0.1,1.8-0.5,2.6-1.4c0.8-0.9,1.1-1.8,0.9-2.8c-0.1-1-0.7-1.9-1.9-2.8l-3.6-2.9L346.4,125.2z"/>
	<path d="M381,149.3l-5.1,3.5l6.1,8.3l-4.4,3.1l-6.1-8.3l-5.4,3.7l6.8,9.4l-4.7,3.3L357,156.9l24.2-16.8l11.2,15.3l-4.7,3.2
		L381,149.3z"/>
</g>
<g>
	<g>
		<path d="M251,181.4c-1,0-2-0.2-2.8-0.6c-0.8-0.4-1.6-0.9-2.2-1.4c-0.6-0.6-1.1-1.1-1.4-1.8c-0.4-0.6-0.5-1.2-0.6-1.6
			c-0.9,1-1.8,1.9-2.8,2.7c-0.8,0.7-1.8,1.3-2.9,1.9c-1.1,0.6-2.2,0.8-3.3,0.8c-0.8,0-1.5-0.2-2.3-0.5s-1.4-0.8-2-1.4
			c-0.6-0.6-1.1-1.3-1.4-2.1s-0.6-1.8-0.6-2.8c0-2.2,0.4-4.3,1.3-6.2c0.9-1.9,2-3.5,3.3-4.8s2.7-2.4,4.3-3.1
			c1.5-0.8,2.9-1.1,4.2-1.1c0.5,0,1,0.1,1.4,0.1c0.4,0.1,0.8,0.2,1.1,0.3c0.4,0.1,0.7,0.3,0.9,0.4c0.6-2.2,1.4-4.4,2.3-6.5
			c0.9-2.1,1.8-4,2.9-5.7c1-1.6,2.1-3,3.3-4s2.4-1.5,3.7-1.5c0.6,0,1.1,0.1,1.7,0.4c0.6,0.3,1.1,0.7,1.5,1.1c0.5,0.5,0.8,1,1.1,1.6
			s0.4,1.3,0.4,1.9c0,0.7-0.2,1.5-0.5,2.5c-0.4,1-0.8,2.1-1.4,3.2c-0.6,1.1-1.2,2.4-1.9,3.6c-0.7,1.3-1.5,2.5-2.2,3.7
			c-1.8,2.8-3.8,5.8-6.1,9c-0.1,0.5-0.1,0.9-0.2,1.4c0,0.5-0.1,0.9-0.1,1.4c0,1.5,0.2,2.8,0.7,3.8s1.2,1.5,2.3,1.5
			c0.7,0,1.4-0.2,2.1-0.7c0.7-0.5,1.3-1,1.9-1.6c0.7-0.7,1.3-1.4,1.8-2.4c0-0.1,0.1-0.2,0.3-0.4c0.1-0.1,0.2-0.2,0.3-0.3
			c0.1-0.1,0.3-0.1,0.5-0.1c0.3,0,0.6,0.1,0.8,0.3s0.4,0.5,0.4,0.8c0,0.1,0,0.3-0.1,0.4c-0.1,0.1-0.1,0.3-0.2,0.4
			c-0.1,0.1-0.1,0.3-0.2,0.5c-0.8,1.3-1.7,2.4-2.7,3.4c-0.8,0.8-1.8,1.6-3,2.3S252.4,181.4,251,181.4z M244.6,163.3
			c-0.1-0.1-0.3-0.3-0.4-0.4c-0.1-0.1-0.3-0.2-0.5-0.3s-0.4-0.1-0.6-0.1c-0.9,0-1.8,0.4-2.7,1.3s-1.7,1.9-2.4,3.1
			c-0.7,1.2-1.3,2.5-1.7,3.9s-0.7,2.7-0.7,3.8c0,1,0.2,1.8,0.6,2.3c0.4,0.6,0.9,0.8,1.5,0.8s1.2-0.2,1.9-0.7s1.4-1,2-1.6
			c0.7-0.7,1.4-1.4,2.1-2.3c0-1.6,0.1-3.3,0.3-4.9C244.1,166.6,244.4,165,244.6,163.3z M250.5,165.6c1.6-2.6,3.1-5.2,4.3-7.6
			c0.6-1,1.1-2.1,1.6-3.2c0.5-1.1,1-2.1,1.4-3.1c0.4-1,0.7-1.9,1-2.8c0.3-0.8,0.4-1.6,0.4-2.2s-0.3-0.9-0.8-0.9s-1.1,0.6-1.8,1.7
			c-0.7,1.1-1.4,2.7-2.2,4.5c-0.8,1.9-1.5,4-2.2,6.3C251.6,160.8,251,163.2,250.5,165.6z"/>
		<path d="M277.9,181.4c-1.1,0-2-0.1-2.7-0.4s-1.4-0.6-1.9-0.9c-0.5-0.4-1-0.8-1.3-1.3s-0.6-1-0.7-1.5c-0.4,0.5-0.9,1-1.5,1.5
			s-1.2,0.9-1.8,1.3c-0.7,0.4-1.4,0.7-2.1,0.9s-1.4,0.4-2.1,0.4c-0.6,0-1.3-0.1-2-0.4c-0.7-0.3-1.3-0.6-1.8-1.1
			c-0.6-0.5-1-1-1.4-1.7c-0.4-0.7-0.6-1.4-0.6-2.1c0-1,0.2-2.2,0.5-3.7c0.3-1.5,0.7-3,1.1-4.5c0.4-1.5,0.9-3,1.4-4.3
			c0.5-1.4,0.9-2.4,1.2-3.2c0.1-0.3,0.4-0.5,0.6-0.7c0.3-0.2,0.5-0.3,0.9-0.3s0.9,0.1,1.4,0.4c0.5,0.3,1,0.6,1.4,0.9s0.8,0.7,1.1,1
			s0.4,0.6,0.4,0.9c0,0.8-0.2,1.8-0.5,2.8c-0.4,1-0.8,2.1-1.2,3.3s-0.9,2.4-1.2,3.7s-0.5,2.6-0.5,3.9c0,0.4,0.1,0.8,0.3,1.1
			c0.2,0.3,0.5,0.5,0.9,0.5s0.9-0.1,1.4-0.4c0.5-0.2,0.9-0.6,1.4-0.9c0.4-0.4,0.8-0.8,1.2-1.3c0.4-0.5,0.7-0.9,0.9-1.4
			c0.3-0.6,0.6-1.5,1-2.7s0.8-2.5,1.2-3.9c0.4-1.4,0.8-2.7,1.2-4c0.4-1.3,0.8-2.3,1.1-3.1c0.1-0.3,0.4-0.5,0.6-0.7
			c0.3-0.2,0.6-0.3,0.9-0.3c0.4,0,0.9,0.1,1.4,0.4c0.5,0.3,1,0.6,1.4,0.9s0.8,0.7,1.1,1s0.4,0.6,0.4,0.9c0,0.8-0.2,1.8-0.5,2.7
			c-0.3,1-0.7,2-1.1,3.1s-0.7,2.3-1.1,3.5c-0.3,1.2-0.5,2.5-0.5,3.8c0,0.6,0.2,1.1,0.5,1.5s0.7,0.6,1.3,0.6c0.3,0,0.6-0.1,0.9-0.3
			s0.6-0.4,0.9-0.6c0.3-0.3,0.6-0.6,0.9-0.9c0.1-0.2,0.3-0.4,0.5-0.5c0.2-0.2,0.4-0.3,0.7-0.3c0.3,0,0.6,0.1,0.8,0.4
			c0.3,0.3,0.4,0.5,0.4,0.8c0,0.2-0.1,0.5-0.3,0.8c-0.1,0.1-0.2,0.3-0.3,0.4c-0.6,0.7-1.3,1.4-1.9,1.9s-1.3,1-2,1.4
			C279.4,181.2,278.7,181.4,277.9,181.4z"/>
	</g>
</g>
<g class="st5">
	<g>
		<path class="st6" d="M121.8,275.1c-4.2,0.1-8.3-0.3-12.4-1.5c-4.1-1.1-7.8-2.9-11.1-5.4s-6.1-5.6-8.2-9.5c-2.2-3.9-3.4-8.6-3.6-14
			c-0.1-2.4,0-4.9,0.3-7.3c0.3-2.4,0.7-4.9,1.3-7.4c-4-0.8-7.6-1.9-10.7-3.3c-3.2-1.4-5.9-3-8.1-4.8c-2.3-1.8-4-3.7-5.3-5.8
			c-1.2-2.1-1.9-4.1-2-6.2c-0.1-3.6,0.9-7.1,3-10.3c2.1-3.2,4.7-6,7.7-8.4s6-4.3,9.2-5.7c3.1-1.4,5.6-2.2,7.5-2.2
			c1.5-0.1,2.3,0.4,2.3,1.4c0,0.6-0.2,1.1-0.6,1.5s-1,0.9-1.8,1.5c-0.9,0.7-2,1.6-3.2,2.7c-1.2,1-2.2,2.3-3.3,3.8s-1.8,3.2-2.5,5.2
			s-0.9,4.3-0.8,7c0.1,2.9,0.9,5.7,2.5,8.5s4.4,5,8.7,6.6c2.3-6,5.3-11.7,9-17.1c3.7-5.4,7.8-10.2,12.2-14.3c4.4-4.1,9-7.4,13.7-9.9
			s9.2-3.8,13.5-3.9c2.6-0.1,5.2,0.4,7.6,1.6c2.4,1.1,4.4,2.6,6.2,4.4s3.1,3.7,4.2,5.8c1.1,2.1,1.6,4.1,1.7,5.9
			c0.1,3.4-1,7.2-3.4,11.4s-5.8,8.1-10.3,11.9s-10,6.9-16.5,9.6c-6.5,2.7-13.8,4.2-22.1,4.7c-0.9,4.5-1.3,8.9-1.1,13.2
			c0.3,8.4,2.2,14.3,5.8,17.7c3.5,3.5,8.5,5.1,14.8,4.9c2.4-0.1,4.8-0.6,7.1-1.4c2.4-0.9,4.6-2,6.8-3.4s4.3-3,6.1-4.9
			c1.9-1.9,3.5-3.8,5-5.9c0.1-0.3,0.3-0.6,0.6-0.9c0.2-0.2,0.4-0.4,0.8-0.6c0.3-0.2,0.7-0.4,1.2-0.4c0.8,0,1.5,0.2,2,0.7
			s0.8,1.1,0.9,1.8c0,0.4,0,0.7-0.2,1c-0.1,0.3-0.3,0.6-0.4,1s-0.3,0.8-0.5,1.2c-1.4,2.3-3.2,4.6-5.3,6.8s-4.6,4.3-7.5,6.2
			c-2.9,1.9-6,3.4-9.4,4.6C129.6,274.3,125.9,274.9,121.8,275.1z M140.9,184.9c-2.9,0.1-5.9,1.2-9,3.3s-6.1,4.9-9.1,8.5
			c-2.9,3.6-5.6,7.6-8.1,12.2c-2.5,4.6-4.5,9.4-6.1,14.4c6-0.4,11.4-1.8,16.1-4.2s8.7-5.3,12-8.6s5.7-6.9,7.3-10.6
			c1.6-3.7,2.4-7.1,2.3-10.3c-0.1-1.5-0.5-2.7-1.5-3.5C143.8,185.3,142.5,184.9,140.9,184.9z"/>
		<path class="st6" d="M166.3,257.3c0.1,1.5,0.5,2.7,1.3,3.5c0.8,0.9,1.8,1.3,3.2,1.3c1.8-0.1,3.5-0.7,5.2-1.9s3.2-2.5,4.4-4.1
			c1.5-1.6,2.9-3.5,4.2-5.8c0.1-0.3,0.3-0.6,0.6-0.9c0.2-0.2,0.4-0.4,0.8-0.6c0.3-0.2,0.7-0.4,1.2-0.4c0.7,0,1.4,0.2,1.9,0.7
			c0.6,0.5,0.9,1.1,0.9,1.8c0,0.4,0,0.7-0.2,1c-0.1,0.3-0.3,0.6-0.4,1c-0.2,0.4-0.3,0.8-0.5,1.2c-1.8,3.1-3.9,5.9-6.2,8.3
			c-2,2.1-4.3,4-7,5.7c-2.7,1.8-5.7,2.7-9,2.8c-5,0.2-9.1-1-12.3-3.5s-4.9-5.9-5-10.2c-0.1-2.4,0.2-5.2,0.9-8.5s1.5-6.7,2.4-10.1
			s1.9-6.7,3-9.8s2-5.6,2.7-7.4c0.3-0.7,0.8-1.3,1.4-1.8s1.3-0.8,2.1-0.8c1,0,2.1,0.2,3.4,0.8c1.3,0.6,2.4,1.2,3.5,2
			c1.1,0.7,2,1.5,2.7,2.3s1.1,1.5,1.1,2c0.1,2-0.3,4.2-1,6.5s-1.5,4.8-2.3,7.5s-1.6,5.4-2.2,8.4
			C166.4,251.1,166.2,254.2,166.3,257.3z M183.1,193.9c0.1,1.7-0.2,3.4-0.7,5.1c-0.5,1.6-1.3,3.1-2.2,4.4s-2.1,2.3-3.3,3.1
			c-1.3,0.8-2.6,1.2-4,1.3c-1.9,0.1-3.6-0.5-5.1-1.8s-2.2-3.1-2.3-5.4c-0.1-1.6,0.2-3.3,0.8-4.9s1.3-3,2.3-4.3s2.1-2.3,3.4-3.1
			c1.3-0.8,2.7-1.2,4.2-1.3c1.9-0.1,3.6,0.5,4.9,1.8C182.3,190,183,191.7,183.1,193.9z"/>
		<path class="st6" d="M231.1,255c0.1,1.5,0.5,2.7,1.3,3.6s1.8,1.3,3.2,1.3c1.8-0.1,3.5-0.7,5.2-1.9c1.7-1.2,3.2-2.6,4.4-4.1
			c1.5-1.6,2.9-3.5,4.2-5.8c0.1-0.3,0.3-0.6,0.6-0.9c0.2-0.2,0.4-0.4,0.8-0.6c0.3-0.2,0.7-0.4,1.2-0.4c0.7,0,1.4,0.2,1.9,0.7
			s0.9,1.1,0.9,1.8c0,0.4,0,0.7-0.2,1c-0.1,0.3-0.3,0.6-0.4,1c-0.2,0.4-0.3,0.8-0.5,1.2c-1.8,3.1-3.9,5.9-6.2,8.3
			c-2,2.1-4.3,4-7,5.7s-5.7,2.7-9,2.8c-5,0.2-9.1-1-12.3-3.4c-3.2-2.5-4.8-5.5-5-9.2c-0.1-2.7,0.2-5.3,0.8-7.8s1.3-4.9,2.1-7.3
			c0.8-2.4,1.4-4.6,2.1-6.8s0.9-4.2,0.8-6.2c0-0.6-0.3-1.1-0.9-1.5c-0.5-0.4-1.2-0.6-1.9-0.5c-2,0.1-4.2,1.1-6.5,3
			c-2.3,2-4.4,4.7-6.3,8.3c-1.9,3.6-3.5,7.9-4.7,13s-1.7,10.7-1.4,17c0,1.1-0.2,1.9-0.6,2.2c-0.5,0.3-1.2,0.5-2.2,0.5
			c-3.5,0.1-6.5-0.4-8.9-1.7s-3.7-2.9-3.8-5c-0.1-3.6,0.1-7.5,0.8-11.6s1.6-8,2.6-11.9c1-3.8,2.1-7.4,3.1-10.6
			c1.1-3.3,2-5.8,2.7-7.7c0.6-1.7,1.8-2.6,3.5-2.6c1,0,2.3,0.3,3.9,1s3.5,2.6,5.6,5.7c1.8-1.6,3.8-3.1,6.1-4.4
			c1.9-1.1,4.1-2.1,6.5-3.1s5.1-1.5,7.9-1.6c1.4-0.1,2.8,0.3,4.2,0.9c1.4,0.6,2.6,1.5,3.7,2.5c1.1,1.1,2,2.2,2.6,3.5
			c0.7,1.3,1,2.6,1.1,3.9c0.1,2-0.2,4.1-0.9,6.4c-0.7,2.2-1.4,4.6-2.1,6.9c-0.8,2.4-1.5,4.8-2.1,7.2
			C231.3,250.2,231,252.6,231.1,255z"/>
		<path class="st6" d="M301,250.1c-1.8,3.1-4.2,5.9-7,8.4c-2.4,2.1-5.4,4-9,5.8s-7.9,2.8-13,3c-3.4,0.1-6.5-0.3-9.3-1.1
			c-2.9-0.9-5.3-2.1-7.4-3.7s-3.8-3.6-5-5.9c-1.2-2.3-1.9-4.9-2-7.6c-0.2-5,0.6-9.5,2.3-13.7c1.7-4.1,3.9-7.7,6.6-10.8
			c2.7-3,5.7-5.4,9-7.1c3.3-1.7,6.3-2.6,9.3-2.7c2-0.1,3.9,0.3,5.7,1c1.8,0.7,3.4,1.7,4.8,2.9s2.5,2.6,3.3,4.3
			c0.8,1.6,1.3,3.3,1.3,5.1c0.1,1.6-0.2,3.5-0.9,5.7c-0.6,2.2-1.7,4.4-3.3,6.4c-1.6,2.1-3.7,3.9-6.4,5.4c-2.7,1.5-6.2,2.4-10.3,2.5
			c-1,0-2-0.1-3.1-0.3c-0.6-0.1-1.3-0.2-2-0.3c0.1,3.9,1.4,6.9,3.8,8.9c2.4,2,5.1,3,8.3,2.8c3.1-0.1,5.9-0.8,8.4-2.2
			c2.5-1.4,4.6-2.8,6.4-4.3c2.1-1.8,3.8-3.9,5.2-6.2c0.1-0.3,0.3-0.6,0.6-0.9c0.2-0.2,0.4-0.4,0.8-0.6c0.3-0.2,0.7-0.4,1.2-0.4
			c0.7,0,1.4,0.2,2,0.7s0.9,1.1,0.9,1.8c0,0.4,0,0.7-0.2,1c-0.1,0.3-0.3,0.6-0.4,1C301.3,249.3,301.1,249.7,301,250.1z M265,242
			c2.4-0.1,4.6-0.8,6.7-2.2s3.9-3,5.3-5c1.5-1.9,2.6-3.9,3.4-5.9s1.2-3.7,1.1-5.1c-0.1-1.7-0.9-2.6-2.5-2.5
			c-1.9,0.1-3.6,0.9-5.4,2.4c-1.7,1.5-3.2,3.4-4.5,5.5s-2.3,4.4-3.1,6.8C265.3,238.3,264.9,240.3,265,242z"/>
		<path class="st6" d="M352,250c-0.1-3,0.1-5.7,0.8-8.1s1.3-4.7,2.1-6.7c0.8-2,1.5-3.9,2.1-5.7s0.9-3.4,0.9-4.9
			c0-0.9-0.3-1.5-0.7-1.9c-0.5-0.4-1-0.6-1.7-0.5c-1.5,0.1-3.5,1.5-6,4.3s-4.7,7-6.7,12.4c-1.8,4.7-3,9-3.8,12.9s-1.1,7.4-1,10.4
			c0,1.1-0.2,1.9-0.6,2.2c-0.5,0.3-1.2,0.5-2.2,0.5c-3.5,0.1-6.5-0.4-9-1.7c-2.4-1.3-3.7-2.9-3.8-5c-0.1-2.7,0.2-5.6,0.9-8.7
			c0.7-3.1,1.5-6.2,2.4-9.2s1.7-5.8,2.4-8.3c0.7-2.6,1-4.6,1-6.2c-0.1-1.8-0.9-2.7-2.5-2.6s-3.4,1-5.4,2.8s-3.9,4.4-5.6,7.8
			s-3.1,7.6-4.1,12.6c-1.1,5-1.5,10.6-1.3,16.8c0,1.1-0.2,1.9-0.6,2.2c-0.5,0.3-1.2,0.5-2.2,0.5c-3.5,0.1-6.5-0.4-9-1.7
			s-3.7-2.9-3.8-5c-0.1-3.8,0.1-7.8,0.8-11.9c0.7-4.1,1.5-8.1,2.6-11.9c1-3.8,2.1-7.3,3.1-10.4c1.1-3.2,2-5.7,2.7-7.5
			c0.6-1.7,1.8-2.6,3.5-2.6c1,0,2.3,0.3,3.9,1s3.5,2.6,5.6,5.7c1.8-1.6,3.7-3.1,5.7-4.4c1.7-1.1,3.7-2.1,5.8-3.1s4.4-1.5,6.6-1.5
			c2.9-0.1,5.2,0.7,7,2.5c1.7,1.8,3.1,4,4.2,6.8c2-1.8,4-3.5,6.2-5.1c1.8-1.3,3.9-2.5,6.2-3.6c2.3-1.1,4.7-1.7,7.2-1.8
			c1.1,0,2.3,0.2,3.5,0.7s2.3,1.2,3.3,2.1c1,0.9,1.8,1.9,2.4,3s0.9,2.2,1,3.4c0.1,1.7-0.3,3.8-1,6.1c-0.8,2.3-1.6,4.7-2.6,7.3
			s-1.8,5.3-2.6,8c-0.7,2.7-1.1,5.4-1,8c0,1.5,0.5,2.7,1.3,3.6s1.8,1.3,3.2,1.3c1.8-0.1,3.5-0.7,5.2-1.9s3.2-2.6,4.4-4.1
			c1.5-1.6,2.9-3.5,4.2-5.8c0.1-0.3,0.3-0.6,0.6-0.9c0.2-0.2,0.4-0.4,0.8-0.6c0.3-0.2,0.7-0.4,1.2-0.4c0.7,0,1.4,0.2,2,0.7
			s0.9,1.1,0.9,1.8c0,0.4,0,0.7-0.2,1c-0.1,0.3-0.3,0.6-0.4,1c-0.2,0.4-0.3,0.8-0.5,1.2c-1.8,3.1-3.9,5.9-6.2,8.3
			c-2,2.1-4.3,4-7,5.7c-2.7,1.8-5.7,2.7-9,2.8c-5,0.2-9.1-1-12.3-3.5C353.9,257.6,352.2,254.2,352,250z"/>
		<path class="st6" d="M447.1,251.8c-1.4,1.8-2.9,3.4-4.5,4.7c-1.4,1.3-3,2.4-4.7,3.4c-1.8,1-3.6,1.5-5.6,1.6
			c-3.7,0.1-6.9-0.7-9.5-2.5s-4.2-4.5-4.8-8.1c-1.7,2.2-3.5,4.2-5.5,5.8c-1.7,1.5-3.7,2.8-5.8,4c-2.2,1.2-4.5,1.9-7.1,2
			c-1.8,0.1-3.5-0.2-5.1-0.8c-1.7-0.6-3.1-1.5-4.3-2.6c-1.2-1.2-2.2-2.6-3-4.2c-0.8-1.6-1.2-3.4-1.3-5.4c-0.2-4.7,0.6-9.4,2.2-14.1
			c1.6-4.7,3.9-8.9,6.6-12.7c2.8-3.8,5.9-6.9,9.5-9.3s7.1-3.6,10.7-3.8c2.6-0.1,4.9,0.1,6.8,0.7c1.9,0.6,3.4,1.3,4.6,2
			c1.4,0.9,2.5,1.9,3.3,2.9c1,0,2,0,3.1,0.2s2.1,0.5,3.1,0.9s1.7,1.1,2.4,1.8c0.6,0.8,1,1.7,1,2.8c0,1-0.3,2.5-1,4.7
			s-1.5,4.6-2.4,7.3s-1.7,5.5-2.4,8.3c-0.7,2.9-1,5.4-0.9,7.5c0,1,0.4,1.9,1.1,2.6c0.7,0.7,1.6,1,2.8,0.9c0.7,0,1.4-0.3,2.1-0.7
			c0.7-0.5,1.4-1,2.1-1.5c0.8-0.6,1.5-1.4,2.2-2.3c0.3-0.4,0.7-0.9,1.1-1.3c0.4-0.4,1-0.6,1.6-0.6c0.7,0,1.4,0.3,2,0.8
			c0.6,0.6,1,1.2,1,1.9c0,0.5-0.2,1.1-0.7,1.9C447.5,251.1,447.3,251.4,447.1,251.8z M423,222.6c-0.1-1.9-0.6-3.3-1.5-4.2
			c-1-0.9-2.1-1.3-3.4-1.3c-1.9,0.1-3.9,1.1-5.9,3.2c-2,2.1-3.7,4.6-5.2,7.6s-2.8,6.2-3.7,9.6c-0.9,3.4-1.4,6.5-1.3,9.2
			c0.1,3.9,1.5,5.8,4,5.7c1.6-0.1,3.4-1.2,5.4-3.3s3.9-4.8,5.6-7.9c1.8-3.1,3.2-6.4,4.4-9.8C422.5,228.1,423,225.1,423,222.6z"/>
	</g>
</g>
<g>
	<g>
		<path class="st7" d="M120.7,266c-4.2,0.1-8.3-0.3-12.4-1.5c-4.1-1.1-7.8-2.9-11.1-5.4s-6.1-5.6-8.2-9.5c-2.2-3.9-3.4-8.6-3.6-14
			c-0.1-2.4,0-4.9,0.3-7.3c0.3-2.4,0.7-4.9,1.3-7.4c-4-0.8-7.6-1.9-10.7-3.3c-3.2-1.4-5.9-3-8.1-4.8c-2.3-1.8-4-3.7-5.3-5.8
			c-1.2-2.1-1.9-4.1-2-6.2c-0.1-3.6,0.9-7.1,3-10.3c2.1-3.2,4.7-6,7.7-8.4s6-4.3,9.2-5.7c3.1-1.4,5.6-2.2,7.5-2.2
			c1.5-0.1,2.3,0.4,2.3,1.4c0,0.6-0.2,1.1-0.6,1.5s-1,0.9-1.8,1.5c-0.9,0.7-2,1.6-3.2,2.7c-1.2,1-2.2,2.3-3.3,3.8s-1.8,3.2-2.5,5.2
			s-0.9,4.3-0.8,7c0.1,2.9,0.9,5.7,2.5,8.5s4.4,5,8.7,6.6c2.3-6,5.3-11.7,9-17.1c3.7-5.4,7.8-10.2,12.2-14.3c4.4-4.1,9-7.4,13.7-9.9
			s9.2-3.8,13.5-3.9c2.6-0.1,5.2,0.4,7.6,1.6c2.4,1.1,4.4,2.6,6.2,4.4s3.1,3.7,4.2,5.8c1.1,2.1,1.6,4.1,1.7,5.9
			c0.1,3.4-1,7.2-3.4,11.4s-5.8,8.1-10.3,11.9s-10,6.9-16.5,9.6c-6.5,2.7-13.8,4.2-22.1,4.7c-0.9,4.5-1.3,8.9-1.1,13.2
			c0.3,8.4,2.2,14.3,5.8,17.8c3.5,3.5,8.5,5.1,14.8,4.9c2.4-0.1,4.8-0.6,7.1-1.4c2.4-0.9,4.6-2,6.8-3.4s4.3-3,6.1-4.9
			c1.9-1.9,3.5-3.8,5-5.9c0.1-0.3,0.3-0.6,0.6-0.9c0.2-0.2,0.4-0.4,0.8-0.6c0.3-0.2,0.7-0.4,1.2-0.4c0.8,0,1.5,0.2,2,0.7
			s0.8,1.1,0.9,1.8c0,0.4,0,0.7-0.2,1c-0.1,0.3-0.3,0.6-0.4,1s-0.3,0.8-0.5,1.2c-1.4,2.3-3.2,4.6-5.3,6.9s-4.6,4.3-7.5,6.2
			s-6,3.4-9.4,4.6C128.6,265.1,124.8,265.8,120.7,266z M139.8,175.8c-2.9,0.1-5.9,1.2-9,3.3s-6.1,4.9-9.1,8.5
			c-2.9,3.6-5.6,7.6-8.1,12.2c-2.5,4.6-4.5,9.4-6.1,14.4c6-0.4,11.4-1.8,16.1-4.2s8.7-5.3,12-8.6s5.7-6.9,7.3-10.6
			c1.6-3.7,2.4-7.1,2.3-10.3c-0.1-1.5-0.5-2.7-1.5-3.5C142.8,176.2,141.5,175.8,139.8,175.8z"/>
		<path class="st7" d="M165.2,248.2c0.1,1.5,0.5,2.7,1.3,3.6s1.8,1.3,3.2,1.3c1.8-0.1,3.5-0.7,5.2-1.9s3.2-2.6,4.4-4.1
			c1.5-1.6,2.9-3.5,4.2-5.8c0.1-0.3,0.3-0.6,0.6-0.9c0.2-0.2,0.4-0.4,0.8-0.6c0.3-0.2,0.7-0.4,1.2-0.4c0.7,0,1.4,0.2,1.9,0.7
			c0.6,0.5,0.9,1.1,0.9,1.8c0,0.4,0,0.7-0.2,1c-0.1,0.3-0.3,0.6-0.4,1c-0.2,0.4-0.3,0.8-0.5,1.2c-1.8,3.1-3.9,5.9-6.2,8.3
			c-2,2.1-4.3,4-7,5.7c-2.7,1.8-5.7,2.7-9,2.8c-5,0.2-9.1-1-12.3-3.5s-4.9-5.9-5-10.2c-0.1-2.4,0.2-5.2,0.9-8.5s1.5-6.7,2.4-10.1
			s1.9-6.7,3-9.8s2-5.6,2.7-7.4c0.3-0.7,0.8-1.3,1.4-1.8s1.3-0.8,2.1-0.8c1,0,2.1,0.2,3.4,0.8c1.3,0.6,2.4,1.2,3.5,2
			c1.1,0.7,2,1.5,2.7,2.3s1.1,1.5,1.1,2c0.1,2-0.3,4.2-1,6.5s-1.5,4.8-2.3,7.5s-1.6,5.4-2.2,8.4C165.4,242,165.1,245.1,165.2,248.2z
			 M182,184.8c0.1,1.7-0.2,3.4-0.7,5.1c-0.5,1.6-1.3,3.1-2.2,4.4s-2.1,2.3-3.3,3.1c-1.3,0.8-2.6,1.2-4,1.3c-1.9,0.1-3.6-0.5-5.1-1.8
			s-2.2-3.1-2.3-5.4c-0.1-1.6,0.2-3.3,0.8-4.9s1.3-3,2.3-4.3s2.1-2.3,3.4-3.1c1.3-0.8,2.7-1.2,4.2-1.3c1.9-0.1,3.6,0.5,4.9,1.8
			C181.3,180.9,181.9,182.6,182,184.8z"/>
		<path class="st7" d="M230,245.9c0.1,1.5,0.5,2.7,1.3,3.6s1.8,1.3,3.2,1.3c1.8-0.1,3.5-0.7,5.2-1.9s3.2-2.6,4.4-4.1
			c1.5-1.6,2.9-3.5,4.2-5.8c0.1-0.3,0.3-0.6,0.6-0.9c0.2-0.2,0.4-0.4,0.8-0.6c0.3-0.2,0.7-0.4,1.2-0.4c0.7,0,1.4,0.2,1.9,0.7
			s0.9,1.1,0.9,1.8c0,0.4,0,0.7-0.2,1c-0.1,0.3-0.3,0.6-0.4,1c-0.2,0.4-0.3,0.8-0.5,1.2c-1.8,3.1-3.9,5.9-6.2,8.3
			c-2,2.1-4.3,4-7,5.7c-2.7,1.8-5.7,2.7-9,2.8c-5,0.2-9.1-1-12.3-3.4s-4.8-5.5-5-9.2c-0.1-2.7,0.2-5.3,0.8-7.8s1.3-4.9,2.1-7.3
			c0.8-2.4,1.4-4.6,2.1-6.8s0.9-4.2,0.8-6.2c0-0.6-0.3-1.1-0.9-1.5c-0.5-0.4-1.2-0.6-1.9-0.5c-2,0.1-4.2,1.1-6.5,3
			c-2.3,2-4.4,4.7-6.3,8.3c-1.9,3.6-3.5,7.9-4.7,13s-1.7,10.7-1.4,17c0,1.1-0.2,1.9-0.6,2.2c-0.5,0.3-1.2,0.5-2.2,0.5
			c-3.5,0.1-6.5-0.4-8.9-1.7c-2.4-1.3-3.7-2.9-3.8-5c-0.1-3.6,0.1-7.5,0.8-11.6s1.6-8,2.6-11.9c1-3.8,2.1-7.4,3.1-10.6
			c1.1-3.3,2-5.8,2.7-7.7c0.6-1.7,1.8-2.6,3.5-2.6c1,0,2.3,0.3,3.9,1s3.5,2.6,5.6,5.7c1.8-1.6,3.8-3.1,6.1-4.4
			c1.9-1.1,4.1-2.1,6.5-3.1s5.1-1.5,7.9-1.6c1.4-0.1,2.8,0.3,4.2,0.9c1.4,0.6,2.6,1.5,3.7,2.5c1.1,1.1,2,2.2,2.6,3.5
			c0.7,1.3,1,2.6,1.1,3.9c0.1,2-0.2,4.1-0.9,6.4c-0.7,2.2-1.4,4.6-2.1,6.9c-0.8,2.4-1.5,4.8-2.1,7.2
			C230.2,241.1,229.9,243.5,230,245.9z"/>
		<path class="st7" d="M299.9,241c-1.8,3.1-4.2,5.9-7,8.4c-2.4,2.1-5.4,4-9,5.8s-7.9,2.8-13,2.9c-3.4,0.1-6.5-0.3-9.3-1.1
			c-2.9-0.9-5.3-2.1-7.4-3.7c-2.1-1.6-3.8-3.6-5-5.9c-1.2-2.3-1.9-4.9-2-7.6c-0.2-5,0.6-9.5,2.3-13.7c1.7-4.1,3.9-7.7,6.6-10.8
			c2.7-3,5.7-5.4,9-7.1c3.3-1.7,6.3-2.6,9.3-2.7c2-0.1,3.9,0.3,5.7,1c1.8,0.7,3.4,1.7,4.8,2.9s2.5,2.6,3.3,4.3
			c0.8,1.6,1.3,3.3,1.3,5.1c0.1,1.6-0.2,3.5-0.9,5.7c-0.6,2.2-1.7,4.4-3.3,6.4c-1.6,2.1-3.7,3.9-6.4,5.4c-2.7,1.5-6.2,2.4-10.3,2.5
			c-1,0-2-0.1-3.1-0.3c-0.6-0.1-1.3-0.2-2-0.3c0.1,3.9,1.4,6.9,3.8,8.9s5.1,2.9,8.3,2.8c3.1-0.1,5.9-0.8,8.4-2.2s4.6-2.8,6.4-4.3
			c2.1-1.8,3.8-3.9,5.2-6.2c0.1-0.3,0.3-0.6,0.6-0.9c0.2-0.2,0.4-0.4,0.8-0.6c0.3-0.2,0.7-0.4,1.2-0.4c0.7,0,1.4,0.2,2,0.7
			s0.9,1.1,0.9,1.8c0,0.4,0,0.7-0.2,1c-0.1,0.3-0.3,0.6-0.4,1C300.2,240.1,300,240.6,299.9,241z M263.9,232.9
			c2.4-0.1,4.6-0.8,6.7-2.2s3.9-3,5.3-5c1.5-1.9,2.6-3.9,3.4-5.9s1.2-3.7,1.1-5.1c-0.1-1.7-0.9-2.6-2.5-2.5
			c-1.9,0.1-3.6,0.9-5.4,2.4c-1.7,1.5-3.2,3.4-4.5,5.5s-2.3,4.4-3.1,6.8C264.2,229.2,263.8,231.2,263.9,232.9z"/>
		<path class="st7" d="M351,240.9c-0.1-3,0.1-5.7,0.8-8.1s1.3-4.7,2.1-6.7c0.8-2,1.5-3.9,2.1-5.7s0.9-3.4,0.9-4.9
			c0-0.9-0.3-1.5-0.7-1.9c-0.5-0.4-1-0.6-1.7-0.5c-1.5,0.1-3.5,1.5-6,4.3s-4.7,7-6.7,12.4c-1.8,4.7-3,9-3.8,12.9s-1.1,7.4-1,10.4
			c0,1.1-0.2,1.9-0.6,2.2c-0.5,0.3-1.2,0.5-2.2,0.5c-3.5,0.1-6.5-0.4-9-1.7c-2.4-1.3-3.7-2.9-3.8-5c-0.1-2.7,0.2-5.6,0.9-8.7
			c0.7-3.1,1.5-6.2,2.4-9.2s1.7-5.8,2.4-8.3c0.7-2.6,1-4.6,1-6.2c-0.1-1.8-0.9-2.7-2.5-2.6s-3.4,1-5.4,2.8s-3.9,4.4-5.6,7.8
			s-3.1,7.6-4.1,12.6c-1.1,5-1.5,10.6-1.3,16.8c0,1.1-0.2,1.9-0.6,2.2c-0.5,0.3-1.2,0.5-2.2,0.5c-3.5,0.1-6.5-0.4-9-1.7
			c-2.5-1.3-3.7-2.9-3.8-5c-0.1-3.8,0.1-7.8,0.8-11.9c0.7-4.1,1.5-8.1,2.6-11.9c1-3.8,2.1-7.3,3.1-10.4c1.1-3.2,2-5.7,2.7-7.5
			c0.6-1.7,1.8-2.6,3.5-2.6c1,0,2.3,0.3,3.9,1s3.5,2.6,5.6,5.7c1.8-1.6,3.7-3.1,5.7-4.4c1.7-1.1,3.7-2.1,5.8-3.1s4.4-1.5,6.6-1.5
			c2.9-0.1,5.2,0.7,7,2.5c1.7,1.8,3.1,4,4.2,6.8c2-1.8,4-3.5,6.2-5.1c1.8-1.3,3.9-2.5,6.2-3.6c2.3-1.1,4.7-1.7,7.2-1.8
			c1.1,0,2.3,0.2,3.5,0.7s2.3,1.2,3.3,2.1c1,0.9,1.8,1.9,2.4,3s0.9,2.2,1,3.4c0.1,1.7-0.3,3.8-1,6.1c-0.8,2.3-1.6,4.7-2.6,7.3
			s-1.8,5.3-2.6,8c-0.7,2.7-1.1,5.4-1,8c0,1.5,0.5,2.7,1.3,3.6s1.8,1.3,3.2,1.3c1.8-0.1,3.5-0.7,5.2-1.9s3.2-2.6,4.4-4.1
			c1.5-1.6,2.9-3.5,4.2-5.8c0.1-0.3,0.3-0.6,0.6-0.9c0.2-0.2,0.4-0.4,0.8-0.6c0.3-0.2,0.7-0.4,1.2-0.4c0.7,0,1.4,0.2,2,0.7
			s0.9,1.1,0.9,1.8c0,0.4,0,0.7-0.2,1c-0.1,0.3-0.3,0.6-0.4,1c-0.2,0.4-0.3,0.8-0.5,1.2c-1.8,3.1-3.9,5.9-6.2,8.3
			c-2,2.1-4.3,4-7,5.7c-2.7,1.8-5.7,2.7-9,2.8c-5,0.2-9.1-1-12.3-3.5C352.8,248.5,351.1,245.1,351,240.9z"/>
		<path class="st7" d="M446,242.7c-1.4,1.8-2.9,3.4-4.5,4.7c-1.4,1.3-3,2.4-4.7,3.4c-1.8,1-3.6,1.5-5.6,1.6
			c-3.7,0.1-6.9-0.7-9.5-2.5s-4.2-4.5-4.8-8.1c-1.7,2.2-3.5,4.2-5.5,5.8c-1.7,1.5-3.7,2.8-5.8,4c-2.2,1.2-4.5,1.9-7.1,1.9
			c-1.8,0.1-3.5-0.2-5.1-0.8c-1.7-0.6-3.1-1.5-4.3-2.6s-2.2-2.6-3-4.2c-0.8-1.6-1.2-3.4-1.3-5.4c-0.2-4.7,0.6-9.4,2.2-14.1
			c1.6-4.7,3.9-8.9,6.6-12.7c2.8-3.8,5.9-6.9,9.5-9.3s7.1-3.6,10.7-3.8c2.6-0.1,4.9,0.1,6.8,0.7c1.9,0.6,3.4,1.3,4.6,2
			c1.4,0.9,2.5,1.9,3.3,2.9c1,0,2,0,3.1,0.2s2.1,0.5,3.1,0.9s1.7,1.1,2.4,1.8c0.6,0.8,1,1.7,1,2.8c0,1-0.3,2.5-1,4.7
			s-1.5,4.6-2.4,7.3s-1.7,5.5-2.4,8.3c-0.7,2.9-1,5.4-0.9,7.5c0,1,0.4,1.9,1.1,2.6c0.7,0.7,1.6,1,2.8,0.9c0.7,0,1.4-0.3,2.1-0.7
			c0.7-0.5,1.4-1,2.1-1.5c0.8-0.6,1.5-1.4,2.2-2.3c0.3-0.4,0.7-0.9,1.1-1.3c0.4-0.4,1-0.6,1.6-0.6c0.7,0,1.4,0.3,2,0.8
			c0.6,0.6,1,1.2,1,1.9c0,0.5-0.2,1.1-0.7,1.9C446.4,242,446.2,242.3,446,242.7z M421.9,213.5c-0.1-1.9-0.6-3.3-1.5-4.2
			c-1-0.9-2.1-1.3-3.4-1.3c-1.9,0.1-3.9,1.1-5.9,3.2c-2,2.1-3.7,4.6-5.2,7.6s-2.8,6.2-3.7,9.6c-0.9,3.4-1.4,6.5-1.3,9.2
			c0.1,3.9,1.5,5.8,4,5.7c1.6-0.1,3.4-1.2,5.4-3.3s3.9-4.8,5.6-7.9c1.8-3.1,3.2-6.4,4.4-9.8C421.4,219,422,216,421.9,213.5z"/>
	</g>
</g>
<path class="st8" d="M236.5,409.1v2.4h-2.1c-1.6,0-6.6,0.8-6.6,2.4v0.4h-1.9l-5.1-3c-0.2-0.1-0.4,0-0.6,0.1l-2.8,0.1l0,0
	c-0.1,0-0.3-0.1-0.4,0c-0.1,0.1-0.2,0.1-0.2,0.2l-0.1,14.4c0,0.1,0,0.3,0.1,0.4s0.2,0.1,0.3,0.1h2.9c0.1,0-0.1,0-0.1,0
	c0.1,0-0.3,0-0.2,0l6-2.9h1.9v24.1c0,1.6,5,5.6,6.6,5.6h15.9V451c0,1,1.9,1.8,2.7,2.3l-11.1,31.1c-0.5,1.3-0.1,2.8,1.3,3.3
	c0.3,0.1,0.2,0.2,0.6,0.2c1,0,1.2-0.6,1.6-1.6l10.2-29.3v28.9c0,1.4,2,2.5,3.5,2.5s3.5-1.1,3.5-2.5V457l12.5,29.3
	c0.4,1,2,1.6,3.1,1.6c0.3,0,0.4,0,0.7-0.2c1.3-0.5,1.6-2,1-3.3l-13.4-31.1c0.8-0.5-0.4-1.3-0.4-2.3v2.4h22.4c1.6,0,0.1-4,0.1-5.6
	v-10L299,438l12.7,5.5c0.1,0,0.1,0.5,0.2,0.5v0.9l0,0h5.1l0,0c0.1,0,0.3-0.9,0.4-1s0.2-1,0.2-1.2v-25.1c0-0.3-0.2-0.2-0.5-0.2
	L312,418l0,0c-0.1,0-0.3,0.1-0.4,0.2v0.1l-11,6.4h-12.3v-11c0-1.6,1.5-2.4-0.1-2.4h-8.5v-1.7c3.5,0.5,7,0.9,9.4,0.9
	c16.3,0,31.9-12.7,31.9-28.4c0-15.7-13.3-28.4-29.5-28.4c-16.3,0-29.5,13.1-29.5,28.8c0,1.6,0.1,3.6,0.4,5.3h-4c0,0-0.2-0.4-0.3,0
	c0.4-1.7,0.4-4.1,0.4-6c0-15.7-13.4-28.5-29.6-28.5c-16.3,0-29.8,12.8-29.8,28.5s12.6,28.5,28.9,28.5
	C231.5,410.7,231.3,410.1,236.5,409.1z M210.7,393.1c0-0.9,0.2-1.7,0.5-2.5c1-2.5,3.5-4.3,6.5-4.3c3.9,0,7,3,7,6.8
	c0,1.6-0.6,3.1-1.6,4.3c-1.3,1.5-3.3,2.5-5.5,2.5C213.9,399.9,210.7,396.8,210.7,393.1z M207.8,370c3.9,0,7,3,7,6.8s-3.2,6.8-7,6.8
	c-0.2,0-0.5,0-0.7,0c-3.5-0.4-6.3-3.2-6.3-6.7c0-1,0.3-2,0.7-3c0.7-1.4,1.9-2.5,3.4-3.2c0.8-0.3,1.6-0.5,2.4-0.6
	C207.4,370,207.6,370,207.8,370z M224.8,361.7c0,3.1-2.1,5.8-5.2,6.5c-2.1,0.5-4.2,0.1-5.8-1c-1.3-0.9-2.1-2.1-2.6-3.4
	c-0.2-0.6-0.4-1.4-0.4-2.1c0-3.7,3.1-6.8,7-6.8c2,0,3.8,0.8,5.1,2.1C224.1,358.2,224.8,359.9,224.8,361.7z M308.9,383.8
	c-3.9,0-7-3-7-6.8c0-0.2,0-0.4,0-0.6c0.3-3.5,3.3-6.1,7-6.1c0.3,0,0.6,0,0.9,0c3.5,0.5,6.1,3.3,6.1,6.7c0,0.2,0,0.4,0,0.6
	c-0.2,1.7-1,3.3-2.3,4.4c-1,0.9-2.3,1.5-3.7,1.7C309.5,383.7,309.2,383.8,308.9,383.8z M292,393.1c0-3.7,3.1-6.8,7-6.8
	c3.1,0,5.7,1.9,6.6,4.5c0.3,0.7,0.4,1.5,0.4,2.2c0,3.7-3.1,6.8-7,6.8c-2.2,0-4.1-1-5.4-2.5C292.6,396.2,292,394.7,292,393.1z
	 M292,361.8c0-1.9,0.8-3.5,2-4.8c1.3-1.2,3.1-2,5-2c3.9,0,7,3,7,6.8c0,0.6-0.1,1.3-0.3,1.9c-0.8,2.8-3.5,4.9-6.7,4.9
	C295.1,368.5,292,365.5,292,361.8z M270.1,370c3.9,0,7,3,7,6.8s-3.2,6.8-7,6.8c-0.2,0-0.5,0-0.7,0c-3.5-0.4-6.3-3.2-6.3-6.7
	c0-1,0.3-2,0.7-3c0.7-1.4,1.9-2.5,3.4-3.2c0.8-0.3,1.6-0.5,2.4-0.6C269.8,370,270,370,270.1,370z M287.1,361.7
	c0,3.1-2.1,5.8-5.2,6.5c-2.1,0.5-4.2,0.1-5.8-1c-1.3-0.9-2.1-2.1-2.6-3.4c-0.2-0.6-0.4-1.4-0.4-2.1c0-3.7,3.1-6.8,7-6.8
	c2,0,3.8,0.8,5.1,2.1C286.4,358.2,287.1,359.9,287.1,361.7z M280,399.9c-3.8,0-7-3-7-6.8c0-0.9,0.2-1.7,0.5-2.5
	c1-2.5,3.5-4.3,6.5-4.3c3.9,0,7,3,7,6.8c0,1.6-0.6,3.1-1.6,4.3C284.2,398.9,282.2,399.9,280,399.9z M229.6,393.1
	c0-3.7,3.1-6.8,7-6.8c3.1,0,5.7,1.9,6.6,4.5c0.3,0.7,0.4,1.5,0.4,2.2c0,3.7-3.1,6.8-7,6.8c-2.2,0-4.1-1-5.4-2.5
	C230.2,396.2,229.6,394.7,229.6,393.1z M243.6,361.8c0,0.6-0.1,1.3-0.3,1.9c-0.8,2.8-3.5,4.9-6.7,4.9c-3.9,0-7-3-7-6.8
	c0-1.9,0.8-3.5,2-4.8c1.3-1.2,3.1-2,5-2C240.5,355,243.6,358,243.6,361.8z M253.5,377c0,0.2,0,0.4,0,0.6c-0.2,1.7-1,3.3-2.3,4.4
	c-1,0.9-2.3,1.5-3.7,1.7c-0.3,0-0.7,0.1-1,0.1c-3.9,0-7-3-7-6.8c0-0.2,0-0.4,0-0.6c0.3-3.5,3.3-6.1,7-6.1c0.3,0,0.6,0,0.9,0
	C250.9,370.7,253.5,373.5,253.5,377z"/>
<path d="M230.1,403v2.3h-2c-1.5,0-6.4,0.8-6.4,2.3v0.4h-1.8l-4.9-2.9c-0.2-0.1-0.4,0-0.6,0.1l-2.7,0.1l0,0c-0.1,0-0.3-0.1-0.4,0
	s-0.2,0.1-0.2,0.2l-0.1,13.9c0,0.1,0,0.3,0.1,0.4s0.2,0.1,0.3,0.1h2.8c0.1,0-0.1,0-0.1,0c0.1,0-0.3,0-0.2,0l5.8-2.8h1.8v23.2
	c0,1.5,4.8,5.4,6.4,5.4h15.3v-2.3c0,1,1.8,1.7,2.6,2.2l-10.7,30c-0.5,1.3-0.1,2.7,1.3,3.2c0.3,0.1,0.2,0.2,0.6,0.2
	c1,0,1.2-0.6,1.5-1.5l9.8-28.2V477c0,1.4,1.9,2.4,3.4,2.4c1.4,0,3.4-1.1,3.4-2.4v-27.8l11.9,28.2c0.4,1,1.9,1.5,3,1.5
	c0.3,0,0.4,0,0.7-0.2c1.3-0.5,1.5-1.9,1-3.2l-12.9-30c0.8-0.5-0.4-1.3-0.4-2.2v2.3h21.6c1.5,0,0.1-3.9,0.1-5.4v-9.6l10.2,0.2
	l12.2,5.3c0.1,0,0.1,0.5,0.2,0.5v0.9l0,0h4.9l0,0c0.1,0,0.3-0.9,0.4-1c0.1-0.1,0.2-1,0.2-1.2v-24.2c0-0.3-0.2-0.2-0.5-0.2l-4.9,0.6
	l0,0c-0.1,0-0.3,0.1-0.4,0.2v0.1l-10.6,6.2h-11.9v-10.6c0-1.5,1.5-2.3-0.1-2.3h-8.2v-1.6c3.4,0.5,6.7,0.9,9.1,0.9
	c15.7,0,30.7-12.2,30.7-27.4s-12.8-27.4-28.4-27.4c-15.7,0-28.4,12.6-28.4,27.7c0,1.5,0.1,3.5,0.4,5.1H251c0,0-0.2-0.4-0.3,0
	c0.4-1.6,0.4-4,0.4-5.8c0-15.1-12.9-27.5-28.5-27.5c-15.7,0-28.7,12.3-28.7,27.5s12.1,27.5,27.8,27.5
	C225.2,404.6,225.1,404,230.1,403z M207.2,392.5c0-0.9,0.2-1.6,0.5-2.4c1-2.4,3.4-4.1,6.3-4.1c3.8,0,6.7,2.9,6.7,6.5
	c0,1.5-0.6,3-1.5,4.1c-1.3,1.5-3.2,2.4-5.3,2.4C210.2,399,207.2,396,207.2,392.5z M204.3,370.2c3.8,0,6.7,2.9,6.7,6.5
	s-3.1,6.5-6.7,6.5c-0.2,0-0.5,0-0.7,0c-3.4-0.4-6.1-3.1-6.1-6.5c0-1,0.3-1.9,0.7-2.9c0.7-1.4,1.8-2.4,3.3-3.1
	c0.8-0.3,1.5-0.5,2.3-0.6C204.1,370.2,204.2,370.2,204.3,370.2z M220.7,362.2c0,3-2,5.6-5,6.3c-2,0.5-4.1,0.1-5.6-1
	c-1.3-0.9-2-2-2.5-3.3c-0.2-0.6-0.4-1.4-0.4-2c0-3.6,3-6.5,6.7-6.5c1.9,0,3.7,0.8,4.9,2C220,358.8,220.7,360.5,220.7,362.2z
	 M301.7,383.5c-3.8,0-6.7-2.9-6.7-6.5c0-0.2,0-0.4,0-0.6c0.3-3.4,3.2-5.9,6.7-5.9c0.3,0,0.6,0,0.9,0c3.4,0.5,5.9,3.2,5.9,6.5
	c0,0.2,0,0.4,0,0.6c-0.2,1.6-1,3.2-2.2,4.2c-1,0.9-2.2,1.5-3.6,1.6C302.4,383.4,302,383.5,301.7,383.5z M285.5,392.5
	c0-3.6,3-6.5,6.7-6.5c3,0,5.5,1.8,6.4,4.3c0.3,0.7,0.4,1.4,0.4,2.1c0,3.6-3,6.5-6.7,6.5c-2.1,0-4-1-5.2-2.4
	C286,395.4,285.5,394,285.5,392.5z M285.5,362.3c0-1.8,0.8-3.4,1.9-4.6c1.3-1.2,3-1.9,4.8-1.9c3.8,0,6.7,2.9,6.7,6.5
	c0,0.6-0.1,1.3-0.3,1.8c-0.8,2.7-3.4,4.7-6.5,4.7C288.4,368.8,285.5,365.9,285.5,362.3z M264.5,370.2c3.8,0,6.7,2.9,6.7,6.5
	s-3.1,6.5-6.7,6.5c-0.2,0-0.5,0-0.7,0c-3.4-0.4-6.1-3.1-6.1-6.5c0-1,0.3-1.9,0.7-2.9c0.7-1.4,1.8-2.4,3.3-3.1
	c0.8-0.3,1.5-0.5,2.3-0.6C264.1,370.2,264.3,370.2,264.5,370.2z M280.8,362.2c0,3-2,5.6-5,6.3c-2,0.5-4,0.1-5.6-1
	c-1.3-0.9-2-2-2.5-3.3c-0.2-0.6-0.4-1.4-0.4-2c0-3.6,3-6.5,6.7-6.5c1.9,0,3.7,0.8,4.9,2C280.1,358.8,280.8,360.5,280.8,362.2z
	 M274,399c-3.7,0-6.7-2.9-6.7-6.5c0-0.9,0.2-1.6,0.5-2.4c1-2.4,3.4-4.1,6.3-4.1c3.8,0,6.7,2.9,6.7,6.5c0,1.5-0.6,3-1.5,4.1
	C278,398,276.1,399,274,399z M225.4,392.5c0-3.6,3-6.5,6.7-6.5c3,0,5.5,1.8,6.4,4.3c0.3,0.7,0.4,1.4,0.4,2.1c0,3.6-3,6.5-6.7,6.5
	c-2.1,0-3.9-1-5.2-2.4C225.9,395.4,225.4,394,225.4,392.5z M238.9,362.3c0,0.6-0.1,1.3-0.3,1.8c-0.8,2.7-3.4,4.7-6.4,4.7
	c-3.8,0-6.7-2.9-6.7-6.5c0-1.8,0.8-3.4,1.9-4.6c1.3-1.2,3-1.9,4.8-1.9C235.8,355.8,238.9,358.6,238.9,362.3z M248.5,377
	c0,0.2,0,0.4,0,0.6c-0.2,1.6-1,3.2-2.2,4.2c-1,0.9-2.2,1.5-3.6,1.6c-0.3,0-0.7,0.1-1,0.1c-3.8,0-6.7-2.9-6.7-6.5c0-0.2,0-0.4,0-0.6
	c0.3-3.4,3.2-5.9,6.7-5.9c0.3,0,0.6,0,0.9,0C245.9,370.9,248.5,373.6,248.5,377z"/>
</svg>
