<?xml version="1.0" encoding="utf-8"?>
<!-- Generator: Adobe Illustrator 24.0.0, SVG Export Plug-In . SVG Version: 6.00 Build 0)  -->
<svg version="1.1" id="Calque_1" xmlns="http://www.w3.org/2000/svg" xmlns:xlink="http://www.w3.org/1999/xlink" x="0px" y="0px"
	 viewBox="0 0 510 510" style="enable-background:new 0 0 510 510;" xml:space="preserve">
<style type="text/css">
	.st0{fill:#FCF8F0;}
	.st1{opacity:0.26;}
	.st2{fill:none;stroke:#000000;stroke-width:4;stroke-linecap:round;stroke-linejoin:round;stroke-dasharray:1.0019,20.0376;}
	.st3{opacity:0.26;fill:none;stroke:#000000;stroke-miterlimit:10;enable-background:new    ;}
	.st4{fill:none;stroke:#000000;stroke-miterlimit:10;}
	.st5{fill:#D3D2D1;}
	.st6{fill:#A51F1E;}
	.st7{fill:#C9C8C7;}
</style>
<polygon points="-86.9,-41.1 634,-42.3 634,566.6 -86.9,567.8 "/>
<g id="BACKGROUND">
</g>
<circle cx="254.8" cy="253.8" r="254"/>
<circle class="st0" cx="255" cy="253.8" r="224"/>
<g class="st1">
	<circle class="st0" cx="255.4" cy="260.4" r="197.6"/>
	<circle class="st2" cx="254.8" cy="259.8" r="197.6"/>
</g>
<path class="st3" d="M414.2,340.4c-28.9,57.2-89.6,96.2-159.4,96.2c-69.5,0-129.7-39-158.9-95.8"/>
<path class="st3" d="M81.4,285.2"/>
<g>
	<g>
		<path d="M106.8,299.7c2.1,1.1,3.8,2.8,4.9,4.8c1.2,2.1,1.8,4.4,1.8,7c0,2.7-0.6,5-1.8,6.9c-1.2,2.1-2.8,3.6-4.9,4.8
			c-2.2,1.1-4.6,1.8-7.4,1.8h-10v-26.8h10C102.1,298,104.7,298.6,106.8,299.7z M104.8,317.1c1.5-1.3,2.1-3.2,2.1-5.8
			c0-2.6-0.7-4.5-2.1-5.8c-1.5-1.5-3.2-2.1-5.8-2.1h-3.1V319H99C101.3,319.1,103.4,318.4,104.8,317.1z"/>
		<path d="M127.7,298h6.7l-4.2,10.2h-4.5L127.7,298z"/>
		<path d="M164.1,320.1h-9.9l-1.7,4.8h-6.8l9.6-26.8h7.6l9.6,26.8h-6.8L164.1,320.1z M162.4,315l-3.3-9.8l-3.2,9.8H162.4z"/>
		<path d="M191.1,298v16.1c0,1.7,0.4,2.8,1.2,3.7c0.8,0.9,2,1.3,3.5,1.3c1.5,0,2.8-0.4,3.5-1.3c0.9-0.9,1.2-2.1,1.2-3.7V298h6.5
			v16.1c0,2.5-0.6,4.5-1.6,6c-1,1.7-2.5,2.9-4.1,3.8c-1.7,0.9-3.7,1.3-5.8,1.3s-4-0.4-5.7-1.2c-1.7-0.9-3-2.1-3.9-3.8
			c-1-1.7-1.5-3.7-1.5-6v-16.1L191.1,298L191.1,298z"/>
		<path d="M240,298v5.2h-7.1v21.5h-6.4v-21.5h-7.1V298H240z"/>
		<path d="M266.1,324.7l-5.6-10H259v10h-6.5v-26.8h10.9c2.1,0,3.9,0.3,5.5,1.1c1.6,0.8,2.7,1.8,3.3,3c0.8,1.3,1.1,2.8,1.1,4.4
			c0,1.8-0.6,3.3-1.6,4.8c-1,1.5-2.6,2.5-4.5,2.9l6.1,10.6H266.1L266.1,324.7z M259.1,310.1h4c1.2,0,2.1-0.3,2.8-0.9
			c0.7-0.6,0.9-1.5,0.9-2.6c0-1-0.3-1.9-0.9-2.5c-0.7-0.6-1.6-0.9-2.8-0.9h-4V310.1z"/>
		<path d="M293.1,303.1v5.5h8.7v5.1h-8.7v5.9h9.8v5.2h-16.5v-26.8h16.5v5.2h-9.8V303.1z"/>
		<path d="M333.8,298v5.2h-10.9v5.7h8.1v5.1h-8.1v10.8h-6.5v-26.8h17.4L333.8,298L333.8,298z"/>
		<path d="M352.2,323.2c-2.1-1.2-3.8-2.8-5-4.9c-1.2-2.1-1.9-4.5-1.9-7s0.7-5,1.9-7c1.2-2,2.9-3.7,5-4.9c2.1-1.2,4.5-1.8,6.9-1.8
			c2.5,0,4.9,0.6,6.9,1.8c2,1.2,3.8,2.8,5,4.9c1.2,2.1,1.9,4.5,1.9,7s-0.7,5-1.9,7s-2.9,3.7-5,4.9s-4.5,1.8-6.9,1.8
			C356.6,325,354.3,324.4,352.2,323.2z M364.3,316.9c1.3-1.5,2-3.3,2-5.7c0-2.5-0.7-4.2-2-5.7c-1.3-1.5-3-2.2-5.1-2.2
			c-2.2,0-3.9,0.7-5.2,2.1c-1.3,1.5-2,3.2-2,5.8c0,2.5,0.7,4.2,2,5.7c1.3,1.5,3,2.2,5.2,2.2C361.1,319.1,362.9,318.3,364.3,316.9z"
			/>
		<path d="M392.2,298v26.8h-6.5V298H392.2z"/>
		<path d="M410.3,324c-1.6-0.7-2.8-1.7-3.7-2.8c-1-1.3-1.5-2.8-1.6-4.6h6.9c0.1,1,0.4,1.8,1.1,2.3c0.6,0.6,1.3,0.8,2.3,0.8
			c1,0,1.8-0.2,2.3-0.7c0.6-0.4,0.9-1.1,0.9-1.9c0-0.7-0.2-1.2-0.7-1.7s-1-0.8-1.7-1.1c-0.7-0.3-1.7-0.7-2.8-1
			c-1.8-0.6-3.1-1.1-4.2-1.7c-1.1-0.6-2.1-1.3-2.8-2.5s-1.2-2.5-1.2-4.1c0-2.6,0.9-4.5,2.8-5.9c1.9-1.5,4.1-2.2,7-2.2
			c2.9,0,5.4,0.8,7.1,2.2c1.9,1.5,2.8,3.3,2.9,5.9h-7c0-0.9-0.3-1.6-1-2.1c-0.6-0.6-1.3-0.8-2.3-0.8c-0.8,0-1.5,0.2-2,0.7
			c-0.4,0.4-0.8,1-0.8,1.9c0,0.9,0.4,1.6,1.2,2.1c0.9,0.4,2.1,1,3.8,1.6c1.7,0.6,3.1,1.2,4.2,1.7c1.1,0.6,2.1,1.3,2.8,2.3
			s1.2,2.5,1.2,3.9s-0.4,2.9-1.2,4.1c-0.8,1.3-2,2.3-3.3,2.9c-1.6,0.8-3.2,1.1-5.2,1.1C413.8,325,412,324.7,410.3,324z"/>
	</g>
</g>
<g>
	<line class="st4" x1="93.3" y1="341.4" x2="415.9" y2="341.4"/>
</g>
<g>
	<g>
		<path class="st5" d="M424.8,175.3c-0.5-0.5-1.1-0.8-1.6-0.8c-0.5,0-1,0.2-1.3,0.5c-0.4,0.3-0.7,0.7-1,1c-0.6,0.7-1.2,1.3-1.8,1.6
			c-0.1,0-0.1,0.1-0.2,0.1c0.8-0.7,1.5-1.4,2.2-2.2c0.2-0.3,0.3-0.6,0.6-0.9c0.4-0.6,0.7-1.1,0.7-1.4c0-0.6-0.3-1.1-0.8-1.5
			c-0.5-0.5-1.1-0.8-1.6-0.8c-0.5,0-1,0.2-1.3,0.5c-0.4,0.3-0.7,0.7-1,1c-0.6,0.7-1.2,1.3-1.8,1.6c-0.6,0.4-1.2,0.8-1.7,1.2
			c-0.5,0.3-1.1,0.5-1.5,0.5c0.1-1.5,0.4-3.3,1-5.2c0.7-2.2,1.4-4.3,2.1-6.5c0.7-2.1,1.5-4,2.1-5.7c0.7-1.6,1-2.9,1-3.7
			c0-0.9-0.2-1.6-0.8-2.2c-0.5-0.7-1.2-1.2-1.8-1.4c-0.2-0.1-0.4-0.2-0.6-0.2c-0.1-0.7-0.3-1.4-0.7-1.7c-0.5-0.7-1.2-1.2-1.8-1.4
			c-0.8-0.4-1.5-0.7-2.4-0.9c-0.9-0.2-1.7-0.3-2.4-0.3c-0.7-0.9-1.4-1.5-2.5-2.3c-1-0.7-2.1-1.3-3.6-1.6c-1.5-0.6-3.2-0.9-5.4-0.9
			c-2.8,0-5.8,0.9-8.7,2.6c-2.9,1.7-5.5,4.1-7.8,6.9c-2.3,2.9-4.2,6.2-5.7,9.7c-1.1,2.4-1.7,4.9-2,7.4c-0.8,1.1-1.6,1.9-2.4,2.8
			c-1.1,1.2-2.2,2.1-3.7,3.1c-1.4,0.9-2.7,1.4-4.1,1.4c-0.1,0-0.2,0-0.3,0c0-0.1,0-0.2,0-0.4c0-2,0.4-4.1,1.1-6.3
			c0.7-2.1,1.4-4.2,2.3-6.2c0.9-1.9,1.6-4,2.2-5.7c0.7-1.7,1.1-3.4,1.1-4.6c0-0.9-0.2-1.7-0.7-2.7c-0.5-1-1.1-1.6-1.8-2.4
			c-0.4-0.4-0.8-0.7-1.2-1c0-0.1-0.1-0.1-0.1-0.2c-0.5-1-1.1-1.6-1.8-2.4c-0.8-0.8-1.6-1.4-2.5-1.7c-1-0.5-1.9-0.7-2.7-0.7
			c-2,0-3.9,0.4-5.8,1.2c-1.9,0.8-3.5,1.5-5,2.5c-1.4,1-2.8,1.9-4.1,3c-0.3-0.5-0.7-0.9-1-1.3c-0.4-0.4-0.9-0.8-1.3-1.1
			c-0.6-1-1.2-1.7-1.8-2.5c-1.4-1.4-3.1-2.1-5.5-2.2c-1.8,0-3.6,0.3-5.3,1c-1.7,0.7-3.3,1.4-4.7,2.2c-1.6,1-3.1,1.9-4.5,3.1
			c-0.2-0.2-0.4-0.3-0.5-0.5c-1.4-2.1-2.7-3.6-3.9-4.1c-1.3-0.7-2.2-1-3-1c-1.4,0-2.2,0.7-2.8,1.9c-0.7,1.4-1.4,3.4-2.4,5.8
			c-1,2.4-1.9,5.1-2.8,8c-1,2.9-1.8,6-2.4,9.2c0,0.2-0.1,0.4-0.1,0.5c-1.1,1.4-2.1,2.4-3.5,3.5c-1.4,1.2-3.1,2.2-5.2,3.2
			c-2.1,1-4.2,1.4-6.7,1.4c-2,0-3.8-0.6-5.3-1.5c-0.6-1.4-0.9-2.8-0.9-4.4c0.6,0.2,1.1,0.3,1.6,0.3c0.9,0.2,1.6,0.3,2.4,0.4
			c3.3,0,6.1-0.5,8.3-1.5c2.1-1.2,4-2.4,5.3-4.1c1.4-1.5,2.2-3.2,2.8-4.9c0.6-1.7,0.9-3.2,0.9-4.4c0-1.4-0.3-2.7-0.9-4.1
			c-0.6-1.4-1.4-2.4-2.4-3.5c-0.3-0.3-0.7-0.6-1.1-0.9c-0.6-1.1-1.3-1.8-2.1-2.7c-1.1-1.1-2.2-1.7-3.7-2.4c-1.4-0.7-2.9-1-4.5-1
			c-2.2,0-4.8,0.6-7.4,1.7c-2.6,1.3-5.1,3-7.3,5.2c-2.2,2.2-4.1,5-5.7,8.2c-1.5,3.2-2.2,6.8-2.2,10.6c0,0.2,0,0.4,0,0.7
			c-0.9,1.3-1.7,2.2-2.6,3.2c-1.1,1.2-2.2,2.1-3.7,3.1c-1.4,0.9-2.7,1.4-4.1,1.4c-0.1,0-0.2,0-0.3,0c0-0.1,0-0.2,0-0.4
			c0-1.8,0.3-3.8,1-5.6c0.6-1.8,1.3-3.8,2-5.6c0.7-1.8,1.4-3.7,2-5.3c0.6-1.7,1-3.4,1-4.9c0-1.1-0.2-2-0.8-3.1
			c-0.5-1.1-1.2-1.9-2-2.8c-0.4-0.4-0.9-0.9-1.4-1.2c-0.5-0.9-1.1-1.6-1.8-2.4c-0.9-0.9-1.8-1.5-2.8-2.1c-1.1-0.6-2.1-0.9-3.3-0.9
			c-2.2,0-4.3,0.3-6.4,1c-2,0.7-3.7,1.4-5.3,2.2c-1.8,1-3.4,1.9-4.8,3.1c-0.2-0.2-0.4-0.3-0.5-0.5c-1.4-2.1-2.7-3.6-3.9-4.1
			c-1.3-0.7-2.2-1-3-1c-1.4,0-2.2,0.7-2.8,1.9c-0.7,1.4-1.4,3.4-2.4,5.9s-1.9,5.2-2.8,8.2c-0.9,3-1.8,6.1-2.4,9.2
			c0,0.1,0,0.2-0.1,0.3c-0.9,1.2-1.7,2.1-2.6,3.1c-1.1,1.2-2.2,2.1-3.7,3.1c-1.4,0.9-2.7,1.4-4.1,1.4c-0.1,0-0.2,0-0.3,0
			c0-0.1,0-0.2,0-0.4c0-2.4,0.4-4.8,1-7c0.7-2.2,1.4-4.4,2.1-6.5c0.8-2,1.4-4,2.1-5.8c0.7-1.7,1-3.5,1-5c0-0.4-0.3-1-0.9-1.5
			c-0.6-0.6-1.3-1.4-2.1-1.8c-0.1,0-0.1-0.1-0.2-0.1c0-0.4-0.3-1-0.9-1.4c-0.6-0.7-1.3-1.4-2.1-1.8c-0.9-0.7-1.7-1.3-2.7-1.6
			c-1-0.5-1.9-0.8-2.6-0.8c-0.7,0-1.3,0.2-1.7,0.6s-0.9,0.9-1.2,1.4c-0.7,1.4-1.4,3.4-2.4,5.7c-1,2.3-1.9,4.8-2.7,7.5
			c-0.9,2.6-1.6,5.2-2.2,7.8c-0.4,1.4-0.6,2.6-0.8,3.8c-0.9,1.1-1.8,1.9-2.8,2.9c-1.5,1.4-3.2,2.6-5,3.6c-1.8,1.1-3.7,1.7-5.6,2.4
			c-1.9,0.6-3.8,1-5.7,0.9c-4.2,0-7.5-1.1-10.1-3.1c-1.6-2.9-2.3-6.8-2.3-11.9c0-3.5-0.4-17.2,0.5-20.7c6.5-0.1,12.3-1.1,17.7-2.9
			c5.2-1.8,9.7-4.2,13.4-6.9c3.7-2.8,5.7-5.8,7.6-9c2-3.2,3-7,3.1-9.7c0-1.4-0.4-3-1.2-4.6c-0.8-1.6-0.9-2.3-2.1-3.8
			c-0.4-0.5-0.8-0.9-1.3-1.3c-0.6-0.9-1.2-1.5-1.8-2.3c-1.4-1.4-2.9-2.6-4.7-3.7c-1.9-1-3.9-1.4-6-1.4c-3.4,0-6.9,0.9-10.7,2.6
			c-3.9,1.7-7.5,4.2-11.2,7.2c-3.7,3-6.2,17-9.4,21.1c4.6-6.1-1.9-0.6-7.7,13c-1.4-0.6-4.8-15.5-5.9-16.3c-1.1-2.1-1.6-4.3-1.6-6.6
			c0-2.1,0.3-4,0.9-5.5c0.6-1.4,1.4-2.9,2.1-4.1c0.9-1.2,1.8-2,2.7-2.8c1-0.8,1.8-1.4,2.5-1.9c0.7-0.5,1.2-0.9,1.5-1.2
			c0.4-0.3,0.6-0.7,0.6-1.2c0-0.8-0.6-2-1.8-2s-2.9,1.4-5,2c0.7-0.5,1.3-1,1.7-1.4c0.7-0.5,1.2-0.9,1.5-1.2c0.4-0.3,0.6-0.7,0.6-1.2
			c0-0.8-0.6-1.2-1.8-1.2c-1.5,0-3.5,0.5-6.1,1.4c-2.5,1.1-5,2.3-7.4,4.1c-2.4,1.7-4.5,3.9-6.4,6.3c-1.8,2.4-1.5,9.1-1.5,11.9
			c0,1.6,0.5,3.3,1.4,4.9c0.9,1.4,2,2.9,3.5,4.2c0.9,1.4,2,2.7,3.5,4c1.7,1.4,3.9,2.8,6.3,4.1c1.4,0.8,3,1.4,4.7,1.8
			c-0.3,1.2,0.4,12.5,0.2,13.6c-0.3,1.8-0.5,3.9-0.5,5.7c0,4.2,0.8,8,2.3,11.1c1.4,2.5,2.9,4.7,4.9,6.6c1.3,1.7,2.6,3.4,4.3,4.6
			c2.5,2,5.4,3.6,8.6,4.5c3.2,1.1,6.5,1.4,9.7,1.5c3.2,0,6.3-0.4,9-1.3c2.7-0.9,5.3-1.9,7.6-3.3c2.1-1.4,4.1-2.7,5.9-4.2
			c0.2,0.2,0.3,0.3,0.5,0.5c0.2,0.2,0.4,0.3,0.6,0.5c0.6,1.2,1.4,2.1,2.4,3.1c2.4,2.1,5.7,3.2,9.6,3.2c2.5,0,5-0.6,7.1-1.8
			c1.9-1.1,3.5-2.2,4.9-3.5c0.2,0.1,0.4,0.3,0.6,0.4c0.1,0.1,0.2,0.1,0.3,0.2c0.2,1.4,1.2,2.5,2.7,3.4c1.9,1.1,4.2,1.5,6.9,1.6
			c0.8,0,1.4-0.1,1.7-0.4c0.4-0.3,0.6-0.9,0.6-1.6c0-4.9,0.7-9.4,1.7-13.2c1.2-4,2.5-7.2,4.1-9.9c1.7-2.7,3.4-4.8,5.3-6.3
			c1.4-1.2,2.8-1.7,4.1-2c-0.2,1-0.4,1.8-0.7,2.9c-0.6,1.6-1.3,3.5-1.9,5.2c-0.7,1.8-1.4,3.8-1.9,5.7c-0.6,1.9-0.9,4.1-0.9,6.1
			c0,2.9,1.2,5.3,3.6,7.3c0.1,0.1,0.3,0.2,0.4,0.3c0.6,1.3,1.5,2.2,2.6,3.3c2.4,2,5.7,3.1,9.6,3.1c2.5,0,5-0.7,7.1-1.8
			c2.2-1.4,4.1-2.7,5.8-4.2c0.8-0.8,1.5-1.4,2.1-2.3c0.3,0.3,0.6,0.6,0.9,0.8c0.9,1.4,1.8,2.5,3,3.6c1.6,1.4,3.5,2.4,5.8,3.2
			c2.3,0.8,4.7,1.2,7.3,1.3c4,0,7.4-0.6,10.4-1.8c2.6-1.2,4.8-2.4,6.7-3.8c0.3,0.3,0.7,0.5,1.1,0.7c0.1,0.1,0.2,0.1,0.3,0.2
			c0.2,1.4,1.2,2.5,2.7,3.4c1.9,1.1,4.2,1.5,6.9,1.6c0.8,0,1.4-0.1,1.7-0.4c0.4-0.3,0.6-0.9,0.6-1.6c0-4.9,0.6-9.4,1.6-13.1
			c1.1-3.9,2.2-7,3.7-9.7c1.4-2.6,3-4.5,4.7-6c1.2-1,2.1-1.4,3-1.7c-0.2,1-0.4,1.9-0.9,3.2c-0.7,1.9-1.4,4.1-2.1,6.5
			c-0.9,2.3-1.6,4.6-2.1,7c-0.7,2.4-1,4.6-1.1,6.8c0,1.6,1,3,2.8,4.1c0.1,0.1,0.2,0.1,0.3,0.2c0.2,1.4,1.2,2.5,2.7,3.4
			c1.9,1.1,4.2,1.5,6.9,1.6c0.8,0,1.4-0.1,1.7-0.4c0.4-0.3,0.6-0.9,0.6-1.6c0-2.4,0.4-5.1,1.2-8.1c0.8-3,1.9-6.4,3.5-9.9
			c1.8-4.2,3.7-7.3,5.8-9.5c1.4-1.4,2.4-2.2,3.4-2.8c-0.2,0.6-0.4,1.2-0.6,1.7c-0.6,1.4-1.3,2.8-1.9,4.3c-0.7,1.5-1.4,3.3-1.9,5.2
			c-0.6,1.8-0.9,4.1-0.9,6.4c0,3.4,1.2,6.1,3.6,8.1c0.2,0.2,0.4,0.3,0.6,0.5c0.6,1.2,1.4,2.1,2.4,3.1c2.4,2.1,5.7,3.2,9.6,3.2
			c2.5,0,5-0.7,7.1-1.8c2.2-1.4,4.1-2.7,5.8-4.2c0.1-0.1,0.3-0.3,0.4-0.4c0.1,0.1,0.1,0.1,0.2,0.2c0.4,0.4,0.9,0.8,1.3,1.1
			c0.5,1,1.1,1.7,1.8,2.5c1,1,2.1,1.6,3.3,2.2c1.4,0.6,2.6,0.8,4.1,0.9c2.1,0,4-0.4,5.7-1.4c1.8-0.9,3.3-1.8,4.7-2.9
			c1.2-0.9,2.2-1.8,3.4-3c0.5,0.7,1.1,1.2,1.7,1.6c0.1,0.1,0.3,0.2,0.4,0.3c0.6,1.4,1.5,2.4,2.6,3.3c2,1.4,4.5,2.2,7.4,2.2
			c1.5,0,3-0.4,4.4-1.1c1.4-0.8,2.7-1.4,3.9-2.5c1.3-1.1,2.5-2.2,3.7-3.6c0.2-0.3,0.3-0.6,0.6-0.9c0.4-0.6,0.7-1.1,0.7-1.4
			C425.6,176.3,425.3,175.8,424.8,175.3z M388.7,173.6c0-2.1,0.5-4.4,1.4-7.1c0.9-2.6,2-5.1,3.3-7.3c1.4-2.2,2.8-4.2,4.4-5.8
			c1.6-1.5,3.2-2.3,4.7-2.3c0.2,0,0.5,0,0.7,0.1c0,0.3,0.1,0.6,0,0.9c0,1.9-0.6,4.2-1.6,6.9c-1.1,2.6-2.2,5.1-3.8,7.4
			c-1.5,2.3-3.1,4.3-4.7,6c-1.6,1.5-3,2.4-4.3,2.4C388.7,174.4,388.7,174,388.7,173.6z M288.1,151c1-0.8,1.9-1.4,2.9-1.4
			c-0.2,0.8-0.5,1.4-0.9,2.3c-0.8,1.5-1.7,3.1-2.9,4.5c-1.3,1.4-2.7,2.7-4.4,3.8c-0.5,0.3-0.9,0.5-1.4,0.7c0-0.1,0.1-0.2,0.1-0.4
			c0.8-1.8,1.6-3.6,2.7-5.2C285.4,153.6,286.7,152.3,288.1,151z M265.4,172.5c-0.2,0.3-0.5,0.5-0.7,0.8
			C265,173,265.2,172.8,265.4,172.5L265.4,172.5z M184.5,105.9c0,0.1,0,0.2,0,0.3c0,2.4-0.8,5.1-2.1,7.9c-1.4,2.9-3.5,5.5-6.2,8
			s-4.5,7.2-8.4,9.1c-2.5,1.2-10.1,2.7-13,3.2c1.2-2.4,5.8-8.4,7.1-10.6c2.1-3.5,4.4-6.6,6.8-9.3c2.4-2.7,4.9-4.7,7.4-6.4
			c2.5-1.5,5-2.3,7.2-2.3C183.9,105.8,184.2,105.8,184.5,105.9z M345.6,152.2c-0.1-0.2-0.1-0.3-0.2-0.4c1.7-1.6,3-2.5,4.1-2.5
			C348.3,150.1,347,151.1,345.6,152.2z"/>
		<path class="st5" d="M203.5,131c0.3,1.1,0.7,1.7,1.4,2.5c1.2,1.1,2.4,1.5,4,1.5c1.2,0,2.1-0.3,3.2-0.9c1.1-0.6,2-1.4,2.7-2.3
			c0.9-1.1,1.4-2.1,1.9-3.4c0.5-1.3,0.7-2.6,0.8-4c0-1.6-0.5-3.1-1.5-4.1c-0.6-0.6-1.2-1-1.8-1.3c-0.2-1-0.7-1.6-1.3-2.3
			c-1.1-1.1-2.2-1.5-3.9-1.5c-1.3,0-2.3,0.3-3.4,0.9c-1.1,0.6-2,1.4-2.8,2.3c-0.9,1.1-1.5,2-2,3.3c-0.5,1.3-0.8,2.5-0.8,3.8
			c0,1.8,0.6,3.3,1.6,4.2C202.4,130.4,202.9,130.8,203.5,131z"/>
	</g>
	<g>
		<g>
			<path class="st6" d="M159.8,177.5c-3.5,0-6.8-0.7-10.2-1.8c-3.4-1.3-6.5-3-9.1-5.4c-2.6-2.4-4.8-5.4-6.5-9.2
				c-1.7-3.7-2.4-8-2.4-13c0-2.2,0.2-4.4,0.5-6.8c0.3-2.2,0.8-4.4,1.4-6.8c-3.3-0.9-6.3-2-8.9-3.6c-2.5-1.4-4.7-3-6.5-4.7
				c-1.8-1.7-3.2-3.7-4.1-5.5c-1.1-1.9-1.4-3.9-1.4-5.8c0-3.4,1.1-6.5,2.8-9.4c1.9-2.9,4.1-5.4,6.6-7.3c2.5-2,5.2-3.8,7.8-4.8
				c2.6-1.3,4.7-1.7,6.4-1.7c1.4,0,1.9,0.5,1.9,1.4c0,0.6-0.2,1.1-0.6,1.4c-0.4,0.4-0.9,0.8-1.6,1.4c-0.8,0.7-1.7,1.4-2.6,2.3
				c-1,1-2,1.9-2.8,3.3c-0.9,1.4-1.7,2.9-2.2,4.7c-0.6,1.7-0.9,4-0.9,6.5c0,2.6,0.6,5.3,1.8,7.9s3.5,4.7,6.9,6.4
				c2.1-5.5,4.8-10.5,8.1-15.4c3.3-4.9,6.8-9.1,10.7-12.6c3.9-3.7,7.7-6.5,11.8-8.6c4.1-2,7.8-3.1,11.3-3.1c2.1,0,4.2,0.6,6.3,1.7
				c2,1.2,3.6,2.5,5,4.2c1.4,1.6,2.4,3.6,3.3,5.5c0.8,1.9,1.3,3.9,1.3,5.5c0,3.1-1.2,6.7-3.3,10.3c-2.1,3.8-5.2,7.2-9.1,10.5
				c-3.9,3.3-8.6,6-14.1,8.1c-5.5,2.2-11.7,3.3-18.5,3.4c-0.9,4.1-1.4,8.1-1.4,12.2c-0.1,7.6,1.4,13.2,4.1,16.6
				c2.7,3.4,6.8,5,12.2,5.1c2,0,4-0.4,6-1.1c2-0.7,4-1.6,5.9-2.9c1.9-1.3,3.7-2.6,5.3-4.2s3.1-3.4,4.3-5.1c0.1-0.2,0.3-0.6,0.6-0.9
				c0.1-0.1,0.4-0.4,0.7-0.6c0.3-0.2,0.6-0.4,1.1-0.4c0.7,0,1.3,0.2,1.7,0.8c0.4,0.5,0.7,1.2,0.7,1.6c0,0.4-0.1,0.7-0.2,0.9
				c-0.1,0.4-0.2,0.6-0.4,0.9c-0.2,0.4-0.3,0.7-0.5,1.2c-1.4,2-2.8,4.1-4.6,6.2c-1.9,1.9-4,3.9-6.5,5.4c-2.4,1.6-5.2,3-8,3.9
				C166.4,177.1,163.1,177.5,159.8,177.5z M179,95.2c-2.3,0-5,0.9-7.6,2.7c-2.6,1.8-5.3,4.2-7.8,7.4c-2.5,3.2-5,6.8-7.2,10.9
				s-4.1,8.5-5.7,12.9c5-0.1,9.5-1.3,13.6-3.2c4.1-1.9,7.4-4.4,10.3-7.4c2.7-3,5-6.1,6.5-9.5c1.5-3.4,2.2-6.5,2.2-9.4
				c0-1.4-0.4-2.5-1.2-3.3C181.4,95.7,180.4,95.3,179,95.2z"/>
			<path class="st6" d="M197.3,165.1c0,1.2,0.3,2.1,0.9,2.8c0.6,0.8,1.4,1.2,2.4,1.2c1.4,0,2.8-0.4,4.1-1.4c1.4-0.9,2.5-1.8,3.7-3.1
				c1.3-1.3,2.4-2.7,3.5-4.3c0.1-0.2,0.3-0.5,0.6-0.8c0.1-0.1,0.4-0.3,0.7-0.5c0.3-0.2,0.6-0.3,1-0.3c0.6,0,1.1,0.2,1.5,0.7
				c0.5,0.4,0.7,1,0.7,1.4c0,0.3-0.1,0.6-0.2,0.8c-0.1,0.3-0.2,0.5-0.4,0.8c-0.2,0.3-0.3,0.6-0.5,1c-1.6,2.3-3.3,4.4-5.2,6.3
				c-1.6,1.5-3.6,3-5.8,4.2c-2.2,1.4-4.6,1.8-7.1,1.8c-4,0-7.1-1.2-9.6-3.2c-2.4-2.1-3.7-4.8-3.6-8.1c0-1.8,0.4-4.1,1.1-6.7
				c0.7-2.6,1.4-5.2,2.2-7.8c0.9-2.6,1.8-5.1,2.7-7.5c1-2.3,1.8-4.2,2.4-5.7c0.3-0.6,0.7-1.1,1.2-1.4c0.5-0.4,1.1-0.6,1.7-0.6
				c0.8,0,1.6,0.3,2.6,0.8c1,0.5,1.9,1.1,2.7,1.6c0.8,0.6,1.5,1.3,2.1,1.8c0.6,0.7,0.9,1.3,0.9,1.5c0,1.5-0.4,3.3-1,5
				c-0.7,1.7-1.4,3.8-2.1,5.8c-0.8,2-1.4,4.2-2.1,6.5C197.5,160.3,197.3,162.7,197.3,165.1z M212.8,116.1c0,1.4-0.3,2.7-0.8,4
				c-0.5,1.3-1.2,2.3-1.9,3.4c-0.9,1.1-1.7,1.7-2.7,2.3c-1.1,0.6-2.1,0.9-3.2,0.9c-1.5,0-2.8-0.6-4-1.5c-1.2-1.1-1.7-2.4-1.6-4.2
				c0-1.4,0.3-2.5,0.8-3.8c0.5-1.3,1.2-2.3,2-3.3c0.9-1.1,1.8-1.7,2.8-2.3c1.1-0.6,2.1-0.9,3.4-0.9c1.5,0,2.8,0.6,3.9,1.5
				C212.2,113,212.8,114.4,212.8,116.1z"/>
			<path class="st6" d="M248.6,165.6c0,1.2,0.3,2.1,0.9,2.8c0.6,0.8,1.4,1.2,2.4,1.2c1.4,0,2.8-0.4,4.1-1.4c1.4-0.9,2.5-1.8,3.7-3.1
				c1.3-1.3,2.4-2.7,3.5-4.3c0.1-0.2,0.3-0.5,0.6-0.8c0.1-0.1,0.4-0.3,0.7-0.5c0.3-0.2,0.6-0.3,1-0.3c0.6,0,1.1,0.2,1.5,0.7
				c0.5,0.4,0.7,1,0.7,1.4c0,0.3-0.1,0.6-0.2,0.8c-0.1,0.3-0.2,0.5-0.4,0.8s-0.3,0.6-0.5,1c-1.6,2.3-3.3,4.4-5.2,6.3
				c-1.6,1.5-3.6,3-5.8,4.2c-2.1,1.4-4.6,1.8-7.1,1.8c-4,0-7.1-1.1-9.6-3.1c-2.4-2-3.7-4.4-3.6-7.3c0-2.1,0.3-4.1,0.9-6.1
				c0.6-1.9,1.3-3.9,1.9-5.7s1.4-3.6,1.9-5.2s0.9-3.3,0.9-4.8c0-0.5-0.2-0.9-0.7-1.3c-0.4-0.3-1-0.5-1.5-0.5c-1.6,0-3.4,0.8-5.2,2.1
				c-1.9,1.4-3.7,3.6-5.3,6.3c-1.7,2.7-3,6.1-4.1,9.9c-1.2,3.9-1.7,8.3-1.7,13.2c0,1-0.2,1.4-0.6,1.6c-0.4,0.3-1,0.4-1.7,0.4
				c-2.8,0-5.2-0.6-6.9-1.6c-1.9-1.1-2.8-2.4-2.8-4.1c0-2.9,0.4-5.9,1.1-9.1c0.7-3.2,1.5-6.3,2.4-9.2c1-3,1.9-5.7,2.8-8.2
				c1-2.5,1.8-4.4,2.4-5.9c0.6-1.4,1.5-1.9,2.8-1.9c0.8,0,1.8,0.3,3,1c1.3,0.7,2.6,2.1,4.2,4.6c1.5-1.3,3.1-2.3,5-3.3
				c1.5-0.9,3.3-1.5,5.3-2.2c2-0.7,4.1-1.1,6.4-1c1.2,0,2.2,0.3,3.3,0.9c1.1,0.6,2.1,1.4,2.8,2.1c0.9,0.9,1.5,1.7,2,2.8
				c0.5,1.1,0.8,2,0.8,3.1c0,1.5-0.3,3.3-1,4.9c-0.6,1.7-1.3,3.6-2,5.3c-0.7,1.8-1.4,3.8-2,5.6C249,161.9,248.6,163.7,248.6,165.6z"
				/>
			<path class="st6" d="M304.1,164.2c-1.6,2.3-3.5,4.4-5.9,6.3c-2,1.5-4.4,3-7.3,4.2c-2.9,1.4-6.5,1.8-10.4,1.8
				c-2.6,0-5.1-0.4-7.3-1.3c-2.2-0.8-4.1-1.8-5.8-3.2c-1.6-1.4-2.8-3-3.8-4.7c-0.9-1.8-1.4-3.9-1.4-6.1c0-4,0.8-7.4,2.2-10.6
				s3.4-5.9,5.7-8.2c2.2-2.2,4.7-4.1,7.3-5.2c2.6-1.3,5.1-1.7,7.4-1.7c1.6,0,3.1,0.4,4.5,1c1.4,0.7,2.6,1.4,3.7,2.4
				c1.1,1.1,1.9,2.1,2.4,3.5c0.5,1.4,0.9,2.6,0.9,4.1c0,1.3-0.3,2.7-0.9,4.4c-0.6,1.7-1.5,3.4-2.8,4.9c-1.4,1.5-3.1,2.9-5.3,4.1
				c-2.1,1.2-5,1.6-8.3,1.5c-0.8,0-1.6-0.1-2.4-0.4c-0.5-0.1-1.1-0.2-1.6-0.3c0,3.1,0.9,5.4,2.6,7c1.8,1.6,4,2.5,6.5,2.5
				c2.4,0,4.7-0.5,6.7-1.4c2.1-1,3.8-2,5.2-3.2c1.7-1.4,3.1-2.9,4.3-4.6c0.1-0.2,0.3-0.5,0.6-0.8c0.1-0.1,0.4-0.3,0.7-0.5
				c0.3-0.2,0.6-0.3,1-0.3c0.6,0,1.1,0.2,1.5,0.7c0.5,0.4,0.7,1,0.7,1.4c0,0.3-0.1,0.6-0.2,0.8c-0.1,0.3-0.2,0.5-0.4,0.8
				C304.3,163.6,304.2,163.8,304.1,164.2z M275.8,156.6c1.9,0,3.7-0.5,5.4-1.4c1.7-1.1,3.1-2.2,4.4-3.8c1.3-1.4,2.1-3,2.9-4.5
				c0.8-1.5,1.1-2.9,1.2-4.1c0-1.4-0.6-2-1.9-2c-1.5,0-2.9,0.6-4.3,1.6c-1.4,1.1-2.6,2.5-3.8,4.2c-1.2,1.5-2,3.4-2.7,5.2
				C276.2,153.7,275.9,155.4,275.8,156.6z"/>
			<path class="st6" d="M344.5,165.9c0-2.3,0.3-4.3,0.9-6.4c0.6-1.8,1.3-3.7,1.9-5.2c0.7-1.5,1.4-3,1.9-4.3c0.6-1.4,0.9-2.6,0.9-3.8
				c0-0.7-0.2-1.3-0.5-1.4c-0.4-0.3-0.8-0.5-1.4-0.5c-1.3,0-2.8,1.1-4.9,3.2c-2.1,2.1-4,5.3-5.8,9.5c-1.6,3.7-2.7,6.9-3.5,9.9
				c-0.8,3-1.2,5.7-1.2,8.1c0,1-0.2,1.4-0.6,1.6c-0.4,0.3-1,0.4-1.7,0.4c-2.8,0-5.2-0.6-6.9-1.6c-1.9-1.1-2.8-2.4-2.8-4.1
				c0-2.1,0.4-4.3,1.1-6.8c0.7-2.4,1.4-4.7,2.1-7c0.9-2.3,1.6-4.4,2.1-6.5c0.7-1.9,1-3.6,1-4.7c0-1.4-0.6-2.1-1.9-2.1
				c-1.3,0-2.7,0.7-4.3,2c-1.7,1.4-3.2,3.4-4.7,6c-1.4,2.6-2.7,5.9-3.7,9.7c-1.1,3.9-1.5,8.2-1.6,13.1c0,1-0.2,1.4-0.6,1.6
				c-0.4,0.3-1,0.4-1.7,0.4c-2.8,0-5.2-0.6-6.9-1.6c-1.8-1.2-2.8-2.4-2.8-4.1c0-3,0.4-6.1,1.1-9.4c0.7-3.2,1.5-6.3,2.4-9.2
				c1-2.9,1.9-5.6,2.8-8c1-2.4,1.8-4.3,2.4-5.8c0.6-1.4,1.5-1.9,2.8-1.9c0.8,0,1.8,0.3,3,1c1.3,0.7,2.6,2.1,4.2,4.6
				c1.5-1.3,3-2.3,4.6-3.3c1.4-0.9,3-1.5,4.7-2.2s3.5-1.1,5.3-1c2.2,0,4.1,0.8,5.5,2.2c1.4,1.4,2.3,3.3,3.1,5.4
				c1.6-1.4,3.3-2.6,5.1-3.8c1.5-1,3.1-1.7,5-2.5c1.9-0.8,3.8-1.2,5.8-1.2c1,0,1.8,0.3,2.7,0.7c1,0.5,1.8,1.1,2.5,1.7
				c0.8,0.8,1.4,1.4,1.8,2.4c0.5,1,0.7,1.7,0.7,2.7c0,1.4-0.4,2.9-1.1,4.6c-0.7,1.7-1.4,3.7-2.2,5.7c-0.9,1.9-1.6,4.1-2.3,6.2
				c-0.7,2.1-1.1,4.2-1.1,6.3c0,1.2,0.3,2.1,0.9,2.8c0.6,0.8,1.4,1.2,2.4,1.2c1.4,0,2.8-0.4,4.1-1.4c1.4-0.9,2.5-1.8,3.7-3.1
				c1.3-1.3,2.4-2.7,3.5-4.3c0.1-0.2,0.3-0.5,0.6-0.8c0.1-0.1,0.4-0.3,0.7-0.5c0.3-0.2,0.6-0.3,1-0.3c0.6,0,1.1,0.2,1.5,0.7
				c0.5,0.4,0.7,1,0.7,1.4c0,0.3-0.1,0.6-0.2,0.8c-0.1,0.3-0.2,0.5-0.4,0.8c-0.2,0.3-0.3,0.6-0.5,1c-1.6,2.3-3.3,4.4-5.2,6.3
				c-1.6,1.5-3.6,3-5.8,4.2c-2.1,1.4-4.6,1.8-7.1,1.8c-4,0-7.1-1.2-9.6-3.2C345.6,171.9,344.5,169.2,344.5,165.9z"/>
			<path class="st6" d="M419.7,170.6c-1.3,1.4-2.4,2.5-3.7,3.6c-1.2,1-2.4,1.7-3.9,2.5c-1.4,0.8-2.9,1.1-4.4,1.1
				c-2.9,0-5.4-0.8-7.4-2.2c-2-1.4-3.2-3.7-3.5-6.6c-1.4,1.6-2.9,3.2-4.5,4.3c-1.4,1.2-3,2-4.7,2.9c-1.8,0.9-3.7,1.4-5.7,1.4
				c-1.4,0-2.7-0.3-4.1-0.9c-1.4-0.6-2.3-1.4-3.3-2.2c-1-1-1.7-2-2.2-3.4c-0.6-1.4-0.9-2.7-0.9-4.2c0-3.7,0.8-7.2,2.2-10.9
				s3.4-6.8,5.7-9.7c2.3-2.9,4.9-5.2,7.8-6.9c2.9-1.7,5.8-2.6,8.7-2.6c2.1,0,3.9,0.3,5.4,0.9c1.5,0.6,2.6,1.2,3.6,1.6
				c1.1,0.8,1.9,1.5,2.5,2.3c0.8,0,1.6,0.1,2.4,0.3c0.9,0.2,1.7,0.5,2.4,0.9c0.8,0.4,1.4,0.9,1.8,1.4c0.5,0.7,0.8,1.4,0.8,2.2
				s-0.4,1.9-1,3.7c-0.7,1.6-1.4,3.6-2.1,5.7c-0.8,2-1.5,4.2-2.1,6.5c-0.7,2.2-1,4.2-1.1,5.9c0,0.9,0.3,1.4,0.8,2
				c0.6,0.6,1.3,0.9,2.1,0.9c0.6,0,1.2-0.2,1.7-0.5c0.6-0.4,1.2-0.8,1.7-1.2c0.7-0.5,1.3-1.1,1.8-1.6c0.3-0.4,0.6-0.7,1-1
				c0.4-0.3,0.8-0.5,1.3-0.5c0.6,0,1.1,0.3,1.6,0.8c0.5,0.5,0.8,1.1,0.8,1.5c0,0.4-0.2,0.9-0.7,1.4
				C420,170.1,419.8,170.4,419.7,170.6z M401.6,147c0-1.4-0.4-2.6-1.1-3.4c-0.8-0.8-1.6-1.2-2.6-1.2c-1.5,0-3.1,0.8-4.7,2.3
				c-1.6,1.5-3.1,3.5-4.4,5.8c-1.4,2.2-2.3,4.7-3.3,7.3c-0.9,2.6-1.4,5-1.4,7.1c0,3.1,1,4.5,3,4.6c1.3,0,2.7-0.9,4.3-2.4
				c1.7-1.5,3.2-3.7,4.7-6c1.5-2.3,2.7-4.8,3.8-7.4C401,151.2,401.6,148.9,401.6,147z"/>
		</g>
	</g>
</g>
<path class="st7" d="M251,477.8l4.4-12.6v12.6h7v-12.6l5.2,12.2l5.4-0.4l-6.7-15.5h22.1c1.6,0,0.1-4,0.1-5.6v-10.1l10.7,0.2
	l12.8,5.5c0.1,0,0.1,0.5,0.2,0.5v0.9h5.1c0.1,0,0.3-0.9,0.4-1s0.2-1,0.2-1.2v-25.2c0-0.3-0.2-0.2-0.5-0.2l-5.1,0.6
	c-0.1,0-0.3,0.1-0.4,0.2v0.1l-11.1,6.4h-12.4v-11.1c0-1.6,1.5-2.4-0.1-2.4h-8.5v-1.7c3.4,0.4,6.9,0.8,9.4,0.8
	c16.4,0,32.1-12.8,32.1-28.6c0-15.8-13.4-28.6-29.7-28.6c-3.5,0-6.8,0.6-9.9,1.7c1.4,0.3,2.6,1,3.6,1.9c1.2,1.1,1.9,2.8,1.9,4.7
	c0,3.1-2.1,5.8-5.2,6.5c-2.1,0.5-4.2,0.1-5.8-1c-1.3-0.9-2.1-2.1-2.6-3.4c-0.2-0.6-0.4-1.4-0.4-2.1c0-0.8,0.2-1.6,0.4-2.3
	c-7.1,5.3-11.7,13.7-11.7,23c0,1.6,0.1,3.6,0.4,5.3h-4c0,0-0.2-0.4-0.3,0c0.4-1.7,0.4-4.1,0.4-6c0-15.8-13.5-28.7-29.8-28.7
	c-3.8,0-7.4,0.7-10.7,1.9c1.8,0.1,3.5,0.9,4.7,2.1c1.2,1.1,1.9,2.8,1.9,4.7c0,3.1-2.1,5.8-5.2,6.5c-2.1,0.5-4.2,0.1-5.8-1
	c-1.3-0.9-2.1-2.1-2.6-3.4c-0.2-0.6-0.4-1.4-0.4-2.1c0-1.3,0.4-2.5,1-3.5c-7.8,5.2-12.9,13.8-12.9,23.5c0,15.8,12.7,28.7,29.1,28.7
	c3.6,0.5,3.4-0.1,8.6-1.1v2.4h-2.1c-1.6,0-6.6,0.8-6.6,2.4v0.4h-1.9l-5.1-3c-0.2-0.1-0.4,0-0.6,0.1l-2.8,0.1c-0.1,0-0.3-0.1-0.4,0
	c-0.1,0.1-0.2,0.1-0.2,0.2l-0.1,14.5c0,0.1,0,0.3,0.1,0.4s0.2,0.1,0.3,0.1h2.6l6-2.9h1.9v24.2c0,1.6,5,5.6,6.6,5.6h16V459
	c0,1,1.9,1.8,2.7,2.3l-5.8,16.3L251,477.8z M310.1,378.1c3.5,0.5,6.1,3.3,6.1,6.7c0,0.2,0,0.4,0,0.6c-0.2,1.7-1,3.3-2.3,4.4
	c-1,0.9-2.3,1.5-3.7,1.7c-0.4,0-0.7,0.1-1,0.1c-3.9,0-7-3-7-6.8c0-0.2,0-0.4,0-0.6c0.3-3.5,3.3-6.1,7-6.1
	C309.5,378.1,309.8,378.1,310.1,378.1z M294.2,364.7c1.3-1.2,3.1-2,5-2c3.9,0,7,3,7,6.8c0,0.6-0.1,1.3-0.3,1.9
	c-0.8,2.8-3.5,4.9-6.7,4.9c-3.9-0.1-7-3.1-7-6.8C292.2,367.6,293,366,294.2,364.7z M299.2,394.1c3.1,0,5.7,1.9,6.6,4.5
	c0.3,0.7,0.4,1.5,0.4,2.2c0,3.7-3.1,6.8-7,6.8c-2.2,0-4.1-1-5.4-2.5c-1-1.1-1.6-2.6-1.6-4.2C292.2,397.2,295.3,394.1,299.2,394.1z
	 M206.8,391.3c-3.5-0.4-6.3-3.2-6.3-6.7c0-1,0.3-2,0.7-3c0.7-1.4,1.9-2.5,3.4-3.2c0.8-0.3,1.6-0.5,2.4-0.6c0.1-0.1,0.3-0.1,0.5-0.1
	c3.9,0,7,3,7,6.8s-3.2,6.8-7,6.8C207.3,391.3,207,391.3,206.8,391.3z M222.8,405.2c-1.3,1.5-3.3,2.5-5.5,2.5c-3.6,0.1-6.9-3-6.9-6.8
	c0-0.9,0.2-1.7,0.5-2.5c1-2.5,3.5-4.3,6.5-4.3c3.9,0,7,3,7,6.8C224.4,402.5,223.8,404,222.8,405.2z M231.5,364.7c1.3-1.2,3.1-2,5-2
	c3.9-0.1,7,2.9,7,6.8c0,0.6-0.1,1.3-0.3,1.9c-0.8,2.8-3.5,4.9-6.7,4.9c-3.9,0-7-3-7-6.8C229.5,367.6,230.3,366,231.5,364.7z
	 M236.4,407.6c-2.2,0-4.1-1-5.4-2.5c-1-1.1-1.6-2.6-1.6-4.2c0-3.7,3.1-6.8,7-6.8c3.1,0,5.7,1.9,6.6,4.5c0.3,0.7,0.4,1.5,0.4,2.2
	C243.4,404.5,240.3,407.6,236.4,407.6z M253.5,385.3c-0.2,1.7-1,3.3-2.3,4.4c-1,0.9-2.3,1.5-3.7,1.7c-0.3,0-0.7,0.1-1,0.1
	c-3.9,0-7-3-7-6.8c0-0.2,0-0.4,0-0.6c0.3-3.5,3.3-6.1,7-6.1c0.3,0,0.6,0,0.9,0c3.5,0.4,6.1,3.2,6.1,6.7
	C253.5,384.9,253.5,385.1,253.5,385.3z M269.5,391.3c-3.5-0.4-6.3-3.2-6.3-6.7c0-1,0.3-2,0.7-3c0.7-1.4,1.9-2.5,3.4-3.2
	c0.8-0.3,1.6-0.5,2.4-0.6c0.2-0.1,0.4-0.1,0.5-0.1c3.9,0,7,3,7,6.8s-3.2,6.8-7,6.8C270,391.3,269.7,391.3,269.5,391.3z M273.1,401
	c0-0.9,0.2-1.7,0.5-2.5c1-2.5,3.5-4.3,6.5-4.3c3.9,0,7,3,7,6.8c0,1.6-0.6,3.1-1.6,4.3c-1.2,1.5-3.2,2.5-5.4,2.5
	C276.3,407.8,273.1,404.8,273.1,401z"/>
<path d="M229.8,409v2.3h-2c-1.5,0-6.4,0.8-6.4,2.3v0.4h-1.8l-4.9-2.9c-0.2-0.1-0.4,0-0.6,0.1l-2.7,0.1l0,0c-0.1,0-0.3-0.1-0.4,0
	c-0.1,0.1-0.2,0.1-0.2,0.2l-0.1,14c0,0.1,0,0.3,0.1,0.4s0.2,0.1,0.3,0.1h2.8c0.1,0-0.1,0-0.1,0c0.1,0-0.3,0-0.2,0l5.8-2.8h1.8v23.3
	c0,1.5,4.8,5.4,6.4,5.4H243v-2.3c0,1,1.8,1.7,2.6,2.2L234.9,482c-0.5,1.3-0.1,2.7,1.3,3.2c0.3,0.1,0.2,0.2,0.6,0.2
	c1,0,1.2-0.6,1.5-1.5l9.9-28.4v27.9c0,1.4,1.9,2.4,3.4,2.4c1.4,0,3.4-1.1,3.4-2.4v-28l12,28.4c0.4,1,1.9,1.5,3,1.5
	c0.3,0,0.4,0,0.7-0.2c1.3-0.5,1.5-1.9,1-3.2l-13-30.2c0.8-0.5-0.4-1.3-0.4-2.2v2.3H280c1.5,0,0.1-3.9,0.1-5.4v-9.7l10.3,0.2
	l12.3,5.3c0.1,0,0.1,0.5,0.2,0.5v0.9l0,0h4.9l0,0c0.1,0,0.3-0.9,0.4-1s0.2-1,0.2-1.2v-24.3c0-0.3-0.2-0.2-0.5-0.2l-4.9,0.6l0,0
	c-0.1,0-0.3,0.1-0.4,0.2v0.1l-10.7,6.3h-12v-10.7c0-1.5,1.5-2.3-0.1-2.3h-8.2v-1.6c3.4,0.5,6.7,0.9,9.2,0.9
	c15.8,0,30.9-12.3,30.9-27.6c0-15.3-12.9-27.6-28.6-27.6c-15.8,0-28.6,12.7-28.6,27.9c0,1.5,0.1,3.5,0.4,5.1h-4c0,0-0.2-0.4-0.3,0
	c0.4-1.6,0.4-4,0.4-5.8c0-15.2-13-27.7-28.7-27.7c-15.8,0-28.9,12.4-28.9,27.7s12.2,27.7,28,27.7C224.9,410.6,224.8,410,229.8,409z
	 M206.8,398.4c0-0.9,0.2-1.6,0.5-2.4c1-2.4,3.4-4.1,6.3-4.1c3.8,0,6.7,2.9,6.7,6.5c0,1.5-0.6,3-1.5,4.1c-1.3,1.5-3.2,2.4-5.3,2.4
	C209.8,405,206.8,401.9,206.8,398.4z M203.9,376c3.8,0,6.7,2.9,6.7,6.5s-3.1,6.5-6.7,6.5c-0.2,0-0.5,0-0.7,0
	c-3.4-0.4-6.1-3.1-6.1-6.5c0-1,0.3-1.9,0.7-2.9c0.7-1.4,1.8-2.4,3.3-3.1c0.8-0.3,1.5-0.5,2.3-0.6C203.7,376,203.8,376,203.9,376z
	 M220.4,368c0,3-2,5.6-5,6.3c-2,0.5-4.1,0.1-5.6-1c-1.3-0.9-2-2-2.5-3.3c-0.2-0.6-0.4-1.4-0.4-2c0-3.6,3-6.5,6.7-6.5
	c1.9,0,3.7,0.8,4.9,2C219.7,364.5,220.4,366.3,220.4,368z M301.8,389.4c-3.8,0-6.7-2.9-6.7-6.5c0-0.2,0-0.4,0-0.6
	c0.3-3.4,3.2-5.9,6.7-5.9c0.3,0,0.6,0,0.9,0c3.4,0.5,5.9,3.2,5.9,6.5c0,0.2,0,0.4,0,0.6c-0.2,1.6-1,3.2-2.2,4.2
	c-1,0.9-2.2,1.5-3.6,1.6C302.5,389.3,302.1,389.4,301.8,389.4z M285.6,398.4c0-3.6,3-6.5,6.7-6.5c3,0,5.5,1.8,6.4,4.3
	c0.3,0.7,0.4,1.4,0.4,2.1c0,3.6-3,6.5-6.7,6.5c-2.1,0-4-1-5.2-2.4C286.1,401.3,285.6,399.9,285.6,398.4z M285.6,368.1
	c0-1.8,0.8-3.4,1.9-4.6c1.3-1.2,3-1.9,4.8-1.9c3.8,0,6.7,2.9,6.7,6.5c0,0.6-0.1,1.3-0.3,1.8c-0.8,2.7-3.4,4.7-6.5,4.7
	C288.5,374.6,285.6,371.7,285.6,368.1z M264.4,376c3.8,0,6.7,2.9,6.7,6.5s-3.1,6.5-6.7,6.5c-0.2,0-0.5,0-0.7,0
	c-3.4-0.4-6.1-3.1-6.1-6.5c0-1,0.3-1.9,0.7-2.9c0.7-1.4,1.8-2.4,3.3-3.1c0.8-0.3,1.5-0.5,2.3-0.6C264,376,264.2,376,264.4,376z
	 M280.8,368c0,3-2,5.6-5,6.3c-2,0.5-4,0.1-5.6-1c-1.3-0.9-2-2-2.5-3.3c-0.2-0.6-0.4-1.4-0.4-2c0-3.6,3-6.5,6.7-6.5
	c1.9,0,3.7,0.8,4.9,2C280.1,364.5,280.8,366.3,280.8,368z M274,405c-3.7,0-6.7-2.9-6.7-6.5c0-0.9,0.2-1.6,0.5-2.4
	c1-2.4,3.4-4.1,6.3-4.1c3.8,0,6.7,2.9,6.7,6.5c0,1.5-0.6,3-1.5,4.1C278,404,276.1,405,274,405z M225.1,398.4c0-3.6,3-6.5,6.7-6.5
	c3,0,5.5,1.8,6.4,4.3c0.3,0.7,0.4,1.4,0.4,2.1c0,3.6-3,6.5-6.7,6.5c-2.1,0-3.9-1-5.2-2.4C225.6,401.3,225.1,399.9,225.1,398.4z
	 M238.7,368.1c0,0.6-0.1,1.3-0.3,1.8c-0.8,2.7-3.4,4.7-6.4,4.7c-3.8,0-6.7-2.9-6.7-6.5c0-1.8,0.8-3.4,1.9-4.6c1.3-1.2,3-1.9,4.8-1.9
	C235.6,361.5,238.7,364.3,238.7,368.1z M248.4,382.8c0,0.2,0,0.4,0,0.6c-0.2,1.6-1,3.2-2.2,4.2c-1,0.9-2.2,1.5-3.6,1.6
	c-0.3,0-0.7,0.1-1,0.1c-3.8,0-6.7-2.9-6.7-6.5c0-0.2,0-0.4,0-0.6c0.3-3.4,3.2-5.9,6.7-5.9c0.3,0,0.6,0,0.9,0
	C245.7,376.7,248.4,379.4,248.4,382.8z"/>
<g>
	<g>
		<g>
			<g>
				<g>
					<path class="st5" d="M113.4,241.3c-0.7,1.2-1.6,2.5-2.6,4s-2.3,2.9-3.8,4.2c-1.5,1.3-4.5,2.5-7.9,3.1c-2.3,0.5-5.3,0.2-8,0.2
						c1.2,1.2,2.3,2.5,3.2,4.2c0.9,1.4,1.6,3.1,2.3,5.2c0.7,2.1,1,4.4,1,7.2c0,1.5-0.2,3.2-0.8,4.9c-0.5,1.7-1.2,3.3-2.2,4.8
						c-0.9,1.5-2.1,2.7-3.5,3.7s-3,1.5-4.8,1.5c-1.6,0.1-3.4-0.2-5.4-1c-2-0.7-3.8-1.7-5.5-3.5s-3.1-3.8-4.1-6.4
						c-1.2-2.6-1.7-6-1.7-10c0-6.7,0.5-13.7,1.4-21.1c1-7.3,2.3-14.6,3.9-21.7c1.7-7.1,3.7-13.8,5.9-20.2c2.4-6.4,4.8-12,7.3-16.7
						c2.7-4.8,6.7-12.1,8.1-15.9c3.1-8.2,7-12.3,9.8-12.4c1.3,0,2.4,2.3,3.6,3s2.4,1.5,3.4,2.6s1.8,2.2,2.4,3.5s1,2.4,1,3.5
						c0,1.7-1.5,14.4-2.3,17.1c-0.8,2.8-2.1,5.8-3.6,9.1c-1.4,3.3-3.3,6.8-5.2,10.3c-1.9,3.7-4.1,7.2-6.1,10.3
						c-2.1,3.4-4.5,6.5-6.6,9.3c-2.2,2.9-4.4,5.3-6.4,7.1c-0.6,1.9-1,4-1.4,6.1c-0.3,2.1-0.5,4.4-0.8,6.5c0.5,0.8,1.2,1.4,1.9,1.8
						c0.6,0.4,1.4,0.8,2.3,1.1c0.9,0.4,1.3,1.1,2.5,1c1.9-0.1,4.9,0.2,6.5,0c3.5-0.6,5.6-1.9,6.7-2.9c1.2-1.1,1.1-1.3,2.4-2.3
						c1.8-1.5,3.2-3.9,4.1-5c0.1-0.3,0.5,0.1,0.8-0.3c0.1-0.2-0.3,0.2,0,0s0.6-1.5,1-1.5c0.6,0,1.1,0.2,1.6,0.7s0.8,1.1,0.8,1.7
						c0,0.3,0,0.7-0.1,1s-0.2,0.6-0.4,1C113.7,240.5,113.5,240.9,113.4,241.3z M82.7,250.5c-0.1,1.6-0.2,3.4-0.4,5.1
						c-0.1,1.5-0.2,3.1-0.3,4.9c0,1.7,0,3.5-0.1,5.1c0,4.9,0.5,8.2,1.6,10.2c1.1,1.8,2.1,2.8,3,2.7c0.7,0,1.2-0.3,1.7-0.9
						s0.8-1.3,1.1-2.1c0.3-0.9,0.5-1.7,0.6-2.8c0.1-1.1,0.2-2,0.1-3.1c-0.1-2.6-0.4-5.1-1.2-7.5c-0.8-2.4-1.6-4.4-2.6-6.1
						C85.2,254.1,83.9,252.2,82.7,250.5z M109.4,178.4c0-1.6,0.2-12.9-1.4-12.8c-1,0-1.4-1.7-3.8,0.1c-5,3.7-9.7,26.4-11.3,30.7
						c-1.6,4.3,2.2,3,0.4,8.4c-1.8,5.4-3.2,10.8-4.6,16.3c1.2-1.1,2.5-2.6,4.1-4.8c1.5-2.2,3.1-4.6,4.7-7.3c1.5-2.7,3-5.6,4.5-8.7
						c1.4-3.1,2.7-6,3.9-8.8c1.2-2.8,2.1-5.4,2.8-7.7C109.1,181.5,109.4,179.7,109.4,178.4z"/>
					<path class="st5" d="M138.8,245.5c0,1.4,0.4,2.3,1.2,3c0.7,0.7,1.7,1,2.9,1c1.6,0,3.1-0.6,4.7-1.5c1.5-1.1,2.9-2.2,4-3.6
						c1.4-1.5,2.6-3.1,3.9-5c0.1-0.2,0.3-0.5,0.6-0.9c0.2-0.2,0.4-0.3,0.7-0.6c0.3-0.2,0.7-0.3,1.1-0.3c0.6,0,1.2,0.2,1.7,0.7
						s0.8,1,0.8,1.5c0,0.3,0,0.6-0.2,0.9c-0.1,0.3-0.2,0.6-0.4,0.9s-0.3,0.7-0.4,1.1c-1.7,2.7-3.6,5.2-5.7,7.3
						c-1.8,1.8-3.9,3.5-6.3,4.9c-2.5,1.5-5.2,2.2-8,2.2c-2.3,0.1-4.4-0.2-6.1-0.9c-1.8-0.6-3.5-1.4-4.8-2.4c-1.4-1-2.4-2.2-3.2-3.6
						s-1.2-2.8-1.1-4.4c-0.1-2.5,0.4-4.9,1.2-7.2c0.7-2.2,1.5-4.4,2.5-6.2c0.9-1.8,1.7-3.5,2.5-4.9s1.1-2.6,1.1-3.6
						c0-0.6-0.4-1.1-1.2-1.4s-1.6-0.5-2.5-0.8c-1-0.2-2.2-0.4-3.6-0.5c-2.2,5.7-4.4,10.3-6.3,13.8c-2,3.7-3.7,6.4-5,8
						c-0.2,0.2-0.4,0.6-0.9,1.1c-0.4,0.5-1,0.7-1.7,0.8c-0.6,0-1.2-0.2-1.7-0.7s-0.8-1.1-0.8-1.6s0.1-1.1,0.5-1.5
						c0.3-0.5,0.6-1,0.7-1.3c1.1-1.5,2.6-4.1,4.7-7.3c1.9-3.4,3.9-7.8,5.6-13.2c-0.8-0.5-1.5-1.2-2.1-2c-0.5-0.7-1-1.5-1.4-2.6
						s-0.7-2.3-0.7-3.8c0-1.2,0.2-2.2,0.6-3.3s1-1.9,1.6-2.7c0.7-0.8,1.4-1.5,2.2-1.9c0.8-0.5,1.5-0.8,2.2-0.8
						c0.8,0,1.6,0.2,2.5,0.6c0.9,0.4,1.7,0.9,2.4,1.5c0.7,0.6,1.3,1.2,1.8,1.9s0.8,1.4,0.8,1.8c0,1.5-0.2,2.8-0.7,3.9
						c-0.5,1-0.7,1.9-0.7,2.9c0,0.9,0.5,1.5,1.5,1.8c1,0.4,2.2,0.5,3.6,0.5c1.3,0,2.5-0.2,3.4-0.3c0.9-0.2,1.7-0.4,2.4-0.6
						c0.7-0.2,1.4-0.4,2-0.6c0.6-0.2,1.3-0.3,2-0.3c1.4,0,2.6,0.5,3.6,1.5c0.9,1.1,1.4,2.3,1.5,3.9c0,1.4-0.4,2.9-1.3,4.7
						c-0.9,1.8-1.8,3.9-3,6c-1,2.2-2.1,4.4-3,6.9C139.1,240.9,138.7,243.2,138.8,245.5z"/>
					<path class="st5" d="M215,242.2c-1.7,2.7-3.6,5.2-5.7,7.3c-1.8,1.8-3.9,3.5-6.3,4.9c-2.5,1.5-5.2,2.2-8,2.2
						c-3.3,0.1-6.1-0.8-8.4-2.4c-2.4-1.5-3.8-4-4.1-7.2c-1.5,1.9-3.2,3.7-5.1,5c-1.6,1.3-3.3,2.4-5.3,3.4c-2,1.1-4.1,1.6-6.3,1.5
						c-1.6,0-3.1-0.2-4.6-0.9c-1.5-0.6-2.8-1.4-3.9-2.3c-1.1-1.1-2-2.3-2.7-3.8s-1-3-1-4.8c-0.1-4.2,0.8-8.3,2.3-12.4
						c1.5-4.2,3.7-7.8,6.1-11.1c2.5-3.4,5.5-6,8.7-7.9c3.2-2.1,6.3-3.1,9.6-3.1c2.4-0.1,4.4,0.2,6,0.8c1.7,0.5,3.1,1.2,4.1,1.7
						c1.2,0.8,2.2,1.6,2.9,2.6c0.9,0,1.8,0,2.8,0.2s1.9,0.5,2.8,0.9c0.8,0.4,1.6,1,2.1,1.6c0.6,0.7,0.9,1.5,0.9,2.5
						c0,0.9-0.3,2.2-0.9,4.2c-0.7,1.9-1.4,4.1-2.4,6.5c-0.8,2.3-1.6,4.8-2.4,7.3c-0.6,2.5-1,4.7-1.1,6.7c0,1,0.3,1.6,1,2.3
						c0.6,0.6,1.4,0.9,2.5,0.9c1.6,0,3.1-0.6,4.7-1.5c1.5-1.1,2.9-2.2,4-3.6c1.4-1.5,2.6-3.1,3.9-5c0.1-0.2,0.3-0.5,0.6-0.9
						c0.2-0.2,0.4-0.3,0.7-0.6c0.3-0.2,0.7-0.3,1.1-0.3c0.6,0,1.2,0.2,1.7,0.7s0.8,1,0.8,1.5c0,0.3,0,0.6-0.2,0.9
						c-0.1,0.3-0.2,0.6-0.4,0.9C215.3,241.5,215.2,241.8,215,242.2z M187.4,222.1c-0.1-1.6-0.5-2.9-1.4-3.7s-1.9-1.2-3.1-1.2
						c-1.7,0.1-3.5,1-5.3,2.7c-1.8,1.8-3.4,4.1-4.9,6.6c-1.4,2.6-2.6,5.4-3.6,8.4c-0.9,3-1.4,5.7-1.4,8.1c0.1,3.5,1.2,5.1,3.5,5.1
						c1.4,0,3-1,4.9-2.8c1.8-1.9,3.5-4.3,5.3-6.9c1.7-2.7,3-5.6,4.2-8.6C187,227,187.5,224.3,187.4,222.1z"/>
					<path class="st5" d="M252.6,243.9c0,1.4,0.4,2.3,1.1,3.1c0.7,0.8,1.6,1.2,2.8,1.2c1.6,0,3.1-0.6,4.7-1.5c1.5-1.1,2.9-2.2,4-3.6
						c1.4-1.5,2.6-3.1,3.9-5c0.1-0.2,0.3-0.5,0.6-0.9c0.2-0.2,0.4-0.3,0.7-0.6c0.3-0.2,0.7-0.3,1.1-0.3c0.6,0,1.2,0.2,1.7,0.7
						s0.8,1,0.8,1.5c0,0.3,0,0.6-0.2,0.9c-0.1,0.3-0.2,0.6-0.4,0.9c-0.2,0.3-0.3,0.7-0.4,1.1c-1.7,2.7-3.6,5.2-5.7,7.3
						c-1.8,1.8-3.9,3.5-6.3,4.9c-2.5,1.5-5.2,2.2-8,2.2c-4.5,0.1-8.1-1.1-11-3.3c-2.8-2.2-4.2-4.9-4.2-8.1c-0.1-2.4,0.3-4.6,0.9-6.9
						s1.2-4.4,2.1-6.5c0.7-2.1,1.3-4.1,2-6c0.6-1.9,0.8-3.8,0.9-5.5c0-0.6-0.3-1-0.8-1.3s-1-0.5-1.7-0.5c-1.8,0.1-3.8,1-5.7,2.5
						c-2.1,1.7-4,4.2-5.8,7.3c-1.8,3.2-3.4,7-4.5,11.4c-1.2,4.4-1.8,9.5-1.7,15c0,1-0.2,1.6-0.6,1.9s-1.1,0.5-2,0.5
						c-3.2,0.1-5.8-0.5-7.9-1.7c-2.2-1.2-3.3-2.6-3.2-4.4c-0.1-3.2,0.4-6.7,1-10.2c0.6-3.6,1.6-7.1,2.6-10.4
						c0.9-3.4,2.1-6.5,3.1-9.4s1.9-5.1,2.7-6.8c0.6-1.5,1.6-2.2,3.1-2.3c0.9,0,2,0.3,3.5,1c1.4,0.7,3.1,2.3,4.9,5.1
						c1.6-1.5,3.5-2.7,5.5-3.8c1.7-1,3.7-1.8,5.8-2.6c2.2-0.9,4.6-1.2,7-1.2c1.3,0,2.5,0.2,3.8,0.8c1.2,0.6,2.4,1.4,3.3,2.2
						c1,1,1.8,1.9,2.4,3.1c0.6,1.2,0.9,2.3,0.9,3.4c0.1,1.7-0.2,3.7-0.9,5.6c-0.6,1.9-1.3,4.1-2.1,6.1c-0.7,2.1-1.3,4.3-2.2,6.4
						C253,239.7,252.6,241.8,252.6,243.9z"/>
					<path class="st5" d="M316.5,241.2c-1.7,2.2-3.6,4.3-5.8,6.2c-1.9,1.6-4.2,3.3-6.9,4.6c-2.7,1.5-5.8,2.6-9.3,3.1
						c0,0.9,0.2,1.7,0.5,2.7s0.9,1.5,1.8,1.4c1,0,2-0.1,3-0.3c1.1-0.2,2-0.3,2.9-0.3c1.1,0,2,0.3,2.5,1.1c0.6,0.7,0.9,1.6,0.9,2.8
						c0,1.5-0.3,3.1-1.1,4.8c-0.7,1.7-1.9,3.5-3.6,5c-1.6,1.5-3.5,2.9-5.8,4c-2.4,1.1-5.1,1.6-8.2,1.6c-2.5,0.1-4.5-0.4-6-1.4
						c-1.6-0.9-2.4-2.1-2.5-3.7c0-1.3,0.4-2.3,1.2-3.3c0.8-1,1.8-1.5,2.9-1.5c0.8,0,1.4,0.1,1.9,0.5c0.5,0.3,1,0.7,1.4,1.2
						s1,0.9,1.6,1.2c0.6,0.3,1.6,0.5,2.8,0.5c1.2,0,2.4-0.3,3.6-0.8s2.2-1.1,3.1-1.7s1.6-1.4,2.1-1.9c0.5-0.7,0.8-1.1,0.8-1.5
						s-0.2-0.6-0.6-0.6c-1.7,0.1-3.5,0.4-5.2,0.9c-1.7,0.6-3.2,1-4.6,0.9c-1,0-1.7-0.3-2.2-0.9c-0.5-0.7-0.8-1.3-0.8-1.8
						c0-1.3,0.1-2.7,0.4-4.5c0.3-1.7,0.5-3.2,0.7-4.3c-2.4-0.1-4.7-0.6-7-1.3c-2.3-0.6-4.4-1.6-6.2-3s-3.4-3.1-4.5-5.2
						c-1.2-2.1-1.7-4.6-1.7-7.6c-0.1-3.9,0.8-7.5,2.3-11c1.5-3.6,3.7-6.7,6.1-9.3c2.5-2.6,5.4-4.7,8.5-6.3s6.1-2.4,9.1-2.4
						c2.1-0.1,4.1,0.2,5.7,0.9c1.7,0.6,3.1,1.5,4.3,2.5c1.2,1.1,2.1,2.2,2.8,3.6s1,2.6,1.1,4c0,1-0.2,2-0.6,3.1s-1,2-1.6,2.9
						c-0.7,0.9-1.4,1.5-2.3,2.1c-0.8,0.6-1.6,0.9-2.4,0.9c-1.6,0-3-0.4-4.3-1.4s-1.9-2-1.9-3.4c0-1,0.2-1.8,0.6-2.4
						c0.5-0.6,1-1.2,1.6-1.7s1.1-1,1.6-1.5s0.7-1,0.7-1.5s-0.4-1.2-1.1-1.6c-0.7-0.5-1.5-0.7-2.5-0.7c-1.7,0.1-3.4,0.8-5,1.9
						c-1.6,1.4-3,3-4.3,5.1s-2.3,4.4-3.1,7.1c-0.7,2.6-1.1,5.2-1.2,7.8c0.1,4,1.1,7,3.5,8.8c2.3,1.8,5.1,2.8,8.4,2.8
						c2.7-0.1,5.1-0.6,7.2-1.6c2.2-1.2,4.1-2.4,5.6-3.7c1.9-1.5,3.5-3.4,4.9-5.3c0.2-0.2,0.4-0.5,0.7-0.9c0.2-0.2,0.5-0.4,0.8-0.6
						c0.3-0.2,0.7-0.3,1.1-0.3c0.7,0,1.3,0.2,1.8,0.7s0.7,1,0.8,1.5c0,0.3-0.1,0.6-0.2,0.9c-0.2,0.3-0.3,0.6-0.5,0.9
						C316.8,240.4,316.6,240.8,316.5,241.2z"/>
					<path class="st5" d="M372.5,240.6c-1.7,2.7-3.6,5.2-5.7,7.3c-1.8,1.8-3.9,3.5-6.3,4.9c-2.5,1.5-5.2,2.2-8,2.2
						c-3.3,0.1-6.1-0.8-8.4-2.4c-2.4-1.5-3.8-4-4.1-7.2c-1.5,1.9-3.2,3.7-5.1,5c-1.6,1.3-3.3,2.4-5.3,3.4s-4.1,1.6-6.3,1.5
						c-1.6,0-3.1-0.2-4.6-0.9c-1.5-0.6-2.8-1.4-3.9-2.3c-1.1-1.1-2-2.3-2.7-3.8s-1-3-1-4.8c-0.1-4.2,0.8-8.3,2.3-12.4
						c1.5-4.2,3.7-7.8,6.1-11.1c2.5-3.4,5.5-6,8.7-7.9c3.2-2.1,6.3-3.1,9.6-3.1c2.4-0.1,4.4,0.2,6,0.8c1.7,0.6,3.1,1.2,4.1,1.7
						c1.2,0.8,2.2,1.6,2.9,2.6c0.9,0,1.8,0,2.8,0.2s1.9,0.5,2.8,0.9c0.8,0.4,1.6,1,2.1,1.6c0.6,0.7,0.9,1.5,0.9,2.5
						c0,0.9-0.3,2.2-0.9,4.2c-0.7,1.9-1.4,4.1-2.4,6.5c-0.8,2.3-1.6,4.8-2.4,7.3c-0.6,2.5-1,4.7-1.1,6.7c0,1,0.3,1.6,1,2.3
						c0.6,0.6,1.4,0.9,2.5,0.9c1.6,0,3.1-0.6,4.7-1.5c1.5-1.1,2.9-2.2,4-3.6c1.4-1.5,2.6-3.1,3.9-5c0.1-0.2,0.3-0.5,0.6-0.9
						c0.2-0.2,0.4-0.3,0.7-0.6c0.3-0.2,0.7-0.3,1.1-0.3c0.6,0,1.2,0.2,1.7,0.7s0.8,1,0.8,1.5c0,0.3,0,0.6-0.2,0.9
						c-0.1,0.3-0.2,0.6-0.4,0.9C372.8,239.8,372.7,240.2,372.5,240.6z M345,220.5c-0.1-1.6-0.5-2.9-1.4-3.7s-1.9-1.2-3.1-1.2
						c-1.7,0.1-3.5,1-5.3,2.7c-1.8,1.8-3.4,4.1-4.9,6.6c-1.4,2.6-2.6,5.4-3.6,8.4c-0.9,3-1.4,5.7-1.4,8.1c0.1,3.5,1.2,5.1,3.5,5.1
						c1.4,0,3-1,4.9-2.8c1.8-1.9,3.5-4.3,5.3-6.9c1.6-2.7,3-5.6,4.2-8.6C344.5,225.2,345,222.7,345,220.5z"/>
					<path class="st5" d="M382.3,242.5c0,1.4,0.4,2.3,1.1,3.1c0.7,0.8,1.6,1.2,2.8,1.2c1.6,0,3.1-0.6,4.7-1.5c1.5-1.1,2.9-2.2,4-3.6
						c1.4-1.5,2.6-3.1,3.9-5c0.1-0.2,0.3-0.5,0.6-0.9c0.2-0.2,0.4-0.3,0.7-0.6c0.3-0.2,0.7-0.3,1.1-0.3c0.6,0,1.2,0.2,1.7,0.7
						s0.8,1,0.8,1.5c0,0.3,0,0.6-0.2,0.9c-0.1,0.3-0.2,0.6-0.4,0.9c-0.2,0.3-0.3,0.7-0.4,1.1c-1.7,2.7-3.6,5.2-5.7,7.3
						c-1.8,1.8-3.9,3.5-6.3,4.9c-2.5,1.5-5.2,2.2-8,2.2c-4.5,0.1-8.1-1.2-11-3.4c-2.8-2.2-4.2-5.3-4.2-9c-0.1-2,0.3-4.5,1-7.5
						c0.6-2.9,1.5-5.9,2.4-8.9s1.9-5.9,3-8.6c1.1-2.7,0.4-3.2,1.2-4.8c0.3-0.6,0.7-1.2,1.3-1.5c0.5-0.5,1.2-0.7,1.9-0.7
						c0.9,0,1.9,0.2,3,0.7s2.2,1.1,3.2,1.7c1,0.7,2.3,1.9,2.9,2.6c0.7,0.7,1,1.3,1,1.7c0.1,1.7-0.2,3.7-1,5.7c-0.7,2-0.5,2-1.4,4.4
						c-0.8,2.3-1.5,4.8-2.2,7.3C382.5,237.1,382.2,239.8,382.3,242.5z"/>
					<path class="st5" d="M417.5,255c-2.9,0.1-5.7-0.5-8.3-1.6c-2.7-1.1-5-2.5-6.9-4.2s-3.6-3.4-4.7-5.5c-1.2-1.9-1.8-3.8-1.8-5.5
						c0-1.6,0.5-3.1,1.7-4.4c1.2-1.2,2.4-2.2,3.8-3c1.6-0.9,3.5-1.6,5.7-2.1c0.5-0.8,1.1-1.7,1.8-2.9c0.6-1,1.4-2.3,2.4-3.8
						s2.1-3.4,3.5-5.4c2.7-4.2,5.2-7,7-8.5c1.9-1.6,3.7-2.5,5.2-2.4c0.6,0,1.3,0.1,2,0.5c0.7,0.3,1.3,0.7,1.9,1.2s1.1,0.9,1.5,1.4
						s0.6,0.9,0.6,1.2c0,0.4-0.1,0.9-0.4,1.5s-0.6,1.3-1,1.8c-0.3,0.7-0.6,1.4-0.9,2.1c-0.3,0.8-0.4,1.5-0.3,2.2
						c0.1,2.3,0.4,4.3,0.8,6c0.5,1.6,1.1,3.3,1.6,4.7c0.5,1.5,1.2,2.9,1.7,4.4s0.8,3,0.8,4.7c0.1,2.4-0.4,4.7-1.2,6.9
						c-0.7,2.1-1.8,4-3.4,5.6c-1.5,1.5-3.3,2.8-5.5,3.7C422.9,254.5,420.4,255,417.5,255z M417.3,222.3c-1.6,2.5-3.1,4.7-4.4,6.8
						c-1.1,1.8-2,3.5-3,5c-0.9,1.5-1.3,2.5-1.3,2.9c0.1,1.6,0.2,3.3,0.3,4.9c0.2,1.5,0.6,3,1.1,4.2c0.5,1.3,1.1,2.2,1.9,2.9
						c0.7,0.7,1.7,1.1,2.8,1c1.8-0.1,3.4-1.1,4.6-2.9c1.3-1.9,1.8-4.3,2-6.9c0-1.5-0.3-3-0.6-4.5c-0.4-1.6-0.9-3.2-1.3-4.7
						c-0.5-1.5-0.9-3.1-1.3-4.5C417.4,224.7,417.2,223.5,417.3,222.3z"/>
				</g>
				<g>
					<path class="st5" d="M110.8,236.8c-0.7,1.2-1.6,2.5-2.6,4s-2.3,2.9-3.8,4.2s-4.5,2.5-7.9,3.1c-2.3,0.5-5.3,0.2-8,0.2
						c1.2,1.2,2.3,2.5,3.2,4.2c0.9,1.4,1.6,3.1,2.3,5.2c0.7,2.1,1,4.4,1,7.2c0,1.5-0.2,3.2-0.8,4.9c-0.5,1.7-1.2,3.3-2.2,4.8
						c-0.9,1.5-2.1,2.7-3.5,3.7s-3,1.5-4.8,1.5c-1.6,0.1-3.4-0.2-5.4-1c-2-0.7-3.8-1.7-5.5-3.5c-1.7-1.6-3.1-3.8-4.1-6.4
						c-1.2-2.6-1.7-6-1.7-10c0-6.7,0.5-13.7,1.4-21.1c1-7.3,2.3-14.6,3.9-21.7c1.7-7.1,3.7-13.8,5.9-20.2c2.4-6.4,4.8-12,7.3-16.7
						c2.7-4.8,6.7-12.1,8.1-15.9c3.1-8.2,7-12.3,9.8-12.4c1.3,0,2.4,2.3,3.6,3s2.4,1.5,3.4,2.6s1.8,2.2,2.4,3.5s1,2.4,1,3.5
						c0,1.7-1.5,14.4-2.3,17.1c-0.8,2.8-2.1,5.8-3.6,9.1c-1.4,3.3-3.3,6.8-5.2,10.3c-1.9,3.7-4.1,7.2-6.1,10.3
						c-2.1,3.4-4.5,6.5-6.6,9.3c-2.2,2.9-4.4,5.3-6.4,7.1c-0.6,1.9-1,4-1.4,6.1c-0.3,2.1-0.5,4.4-0.8,6.5c0.5,0.8,1.2,1.4,1.9,1.8
						c0.6,0.4,1.4,0.8,2.3,1.1c0.9,0.4,1.3,1.1,2.5,1c1.9-0.1,4.9,0.2,6.5,0c3.5-0.6,5.6-1.9,6.7-2.9s1.1-1.3,2.4-2.3
						c1.8-1.5,3.2-3.9,4.1-5c0.1-0.3,0.5,0.1,0.8-0.3c0.1-0.2-0.3,0.2,0,0s0.6-1.5,1-1.5c0.6,0,1.1,0.2,1.6,0.7s0.8,1.1,0.8,1.7
						c0,0.3,0,0.7-0.1,1s-0.2,0.6-0.4,1C111.1,235.9,110.9,236.3,110.8,236.8z M80,245.8c-0.1,1.6-0.2,3.4-0.4,5.1
						c-0.1,1.5-0.2,3.1-0.3,4.9c0,1.7,0,3.5-0.1,5.1c0,4.9,0.5,8.2,1.6,10.2c1.1,1.8,2.1,2.8,3,2.7c0.7,0,1.2-0.3,1.7-0.9
						s0.8-1.3,1.1-2.1c0.3-0.9,0.5-1.7,0.6-2.8c0.1-1.1,0.2-2,0.1-3.1c-0.1-2.6-0.4-5.1-1.2-7.5c-0.8-2.4-1.6-4.4-2.6-6.1
						C82.6,249.6,81.3,247.5,80,245.8z M106.8,173.8c0-1.6,0.2-12.9-1.4-12.8c-1,0-1.4-1.7-3.8,0.1c-5,3.7-9.7,26.4-11.3,30.7
						c-1.6,4.3,2.2,3,0.4,8.4c-1.7,5.4-3.2,10.8-4.6,16.3c1.2-1.1,2.5-2.6,4.1-4.8s3.1-4.6,4.7-7.3c1.5-2.7,3-5.6,4.5-8.7
						c1.4-3.1,2.7-6,3.9-8.8c1.1-2.8,2.1-5.4,2.8-7.7C106.4,176.9,106.8,175,106.8,173.8z"/>
					<path class="st5" d="M136,240.9c0,1.4,0.4,2.3,1.2,3c0.7,0.7,1.7,1,2.9,1c1.6,0,3.1-0.6,4.7-1.5c1.5-1.1,2.9-2.2,4-3.6
						c1.4-1.5,2.6-3.1,3.9-5c0.1-0.2,0.3-0.5,0.6-0.9c0.2-0.2,0.4-0.3,0.7-0.6c0.3-0.2,0.7-0.3,1.1-0.3c0.6,0,1.2,0.2,1.7,0.7
						s0.8,1,0.8,1.5c0,0.3,0,0.6-0.2,0.9c-0.1,0.3-0.2,0.6-0.4,0.9c-0.2,0.3-0.3,0.7-0.4,1.1c-1.7,2.7-3.6,5.2-5.7,7.3
						c-1.8,1.8-3.9,3.5-6.3,4.9c-2.5,1.5-5.2,2.2-8,2.2c-2.3,0.1-4.4-0.2-6.1-0.9c-1.8-0.6-3.5-1.4-4.8-2.4c-1.4-1-2.4-2.2-3.2-3.6
						c-0.8-1.4-1.2-2.8-1.1-4.4c-0.1-2.5,0.4-4.9,1.2-7.2c0.7-2.2,1.5-4.4,2.5-6.2c0.9-1.8,1.7-3.5,2.5-4.9c0.8-1.5,1.1-2.6,1.1-3.6
						c0-0.6-0.4-1.1-1.2-1.4c-0.8-0.3-1.6-0.5-2.5-0.8c-1-0.2-2.2-0.4-3.6-0.5c-2.2,5.7-4.4,10.3-6.3,13.8c-2,3.7-3.7,6.4-5,8
						c-0.2,0.2-0.4,0.6-0.9,1.1c-0.4,0.5-1,0.7-1.7,0.8c-0.6,0-1.2-0.2-1.7-0.7s-0.8-1.1-0.8-1.6s0.1-1.1,0.5-1.5
						c0.3-0.5,0.6-1,0.7-1.3c1.1-1.5,2.6-4.1,4.7-7.3c1.9-3.4,3.9-7.8,5.6-13.2c-0.8-0.5-1.5-1.2-2.1-2c-0.5-0.7-1-1.5-1.4-2.6
						s-0.7-2.3-0.7-3.8c0-1.2,0.2-2.2,0.6-3.3s1-1.9,1.6-2.7c0.7-0.8,1.4-1.5,2.2-1.9c0.8-0.5,1.5-0.8,2.2-0.8
						c0.8,0,1.6,0.2,2.5,0.6c0.9,0.4,1.7,0.9,2.4,1.5c0.7,0.6,1.3,1.2,1.8,1.9s0.8,1.4,0.8,1.8c0,1.5-0.2,2.8-0.7,3.9
						c-0.5,1-0.7,1.9-0.7,2.9c0,0.9,0.5,1.5,1.5,1.8c1,0.4,2.2,0.5,3.6,0.5c1.3,0,2.5-0.2,3.4-0.3c0.9-0.2,1.7-0.4,2.4-0.6
						c0.7-0.2,1.4-0.4,2-0.6c0.6-0.2,1.3-0.3,2-0.3c1.4,0,2.6,0.5,3.6,1.5c0.9,1.1,1.4,2.3,1.5,3.9c0,1.4-0.4,2.9-1.3,4.7
						s-1.8,3.9-3,6c-1,2.2-2.1,4.4-3,6.9C136.5,236.3,136,238.6,136,240.9z"/>
					<path class="st5" d="M212.4,237.7c-1.7,2.7-3.6,5.2-5.7,7.3c-1.8,1.8-3.9,3.5-6.3,4.9c-2.5,1.5-5.2,2.2-8,2.2
						c-3.3,0.1-6.1-0.8-8.4-2.4c-2.4-1.5-3.8-4-4.1-7.2c-1.5,1.9-3.2,3.7-5.1,5c-1.6,1.3-3.3,2.4-5.3,3.4c-2,1.1-4.1,1.6-6.3,1.5
						c-1.6,0-3.1-0.2-4.6-0.9c-1.5-0.6-2.8-1.4-3.9-2.3c-1.1-1.1-2-2.3-2.7-3.8s-1-3-1-4.8c-0.1-4.2,0.8-8.3,2.3-12.4
						c1.5-4.2,3.7-7.8,6.1-11.1c2.5-3.4,5.5-6,8.7-7.9c3.2-2.1,6.3-3.1,9.6-3.1c2.4-0.1,4.4,0.2,6,0.8c1.7,0.5,3.1,1.2,4.1,1.7
						c1.2,0.8,2.2,1.6,2.9,2.6c0.9,0,1.8,0,2.8,0.2s1.9,0.5,2.8,0.9c0.8,0.4,1.6,1,2.1,1.6c0.6,0.7,0.9,1.5,0.9,2.5
						c0,0.9-0.3,2.2-0.9,4.2c-0.7,1.9-1.4,4.1-2.4,6.5c-0.8,2.3-1.6,4.8-2.4,7.3c-0.6,2.5-1,4.7-1.1,6.7c0,1,0.3,1.6,1,2.3
						c0.6,0.6,1.4,0.9,2.5,0.9c1.6,0,3.1-0.6,4.7-1.5c1.5-1.1,2.9-2.2,4-3.6c1.4-1.5,2.6-3.1,3.9-5c0.1-0.2,0.3-0.5,0.6-0.9
						c0.2-0.2,0.4-0.3,0.7-0.6c0.3-0.2,0.7-0.3,1.1-0.3c0.6,0,1.2,0.2,1.7,0.7s0.8,1,0.8,1.5c0,0.3,0,0.6-0.2,0.9
						c-0.1,0.3-0.2,0.6-0.4,0.9C212.7,237,212.6,237.3,212.4,237.7z M184.8,217.6c-0.1-1.6-0.5-2.9-1.4-3.7s-1.9-1.2-3.1-1.2
						c-1.7,0.1-3.5,1-5.3,2.7c-1.8,1.8-3.4,4.1-4.9,6.6c-1.4,2.6-2.6,5.4-3.6,8.4c-0.9,3-1.4,5.7-1.4,8.1c0.1,3.5,1.2,5.1,3.5,5.1
						c1.4,0,3-1,4.9-2.8c1.8-1.9,3.5-4.3,5.3-6.9c1.6-2.7,3-5.6,4.2-8.6C184.3,222.4,184.9,219.8,184.8,217.6z"/>
					<path class="st5" d="M249.9,239.3c0,1.4,0.4,2.3,1.1,3.1s1.6,1.2,2.8,1.2c1.6,0,3.1-0.6,4.7-1.5c1.5-1.1,2.9-2.2,4-3.6
						c1.4-1.5,2.6-3.1,3.9-5c0.1-0.2,0.3-0.5,0.6-0.9c0.2-0.2,0.4-0.3,0.7-0.6c0.3-0.2,0.7-0.3,1.1-0.3c0.6,0,1.2,0.2,1.7,0.7
						s0.8,1,0.8,1.5c0,0.3,0,0.6-0.2,0.9c-0.1,0.3-0.2,0.6-0.4,0.9c-0.2,0.3-0.3,0.7-0.4,1.1c-1.7,2.7-3.6,5.2-5.7,7.3
						c-1.8,1.8-3.9,3.5-6.3,4.9c-2.5,1.5-5.2,2.2-8,2.2c-4.5,0.1-8.1-1.1-11-3.3c-2.8-2.2-4.2-4.9-4.2-8.1c-0.1-2.4,0.3-4.6,0.9-6.9
						c0.6-2.2,1.2-4.4,2.1-6.5c0.7-2.1,1.3-4.1,2-6c0.6-1.9,0.8-3.8,0.9-5.5c0-0.6-0.3-1-0.8-1.3s-1-0.5-1.7-0.5
						c-1.8,0.1-3.8,1-5.7,2.5c-2.1,1.7-4,4.2-5.8,7.3c-1.8,3.2-3.4,7-4.5,11.4c-1.2,4.4-1.8,9.5-1.7,15c0,1-0.2,1.6-0.6,1.9
						c-0.4,0.3-1.1,0.5-2,0.5c-3.2,0.1-5.8-0.5-7.9-1.7c-2.2-1.2-3.3-2.6-3.2-4.4c-0.1-3.2,0.4-6.7,1-10.2c0.6-3.6,1.6-7.1,2.6-10.4
						c0.9-3.4,2.1-6.5,3.1-9.4s1.9-5.1,2.7-6.8c0.6-1.5,1.6-2.2,3.1-2.3c0.9,0,2,0.3,3.5,1c1.4,0.7,3.1,2.3,4.9,5.1
						c1.6-1.5,3.5-2.7,5.5-3.8c1.7-1,3.7-1.8,5.8-2.6c2.2-0.9,4.6-1.2,7-1.2c1.3,0,2.5,0.2,3.8,0.8c1.2,0.6,2.4,1.4,3.3,2.2
						c1,1,1.8,1.9,2.4,3.1s0.9,2.3,0.9,3.4c0.1,1.7-0.2,3.7-0.9,5.6c-0.7,1.9-1.3,4.1-2.1,6.1c-0.7,2.1-1.3,4.3-2.2,6.4
						C250.3,235.2,250,237.3,249.9,239.3z"/>
					<path class="st5" d="M313.8,236.5c-1.7,2.2-3.6,4.3-5.8,6.2c-1.9,1.6-4.2,3.3-6.9,4.6c-2.7,1.5-5.8,2.6-9.3,3.1
						c0,0.9,0.2,1.7,0.5,2.7s0.9,1.5,1.8,1.4c1,0,2-0.1,3-0.3c1.1-0.2,2-0.3,2.9-0.3c1.1,0,2,0.3,2.5,1.1c0.6,0.7,0.9,1.6,0.9,2.8
						c0,1.5-0.3,3.1-1.1,4.8c-0.8,1.7-1.9,3.5-3.6,5c-1.6,1.5-3.5,2.9-5.8,4c-2.4,1.1-5.1,1.6-8.2,1.6c-2.5,0.1-4.5-0.4-6-1.4
						c-1.6-0.9-2.4-2.1-2.5-3.7c0-1.3,0.4-2.3,1.2-3.3s1.8-1.5,2.9-1.5c0.8,0,1.4,0.1,1.9,0.5c0.5,0.3,1,0.7,1.4,1.2s1,0.9,1.6,1.2
						s1.6,0.5,2.8,0.5c1.2,0,2.4-0.3,3.6-0.8s2.2-1.1,3.1-1.7c0.9-0.7,1.6-1.4,2.1-1.9c0.5-0.7,0.8-1.1,0.8-1.5s-0.2-0.6-0.6-0.6
						c-1.7,0.1-3.5,0.4-5.2,0.9c-1.7,0.6-3.2,1-4.6,0.9c-1,0-1.7-0.3-2.2-0.9c-0.5-0.7-0.8-1.3-0.8-1.8c0-1.3,0.1-2.7,0.4-4.5
						c0.3-1.7,0.5-3.2,0.7-4.3c-2.4-0.1-4.7-0.6-7-1.3c-2.3-0.6-4.4-1.6-6.2-3s-3.4-3.1-4.5-5.2c-1.2-2.1-1.7-4.6-1.7-7.6
						c-0.1-3.9,0.8-7.5,2.3-11c1.5-3.6,3.7-6.7,6.1-9.3c2.5-2.7,5.4-4.7,8.5-6.3s6.1-2.4,9.1-2.4c2.1-0.1,4.1,0.2,5.7,0.9
						c1.7,0.6,3.1,1.5,4.3,2.5c1.2,1.1,2.1,2.2,2.8,3.6c0.7,1.4,1,2.6,1.1,4c0,1-0.2,2-0.6,3.1s-1,2-1.6,2.9
						c-0.7,0.9-1.4,1.5-2.3,2.1c-0.8,0.6-1.6,0.9-2.4,0.9c-1.6,0-3-0.4-4.3-1.4s-1.9-2-1.9-3.4c0-1,0.2-1.8,0.6-2.4
						c0.5-0.6,1-1.2,1.6-1.7s1.1-1,1.6-1.5s0.7-1,0.7-1.5s-0.4-1.2-1.1-1.6s-1.5-0.7-2.5-0.7c-1.7,0.1-3.4,0.8-5,1.9
						c-1.6,1.4-3,3-4.3,5.1c-1.2,2.1-2.3,4.4-3.1,7.1c-0.7,2.6-1.1,5.2-1.2,7.8c0.1,4,1.1,7,3.5,8.8c2.3,1.8,5.1,2.8,8.4,2.8
						c2.7-0.1,5.1-0.6,7.2-1.6c2.2-1.2,4.1-2.4,5.6-3.7c1.9-1.5,3.5-3.4,4.9-5.3c0.2-0.2,0.4-0.5,0.7-0.9c0.2-0.2,0.5-0.4,0.8-0.6
						c0.3-0.2,0.7-0.3,1.1-0.3c0.7,0,1.3,0.2,1.8,0.7s0.7,1,0.8,1.5c0,0.3-0.1,0.6-0.2,0.9c-0.2,0.3-0.3,0.6-0.5,0.9
						C314.1,235.8,313.9,236.1,313.8,236.5z"/>
					<path class="st5" d="M369.9,235.9c-1.7,2.7-3.6,5.2-5.7,7.3c-1.8,1.8-3.9,3.5-6.3,4.9c-2.5,1.5-5.2,2.2-8,2.2
						c-3.3,0.1-6.1-0.8-8.4-2.4c-2.4-1.5-3.8-4-4.1-7.2c-1.5,1.9-3.2,3.7-5.1,5c-1.6,1.3-3.3,2.4-5.3,3.4c-2,1.1-4.1,1.6-6.3,1.5
						c-1.6,0-3.1-0.2-4.6-0.9c-1.5-0.6-2.8-1.4-3.9-2.3c-1.1-1.1-2-2.3-2.7-3.8s-1-3-1-4.8c-0.1-4.2,0.8-8.3,2.3-12.4
						c1.5-4.2,3.7-7.8,6.1-11.1c2.5-3.4,5.5-6,8.7-7.9c3.2-2.1,6.3-3.1,9.6-3.1c2.4-0.1,4.4,0.2,6,0.8c1.7,0.5,3.1,1.2,4.1,1.7
						c1.2,0.8,2.2,1.6,2.9,2.6c0.9,0,1.8,0,2.8,0.2s1.9,0.5,2.8,0.9c0.8,0.4,1.6,1,2.1,1.6c0.6,0.7,0.9,1.5,0.9,2.5
						c0,0.9-0.3,2.2-0.9,4.2c-0.7,1.9-1.4,4.1-2.4,6.5c-0.8,2.3-1.6,4.8-2.4,7.3c-0.6,2.5-1,4.7-1.1,6.7c0,1,0.3,1.6,1,2.3
						c0.6,0.6,1.4,0.9,2.5,0.9c1.6,0,3.1-0.6,4.7-1.5c1.5-1.1,2.9-2.2,4-3.6c1.4-1.5,2.6-3.1,3.9-5c0.1-0.2,0.3-0.5,0.6-0.9
						c0.2-0.2,0.4-0.3,0.7-0.6c0.3-0.2,0.7-0.3,1.1-0.3c0.6,0,1.2,0.2,1.7,0.7s0.8,1,0.8,1.5c0,0.3,0,0.6-0.2,0.9
						c-0.1,0.3-0.2,0.6-0.4,0.9C370.2,235.2,370.1,235.6,369.9,235.9z M342.3,215.8c-0.1-1.6-0.5-2.9-1.4-3.7s-1.9-1.2-3.1-1.2
						c-1.7,0.1-3.5,1-5.3,2.7c-1.8,1.8-3.4,4.1-4.9,6.6c-1.4,2.6-2.6,5.4-3.6,8.4c-0.9,3-1.4,5.7-1.4,8.1c0.1,3.5,1.2,5.1,3.5,5.1
						c1.4,0,3-1,4.9-2.8c1.8-1.9,3.5-4.3,5.3-6.9c1.6-2.7,3-5.6,4.2-8.6C341.9,220.7,342.3,218.1,342.3,215.8z"/>
					<path class="st5" d="M379.7,237.8c0,1.4,0.4,2.3,1.1,3.1s1.6,1.2,2.8,1.2c1.6,0,3.1-0.6,4.7-1.5c1.5-1.1,2.9-2.2,4-3.6
						c1.4-1.5,2.6-3.1,3.9-5c0.1-0.2,0.3-0.5,0.6-0.9c0.2-0.2,0.4-0.3,0.7-0.6c0.3-0.2,0.7-0.3,1.1-0.3c0.6,0,1.2,0.2,1.7,0.7
						s0.8,1,0.8,1.5c0,0.3,0,0.6-0.2,0.9c-0.1,0.3-0.2,0.6-0.4,0.9c-0.2,0.3-0.3,0.7-0.4,1.1c-1.7,2.7-3.6,5.2-5.7,7.3
						c-1.8,1.8-3.9,3.5-6.3,4.9c-2.5,1.5-5.2,2.2-8,2.2c-4.5,0.1-8.1-1.2-11-3.4c-2.8-2.2-4.2-5.3-4.2-9c-0.1-2,0.3-4.5,1-7.5
						c0.6-2.9,1.5-5.9,2.4-8.9s1.9-5.9,3-8.6c1.1-2.7,0.8-3.1,1.6-4.7c0.3-0.6,0.7-1.2,1.3-1.5c0.5-0.5,1.2-0.7,1.9-0.7
						c0.9,0,2.5,0.8,3.5,1.3c1.1,0.5,2.2,1.1,3.2,1.7s1.8,1.4,2.4,2c0.7,0.7,1,1.3,1,1.7c0.1,1.7-0.8,3.1-1.5,5.1s-0.4,2.4-1.2,4.7
						c-0.8,2.3-1.5,4.8-2.2,7.3C379.8,232.5,379.6,235.1,379.7,237.8z"/>
					<path class="st5" d="M414.8,250.4c-2.9,0.1-5.7-0.5-8.3-1.6c-2.7-1.1-5-2.5-6.9-4.2s-3.6-3.4-4.7-5.5c-1.2-1.9-1.8-3.8-1.8-5.5
						c0-1.6,0.5-3.1,1.7-4.4c1.2-1.2,2.4-2.2,3.8-3c1.6-0.9,3.5-1.6,5.7-2.1c0.5-0.8,1.1-1.7,1.8-2.9c0.6-1,1.4-2.3,2.4-3.8
						s2.1-3.4,3.5-5.4c2.7-4.2,5.2-7,7-8.5c1.9-1.6,3.7-2.5,5.2-2.4c0.6,0,1.3,0.1,2,0.5c0.7,0.3,1.3,0.7,1.9,1.2s1.1,0.9,1.5,1.4
						s0.6,0.9,0.6,1.2c0,0.4-0.1,0.9-0.4,1.5s-0.6,1.3-1,1.8c-0.3,0.7-0.6,1.4-0.9,2.1c-0.3,0.8-0.4,1.5-0.3,2.2
						c0.1,2.3,0.4,4.3,0.8,6c0.5,1.6,1.1,3.3,1.6,4.7c0.6,1.5,1.2,2.9,1.7,4.4s0.8,3,0.8,4.7c0.1,2.4-0.4,4.7-1.2,6.9
						c-0.8,2.1-1.8,4-3.4,5.6c-1.5,1.5-3.3,2.8-5.5,3.7C420.1,250,417.6,250.4,414.8,250.4z M414.7,217.7c-1.6,2.5-3.1,4.7-4.4,6.8
						c-1.1,1.8-2,3.5-3,5c-0.9,1.5-1.3,2.5-1.3,2.9c0.1,1.6,0.2,3.3,0.3,4.9c0.2,1.5,0.6,3,1.1,4.2c0.5,1.3,1.1,2.2,1.9,2.9
						c0.7,0.7,1.7,1.1,2.8,1c1.8-0.1,3.4-1.1,4.6-2.9c1.3-1.9,1.8-4.3,2-6.9c0-1.5-0.3-3-0.6-4.5c-0.4-1.6-0.9-3.2-1.3-4.7
						c-0.5-1.5-0.9-3.1-1.3-4.5C414.8,220.1,414.6,218.8,414.7,217.7z"/>
				</g>
			</g>
		</g>
	</g>
	<g>
		<g>
			<path class="st6" d="M115.2,225.2c-0.8,1.3,1.8,4.8,0.7,6.5c-1.1,1.6-2.4,3.1-4,4.5c-1.5,1.4-4.9,2.4-8.3,2.7
				c-2.4,0.3-5.5,0.2-8.4,0.2c1.2,1.2,2.3,2.7,3.2,4.5c0.9,1.5,1.6,3.4,2.3,5.6c0.8,2.3,1.1,4.9,1.1,7.7c0,1.7-0.2,3.5-0.8,5.3
				c-0.5,1.9-1.2,3.6-2.3,5.3c-1,1.6-2.1,2.9-3.6,3.9c-1.4,1-3.1,1.6-4.9,1.6c-1.6,0.1-3.6-0.3-5.5-1c-2-0.7-3.8-1.9-5.6-3.8
				c-1.7-1.8-3.2-4-4.2-6.9c-1.2-2.9-1.6-6.5-1.7-10.8c0-7.3,0.5-14.9,1.5-23c1.1-8,2.3-15.8,4.1-23.6c1.7-7.7,3.7-15.1,6.2-21.9
				c2.4-6.9,5-13,7.6-18.2c2.7-5.3,5.6-9.4,8.5-12.5c2.9-3.2,5.9-4.7,8.8-4.7c1.2-0.1,2.6,0.3,3.8,1c1.2,0.8,2.4,1.7,3.5,2.8
				c1.1,1.2,1.8,2.4,2.5,3.8s1,2.6,1,3.8c0,1.9-0.5,4.3-1.4,7.3s-2.2,6.3-3.7,9.9c-1.4,3.7-3.4,7.4-5.3,11.3
				c-1.9,3.9-4.1,7.8-6.3,11.3c-2.2,3.7-4.6,6.9-6.8,10c-2.2,3.2-4.5,5.6-6.6,7.6c-0.6,2.1-1.1,4.3-1.5,6.7c-0.3,2.3-0.7,4.7-0.9,7
				c0.6,0.8,1.2,1.4,2,2c0.6,0.5,1.4,0.8,2.3,1.2c1,0.4,2,0.4,3.2,0.5c5.9,0.6,4,0.6,5.9,0.6c4.9-0.1,6.1-1.3,7.3-2.4
				c1.2-1.2,2.4-2.4,3.4-3.9c1-1.4,1.9-2.8,2.7-4.1c0.1-0.3,0.3-0.6,0.6-0.9c0.2-0.2,0.4-0.4,0.7-0.7c0.3-0.2,0.7-0.4,1.1-0.4
				c0.6,0,1.2,0.2,1.6,0.8c0.5,0.6,0.8,1.1,0.8,1.9c0,0.4,0,0.7-0.2,1c-0.1,0.3-0.2,0.7-0.4,1C118.9,226.5,115.3,224.8,115.2,225.2z
				 M86.7,236.6c-0.1,1.8-0.2,3.7-0.4,5.5c-0.1,1.6-0.2,3.4-0.3,5.3c0,2,0,3.8-0.1,5.6c0,5.3,0.6,9,1.6,11.1c1.1,2.1,2.1,3,3.1,3
				c0.7,0,1.2-0.4,1.7-0.9s0.9-1.4,1.2-2.3c0.3-0.9,0.5-2,0.6-3.1s0.2-2.3,0.2-3.3c-0.1-2.9-0.5-5.6-1.2-8.2
				c-0.9-2.6-1.6-4.8-2.5-6.7C89.3,240.6,88.2,238.4,86.7,236.6z M114.5,158.3c0-1.8-0.9-2.7-2.5-2.6c-1.1,0-2.3,1.5-3.9,4.4
				c-1.5,2.9-3.3,6.7-5,11.3s-3.6,9.9-5.3,15.7c-1.7,5.9-3.3,11.8-4.7,17.7c1.2-1.1,2.6-2.9,4.1-5.3c1.5-2.4,3.2-5.1,4.8-8
				c1.5-3,3.2-6.2,4.6-9.4c1.4-3.4,2.9-6.6,3.9-9.6c1.2-3.1,2.1-5.9,2.9-8.4C114.1,161.5,114.5,159.6,114.5,158.3z"/>
			<path class="st6" d="M140.3,235.7c0,1.3,0.4,2.3,1.2,2.9c0.7,0.7,1.6,0.9,2.8,0.9c1.5,0,3-0.6,4.5-1.5c1.4-1,2.8-2.2,3.8-3.5
				c1.3-1.4,2.5-3,3.7-4.9c0.1-0.2,0.3-0.5,0.6-0.8c0.2-0.2,0.4-0.3,0.7-0.6c0.3-0.2,0.7-0.3,1.1-0.3c0.6,0,1.2,0.2,1.6,0.7
				c0.5,0.5,0.8,0.9,0.8,1.5c0,0.3,0,0.6-0.2,0.8c-0.1,0.3-0.2,0.6-0.4,0.8c-0.2,0.3-0.3,0.7-0.4,1c-1.6,2.6-3.5,5.1-5.6,7
				c-1.7,1.8-3.7,3.4-6.2,4.8c-2.4,1.5-5,2.2-7.8,2.2c-2.2,0.1-4.2-0.2-6-0.8c-1.7-0.6-3.4-1.3-4.6-2.3c-1.3-0.9-2.3-2.2-3.1-3.5
				c-0.8-1.3-1.2-2.7-1.1-4.3c-0.1-2.4,0.4-4.8,1.2-6.9c0.7-2.2,1.4-4.2,2.4-6c0.9-1.8,1.6-3.4,2.4-4.8c0.8-1.4,1.1-2.5,1.1-3.5
				c0-0.6-0.4-1-1.2-1.3s-1.5-0.5-2.4-0.8c-1-0.2-2.1-0.4-3.5-0.5c-2.1,5.5-4.2,10-6.2,13.4c-4.2,7.6-7.2,9.8-5.8,7.8
				c-0.2,0.2-3.6,0.7-3.9,1c-0.4,0.5,3.2,0.7,2.5,0.7c-0.6,0-1.2-0.2-1.6-0.7c-0.5-0.5-0.8-1-0.8-1.6s0.1-1,0.5-1.5
				c0.3-0.5,0.6-0.9,0.7-1.2c1.1-1.5-2,2.4-0.1-0.8c1.8-3.3,8.3-13.8,9.9-19.1c-0.8-0.5-1.4-1.1-2-2c-0.5-0.7-1-1.5-1.3-2.5
				c-0.4-1-0.7-2.3-0.7-3.7c0-1.1,0.2-2.2,0.6-3.2s1-1.9,1.5-2.6c0.7-0.8,1.3-1.4,2.1-1.9c0.8-0.5,1.4-0.8,2.1-0.8
				c0.8,0,1.5,0.2,2.4,0.6c0.9,0.4,1.6,0.8,2.3,1.4c0.7,0.6,1.2,1.1,1.7,1.9c0.5,0.7,0.8,1.3,0.8,1.8c0,1.5-0.2,2.7-0.7,3.8
				c-0.5,0.9-0.7,1.9-0.7,2.8c0,0.8,0.5,1.4,1.4,1.8c1,0.4,2.1,0.5,3.5,0.5c1.2,0,2.4-0.2,3.3-0.3c0.9-0.2,1.6-0.4,2.3-0.6
				c0.7-0.2,1.3-0.4,1.9-0.6c0.6-0.2,1.2-0.3,1.9-0.3c1.3,0,2.5,0.5,3.5,1.5c0.9,1,1.3,2.3,1.4,3.8c0,1.3-0.4,2.8-1.2,4.6
				s-1.7,3.8-2.9,5.8c-1,2.2-2,4.3-2.9,6.7C140.5,231.2,140.2,233.5,140.3,235.7z"/>
			<path class="st6" d="M214.2,232.6c-1.6,2.6-3.5,5.1-5.6,7c-1.7,1.8-3.7,3.4-6.2,4.8c-2.4,1.5-5,2.2-7.8,2.2
				c-3.2,0.1-6-0.8-8.2-2.3c-2.3-1.5-3.7-3.8-3.9-6.9c-1.4,1.9-3.1,3.6-4.9,4.9c-1.5,1.2-3.2,2.3-5.1,3.3c-1.9,0.9-3.9,1.6-6.2,1.5
				c-1.5,0-3-0.2-4.4-0.8c-1.4-0.6-2.7-1.3-3.7-2.3c-1.1-1-1.9-2.3-2.6-3.7c-0.7-1.4-1-2.9-1-4.7c-0.1-4,0.8-8.1,2.2-12
				c1.4-4,3.6-7.6,6-10.8s5.3-5.8,8.5-7.7c3.1-2.1,6.2-3,9.3-3c2.3-0.1,4.2,0.2,5.9,0.8c1.6,0.5,3,1.1,3.9,1.7
				c1.2,0.8,2.1,1.6,2.8,2.5c0.9,0,1.7,0,2.7,0.2s1.8,0.5,2.7,0.8c0.8,0.4,1.5,0.9,2,1.6c0.6,0.7,0.9,1.5,0.9,2.4
				c0,0.8-0.3,2.2-0.9,4c-0.7,1.9-1.3,3.9-2.3,6.3c-0.8,2.3-1.5,4.7-2.3,7.1c-0.6,2.4-1,4.6-1.1,6.5c0,0.9,0.3,1.6,1,2.3
				c0.6,0.6,1.3,0.8,2.4,0.8c1.5,0,3-0.6,4.5-1.5c1.4-1,2.8-2.2,3.8-3.5c1.3-1.4,2.5-3,3.7-4.9c0.1-0.2,0.3-0.5,0.6-0.8
				c0.2-0.2,0.4-0.3,0.7-0.6c0.3-0.2,0.7-0.3,1.1-0.3c0.6,0,1.2,0.2,1.6,0.7s0.8,0.9,0.8,1.5c0,0.3,0,0.6-0.2,0.8
				c-0.1,0.3-0.2,0.6-0.4,0.8C214.5,231.9,214.4,232.2,214.2,232.6z M187.5,213.1c-0.1-1.6-0.5-2.8-1.3-3.6c-0.9-0.8-1.8-1.1-3-1.1
				c-1.6,0.1-3.4,0.9-5.1,2.6c-1.7,1.7-3.3,3.9-4.7,6.4c-1.3,2.5-2.5,5.3-3.5,8.2c-0.9,2.9-1.3,5.5-1.3,7.9c0.1,3.4,1.2,5,3.4,5
				c1.3,0,2.9-0.9,4.7-2.7c1.7-1.9,3.4-4.1,5.1-6.7c1.5-2.6,2.9-5.4,4-8.3C187,217.8,187.6,215.3,187.5,213.1z"/>
			<path class="st6" d="M250.7,234.1c0,1.3,0.4,2.3,1.1,3c0.7,0.8,1.5,1.1,2.7,1.1c1.5,0,3-0.6,4.5-1.5c1.4-1,2.8-2.2,3.8-3.5
				c1.3-1.4,2.5-3,3.7-4.9c0.1-0.2,0.3-0.5,0.6-0.8c0.2-0.2,0.4-0.3,0.7-0.6c0.3-0.2,0.7-0.3,1.1-0.3c0.6,0,1.2,0.2,1.6,0.7
				c0.5,0.5,0.8,0.9,0.8,1.5c0,0.3,0,0.6-0.2,0.8c-0.1,0.3-0.2,0.6-0.4,0.8c-0.2,0.3-0.3,0.7-0.4,1c-1.6,2.6-3.5,5.1-5.6,7
				c-1.7,1.8-3.7,3.4-6.2,4.8c-2.4,1.5-5,2.2-7.8,2.2c-4.3,0.1-7.9-1-10.7-3.2c-2.7-2.2-4-4.8-4-7.9c-0.1-2.3,0.3-4.5,0.9-6.7
				c0.6-2.2,1.2-4.2,2-6.3c0.7-2.1,1.2-3.9,1.9-5.8c0.7-1.9,0.8-3.7,0.9-5.3c0-0.6-0.3-0.9-0.8-1.2s-1-0.5-1.6-0.5
				c-1.7,0.1-3.7,0.9-5.6,2.4c-2,1.7-3.8,4-5.7,7c-1.7,3.1-3.3,6.8-4.3,11.1c-1.1,4.3-1.7,9.2-1.6,14.5c0,0.9-0.2,1.6-0.6,1.9
				c-0.4,0.3-1.1,0.5-1.9,0.5c-3.1,0.1-5.7-0.5-7.7-1.7c-2.1-1.1-3.2-2.5-3.1-4.3c-0.1-3.1,0.4-6.5,1-9.9c0.6-3.5,1.5-6.8,2.5-10.1
				c0.9-3.3,2-6.3,3-9.1s1.8-5,2.6-6.6c0.6-1.4,1.5-2.2,3-2.3c0.9,0,1.9,0.3,3.4,0.9c1.3,0.7,3,2.3,4.7,5c1.5-1.4,3.4-2.6,5.3-3.7
				c1.6-0.9,3.6-1.8,5.7-2.5c2.1-0.8,4.4-1.1,6.8-1.1c1.2,0,2.4,0.2,3.7,0.8c1.2,0.6,2.3,1.3,3.2,2.2c1,0.9,1.7,1.9,2.3,3
				c0.6,1.1,0.9,2.3,0.9,3.3c0.1,1.7-0.2,3.6-0.9,5.4c-0.6,1.9-1.2,3.9-2,5.9c-0.7,2.1-1.2,4.1-2.1,6.2
				C250.9,230.1,250.6,232.2,250.7,234.1z"/>
			<path class="st6" d="M312.5,231.5c-1.6,2.2-3.5,4.1-5.7,6c-1.8,1.6-4,3.2-6.7,4.5c-2.6,1.5-5.7,2.5-9,3c0,0.8,0.2,1.7,0.5,2.6
				s0.9,1.4,1.7,1.3c1,0,1.9-0.1,2.9-0.3c1.1-0.2,1.9-0.3,2.8-0.3c1.1,0,1.9,0.3,2.4,1c0.6,0.7,0.9,1.6,0.9,2.7c0,1.4-0.3,3-1.1,4.7
				c-0.8,1.7-1.8,3.4-3.5,4.9c-1.5,1.5-3.4,2.8-5.7,3.8c-2.3,1-4.9,1.6-8,1.6c-2.4,0.1-4.3-0.4-5.9-1.3c-1.5-0.8-2.3-2.1-2.4-3.6
				c0-1.2,0.4-2.3,1.2-3.2c0.8-0.9,1.7-1.4,2.8-1.5c0.8,0,1.3,0.1,1.8,0.5c0.5,0.3,1,0.7,1.3,1.1c0.4,0.5,1,0.8,1.5,1.1
				c0.6,0.3,1.5,0.5,2.7,0.5s2.3-0.3,3.5-0.8s2.1-1,3-1.7s1.5-1.3,2-1.9c0.5-0.7,0.8-1,0.8-1.4s-0.2-0.6-0.6-0.6
				c-1.6,0.1-3.4,0.4-5,0.8s-3.1,0.9-4.4,0.8c-1,0-1.6-0.3-2.1-0.8c-0.5-0.7-0.8-1.2-0.8-1.8c0-1.2,0.1-2.6,0.4-4.4
				c0.3-1.7,0.5-3.1,0.7-4.1c-2.3-0.1-4.5-0.6-6.8-1.2c-2.2-0.6-4.2-1.6-6.1-2.9c-1.8-1.3-3.3-3-4.3-5.1c-1.2-2.1-1.6-4.5-1.6-7.4
				c-0.1-3.8,0.8-7.3,2.2-10.7c1.4-3.5,3.6-6.5,6-9c2.4-2.6,5.2-4.6,8.3-6.1c3-1.6,6-2.3,8.8-2.3c2-0.1,3.9,0.2,5.5,0.8
				s3,1.4,4.1,2.4c1.2,1,2,2.2,2.7,3.5s1,2.5,1.1,3.8c0,0.9-0.2,2-0.6,3s-1,2-1.5,2.8c-0.7,0.8-1.3,1.5-2.2,2.1
				c-0.8,0.6-1.5,0.8-2.3,0.8c-1.5,0-2.9-0.4-4.1-1.3c-1.2-0.9-1.8-2-1.8-3.3c0-0.9,0.2-1.8,0.6-2.3c0.5-0.6,1-1.1,1.5-1.7
				c0.6-0.5,1.1-0.9,1.5-1.4c0.5-0.5,0.7-0.9,0.7-1.5s-0.4-1.1-1.1-1.6s-1.4-0.7-2.4-0.7c-1.6,0.1-3.3,0.8-4.8,1.9
				c-1.5,1.3-2.9,2.9-4.1,5s-2.2,4.3-3,6.8c-0.7,2.5-1.1,5.1-1.2,7.6c0.1,3.8,1.1,6.8,3.4,8.5c2.2,1.8,4.9,2.7,8.2,2.7
				c2.6-0.1,4.9-0.6,7-1.6s3.9-2.3,5.4-3.6c1.8-1.5,3.4-3.3,4.7-5.2c0.2-0.2,0.4-0.5,0.7-0.8c0.2-0.2,0.5-0.4,0.8-0.6
				c0.3-0.2,0.7-0.3,1.1-0.3c0.7,0,1.2,0.2,1.7,0.7s0.7,0.9,0.8,1.5c0,0.3-0.1,0.6-0.2,0.8c-0.2,0.3-0.3,0.6-0.5,0.8
				C312.8,230.7,312.7,231.1,312.5,231.5z"/>
			<path class="st6" d="M367,230.9c-1.6,2.6-3.5,5.1-5.6,7c-1.7,1.8-3.7,3.4-6.2,4.8c-2.4,1.5-5,2.2-7.8,2.2c-3.2,0.1-6-0.8-8.2-2.3
				c-2.3-1.5-3.7-3.8-3.9-6.9c-1.4,1.9-3.1,3.6-4.9,4.9c-1.5,1.2-3.2,2.3-5.1,3.3s-3.9,1.6-6.2,1.5c-1.5,0-3-0.2-4.4-0.8
				c-1.4-0.6-2.7-1.3-3.7-2.3c-1.1-1-1.9-2.3-2.6-3.7s-1-2.9-1-4.7c-0.1-4,0.8-8.1,2.2-12c1.4-4,3.6-7.6,6-10.8
				c2.4-3.3,5.3-5.8,8.5-7.7c3.1-2.1,6.2-3,9.3-3c2.3-0.1,4.2,0.2,5.9,0.8c1.6,0.5,3,1.1,3.9,1.7c1.2,0.8,2.1,1.6,2.8,2.5
				c0.9,0,1.7,0,2.7,0.2s1.8,0.5,2.7,0.8c0.8,0.4,1.5,0.9,2,1.6c0.6,0.7,0.9,1.5,0.9,2.4c0,0.8-0.3,2.2-0.9,4
				c-0.7,1.9-1.3,3.9-2.3,6.3c-0.8,2.3-1.5,4.7-2.3,7.1c-0.6,2.4-1,4.6-1.1,6.5c0,0.9,0.3,1.6,1,2.3c0.6,0.6,1.3,0.8,2.4,0.8
				c1.5,0,3-0.6,4.5-1.5c1.4-1,2.8-2.2,3.8-3.5c1.3-1.4,2.5-3,3.7-4.9c0.1-0.2,0.3-0.5,0.6-0.8c0.2-0.2,0.4-0.3,0.7-0.6
				c0.3-0.2,0.7-0.3,1.1-0.3c0.6,0,1.2,0.2,1.6,0.7c0.5,0.5,0.8,0.9,0.8,1.5c0,0.3,0,0.6-0.2,0.8c-0.1,0.3-0.2,0.6-0.4,0.8
				C367.3,230.2,367.1,230.6,367,230.9z M340.2,211.3c-0.1-1.6-0.5-2.8-1.3-3.6c-0.9-0.8-1.8-1.1-3-1.1c-1.6,0.1-3.4,0.9-5.1,2.6
				c-1.7,1.8-3.3,3.9-4.7,6.4c-1.3,2.5-2.5,5.3-3.5,8.2s-1.3,5.5-1.3,7.9c0.1,3.4,1.2,5,3.4,5c1.3,0,2.9-0.9,4.7-2.7
				c1.7-1.9,3.4-4.1,5.1-6.7c1.5-2.6,2.9-5.4,4-8.3C339.7,216,340.2,213.5,340.2,211.3z"/>
			<path class="st6" d="M376.4,232.7c0,1.3,0.4,2.3,1.1,3c0.7,0.8,1.5,1.1,2.7,1.1c1.5,0,3-0.6,4.5-1.5c1.4-1,2.8-2.2,3.8-3.5
				c1.3-1.4,2.5-3,3.7-4.9c0.1-0.2,0.3-0.5,0.6-0.8c0.2-0.2,0.4-0.3,0.7-0.6c0.3-0.2,0.7-0.3,1.1-0.3c0.6,0,1.2,0.2,1.6,0.7
				c0.5,0.5,0.8,0.9,0.8,1.5c0,0.3,0,0.6-0.2,0.8c-0.1,0.3-0.2,0.6-0.4,0.8s-0.3,0.7-0.4,1c-1.6,2.6-3.5,5.1-5.6,7
				c-1.7,1.8-3.7,3.4-6.2,4.8c-2.4,1.5-5,2.2-7.8,2.2c-4.3,0.1-7.9-1.1-10.7-3.3c-2.7-2.2-4-5.2-4-8.7c-0.1-2,0.3-4.4,1-7.3
				c0.6-2.8,1.4-5.7,2.3-8.6c0.9-2.9,1-3.5,2-6.1s1.8-4.8,2.6-6.4c0.3-0.6,0.7-1.1,1.2-1.5c0.5-0.5,1.2-0.7,1.8-0.7
				c0.9,0,1.8,0.2,2.9,0.7s2.1,1,3.1,1.7s1.7,1.3,2.3,2c0.7,0.7,1,1.2,1,1.7c0.1,1.7-0.2,3.6-1,5.5c-0.8,2-0.5,1.9-1.3,4.1
				c-0.8,2.3-1.4,4.7-2.1,7.1C376.7,227.5,376.4,230.1,376.4,232.7z"/>
			<path class="st6" d="M410.5,244.9c-2.8,0.1-5.5-0.5-8.1-1.6c-2.6-1-4.8-2.4-6.7-4s-3.5-3.3-4.5-5.3c-1.2-1.9-1.7-3.7-1.7-5.3
				s0.5-3,1.6-4.2c1.2-1.1,2.3-2.2,3.7-2.9c1.5-0.8,3.4-1.6,5.5-2.1c0.5-0.8,1.1-1.7,1.7-2.8c0.6-0.9,1.3-2.3,2.3-3.7
				c1-1.5,2-3.3,3.4-5.3c2.6-4,5-6.8,6.8-8.3c1.8-1.6,3.6-2.4,5-2.3c0.6,0,1.2,0.1,1.9,0.5c0.7,0.3,1.2,0.7,1.8,1.1
				c0.6,0.5,1.1,0.8,1.4,1.3c0.4,0.5,0.6,0.8,0.6,1.1c0,0.4-0.1,0.8-0.4,1.4s-0.6,1.2-1,1.8c-0.3,0.7-0.6,1.3-0.9,2.1
				s-0.4,1.4-0.3,2.2c0.1,2.3,0.4,4.1,0.8,5.8c0.5,1.6,1.1,3.2,1.5,4.6c0.6,1.4,1.2,2.8,1.6,4.2c0.5,1.4,0.8,2.9,0.8,4.6
				c0.1,2.3-0.4,4.6-1.2,6.7c-0.7,2.1-1.7,3.8-3.3,5.4c-1.4,1.5-3.2,2.7-5.3,3.6C415.7,244.5,413.3,244.8,410.5,244.9z M410.3,213.2
				c-1.5,2.4-3,4.6-4.2,6.6c-1.1,1.8-1.9,3.4-2.9,4.9c-0.9,1.5-1.2,2.4-1.2,2.8c0.1,1.6,0.2,3.2,0.3,4.8c0.2,1.5,0.6,2.9,1.1,4
				c0.5,1.2,1.1,2.2,1.8,2.8c0.7,0.7,1.6,1,2.7,0.9c1.7-0.1,3.3-1,4.4-2.8c1.2-1.9,1.7-4.1,1.9-6.7c0-1.4-0.3-2.9-0.6-4.4
				c-0.4-1.6-0.9-3.1-1.2-4.6c-0.5-1.5-0.9-3-1.2-4.4C410.5,215.6,410.3,214.3,410.3,213.2z"/>
		</g>
	</g>
	<g>
		<path class="st5" d="M389.8,194c0.1,1.1-0.1,2.3-0.6,3.3s-1,2-1.8,2.8s-1.7,1.5-2.7,2.1c-1,0.5-2.2,0.8-3.3,0.8
			c-1.6,0-3-0.4-4.2-1.1c-1.2-0.8-1.8-2-1.9-3.5c-0.1-1,0.2-2.2,0.7-3.2s1.1-2,1.9-2.8s1.7-1.5,2.8-2.1c1-0.5,2.3-0.8,3.5-0.8
			c1.6,0,2.9,0.4,4,1.1C389.1,191.5,389.7,192.6,389.8,194z"/>
		<path class="st6" d="M384.6,191.1c0.1,1.1-0.1,2.2-0.6,3.2c-0.4,1-1,2-1.8,2.8s-1.7,1.5-2.6,2c-1,0.5-2.1,0.8-3.2,0.8
			c-1.6,0-2.9-0.4-4.1-1.1c-1.1-0.8-1.8-2-1.9-3.5c-0.1-1,0.2-2.1,0.6-3.1c0.5-1,1-2,1.9-2.7c0.8-0.8,1.7-1.5,2.7-2s2.2-0.8,3.4-0.8
			c1.6,0,2.9,0.4,3.9,1.1C384.1,188.6,384.6,189.7,384.6,191.1z"/>
	</g>
</g>
<line class="st4" x1="79.4" y1="281.5" x2="430.2" y2="281.5"/>
</svg>
