<?xml version="1.0" encoding="utf-8"?>
<!-- Generator: Adobe Illustrator 24.0.0, SVG Export Plug-In . SVG Version: 6.00 Build 0)  -->
<svg version="1.1" id="Calque_1" xmlns="http://www.w3.org/2000/svg" xmlns:xlink="http://www.w3.org/1999/xlink" x="0px" y="0px"
	 viewBox="0 0 510 510" style="enable-background:new 0 0 510 510;" xml:space="preserve">
<style type="text/css">
	.st0{fill:#FCF8F0;}
	.st1{opacity:0.26;}
	.st2{fill:none;stroke:#000000;stroke-width:4;stroke-linecap:round;stroke-linejoin:round;stroke-dasharray:1.0019,20.0376;}
	.st3{opacity:0.26;fill:none;stroke:#000000;stroke-miterlimit:10;enable-background:new    ;}
	.st4{fill:none;stroke:#000000;stroke-miterlimit:10;}
	.st5{opacity:0.3;enable-background:new    ;}
	.st6{fill:#D3D2D1;}
	.st7{fill:#A51F1E;}
</style>
<polygon points="-87.1,-39.5 633.8,-40.7 633.8,568.2 -87.1,569.4 "/>
<g id="BACKGROUND">
</g>
<circle cx="254.8" cy="253.8" r="254"/>
<circle class="st0" cx="255" cy="253.8" r="224"/>
<g>
	<g class="st1">
		<circle class="st0" cx="255.4" cy="256.4" r="197.6"/>
		<circle class="st2" cx="254.8" cy="255.8" r="197.6"/>
	</g>
	<path class="st3" d="M430.1,287.4c-13.2,82.7-87,145.2-175.3,145.2c-88.4,0-161.8-63.1-175.4-145.7"/>
	<path class="st3" d="M81.4,281.2"/>
	<path class="st3" d="M254.8,78.8"/>
	<g>
		<g>
			<path d="M117,301.4c1.9,1,3.5,2.5,4.5,4.4c1.1,1.9,1.6,4,1.6,6.5c0,2.4-0.5,4.6-1.6,6.4c-1.1,1.9-2.6,3.3-4.5,4.4
				c-2,1-4.2,1.6-6.8,1.6h-9.3V300h9.3C112.7,299.8,115,300.3,117,301.4z M115.1,317.5c1.3-1.2,1.9-3,1.9-5.3s-0.6-4.1-1.9-5.3
				c-1.3-1.3-3-1.9-5.3-1.9h-2.9v14.4h2.9C112,319.3,113.8,318.7,115.1,317.5z"/>
			<path d="M136.3,299.8h6.2l-3.9,9.4h-4.1L136.3,299.8z"/>
			<path d="M169.9,320.2h-9.2l-1.5,4.4h-6.3l8.9-24.7h7l8.9,24.7h-6.4L169.9,320.2z M168.3,315.5l-3.1-9.1l-3,9.1H168.3z"/>
			<path d="M194.8,299.8v14.8c0,1.5,0.4,2.6,1.1,3.4c0.7,0.8,1.8,1.2,3.2,1.2s2.5-0.4,3.2-1.2c0.8-0.8,1.1-1.9,1.1-3.4v-14.8h6v14.8
				c0,2.2-0.5,4.1-1.4,5.6s-2.2,2.7-3.8,3.5s-3.4,1.2-5.3,1.2c-1.9,0-3.7-0.4-5.2-1.1c-1.5-0.8-2.8-1.9-3.6-3.5
				c-0.9-1.5-1.3-3.4-1.3-5.6v-14.8h6V299.8z"/>
			<path d="M240,299.8v4.8h-6.6v19.9h-6v-19.9h-6.6v-4.8H240z"/>
			<path d="M264.1,324.5l-5.1-9.3h-1.4v9.3h-6v-24.7h10.1c1.9,0,3.6,0.3,5,1s2.4,1.6,3.1,2.8c0.7,1.2,1,2.5,1,4
				c0,1.6-0.5,3.1-1.4,4.4s-2.3,2.2-4.1,2.7l5.7,9.8L264.1,324.5L264.1,324.5z M257.5,310.9h3.7c1.1,0,1.9-0.3,2.5-0.8
				s0.8-1.3,0.8-2.3c0-0.9-0.3-1.7-0.8-2.2c-0.6-0.5-1.4-0.8-2.5-0.8h-3.7V310.9z"/>
			<path d="M288.9,304.6v5h8.1v4.7h-8.1v5.4h9.1v4.8h-15.2v-24.7H298v4.8L288.9,304.6L288.9,304.6z"/>
			<path d="M326.5,299.8v4.8h-10.1v5.2h7.5v4.7h-7.5v10h-6v-24.7H326.5z"/>
			<path d="M343.5,323.2c-1.9-1.1-3.5-2.6-4.6-4.5s-1.7-4.1-1.7-6.5s0.6-4.6,1.7-6.5s2.7-3.4,4.6-4.5s4.1-1.6,6.4-1.6
				s4.5,0.5,6.4,1.6s3.5,2.6,4.6,4.5s1.7,4.1,1.7,6.5s-0.6,4.6-1.7,6.5s-2.7,3.4-4.6,4.5s-4.1,1.6-6.4,1.6
				C347.5,324.8,345.4,324.3,343.5,323.2z M354.6,317.3c1.2-1.3,1.8-3.1,1.8-5.2c0-2.2-0.6-3.9-1.8-5.2c-1.2-1.3-2.8-2-4.7-2
				c-2,0-3.6,0.6-4.8,1.9c-1.2,1.3-1.8,3-1.8,5.3c0,2.2,0.6,3.9,1.8,5.2c1.2,1.3,2.8,2,4.8,2C351.8,319.3,353.4,318.6,354.6,317.3z"
				/>
			<path d="M380.3,299.8v24.7h-6v-24.7H380.3z"/>
			<path d="M397.2,323.9c-1.4-0.6-2.6-1.5-3.4-2.6c-0.9-1.2-1.3-2.5-1.4-4.2h6.4c0.1,0.9,0.4,1.6,1,2.1c0.5,0.5,1.2,0.7,2.1,0.7
				s1.6-0.2,2.1-0.6s0.8-1,0.8-1.7c0-0.6-0.2-1.1-0.6-1.5s-0.9-0.7-1.5-1s-1.5-0.6-2.6-0.9c-1.6-0.5-2.9-1-3.9-1.5s-1.9-1.2-2.6-2.2
				s-1.1-2.2-1.1-3.8c0-2.3,0.8-4.1,2.5-5.4s3.8-2,6.5-2s4.9,0.7,6.6,2s2.6,3.1,2.7,5.4h-6.5c0-0.8-0.3-1.4-0.9-1.9
				c-0.5-0.5-1.2-0.7-2.1-0.7c-0.7,0-1.3,0.2-1.8,0.6c-0.4,0.4-0.7,0.9-0.7,1.7c0,0.8,0.4,1.4,1.1,1.9c0.8,0.4,1.9,0.9,3.5,1.4
				s2.9,1.1,3.9,1.5c1,0.5,1.9,1.2,2.6,2.1s1.1,2.2,1.1,3.6s-0.4,2.7-1.1,3.8c-0.7,1.2-1.8,2.1-3.1,2.7c-1.4,0.7-3,1-4.8,1
				C400.3,324.8,398.7,324.5,397.2,323.9z"/>
		</g>
	</g>
</g>
<g>
	<line class="st4" x1="96" y1="336.9" x2="414" y2="336.9"/>
</g>
<path class="st5" d="M236.4,411v2.4h-2.1c-1.6,0-6.6,0.8-6.6,2.4v0.4h-1.9l-5.1-3c-0.2-0.1-0.4,0-0.6,0.1l-2.8,0.1l0,0
	c-0.1,0-0.3-0.1-0.4,0c-0.1,0.1-0.2,0.1-0.2,0.2l-0.1,14.5c0,0.1,0,0.3,0.1,0.4s0.2,0.1,0.3,0.1h2.9c0.1,0-0.1,0-0.1,0
	c0.1,0-0.3,0-0.2,0l6-2.9h1.9v24.2c0,1.6,5,5.6,6.6,5.6h16v-2.4c0,1,1.9,1.8,2.7,2.3l-11.2,31.3c-0.5,1.3-0.1,2.8,1.3,3.3
	c0.3,0.1,0.2,0.2,0.6,0.2c1,0,1.2-0.6,1.6-1.6l10.3-29.5v29.1c0,1.4,2,2.5,3.5,2.5s3.5-1.1,3.5-2.5v-29.1l12.6,29.5
	c0.4,1,2,1.6,3.1,1.6c0.3,0,0.4,0,0.7-0.2c1.3-0.5,1.6-2,1-3.3l-13.5-31.3c0.8-0.5-0.4-1.3-0.4-2.3v2.4h22.5c1.6,0,0.1-4,0.1-5.6
	v-10.1l10.7,0.2l12.8,5.5c0.1,0,0.1,0.5,0.2,0.5v0.9l0,0h5.1l0,0c0.1,0,0.3-0.9,0.4-1s0.2-1,0.2-1.2v-25.2c0-0.3-0.2-0.2-0.5-0.2
	l-5.1,0.6l0,0c-0.1,0-0.3,0.1-0.4,0.2v0.1l-11.1,6.4h-12.4v-11.1c0-1.6,1.5-2.4-0.1-2.4h-8.5v-1.7c3.5,0.5,7,0.9,9.5,0.9
	c16.4,0,32.1-12.8,32.1-28.6c0-15.8-13.4-28.6-29.7-28.6c-16.4,0-29.7,13.2-29.7,29c0,1.6,0.1,3.6,0.4,5.3h-4c0,0-0.2-0.4-0.3,0
	c0.4-1.7,0.4-4.1,0.4-6c0-15.8-13.5-28.7-29.8-28.7c-16.4,0-30,12.9-30,28.7s12.7,28.7,29.1,28.7C231.4,412.6,231.2,412,236.4,411z
	 M210.4,394.9c0-0.9,0.2-1.7,0.5-2.5c1-2.5,3.5-4.3,6.5-4.3c3.9,0,7,3,7,6.8c0,1.6-0.6,3.1-1.6,4.3c-1.3,1.5-3.3,2.5-5.5,2.5
	C213.7,401.8,210.4,398.7,210.4,394.9z M207.5,371.7c3.9,0,7,3,7,6.8s-3.2,6.8-7,6.8c-0.2,0-0.5,0-0.7,0c-3.5-0.4-6.3-3.2-6.3-6.7
	c0-1,0.3-2,0.7-3c0.7-1.4,1.9-2.5,3.4-3.2c0.8-0.3,1.6-0.5,2.4-0.6C207.1,371.7,207.3,371.7,207.5,371.7z M224.6,363.4
	c0,3.1-2.1,5.8-5.2,6.5c-2.1,0.5-4.2,0.1-5.8-1c-1.3-0.9-2.1-2.1-2.6-3.4c-0.2-0.6-0.4-1.4-0.4-2.1c0-3.7,3.1-6.8,7-6.8
	c2,0,3.8,0.8,5.1,2.1C223.9,359.8,224.6,361.5,224.6,363.4z M309.2,385.6c-3.9,0-7-3-7-6.8c0-0.2,0-0.4,0-0.6c0.3-3.5,3.3-6.1,7-6.1
	c0.3,0,0.6,0,0.9,0c3.5,0.5,6.1,3.3,6.1,6.7c0,0.2,0,0.4,0,0.6c-0.2,1.7-1,3.3-2.3,4.4c-1,0.9-2.3,1.5-3.7,1.7
	C309.8,385.5,309.5,385.6,309.2,385.6z M292.2,394.9c0-3.7,3.1-6.8,7-6.8c3.1,0,5.7,1.9,6.6,4.5c0.3,0.7,0.4,1.5,0.4,2.2
	c0,3.7-3.1,6.8-7,6.8c-2.2,0-4.1-1-5.4-2.5C292.8,398,292.2,396.5,292.2,394.9z M292.2,363.5c0-1.9,0.8-3.5,2-4.8c1.3-1.2,3.1-2,5-2
	c3.9,0,7,3,7,6.8c0,0.6-0.1,1.3-0.3,1.9c-0.8,2.8-3.5,4.9-6.7,4.9C295.3,370.2,292.2,367.2,292.2,363.5z M270.2,371.7
	c3.9,0,7,3,7,6.8s-3.2,6.8-7,6.8c-0.2,0-0.5,0-0.7,0c-3.5-0.4-6.3-3.2-6.3-6.7c0-1,0.3-2,0.7-3c0.7-1.4,1.9-2.5,3.4-3.2
	c0.8-0.3,1.6-0.5,2.4-0.6C269.9,371.7,270.1,371.7,270.2,371.7z M287.3,363.4c0,3.1-2.1,5.8-5.2,6.5c-2.1,0.5-4.2,0.1-5.8-1
	c-1.3-0.9-2.1-2.1-2.6-3.4c-0.2-0.6-0.4-1.4-0.4-2.1c0-3.7,3.1-6.8,7-6.8c2,0,3.8,0.8,5.1,2.1C286.6,359.8,287.3,361.5,287.3,363.4z
	 M280.1,401.8c-3.8,0-7-3-7-6.8c0-0.9,0.2-1.7,0.5-2.5c1-2.5,3.5-4.3,6.5-4.3c3.9,0,7,3,7,6.8c0,1.6-0.6,3.1-1.6,4.3
	C284.3,400.8,282.3,401.8,280.1,401.8z M229.4,394.9c0-3.7,3.1-6.8,7-6.8c3.1,0,5.7,1.9,6.6,4.5c0.3,0.7,0.4,1.5,0.4,2.2
	c0,3.7-3.1,6.8-7,6.8c-2.2,0-4.1-1-5.4-2.5C230,398,229.4,396.5,229.4,394.9z M243.5,363.5c0,0.6-0.1,1.3-0.3,1.9
	c-0.8,2.8-3.5,4.9-6.7,4.9c-3.9,0-7-3-7-6.8c0-1.9,0.8-3.5,2-4.8c1.3-1.2,3.1-2,5-2C240.4,356.6,243.5,359.6,243.5,363.5z
	 M253.5,378.7c0,0.2,0,0.4,0,0.6c-0.2,1.7-1,3.3-2.3,4.4c-1,0.9-2.3,1.5-3.7,1.7c-0.3,0-0.7,0.1-1,0.1c-3.9,0-7-3-7-6.8
	c0-0.2,0-0.4,0-0.6c0.3-3.5,3.3-6.1,7-6.1c0.3,0,0.6,0,0.9,0C250.9,372.4,253.5,375.2,253.5,378.7z"/>
<path d="M229.9,404.9v2.3h-2c-1.5,0-6.4,0.8-6.4,2.3v0.4h-1.8l-4.9-2.9c-0.2-0.1-0.4,0-0.6,0.1l-2.7,0.1l0,0c-0.1,0-0.3-0.1-0.4,0
	c-0.1,0.1-0.2,0.1-0.2,0.2l-0.1,14c0,0.1,0,0.3,0.1,0.4s0.2,0.1,0.3,0.1h2.8c0.1,0-0.1,0-0.1,0c0.1,0-0.3,0-0.2,0l5.8-2.8h1.8v23.3
	c0,1.5,4.8,5.4,6.4,5.4h15.4v-2.3c0,1,1.8,1.7,2.6,2.2L235,477.9c-0.5,1.3-0.1,2.7,1.3,3.2c0.3,0.1,0.2,0.2,0.6,0.2
	c1,0,1.2-0.6,1.5-1.5l9.9-28.4v27.9c0,1.4,1.9,2.4,3.4,2.4c1.4,0,3.4-1.1,3.4-2.4v-28l12,28.4c0.4,1,1.9,1.5,3,1.5
	c0.3,0,0.4,0,0.7-0.2c1.3-0.5,1.5-1.9,1-3.2l-13-30.2c0.8-0.5-0.4-1.3-0.4-2.2v2.3h21.7c1.5,0,0.1-3.9,0.1-5.4v-9.7l10.3,0.2
	l12.3,5.3c0.1,0,0.1,0.5,0.2,0.5v0.9l0,0h4.9l0,0c0.1,0,0.3-0.9,0.4-1s0.2-1,0.2-1.2V413c0-0.3-0.2-0.2-0.5-0.2l-4.9,0.6l0,0
	c-0.1,0-0.3,0.1-0.4,0.2v0.1L292,420h-12v-10.7c0-1.5,1.5-2.3-0.1-2.3h-8.2v-1.6c3.4,0.5,6.7,0.9,9.2,0.9
	c15.8,0,30.9-12.3,30.9-27.6c0-15.3-12.9-27.6-28.6-27.6c-15.8,0-28.6,12.7-28.6,27.9c0,1.5,0.1,3.5,0.4,5.1h-4c0,0-0.2-0.4-0.3,0
	c0.4-1.6,0.4-4,0.4-5.8c0-15.2-13-27.7-28.7-27.7c-15.8,0-28.9,12.4-28.9,27.7s12.2,27.7,28,27.7C225,406.5,224.9,405.9,229.9,404.9
	z M206.9,394.3c0-0.9,0.2-1.6,0.5-2.4c1-2.4,3.4-4.1,6.3-4.1c3.8,0,6.7,2.9,6.7,6.5c0,1.5-0.6,3-1.5,4.1c-1.3,1.5-3.2,2.4-5.3,2.4
	C209.9,400.9,206.9,397.8,206.9,394.3z M204,371.9c3.8,0,6.7,2.9,6.7,6.5s-3.1,6.5-6.7,6.5c-0.2,0-0.5,0-0.7,0
	c-3.4-0.4-6.1-3.1-6.1-6.5c0-1,0.3-1.9,0.7-2.9c0.7-1.4,1.8-2.4,3.3-3.1c0.8-0.3,1.5-0.5,2.3-0.6C203.8,371.9,203.9,371.9,204,371.9
	z M220.5,363.9c0,3-2,5.6-5,6.3c-2,0.5-4.1,0.1-5.6-1c-1.3-0.9-2-2-2.5-3.3c-0.2-0.6-0.4-1.4-0.4-2c0-3.6,3-6.5,6.7-6.5
	c1.9,0,3.7,0.8,4.9,2C219.8,360.4,220.5,362.2,220.5,363.9z M301.9,385.3c-3.8,0-6.7-2.9-6.7-6.5c0-0.2,0-0.4,0-0.6
	c0.3-3.4,3.2-5.9,6.7-5.9c0.3,0,0.6,0,0.9,0c3.4,0.5,5.9,3.2,5.9,6.5c0,0.2,0,0.4,0,0.6c-0.2,1.6-1,3.2-2.2,4.2
	c-1,0.9-2.2,1.5-3.6,1.6C302.6,385.2,302.2,385.3,301.9,385.3z M285.7,394.3c0-3.6,3-6.5,6.7-6.5c3,0,5.5,1.8,6.4,4.3
	c0.3,0.7,0.4,1.4,0.4,2.1c0,3.6-3,6.5-6.7,6.5c-2.1,0-4-1-5.2-2.4C286.2,397.2,285.7,395.8,285.7,394.3z M285.7,364
	c0-1.8,0.8-3.4,1.9-4.6c1.3-1.2,3-1.9,4.8-1.9c3.8,0,6.7,2.9,6.7,6.5c0,0.6-0.1,1.3-0.3,1.8c-0.8,2.7-3.4,4.7-6.5,4.7
	C288.6,370.5,285.7,367.6,285.7,364z M264.5,371.9c3.8,0,6.7,2.9,6.7,6.5s-3.1,6.5-6.7,6.5c-0.2,0-0.5,0-0.7,0
	c-3.4-0.4-6.1-3.1-6.1-6.5c0-1,0.3-1.9,0.7-2.9c0.7-1.4,1.8-2.4,3.3-3.1c0.8-0.3,1.5-0.5,2.3-0.6
	C264.1,371.9,264.3,371.9,264.5,371.9z M280.9,363.9c0,3-2,5.6-5,6.3c-2,0.5-4,0.1-5.6-1c-1.3-0.9-2-2-2.5-3.3
	c-0.2-0.6-0.4-1.4-0.4-2c0-3.6,3-6.5,6.7-6.5c1.9,0,3.7,0.8,4.9,2C280.2,360.4,280.9,362.2,280.9,363.9z M274.1,400.9
	c-3.7,0-6.7-2.9-6.7-6.5c0-0.9,0.2-1.6,0.5-2.4c1-2.4,3.4-4.1,6.3-4.1c3.8,0,6.7,2.9,6.7,6.5c0,1.5-0.6,3-1.5,4.1
	C278.1,399.9,276.2,400.9,274.1,400.9z M225.2,394.3c0-3.6,3-6.5,6.7-6.5c3,0,5.5,1.8,6.4,4.3c0.3,0.7,0.4,1.4,0.4,2.1
	c0,3.6-3,6.5-6.7,6.5c-2.1,0-3.9-1-5.2-2.4C225.7,397.2,225.2,395.8,225.2,394.3z M238.8,364c0,0.6-0.1,1.3-0.3,1.8
	c-0.8,2.7-3.4,4.7-6.4,4.7c-3.8,0-6.7-2.9-6.7-6.5c0-1.8,0.8-3.4,1.9-4.6c1.3-1.2,3-1.9,4.8-1.9C235.7,357.4,238.8,360.2,238.8,364z
	 M248.5,378.7c0,0.2,0,0.4,0,0.6c-0.2,1.6-1,3.2-2.2,4.2c-1,0.9-2.2,1.5-3.6,1.6c-0.3,0-0.7,0.1-1,0.1c-3.8,0-6.7-2.9-6.7-6.5
	c0-0.2,0-0.4,0-0.6c0.3-3.4,3.2-5.9,6.7-5.9c0.3,0,0.6,0,0.9,0C245.8,372.6,248.5,375.3,248.5,378.7z"/>
<g>
	<g>
		<path class="st6" d="M122,241.3c-0.7,1.2-1.6,2.6-2.6,4.1s-2.3,3-3.8,4.3s-4.5,2.6-8,3.4c-2.3,0.5-5.3,0.3-8.1,0.4
			c1.2,1.2,2.3,2.6,3.2,4.3c0.9,1.4,1.6,3.2,2.4,5.4c0.7,2.2,1.1,4.6,1.2,7.4c0,1.6-0.2,3.3-0.7,5.1c-0.5,1.8-1.2,3.4-2.1,5
			c-0.9,1.5-2.1,2.8-3.5,3.8s-3,1.5-4.8,1.6c-1.6,0.1-3.4-0.2-5.4-0.9c-2-0.7-3.8-1.8-5.5-3.5s-3.1-3.9-4.3-6.6
			c-1.2-2.7-1.8-6.2-1.9-10.3c-0.2-6.9,0.2-14.2,1-21.8s2-15.1,3.5-22.4c1.5-7.3,3.4-14.3,5.6-21c2.2-6.6,4.6-12.5,7.1-17.5
			c2.6-5,6.6-12.7,7.9-16.6c2.9-8.5,6.9-12.9,9.7-13c1.3,0,2.4,2.4,3.6,3.1c1.2,0.7,2.4,1.6,3.4,2.7c1,1.1,1.8,2.3,2.4,3.6
			s1,2.5,1,3.6c0,1.8-1.2,14.9-2,17.7c-0.8,2.9-2,6-3.4,9.4s-3.1,7-5,10.8s-3.9,7.4-6,10.8c-2.1,3.5-4.3,6.7-6.5,9.7
			s-4.3,5.5-6.3,7.4c-0.6,2-1,4.1-1.3,6.3s-0.5,4.5-0.6,6.7c0.5,0.8,1.2,1.4,1.9,1.9c0.6,0.4,1.4,0.8,2.3,1.1c0.9,0.4,1.3,1.1,2.5,1
			c1.9-0.1,4.9,0.1,6.6-0.2c3.5-0.6,5.6-2.1,6.8-3.2c1.2-1.1,1.1-1.3,2.4-2.4c1.8-1.6,3.2-4,4-5.2c0.1-0.3,0.5,0.1,0.8-0.3
			c0.1-0.2-0.3,0.2,0,0s0.6-1.6,1-1.6c0.6,0,1.1,0.2,1.6,0.7s0.8,1.1,0.8,1.8c0,0.3,0,0.7-0.1,1s-0.2,0.6-0.4,1
			C122.3,240.5,122.1,240.9,122,241.3z M91.1,251.4c-0.1,1.7-0.2,3.5-0.3,5.3c-0.1,1.5-0.2,3.2-0.2,5.1c0,1.8,0,3.6,0,5.3
			c0.1,5.1,0.7,8.5,1.8,10.5c1.1,1.9,2.1,2.9,3,2.8c0.7,0,1.2-0.3,1.7-0.9s0.8-1.3,1.1-2.2c0.3-0.9,0.5-1.8,0.6-2.9s0.2-2.1,0.1-3.2
			c-0.1-2.7-0.5-5.3-1.4-7.8c-0.8-2.5-1.7-4.6-2.7-6.3C93.8,255.1,92.5,253.1,91.1,251.4z M116.8,176.4c0-1.7,0-13.3-1.6-13.2
			c-1,0-1.4-1.8-3.8,0.1c-5,3.9-9.3,27.5-10.9,32c-1.6,4.4,2.2,3.1,0.6,8.7c-1.6,5.6-3,11.2-4.3,16.9c1.2-1.1,2.5-2.7,4-5
			s3-4.8,4.5-7.7c1.5-2.8,2.9-5.8,4.3-9s2.6-6.2,3.7-9.1c1.1-2.9,2-5.6,2.6-8C116.5,179.6,116.8,177.7,116.8,176.4z"/>
		<path class="st6" d="M147.6,245.2c0,1.4,0.4,2.4,1.2,3.1c0.7,0.7,1.7,1,2.9,1c1.6,0,3.1-0.6,4.7-1.7c1.5-1.1,2.9-2.3,4-3.7
			c1.4-1.5,2.6-3.2,3.8-5.2c0.1-0.2,0.3-0.5,0.6-0.9c0.2-0.2,0.4-0.3,0.7-0.6c0.3-0.2,0.7-0.3,1.1-0.3c0.6,0,1.2,0.2,1.7,0.7
			s0.8,1,0.8,1.6c0,0.3,0,0.6-0.2,0.9c-0.1,0.3-0.2,0.6-0.4,0.9c-0.2,0.3-0.3,0.7-0.4,1.1c-1.7,2.8-3.5,5.4-5.6,7.6
			c-1.8,1.9-3.9,3.6-6.3,5.2c-2.5,1.6-5.2,2.4-8.1,2.5c-2.3,0.1-4.4-0.2-6.2-0.8c-1.8-0.6-3.5-1.4-4.8-2.4c-1.4-1-2.4-2.3-3.2-3.7
			s-1.2-2.9-1.2-4.6c-0.1-2.6,0.3-5.1,1-7.4c0.7-2.3,1.5-4.5,2.4-6.4s1.7-3.6,2.4-5.1c0.8-1.5,1.1-2.7,1.1-3.7
			c0-0.6-0.4-1.1-1.2-1.4c-0.8-0.3-1.6-0.5-2.5-0.8c-1-0.2-2.2-0.4-3.6-0.5c-2.1,5.9-4.2,10.7-6.1,14.4c-2,3.8-3.5,6.6-4.8,8.4
			c-0.2,0.2-0.4,0.6-0.9,1.1c-0.4,0.5-1,0.7-1.7,0.8c-0.6,0-1.2-0.2-1.7-0.7s-0.8-1.1-0.8-1.7c0-0.6,0.1-1.1,0.5-1.6
			c0.3-0.5,0.6-1,0.7-1.3c1.1-1.6,2.6-4.2,4.5-7.7s3.7-8.1,5.3-13.8c-0.8-0.5-1.5-1.2-2.1-2.1c-0.5-0.7-1-1.6-1.4-2.7
			c-0.4-1.1-0.7-2.4-0.7-3.9c0-1.2,0.2-2.3,0.6-3.4c0.4-1.1,1-2,1.6-2.8c0.7-0.8,1.4-1.5,2.2-2c0.8-0.5,1.5-0.8,2.2-0.8
			c0.8,0,1.6,0.2,2.5,0.6c0.9,0.4,1.7,0.9,2.4,1.5s1.3,1.2,1.8,2c0.5,0.7,0.8,1.4,0.8,1.9c0,1.6-0.2,2.9-0.7,4c-0.5,1-0.7,2-0.7,3
			c0,0.9,0.5,1.5,1.5,1.9s2.2,0.5,3.6,0.5c1.3,0,2.5-0.2,3.4-0.3c0.9-0.2,1.7-0.4,2.4-0.6c0.7-0.2,1.4-0.4,2-0.6
			c0.6-0.2,1.3-0.3,2-0.3c1.4,0,2.6,0.5,3.6,1.6c0.9,1.1,1.4,2.4,1.5,4c0,1.4-0.4,3-1.2,4.9c-0.9,1.9-1.8,4-2.9,6.2
			c-1,2.3-2,4.6-2.8,7.1C147.9,240.4,147.5,242.8,147.6,245.2z"/>
		<path class="st6" d="M224.5,240.4c-1.7,2.8-3.5,5.4-5.6,7.6c-1.8,1.9-3.9,3.6-6.3,5.2c-2.5,1.6-5.2,2.4-8.1,2.5
			c-3.3,0.1-6.2-0.7-8.5-2.3c-2.4-1.6-3.8-4.1-4.3-7.4c-1.5,2-3.2,3.8-5,5.3c-1.6,1.3-3.3,2.5-5.3,3.6c-2,1.1-4.1,1.7-6.4,1.7
			c-1.6,0-3.1-0.2-4.6-0.8c-1.5-0.6-2.8-1.4-3.9-2.4c-1.1-1.1-2-2.4-2.7-3.9s-1-3.1-1.1-5c-0.1-4.3,0.6-8.6,2.1-12.8
			c1.5-4.3,3.5-8.1,6-11.6s5.4-6.3,8.6-8.4c3.2-2.2,6.4-3.3,9.7-3.4c2.4-0.1,4.4,0.2,6.1,0.7c1.7,0.5,3.1,1.2,4.1,1.8
			c1.2,0.8,2.2,1.7,2.9,2.7c0.9,0,1.8,0,2.8,0.2s1.9,0.5,2.8,0.9c0.8,0.4,1.6,1,2.1,1.7c0.6,0.7,0.9,1.6,0.9,2.6
			c0,0.9-0.3,2.3-0.9,4.3c-0.7,2-1.4,4.2-2.2,6.7c-0.8,2.4-1.5,5-2.2,7.6c-0.6,2.6-0.9,4.9-0.9,6.9c0,1,0.3,1.7,1,2.4
			c0.6,0.6,1.4,0.9,2.5,0.9c1.6,0,3.1-0.6,4.7-1.7c1.5-1.1,2.9-2.3,4-3.7c1.4-1.5,2.6-3.2,3.8-5.2c0.1-0.2,0.3-0.5,0.6-0.9
			c0.2-0.2,0.4-0.3,0.7-0.6c0.3-0.2,0.7-0.3,1.1-0.3c0.6,0,1.2,0.2,1.7,0.7s0.8,1,0.8,1.6c0,0.3,0,0.6-0.2,0.9
			c-0.1,0.3-0.2,0.6-0.4,0.9C224.8,239.6,224.7,240,224.5,240.4z M196.3,220.1c-0.1-1.7-0.5-3-1.4-3.8s-1.9-1.2-3.1-1.2
			c-1.7,0.1-3.5,1-5.3,2.9s-3.4,4.2-4.7,6.9c-1.4,2.7-2.5,5.6-3.4,8.7c-0.9,3.1-1.3,5.9-1.2,8.4c0.1,3.6,1.3,5.3,3.6,5.3
			c1.4,0,3-1,4.9-3c1.8-2,3.5-4.4,5.1-7.2s2.9-5.8,4-8.9C195.9,225.1,196.4,222.4,196.3,220.1z"/>
		<path class="st6" d="M262.4,241.4c0,1.4,0.4,2.4,1.1,3.2s1.6,1.2,2.8,1.2c1.6,0,3.1-0.6,4.7-1.7c1.5-1.1,2.9-2.3,4-3.7
			c1.4-1.5,2.6-3.2,3.8-5.2c0.1-0.2,0.3-0.5,0.6-0.9c0.2-0.2,0.4-0.3,0.7-0.6c0.3-0.2,0.7-0.3,1.1-0.3c0.6,0,1.2,0.2,1.7,0.7
			s0.8,1,0.8,1.6c0,0.3,0,0.6-0.2,0.9c-0.1,0.3-0.2,0.6-0.4,0.9c-0.2,0.3-0.3,0.7-0.4,1.1c-1.7,2.8-3.5,5.4-5.6,7.6
			c-1.8,1.9-3.9,3.6-6.3,5.2c-2.5,1.6-5.2,2.4-8.1,2.5c-4.5,0.1-8.2-0.9-11.1-3.2c-2.8-2.3-4.3-5.1-4.4-8.4
			c-0.1-2.5,0.2-4.8,0.7-7.1c0.6-2.3,1.2-4.5,1.9-6.7s1.3-4.2,1.9-6.2c0.6-2,0.8-3.9,0.8-5.7c0-0.6-0.3-1-0.8-1.3s-1-0.5-1.7-0.5
			c-1.8,0.1-3.8,1-5.8,2.7c-2.1,1.8-4,4.3-5.7,7.6c-1.8,3.3-3.2,7.2-4.3,11.8s-1.6,9.8-1.4,15.5c0,1-0.2,1.7-0.6,2
			c-0.4,0.3-1.1,0.5-2,0.5c-3.2,0.1-5.9-0.4-8-1.6c-2.2-1.2-3.3-2.7-3.3-4.6c-0.1-3.3,0.2-6.9,0.8-10.6c0.6-3.7,1.4-7.3,2.4-10.8
			c0.9-3.5,1.9-6.7,2.9-9.7s1.8-5.3,2.5-7c0.6-1.5,1.6-2.3,3.1-2.4c0.9,0,2,0.3,3.5,1c1.4,0.7,3.1,2.4,5,5.2c1.6-1.5,3.5-2.8,5.5-4
			c1.7-1,3.7-1.9,5.9-2.8c2.2-0.9,4.6-1.3,7.1-1.4c1.3,0,2.5,0.2,3.8,0.8c1.2,0.6,2.4,1.4,3.3,2.3c1,1,1.8,2,2.4,3.2
			s0.9,2.4,0.9,3.5c0.1,1.8-0.2,3.8-0.8,5.8c-0.6,2-1.3,4.2-2,6.3c-0.7,2.2-1.3,4.4-2,6.6C262.7,237.1,262.4,239.3,262.4,241.4z"/>
		<path class="st6" d="M326.8,237.4c-1.7,2.3-3.6,4.4-5.8,6.5c-1.9,1.7-4.2,3.4-6.9,5c-2.7,1.6-5.9,2.8-9.4,3.4
			c0,0.9,0.2,1.8,0.5,2.8c0.3,1,0.9,1.5,1.8,1.4c1,0,2-0.1,3-0.3c1.1-0.2,2-0.3,2.9-0.3c1.1,0,2,0.3,2.5,1.1
			c0.6,0.7,0.9,1.7,0.9,2.9c0,1.5-0.3,3.2-1,5s-1.9,3.6-3.5,5.2s-3.5,3-5.9,4.2c-2.4,1.1-5.1,1.8-8.3,1.9c-2.5,0.1-4.5-0.4-6.1-1.3
			s-2.4-2.2-2.5-3.8c0-1.3,0.4-2.4,1.2-3.4c0.8-1,1.8-1.5,2.9-1.6c0.8,0,1.4,0.1,1.9,0.5c0.5,0.3,1,0.7,1.4,1.2s1,0.9,1.6,1.2
			c0.6,0.3,1.6,0.5,2.8,0.5c1.2,0,2.4-0.3,3.6-0.8s2.2-1.1,3.1-1.8c0.9-0.7,1.6-1.4,2.1-2c0.5-0.7,0.8-1.1,0.8-1.5s-0.2-0.6-0.6-0.6
			c-1.7,0.1-3.5,0.4-5.2,1s-3.2,1-4.6,1c-1,0-1.7-0.3-2.2-0.9c-0.5-0.7-0.8-1.3-0.8-1.9c0-1.3,0.1-2.8,0.3-4.7
			c0.3-1.8,0.5-3.3,0.7-4.4c-2.4-0.1-4.7-0.5-7.1-1.1c-2.3-0.6-4.4-1.7-6.3-3c-1.9-1.4-3.4-3.2-4.6-5.3c-1.2-2.2-1.8-4.8-1.9-7.9
			c-0.1-4,0.6-7.8,2.1-11.4c1.5-3.7,3.5-6.9,6-9.7s5.3-5,8.4-6.7s6.2-2.6,9.2-2.7c2.1-0.1,4.1,0.2,5.7,0.8c1.7,0.6,3.1,1.5,4.3,2.6
			c1.2,1.1,2.1,2.3,2.8,3.7c0.7,1.4,1,2.7,1.1,4.1c0,1-0.2,2.1-0.6,3.2c-0.4,1.1-1,2.1-1.6,3c-0.7,0.9-1.4,1.6-2.3,2.2
			c-0.8,0.6-1.6,0.9-2.4,0.9c-1.6,0-3-0.4-4.3-1.4s-1.9-2.1-1.9-3.5c0-1,0.2-1.9,0.6-2.5c0.5-0.6,1-1.2,1.6-1.8
			c0.6-0.5,1.1-1,1.6-1.5s0.7-1,0.7-1.6s-0.4-1.2-1.1-1.7s-1.5-0.7-2.5-0.7c-1.7,0.1-3.4,0.8-5,2.1c-1.6,1.4-3,3.1-4.2,5.3
			s-2.2,4.6-2.9,7.3c-0.7,2.7-1,5.4-1,8.1c0.1,4.1,1.3,7.2,3.7,9.1c2.3,1.9,5.1,2.8,8.5,2.7c2.7-0.1,5.1-0.7,7.3-1.9
			c2.2-1.2,4.1-2.5,5.6-3.9c1.9-1.6,3.5-3.5,4.8-5.6c0.2-0.2,0.4-0.5,0.7-0.9c0.2-0.2,0.5-0.4,0.8-0.6c0.3-0.2,0.7-0.3,1.1-0.3
			c0.7,0,1.3,0.2,1.8,0.7s0.7,1,0.8,1.6c0,0.3-0.1,0.6-0.2,0.9c-0.2,0.3-0.3,0.6-0.5,0.9C327.1,236.6,326.9,237,326.8,237.4z"/>
		<path class="st6" d="M383.3,235.7c-1.7,2.8-3.5,5.4-5.6,7.6c-1.8,1.9-3.9,3.6-6.3,5.2c-2.5,1.6-5.2,2.4-8.1,2.5
			c-3.3,0.1-6.2-0.7-8.5-2.3c-2.4-1.6-3.8-4.1-4.3-7.4c-1.5,2-3.2,3.8-5,5.3c-1.6,1.3-3.3,2.5-5.3,3.6s-4.1,1.7-6.4,1.7
			c-1.6,0-3.1-0.2-4.6-0.8s-2.8-1.4-3.9-2.4c-1.1-1.1-2-2.4-2.7-3.9s-1-3.1-1.1-5c-0.1-4.3,0.6-8.6,2.1-12.8c1.5-4.3,3.5-8.1,6-11.6
			s5.4-6.3,8.6-8.4c3.2-2.2,6.4-3.3,9.7-3.4c2.4-0.1,4.4,0.2,6.1,0.7s3.1,1.2,4.1,1.8c1.2,0.8,2.2,1.7,2.9,2.7c0.9,0,1.8,0,2.8,0.2
			s1.9,0.5,2.8,0.9c0.8,0.4,1.6,1,2.1,1.7c0.6,0.7,0.9,1.6,0.9,2.6c0,0.9-0.3,2.3-0.9,4.3c-0.7,2-1.4,4.2-2.2,6.7
			c-0.8,2.4-1.5,5-2.2,7.6c-0.6,2.6-0.9,4.9-0.9,6.9c0,1,0.3,1.7,1,2.4c0.6,0.6,1.4,0.9,2.5,0.9c1.6,0,3.1-0.6,4.7-1.7
			c1.5-1.1,2.9-2.3,4-3.7c1.4-1.5,2.6-3.2,3.8-5.2c0.1-0.2,0.3-0.5,0.6-0.9c0.2-0.2,0.4-0.3,0.7-0.6c0.3-0.2,0.7-0.3,1.1-0.3
			c0.6,0,1.2,0.2,1.7,0.7s0.8,1,0.8,1.6c0,0.3,0,0.6-0.2,0.9c-0.1,0.3-0.2,0.6-0.4,0.9C383.6,234.9,383.5,235.3,383.3,235.7z
			 M355.1,215.4c-0.1-1.7-0.5-3-1.4-3.8s-1.9-1.2-3.1-1.2c-1.7,0.1-3.5,1-5.3,2.9s-3.4,4.2-4.7,6.9c-1.4,2.7-2.5,5.6-3.4,8.7
			c-0.9,3.1-1.3,5.9-1.2,8.4c0.1,3.6,1.3,5.3,3.6,5.3c1.4,0,3-1,4.9-3c1.8-2,3.5-4.4,5.1-7.2s2.9-5.8,4-8.9S355.2,217.7,355.1,215.4
			z"/>
		<path class="st6" d="M393.2,237.5c0,1.4,0.4,2.4,1.1,3.2s1.6,1.2,2.8,1.2c1.6,0,3.1-0.6,4.7-1.7c1.5-1.1,2.9-2.3,4-3.7
			c1.4-1.5,2.6-3.2,3.8-5.2c0.1-0.2,0.3-0.5,0.6-0.9c0.2-0.2,0.4-0.3,0.7-0.6c0.3-0.2,0.7-0.3,1.1-0.3c0.6,0,1.2,0.2,1.7,0.7
			s0.8,1,0.8,1.6c0,0.3,0,0.6-0.2,0.9c-0.1,0.3-0.2,0.6-0.4,0.9c-0.2,0.3-0.3,0.7-0.4,1.1c-1.7,2.8-3.5,5.4-5.6,7.6
			c-1.8,1.9-3.9,3.6-6.3,5.2c-2.5,1.6-5.2,2.4-8.1,2.5c-4.5,0.1-8.2-1-11.1-3.3c-2.8-2.3-4.3-5.5-4.4-9.3c-0.1-2.1,0.2-4.7,0.8-7.8
			c0.6-3,1.4-6.1,2.2-9.2c0.9-3.1,1.8-6.1,2.8-8.9c1-2.8,1.8-5.1,2.5-6.8c0.3-0.6,0.7-1.2,1.3-1.6c0.5-0.5,1.2-0.7,1.9-0.7
			c0.9,0,1.9,0.2,3,0.7s2.2,1.1,3.2,1.8s1.8,1.4,2.4,2.1c0.7,0.7,1,1.3,1,1.8c0.1,1.8-0.2,3.8-0.9,5.9c-0.7,2.1-1.4,4.4-2.1,6.8
			c-0.8,2.4-1.4,5-2,7.6C393.3,231.9,393.1,234.7,393.2,237.5z M408.7,179.7c0,1.6-0.2,3.1-0.6,4.6c-0.5,1.5-1.2,2.8-2,4
			c-0.9,1.2-1.9,2.1-3,2.8s-2.3,1.1-3.6,1.1c-1.7,0.1-3.3-0.5-4.6-1.7c-1.3-1.2-2-2.8-2-4.9c0-1.5,0.2-3,0.7-4.4s1.2-2.8,2.1-3.9
			c0.9-1.2,1.9-2.1,3.1-2.8s2.4-1.1,3.8-1.1c1.7-0.1,3.2,0.5,4.4,1.7C408,176.2,408.6,177.7,408.7,179.7z"/>
		<path class="st6" d="M428.9,249.8c-2.9,0.1-5.7-0.4-8.4-1.5c-2.7-1.1-5-2.5-7-4.1c-2-1.7-3.6-3.5-4.8-5.6c-1.2-2-1.8-3.9-1.9-5.7
			c0-1.7,0.5-3.2,1.7-4.5c1.2-1.2,2.4-2.3,3.8-3.1c1.6-0.9,3.5-1.7,5.7-2.3c0.5-0.8,1.1-1.8,1.8-3c0.6-1,1.4-2.4,2.4-3.9
			c1-1.6,2.1-3.5,3.4-5.6c2.7-4.3,5-7.3,6.9-9s3.7-2.6,5.2-2.6c0.6,0,1.3,0.1,2,0.5c0.7,0.3,1.3,0.7,1.9,1.2s1.1,0.9,1.5,1.4
			s0.6,0.9,0.6,1.2c0,0.4-0.1,0.9-0.4,1.5s-0.6,1.3-1,1.9c-0.3,0.7-0.6,1.4-0.9,2.2s-0.4,1.5-0.3,2.3c0.1,2.4,0.4,4.4,0.9,6.2
			c0.5,1.7,1.1,3.4,1.7,4.9s1.2,3,1.7,4.5s0.8,3.1,0.9,4.9c0.1,2.5-0.3,4.9-1,7.1c-0.7,2.2-1.8,4.1-3.3,5.8
			c-1.5,1.6-3.3,2.9-5.5,3.9C434.3,249.2,431.8,249.7,428.9,249.8z M428.1,216c-1.6,2.6-3,4.9-4.2,7c-1.1,1.9-2,3.6-2.9,5.2
			c-0.9,1.6-1.3,2.6-1.3,3c0.1,1.7,0.2,3.4,0.4,5.1c0.2,1.6,0.6,3.1,1.1,4.3c0.5,1.3,1.1,2.3,1.9,3c0.7,0.7,1.7,1.1,2.8,1
			c1.8-0.1,3.4-1.1,4.6-3.1c1.3-2,1.8-4.4,1.8-7.1c0-1.5-0.3-3.1-0.7-4.7c-0.4-1.7-0.9-3.3-1.4-4.9c-0.5-1.6-0.9-3.2-1.4-4.7
			C428.3,218.5,428.1,217.2,428.1,216z"/>
	</g>
	<g>
		<path class="st6" d="M119.2,236.7c-0.7,1.2-1.6,2.6-2.6,4.1s-2.3,3-3.8,4.3s-4.5,2.6-8,3.4c-2.3,0.5-5.3,0.3-8.1,0.4
			c1.2,1.2,2.3,2.6,3.2,4.3c0.9,1.4,1.6,3.2,2.4,5.4c0.7,2.2,1.1,4.6,1.2,7.4c0,1.6-0.2,3.3-0.7,5.1c-0.5,1.8-1.2,3.4-2.1,5
			c-0.9,1.5-2.1,2.8-3.5,3.8s-3,1.5-4.8,1.6c-1.6,0.1-3.4-0.2-5.4-0.9c-2-0.7-3.8-1.8-5.5-3.5s-3.1-3.9-4.3-6.6
			c-1.2-2.7-1.8-6.2-1.9-10.3c-0.2-6.9,0.2-14.2,1-21.8s2-15.1,3.5-22.4c1.5-7.3,3.4-14.3,5.6-21c2.2-6.6,4.6-12.5,7.1-17.5
			c2.6-5,6.6-12.7,7.9-16.6c2.9-8.5,6.9-12.9,9.7-13c1.3,0,2.4,2.4,3.6,3.1c1.2,0.7,2.4,1.6,3.4,2.7c1,1.1,1.8,2.3,2.4,3.6
			s1,2.5,1,3.6c0,1.8-1.2,14.9-2,17.7c-0.8,2.9-2,6-3.4,9.4s-3.1,7-5,10.8s-3.9,7.4-6,10.8c-2.1,3.5-4.3,6.7-6.5,9.7
			s-4.3,5.5-6.3,7.4c-0.6,2-1,4.1-1.3,6.3s-0.5,4.5-0.6,6.7c0.5,0.8,1.2,1.4,1.9,1.9c0.6,0.4,1.4,0.8,2.3,1.1c0.9,0.4,1.3,1.1,2.5,1
			c1.9-0.1,4.9,0.1,6.6-0.2c3.5-0.6,5.6-2.1,6.8-3.2c1.2-1.1,1.1-1.3,2.4-2.4c1.8-1.6,3.2-4,4-5.2c0.1-0.3,0.5,0.1,0.8-0.3
			c0.1-0.2-0.3,0.2,0,0s0.6-1.6,1-1.6c0.6,0,1.1,0.2,1.6,0.7s0.8,1.1,0.8,1.8c0,0.3,0,0.7-0.1,1s-0.2,0.6-0.4,1
			C119.5,235.8,119.3,236.2,119.2,236.7z M88.3,246.7c-0.1,1.7-0.2,3.5-0.3,5.3c-0.1,1.5-0.2,3.2-0.2,5.1c0,1.8,0,3.6,0,5.3
			c0.1,5.1,0.7,8.5,1.8,10.5c1.1,1.9,2.1,2.9,3,2.8c0.7,0,1.2-0.3,1.7-0.9s0.8-1.3,1.1-2.2c0.3-0.9,0.5-1.8,0.6-2.9s0.2-2.1,0.1-3.2
			c-0.1-2.7-0.5-5.3-1.4-7.8c-0.8-2.5-1.7-4.6-2.7-6.3C91,250.4,89.7,248.4,88.3,246.7z M114,171.7c0-1.7,0-13.3-1.6-13.2
			c-1,0-1.4-1.8-3.8,0.1c-5,3.9-9.3,27.5-10.9,32c-1.6,4.4,2.2,3.1,0.6,8.7c-1.6,5.6-3,11.2-4.3,16.9c1.2-1.1,2.5-2.7,4-5
			s3-4.8,4.5-7.7c1.5-2.8,2.9-5.8,4.3-9s2.6-6.2,3.7-9.1c1.1-2.9,2-5.6,2.6-8C113.7,174.9,114,173,114,171.7z"/>
		<path class="st6" d="M144.8,240.5c0,1.4,0.4,2.4,1.2,3.1c0.7,0.7,1.7,1,2.9,1c1.6,0,3.1-0.6,4.7-1.7c1.5-1.1,2.9-2.3,4-3.7
			c1.4-1.5,2.6-3.2,3.8-5.2c0.1-0.2,0.3-0.5,0.6-0.9c0.2-0.2,0.4-0.3,0.7-0.6c0.3-0.2,0.7-0.3,1.1-0.3c0.6,0,1.2,0.2,1.7,0.7
			s0.8,1,0.8,1.6c0,0.3,0,0.6-0.2,0.9c-0.1,0.3-0.2,0.6-0.4,0.9c-0.2,0.3-0.3,0.7-0.4,1.1c-1.7,2.8-3.5,5.4-5.6,7.6
			c-1.8,1.9-3.9,3.6-6.3,5.2c-2.5,1.6-5.2,2.4-8.1,2.5c-2.3,0.1-4.4-0.2-6.2-0.8s-3.5-1.4-4.8-2.4c-1.4-1-2.4-2.3-3.2-3.7
			s-1.2-2.9-1.2-4.6c-0.1-2.6,0.3-5.1,1-7.4c0.7-2.3,1.5-4.5,2.4-6.4s1.7-3.6,2.4-5.1c0.8-1.5,1.1-2.7,1.1-3.7
			c0-0.6-0.4-1.1-1.2-1.4c-0.8-0.3-1.6-0.5-2.5-0.8c-1-0.2-2.2-0.4-3.6-0.5c-2.1,5.9-4.2,10.7-6.1,14.4c-2,3.8-3.5,6.6-4.8,8.4
			c-0.2,0.2-0.4,0.6-0.9,1.1c-0.4,0.5-1,0.7-1.7,0.8c-0.6,0-1.2-0.2-1.7-0.7s-0.8-1.1-0.8-1.7c0-0.6,0.1-1.1,0.5-1.6
			c0.3-0.5,0.6-1,0.7-1.3c1.1-1.6,2.6-4.2,4.5-7.7s3.7-8.1,5.3-13.8c-0.8-0.5-1.5-1.2-2.1-2.1c-0.5-0.7-1-1.6-1.4-2.7
			c-0.4-1.1-0.7-2.4-0.7-3.9c0-1.2,0.2-2.3,0.6-3.4c0.4-1.1,1-2,1.6-2.8c0.7-0.8,1.4-1.5,2.2-2c0.8-0.5,1.5-0.8,2.2-0.8
			c0.8,0,1.6,0.2,2.5,0.6c0.9,0.4,1.7,0.9,2.4,1.5s1.3,1.2,1.8,2c0.5,0.7,0.8,1.4,0.8,1.9c0,1.6-0.2,2.9-0.7,4c-0.5,1-0.7,2-0.7,3
			c0,0.9,0.5,1.5,1.5,1.9s2.2,0.5,3.6,0.5c1.3,0,2.5-0.2,3.4-0.3c0.9-0.2,1.7-0.4,2.4-0.6c0.7-0.2,1.4-0.4,2-0.6
			c0.6-0.2,1.3-0.3,2-0.3c1.4,0,2.6,0.5,3.6,1.6c0.9,1.1,1.4,2.4,1.5,4c0,1.4-0.4,3-1.2,4.9c-0.9,1.9-1.8,4-2.9,6.2
			c-1,2.3-2,4.6-2.8,7.1C145.1,235.7,144.7,238.1,144.8,240.5z"/>
		<path class="st6" d="M221.7,235.7c-1.7,2.8-3.5,5.4-5.6,7.6c-1.8,1.9-3.9,3.6-6.3,5.2c-2.5,1.6-5.2,2.4-8.1,2.5
			c-3.3,0.1-6.2-0.7-8.5-2.3c-2.4-1.6-3.8-4.1-4.3-7.4c-1.5,2-3.2,3.8-5,5.3c-1.6,1.3-3.3,2.5-5.3,3.6s-4.1,1.7-6.4,1.7
			c-1.6,0-3.1-0.2-4.6-0.8s-2.8-1.4-3.9-2.4c-1.1-1.1-2-2.4-2.7-3.9s-1-3.1-1.1-5c-0.1-4.3,0.6-8.6,2.1-12.8c1.5-4.3,3.5-8.1,6-11.6
			s5.4-6.3,8.6-8.4c3.2-2.2,6.4-3.3,9.7-3.4c2.4-0.1,4.4,0.2,6.1,0.7c1.7,0.5,3.1,1.2,4.1,1.8c1.2,0.8,2.2,1.7,2.9,2.7
			c0.9,0,1.8,0,2.8,0.2s1.9,0.5,2.8,0.9c0.8,0.4,1.6,1,2.1,1.7c0.6,0.7,0.9,1.6,0.9,2.6c0,0.9-0.3,2.3-0.9,4.3
			c-0.7,2-1.4,4.2-2.2,6.7c-0.8,2.4-1.5,5-2.2,7.6c-0.6,2.6-0.9,4.9-0.9,6.9c0,1,0.3,1.7,1,2.4c0.6,0.6,1.4,0.9,2.5,0.9
			c1.6,0,3.1-0.6,4.7-1.7c1.5-1.1,2.9-2.3,4-3.7c1.4-1.5,2.6-3.2,3.8-5.2c0.1-0.2,0.3-0.5,0.6-0.9c0.2-0.2,0.4-0.3,0.7-0.6
			c0.3-0.2,0.7-0.3,1.1-0.3c0.6,0,1.2,0.2,1.7,0.7s0.8,1,0.8,1.6c0,0.3,0,0.6-0.2,0.9c-0.1,0.3-0.2,0.6-0.4,0.9
			C222,235,221.9,235.3,221.7,235.7z M193.5,215.5c-0.1-1.7-0.5-3-1.4-3.8s-1.9-1.2-3.1-1.2c-1.7,0.1-3.5,1-5.3,2.9
			s-3.4,4.2-4.7,6.9c-1.4,2.7-2.5,5.6-3.4,8.7c-0.9,3.1-1.3,5.9-1.2,8.4c0.1,3.6,1.3,5.3,3.6,5.3c1.4,0,3-1,4.9-3
			c1.8-2,3.5-4.4,5.1-7.2s2.9-5.8,4-8.9C193.1,220.5,193.6,217.8,193.5,215.5z"/>
		<path class="st6" d="M259.6,236.7c0,1.4,0.4,2.4,1.1,3.2s1.6,1.2,2.8,1.2c1.6,0,3.1-0.6,4.7-1.7c1.5-1.1,2.9-2.3,4-3.7
			c1.4-1.5,2.6-3.2,3.8-5.2c0.1-0.2,0.3-0.5,0.6-0.9c0.2-0.2,0.4-0.3,0.7-0.6c0.3-0.2,0.7-0.3,1.1-0.3c0.6,0,1.2,0.2,1.7,0.7
			s0.8,1,0.8,1.6c0,0.3,0,0.6-0.2,0.9c-0.1,0.3-0.2,0.6-0.4,0.9c-0.2,0.3-0.3,0.7-0.4,1.1c-1.7,2.8-3.5,5.4-5.6,7.6
			c-1.8,1.9-3.9,3.6-6.3,5.2c-2.5,1.6-5.2,2.4-8.1,2.5c-4.5,0.1-8.2-0.9-11.1-3.2c-2.8-2.3-4.3-5.1-4.4-8.4
			c-0.1-2.5,0.2-4.8,0.7-7.1c0.6-2.3,1.2-4.5,1.9-6.7s1.3-4.2,1.9-6.2c0.6-2,0.8-3.9,0.8-5.7c0-0.6-0.3-1-0.8-1.3s-1-0.5-1.7-0.5
			c-1.8,0.1-3.8,1-5.8,2.7c-2.1,1.8-4,4.3-5.7,7.6c-1.8,3.3-3.2,7.2-4.3,11.8s-1.6,9.8-1.4,15.5c0,1-0.2,1.7-0.6,2
			c-0.4,0.3-1.1,0.5-2,0.5c-3.2,0.1-5.9-0.4-8-1.6c-2.2-1.2-3.3-2.7-3.3-4.6c-0.1-3.3,0.2-6.9,0.8-10.6c0.6-3.7,1.4-7.3,2.4-10.8
			c0.9-3.5,1.9-6.7,2.9-9.7s1.8-5.3,2.5-7c0.6-1.5,1.6-2.3,3.1-2.4c0.9,0,2,0.3,3.5,1c1.4,0.7,3.1,2.4,5,5.2c1.6-1.5,3.5-2.8,5.5-4
			c1.7-1,3.7-1.9,5.9-2.8c2.2-0.9,4.6-1.3,7.1-1.4c1.3,0,2.5,0.2,3.8,0.8c1.2,0.6,2.4,1.4,3.3,2.3c1,1,1.8,2,2.4,3.2
			s0.9,2.4,0.9,3.5c0.1,1.8-0.2,3.8-0.8,5.8c-0.6,2-1.3,4.2-2,6.3c-0.7,2.2-1.3,4.4-2,6.6C259.9,232.4,259.6,234.6,259.6,236.7z"/>
		<path class="st6" d="M324,232.7c-1.7,2.3-3.6,4.4-5.8,6.5c-1.9,1.7-4.2,3.4-6.9,5c-2.7,1.6-5.9,2.8-9.4,3.4c0,0.9,0.2,1.8,0.5,2.8
			s0.9,1.5,1.8,1.4c1,0,2-0.1,3-0.3c1.1-0.2,2-0.3,2.9-0.3c1.1,0,2,0.3,2.5,1.1c0.6,0.7,0.9,1.7,0.9,2.9c0,1.5-0.3,3.2-1,5
			s-1.9,3.6-3.5,5.2s-3.5,3-5.9,4.2c-2.4,1.1-5.1,1.8-8.3,1.9c-2.5,0.1-4.5-0.4-6.1-1.3s-2.4-2.2-2.5-3.8c0-1.3,0.4-2.4,1.2-3.4
			c0.8-1,1.8-1.5,2.9-1.6c0.8,0,1.4,0.1,1.9,0.5c0.5,0.3,1,0.7,1.4,1.2s1,0.9,1.6,1.2c0.6,0.3,1.6,0.5,2.8,0.5
			c1.2,0,2.4-0.3,3.6-0.8s2.2-1.1,3.1-1.8c0.9-0.7,1.6-1.4,2.1-2c0.5-0.7,0.8-1.1,0.8-1.5s-0.2-0.6-0.6-0.6c-1.7,0.1-3.5,0.4-5.2,1
			s-3.2,1-4.6,1c-1,0-1.7-0.3-2.2-0.9c-0.5-0.7-0.8-1.3-0.8-1.9c0-1.3,0.1-2.8,0.3-4.7c0.3-1.8,0.5-3.3,0.7-4.4
			c-2.4-0.1-4.7-0.5-7.1-1.1c-2.3-0.6-4.4-1.7-6.3-3c-1.9-1.4-3.4-3.2-4.6-5.3c-1.2-2.2-1.8-4.8-1.9-7.9c-0.1-4,0.6-7.8,2.1-11.4
			c1.5-3.7,3.5-6.9,6-9.7s5.3-5,8.4-6.7s6.2-2.6,9.2-2.7c2.1-0.1,4.1,0.2,5.7,0.8c1.7,0.6,3.1,1.5,4.3,2.6c1.2,1.1,2.1,2.3,2.8,3.7
			c0.7,1.4,1,2.7,1.1,4.1c0,1-0.2,2.1-0.6,3.2c-0.4,1.1-1,2.1-1.6,3c-0.7,0.9-1.4,1.6-2.3,2.2c-0.8,0.6-1.6,0.9-2.4,0.9
			c-1.6,0-3-0.4-4.3-1.4s-1.9-2.1-1.9-3.5c0-1,0.2-1.9,0.6-2.5c0.5-0.6,1-1.2,1.6-1.8c0.6-0.5,1.1-1,1.6-1.5s0.7-1,0.7-1.6
			s-0.4-1.2-1.1-1.7s-1.5-0.7-2.5-0.7c-1.7,0.1-3.4,0.8-5,2.1c-1.6,1.4-3,3.1-4.2,5.3s-2.2,4.6-2.9,7.3c-0.7,2.7-1,5.4-1,8.1
			c0.1,4.1,1.3,7.2,3.7,9.1c2.3,1.9,5.1,2.8,8.5,2.7c2.7-0.1,5.1-0.7,7.3-1.9c2.2-1.2,4.1-2.5,5.6-3.9c1.9-1.6,3.5-3.5,4.8-5.6
			c0.2-0.2,0.4-0.5,0.7-0.9c0.2-0.2,0.5-0.4,0.8-0.6c0.3-0.2,0.7-0.3,1.1-0.3c0.7,0,1.3,0.2,1.8,0.7s0.7,1,0.8,1.6
			c0,0.3-0.1,0.6-0.2,0.9c-0.2,0.3-0.3,0.6-0.5,0.9C324.3,231.9,324.1,232.3,324,232.7z"/>
		<path class="st6" d="M380.5,231c-1.7,2.8-3.5,5.4-5.6,7.6c-1.8,1.9-3.9,3.6-6.3,5.2c-2.5,1.6-5.2,2.4-8.1,2.5
			c-3.3,0.1-6.2-0.7-8.5-2.3c-2.4-1.6-3.8-4.1-4.3-7.4c-1.5,2-3.2,3.8-5,5.3c-1.6,1.3-3.3,2.5-5.3,3.6s-4.1,1.7-6.4,1.7
			c-1.6,0-3.1-0.2-4.6-0.8s-2.8-1.4-3.9-2.4c-1.1-1.1-2-2.4-2.7-3.9s-1-3.1-1.1-5c-0.1-4.3,0.6-8.6,2.1-12.8c1.5-4.3,3.5-8.1,6-11.6
			s5.4-6.3,8.6-8.4c3.2-2.2,6.4-3.3,9.7-3.4c2.4-0.1,4.4,0.2,6.1,0.7s3.1,1.2,4.1,1.8c1.2,0.8,2.2,1.7,2.9,2.7c0.9,0,1.8,0,2.8,0.2
			s1.9,0.5,2.8,0.9c0.8,0.4,1.6,1,2.1,1.7c0.6,0.7,0.9,1.6,0.9,2.6c0,0.9-0.3,2.3-0.9,4.3c-0.7,2-1.4,4.2-2.2,6.7
			c-0.8,2.4-1.5,5-2.2,7.6c-0.6,2.6-0.9,4.9-0.9,6.9c0,1,0.3,1.7,1,2.4c0.6,0.6,1.4,0.9,2.5,0.9c1.6,0,3.1-0.6,4.7-1.7
			c1.5-1.1,2.9-2.3,4-3.7c1.4-1.5,2.6-3.2,3.8-5.2c0.1-0.2,0.3-0.5,0.6-0.9c0.2-0.2,0.4-0.3,0.7-0.6c0.3-0.2,0.7-0.3,1.1-0.3
			c0.6,0,1.2,0.2,1.7,0.7s0.8,1,0.8,1.6c0,0.3,0,0.6-0.2,0.9c-0.1,0.3-0.2,0.6-0.4,0.9C380.8,230.2,380.7,230.6,380.5,231z
			 M352.3,210.7c-0.1-1.7-0.5-3-1.4-3.8s-1.9-1.2-3.1-1.2c-1.7,0.1-3.5,1-5.3,2.9s-3.4,4.2-4.7,6.9c-1.4,2.7-2.5,5.6-3.4,8.7
			c-0.9,3.1-1.3,5.9-1.2,8.4c0.1,3.6,1.3,5.3,3.6,5.3c1.4,0,3-1,4.9-3c1.8-2,3.5-4.4,5.1-7.2s2.9-5.8,4-8.9S352.4,213,352.3,210.7z"
			/>
		<path class="st6" d="M390.4,232.8c0,1.4,0.4,2.4,1.1,3.2s1.6,1.2,2.8,1.2c1.6,0,3.1-0.6,4.7-1.7c1.5-1.1,2.9-2.3,4-3.7
			c1.4-1.5,2.6-3.2,3.8-5.2c0.1-0.2,0.3-0.5,0.6-0.9c0.2-0.2,0.4-0.3,0.7-0.6c0.3-0.2,0.7-0.3,1.1-0.3c0.6,0,1.2,0.2,1.7,0.7
			s0.8,1,0.8,1.6c0,0.3,0,0.6-0.2,0.9c-0.1,0.3-0.2,0.6-0.4,0.9c-0.2,0.3-0.3,0.7-0.4,1.1c-1.7,2.8-3.5,5.4-5.6,7.6
			c-1.8,1.9-3.9,3.6-6.3,5.2c-2.5,1.6-5.2,2.4-8.1,2.5c-4.5,0.1-8.2-1-11.1-3.3c-2.8-2.3-4.3-5.5-4.4-9.3c-0.1-2.1,0.2-4.7,0.8-7.8
			c0.6-3,1.4-6.1,2.2-9.2c0.9-3.1,1.8-6.1,2.8-8.9c1-2.8,1.8-5.1,2.5-6.8c0.3-0.6,0.7-1.2,1.3-1.6c0.5-0.5,1.2-0.7,1.9-0.7
			c0.9,0,1.9,0.2,3,0.7s2.2,1.1,3.2,1.8s1.8,1.4,2.4,2.1c0.7,0.7,1,1.3,1,1.8c0.1,1.8-0.2,3.8-0.9,5.9c-0.7,2.1-1.4,4.4-2.1,6.8
			c-0.8,2.4-1.4,5-2,7.6C390.5,227.2,390.3,230,390.4,232.8z M405.9,175c0,1.6-0.2,3.1-0.6,4.6c-0.5,1.5-1.2,2.8-2,4
			c-0.9,1.2-1.9,2.1-3,2.8s-2.3,1.1-3.6,1.1c-1.7,0.1-3.3-0.5-4.6-1.7c-1.3-1.2-2-2.8-2-4.9c0-1.5,0.2-3,0.7-4.4s1.2-2.8,2.1-3.9
			c0.9-1.2,1.9-2.1,3.1-2.8s2.4-1.1,3.8-1.1c1.7-0.1,3.2,0.5,4.4,1.7C405.2,171.5,405.8,173,405.9,175z"/>
		<path class="st6" d="M426.1,245.1c-2.9,0.1-5.7-0.4-8.4-1.5c-2.7-1.1-5-2.5-7-4.1c-2-1.7-3.6-3.5-4.8-5.6c-1.2-2-1.8-3.9-1.9-5.7
			c0-1.7,0.5-3.2,1.7-4.5c1.2-1.2,2.4-2.3,3.8-3.1c1.6-0.9,3.5-1.7,5.7-2.3c0.5-0.8,1.1-1.8,1.8-3c0.6-1,1.4-2.4,2.4-3.9
			c1-1.6,2.1-3.5,3.4-5.6c2.7-4.3,5-7.3,6.9-9s3.7-2.6,5.2-2.6c0.6,0,1.3,0.1,2,0.5c0.7,0.3,1.3,0.7,1.9,1.2s1.1,0.9,1.5,1.4
			s0.6,0.9,0.6,1.2c0,0.4-0.1,0.9-0.4,1.5s-0.6,1.3-1,1.9c-0.3,0.7-0.6,1.4-0.9,2.2s-0.4,1.5-0.3,2.3c0.1,2.4,0.4,4.4,0.9,6.2
			c0.5,1.7,1.1,3.4,1.7,4.9s1.2,3,1.7,4.5s0.8,3.1,0.9,4.9c0.1,2.5-0.3,4.9-1,7.1c-0.7,2.2-1.8,4.1-3.3,5.8
			c-1.5,1.6-3.3,2.9-5.5,3.9C431.5,244.5,429,245,426.1,245.1z M425.3,211.3c-1.6,2.6-3,4.9-4.2,7c-1.1,1.9-2,3.6-2.9,5.2
			c-0.9,1.6-1.3,2.6-1.3,3c0.1,1.7,0.2,3.4,0.4,5.1c0.2,1.6,0.6,3.1,1.1,4.3c0.5,1.3,1.1,2.3,1.9,3c0.7,0.7,1.7,1.1,2.8,1
			c1.8-0.1,3.4-1.1,4.6-3.1c1.3-2,1.8-4.4,1.8-7.1c0-1.5-0.3-3.1-0.7-4.7c-0.4-1.7-0.9-3.3-1.4-4.9c-0.5-1.6-0.9-3.2-1.4-4.7
			C425.5,213.8,425.3,212.5,425.3,211.3z"/>
	</g>
	<g>
		<g>
			<path class="st7" d="M117,225.1c-0.8,1.4,2,5.1,0.9,6.9c-1.1,1.7-2.5,3.3-4.1,4.8s-5.1,2.7-8.6,3.1c-2.5,0.3-5.7,0.3-8.7,0.4
				c1.3,1.3,2.4,2.9,3.4,4.8c0.9,1.6,1.7,3.6,2.5,6s1.2,5.2,1.3,8.2c0,1.8-0.2,3.7-0.7,5.7s-1.3,3.8-2.3,5.6c-1,1.7-2.2,3.1-3.7,4.2
				s-3.2,1.7-5.1,1.8c-1.7,0.1-3.7-0.3-5.7-1c-2.1-0.7-4-2-5.8-3.9s-3.3-4.3-4.6-7.4c-1.3-3.1-1.9-6.9-2-11.5
				c-0.2-7.8,0.2-15.9,1.1-24.5c0.9-8.5,2.1-16.9,3.8-25.2c1.6-8.2,3.6-16.1,6-23.5c2.3-7.4,4.9-14,7.6-19.6s5.6-10.1,8.6-13.5
				s6-5.1,9.1-5.2c1.3-0.1,2.7,0.3,4,1.1s2.5,1.8,3.6,3c1.1,1.3,1.9,2.6,2.6,4.1s1,2.8,1,4.1c0,2-0.4,4.6-1.3,7.8s-2.1,6.7-3.6,10.6
				c-1.5,3.9-3.3,7.9-5.3,12.1c-2,4.2-4.1,8.3-6.4,12.1c-2.3,3.9-4.6,7.5-6.9,10.9s-4.6,6.1-6.7,8.3c-0.6,2.2-1,4.6-1.4,7.1
				c-0.3,2.5-0.6,5-0.7,7.5c0.6,0.8,1.3,1.5,2.1,2.1c0.6,0.5,1.5,0.9,2.4,1.3c1,0.4,2.1,0.4,3.3,0.5c6.1,0.5,4.2,0.6,6.1,0.5
				c5.1-0.2,6.3-1.5,7.6-2.8c1.3-1.3,2.5-2.6,3.5-4.2c1-1.5,2-3,2.8-4.4c0.1-0.3,0.3-0.6,0.6-1c0.2-0.2,0.4-0.4,0.7-0.7
				c0.3-0.2,0.7-0.4,1.1-0.4c0.6,0,1.2,0.2,1.7,0.8s0.8,1.2,0.8,2c0,0.4,0,0.7-0.2,1.1c-0.1,0.3-0.2,0.7-0.4,1.1
				C120.9,226.4,117.1,224.7,117,225.1z M87.7,237.8c-0.1,1.9-0.2,3.9-0.3,5.9c-0.1,1.7-0.2,3.6-0.2,5.7c0,2.1,0,4.1,0,6
				c0.1,5.7,0.8,9.6,1.9,11.8c1.1,2.2,2.2,3.2,3.2,3.2c0.7,0,1.3-0.4,1.8-1s0.9-1.5,1.2-2.4c0.3-1,0.5-2.1,0.6-3.3
				c0.1-1.2,0.2-2.4,0.2-3.5c-0.1-3.1-0.6-6-1.4-8.7c-0.9-2.8-1.8-5.1-2.8-7.1C90.5,241.9,89.2,239.7,87.7,237.8z M115,153.7
				c0-1.9-0.9-2.9-2.6-2.8c-1.1,0-2.4,1.6-4,4.7c-1.6,3.1-3.2,7.1-5,12.1s-3.5,10.6-5.2,16.8c-1.7,6.3-3.2,12.6-4.6,19
				c1.2-1.2,2.7-3.1,4.2-5.6c1.6-2.6,3.2-5.4,4.8-8.6c1.6-3.2,3.1-6.6,4.6-10.1c1.5-3.6,2.8-7,3.9-10.2c1.2-3.3,2.1-6.3,2.8-9
				C114.7,157.2,115,155.1,115,153.7z"/>
			<path class="st7" d="M143.3,235.8c0,1.4,0.4,2.4,1.2,3.1c0.7,0.7,1.7,1,2.9,1c1.6,0,3.1-0.6,4.7-1.7c1.5-1.1,2.9-2.3,4-3.7
				c1.4-1.5,2.6-3.2,3.8-5.2c0.1-0.2,0.3-0.5,0.6-0.9c0.2-0.2,0.4-0.3,0.7-0.6c0.3-0.2,0.7-0.3,1.1-0.3c0.6,0,1.2,0.2,1.7,0.7
				s0.8,1,0.8,1.6c0,0.3,0,0.6-0.2,0.9c-0.1,0.3-0.2,0.6-0.4,0.9c-0.2,0.3-0.3,0.7-0.4,1.1c-1.7,2.8-3.5,5.4-5.6,7.6
				c-1.8,1.9-3.9,3.6-6.3,5.2c-2.5,1.6-5.2,2.4-8.1,2.5c-2.3,0.1-4.4-0.2-6.2-0.8s-3.5-1.4-4.8-2.4c-1.4-1-2.4-2.3-3.2-3.7
				s-1.2-2.9-1.2-4.6c-0.1-2.6,0.3-5.1,1-7.4c0.7-2.3,1.5-4.5,2.4-6.4s1.7-3.6,2.4-5.1c0.8-1.5,1.1-2.7,1.1-3.7
				c0-0.6-0.4-1.1-1.2-1.4c-0.8-0.3-1.6-0.5-2.5-0.8c-1-0.2-2.2-0.4-3.6-0.5c-2.1,5.9-4.2,10.7-6.1,14.4c-4.2,8.1-7.3,10.6-5.8,8.4
				c-0.2,0.2-3.7,0.7-4.1,1.1c-0.4,0.5,3.3,0.7,2.6,0.7c-0.6,0-1.2-0.2-1.7-0.7s-0.8-1.1-0.8-1.7c0-0.6,0.1-1.1,0.5-1.6
				c0.3-0.5,0.6-1,0.7-1.3c1.1-1.6-2.1,2.6-0.1-0.9c1.9-3.5,8.3-14.9,9.9-20.6c-0.8-0.5-1.5-1.2-2.1-2.1c-0.5-0.7-1-1.6-1.4-2.7
				c-0.4-1.1-0.7-2.4-0.7-3.9c0-1.2,0.2-2.3,0.6-3.4c0.4-1.1,1-2,1.6-2.8c0.7-0.8,1.4-1.5,2.2-2c0.8-0.5,1.5-0.8,2.2-0.8
				c0.8,0,1.6,0.2,2.5,0.6c0.9,0.4,1.7,0.9,2.4,1.5s1.3,1.2,1.8,2c0.5,0.7,0.8,1.4,0.8,1.9c0,1.6-0.2,2.9-0.7,4c-0.5,1-0.7,2-0.7,3
				c0,0.9,0.5,1.5,1.5,1.9s2.2,0.5,3.6,0.5c1.3,0,2.5-0.2,3.4-0.3c0.9-0.2,1.7-0.4,2.4-0.6c0.7-0.2,1.4-0.4,2-0.6
				c0.6-0.2,1.3-0.3,2-0.3c1.4,0,2.6,0.5,3.6,1.6c0.9,1.1,1.4,2.4,1.5,4c0,1.4-0.4,3-1.2,4.9c-0.9,1.9-1.8,4-2.9,6.2
				c-1,2.3-2,4.6-2.8,7.1C143.6,231,143.2,233.4,143.3,235.8z"/>
			<path class="st7" d="M220.2,231c-1.7,2.8-3.5,5.4-5.6,7.6c-1.8,1.9-3.9,3.6-6.3,5.2c-2.5,1.6-5.2,2.4-8.1,2.5
				c-3.3,0.1-6.2-0.7-8.5-2.3c-2.4-1.6-3.8-4.1-4.3-7.4c-1.5,2-3.2,3.8-5,5.3c-1.6,1.3-3.3,2.5-5.3,3.6s-4.1,1.7-6.4,1.7
				c-1.6,0-3.1-0.2-4.6-0.8s-2.8-1.4-3.9-2.4c-1.1-1.1-2-2.4-2.7-3.9s-1-3.1-1.1-5c-0.1-4.3,0.6-8.6,2.1-12.8
				c1.5-4.3,3.5-8.1,6-11.6s5.4-6.3,8.6-8.4c3.2-2.2,6.4-3.3,9.7-3.4c2.4-0.1,4.4,0.2,6.1,0.7c1.7,0.5,3.1,1.2,4.1,1.8
				c1.2,0.8,2.2,1.7,2.9,2.7c0.9,0,1.8,0,2.8,0.2s1.9,0.5,2.8,0.9c0.8,0.4,1.6,1,2.1,1.7c0.6,0.7,0.9,1.6,0.9,2.6
				c0,0.9-0.3,2.3-0.9,4.3c-0.7,2-1.4,4.2-2.2,6.7c-0.8,2.4-1.5,5-2.2,7.6c-0.6,2.6-0.9,4.9-0.9,6.9c0,1,0.3,1.7,1,2.4
				c0.6,0.6,1.4,0.9,2.5,0.9c1.6,0,3.1-0.6,4.7-1.7c1.5-1.1,2.9-2.3,4-3.7c1.4-1.5,2.6-3.2,3.8-5.2c0.1-0.2,0.3-0.5,0.6-0.9
				c0.2-0.2,0.4-0.3,0.7-0.6c0.3-0.2,0.7-0.3,1.1-0.3c0.6,0,1.2,0.2,1.7,0.7s0.8,1,0.8,1.6c0,0.3,0,0.6-0.2,0.9
				c-0.1,0.3-0.2,0.6-0.4,0.9C220.5,230.2,220.4,230.6,220.2,231z M192,210.8c-0.1-1.7-0.5-3-1.4-3.8s-1.9-1.2-3.1-1.2
				c-1.7,0.1-3.5,1-5.3,2.9s-3.4,4.2-4.7,6.9c-1.4,2.7-2.5,5.6-3.4,8.7c-0.9,3.1-1.3,5.9-1.2,8.4c0.1,3.6,1.3,5.3,3.6,5.3
				c1.4,0,3-1,4.9-3c1.8-2,3.5-4.4,5.1-7.2s2.9-5.8,4-8.9C191.6,215.8,192.1,213.1,192,210.8z"/>
			<path class="st7" d="M258.2,232c0,1.4,0.4,2.4,1.1,3.2s1.6,1.2,2.8,1.2c1.6,0,3.1-0.6,4.7-1.7c1.5-1.1,2.9-2.3,4-3.7
				c1.4-1.5,2.6-3.2,3.8-5.2c0.1-0.2,0.3-0.5,0.6-0.9c0.2-0.2,0.4-0.3,0.7-0.6c0.3-0.2,0.7-0.3,1.1-0.3c0.6,0,1.2,0.2,1.7,0.7
				s0.8,1,0.8,1.6c0,0.3,0,0.6-0.2,0.9c-0.1,0.3-0.2,0.6-0.4,0.9c-0.2,0.3-0.3,0.7-0.4,1.1c-1.7,2.8-3.5,5.4-5.6,7.6
				c-1.8,1.9-3.9,3.6-6.3,5.2c-2.5,1.6-5.2,2.4-8.1,2.5c-4.5,0.1-8.2-0.9-11.1-3.2c-2.8-2.3-4.3-5.1-4.4-8.4
				c-0.1-2.5,0.2-4.8,0.7-7.1c0.6-2.3,1.2-4.5,1.9-6.7s1.3-4.2,1.9-6.2c0.6-2,0.8-3.9,0.8-5.7c0-0.6-0.3-1-0.8-1.3s-1-0.5-1.7-0.5
				c-1.8,0.1-3.8,1-5.8,2.7c-2.1,1.8-4,4.3-5.7,7.6c-1.8,3.3-3.2,7.2-4.3,11.8s-1.6,9.8-1.4,15.5c0,1-0.2,1.7-0.6,2
				c-0.4,0.3-1.1,0.5-2,0.5c-3.2,0.1-5.9-0.4-8-1.6c-2.2-1.2-3.3-2.7-3.3-4.6c-0.1-3.3,0.2-6.9,0.8-10.6c0.6-3.7,1.4-7.3,2.4-10.8
				c0.9-3.5,1.9-6.7,2.9-9.7s1.8-5.3,2.5-7c0.6-1.5,1.6-2.3,3.1-2.4c0.9,0,2,0.3,3.5,1c1.4,0.7,3.1,2.4,5,5.2c1.6-1.5,3.5-2.8,5.5-4
				c1.7-1,3.7-1.9,5.9-2.8c2.2-0.9,4.6-1.3,7.1-1.4c1.3,0,2.5,0.2,3.8,0.8c1.2,0.6,2.4,1.4,3.3,2.3c1,1,1.8,2,2.4,3.2
				s0.9,2.4,0.9,3.5c0.1,1.8-0.2,3.8-0.8,5.8c-0.6,2-1.3,4.2-2,6.3c-0.7,2.2-1.3,4.4-2,6.6C258.4,227.7,258.1,229.9,258.2,232z"/>
			<path class="st7" d="M322.5,228c-1.7,2.3-3.6,4.4-5.8,6.5c-1.9,1.7-4.2,3.4-6.9,5c-2.7,1.6-5.9,2.8-9.4,3.4
				c0,0.9,0.2,1.8,0.5,2.8s0.9,1.5,1.8,1.4c1,0,2-0.1,3-0.3c1.1-0.2,2-0.3,2.9-0.3c1.1,0,2,0.3,2.5,1.1c0.6,0.7,0.9,1.7,0.9,2.9
				c0,1.5-0.3,3.2-1,5s-1.9,3.6-3.5,5.2s-3.5,3-5.9,4.2c-2.4,1.1-5.1,1.8-8.3,1.9c-2.5,0.1-4.5-0.4-6.1-1.3s-2.4-2.2-2.5-3.8
				c0-1.3,0.4-2.4,1.2-3.4c0.8-1,1.8-1.5,2.9-1.6c0.8,0,1.4,0.1,1.9,0.5c0.5,0.3,1,0.7,1.4,1.2s1,0.9,1.6,1.2
				c0.6,0.3,1.6,0.5,2.8,0.5c1.2,0,2.4-0.3,3.6-0.8s2.2-1.1,3.1-1.8c0.9-0.7,1.6-1.4,2.1-2c0.5-0.7,0.8-1.1,0.8-1.5
				s-0.2-0.6-0.6-0.6c-1.7,0.1-3.5,0.4-5.2,1s-3.2,1-4.6,1c-1,0-1.7-0.3-2.2-0.9c-0.5-0.7-0.8-1.3-0.8-1.9c0-1.3,0.1-2.8,0.3-4.7
				c0.3-1.8,0.5-3.3,0.7-4.4c-2.4-0.1-4.7-0.5-7.1-1.1c-2.3-0.6-4.4-1.7-6.3-3c-1.9-1.4-3.4-3.2-4.6-5.3c-1.2-2.2-1.8-4.8-1.9-7.9
				c-0.1-4,0.6-7.8,2.1-11.4c1.5-3.7,3.5-6.9,6-9.7s5.3-5,8.4-6.7s6.2-2.6,9.2-2.7c2.1-0.1,4.1,0.2,5.7,0.8c1.7,0.6,3.1,1.5,4.3,2.6
				c1.2,1.1,2.1,2.3,2.8,3.7c0.7,1.4,1,2.7,1.1,4.1c0,1-0.2,2.1-0.6,3.2c-0.4,1.1-1,2.1-1.6,3c-0.7,0.9-1.4,1.6-2.3,2.2
				c-0.8,0.6-1.6,0.9-2.4,0.9c-1.6,0-3-0.4-4.3-1.4s-1.9-2.1-1.9-3.5c0-1,0.2-1.9,0.6-2.5c0.5-0.6,1-1.2,1.6-1.8
				c0.6-0.5,1.1-1,1.6-1.5s0.7-1,0.7-1.6s-0.4-1.2-1.1-1.7s-1.5-0.7-2.5-0.7c-1.7,0.1-3.4,0.8-5,2.1c-1.6,1.4-3,3.1-4.2,5.3
				s-2.2,4.6-2.9,7.3c-0.7,2.7-1,5.4-1,8.1c0.1,4.1,1.3,7.2,3.7,9.1c2.3,1.9,5.1,2.8,8.5,2.7c2.7-0.1,5.1-0.7,7.3-1.9
				c2.2-1.2,4.1-2.5,5.6-3.9c1.9-1.6,3.5-3.5,4.8-5.6c0.2-0.2,0.4-0.5,0.7-0.9c0.2-0.2,0.5-0.4,0.8-0.6c0.3-0.2,0.7-0.3,1.1-0.3
				c0.7,0,1.3,0.2,1.8,0.7s0.7,1,0.8,1.6c0,0.3-0.1,0.6-0.2,0.9c-0.2,0.3-0.3,0.6-0.5,0.9C322.8,227.2,322.7,227.6,322.5,228z"/>
			<path class="st7" d="M379.1,226.3c-1.7,2.8-3.5,5.4-5.6,7.6c-1.8,1.9-3.9,3.6-6.3,5.2c-2.5,1.6-5.2,2.4-8.1,2.5
				c-3.3,0.1-6.2-0.7-8.5-2.3c-2.4-1.6-3.8-4.1-4.3-7.4c-1.5,2-3.2,3.8-5,5.3c-1.6,1.3-3.3,2.5-5.3,3.6s-4.1,1.7-6.4,1.7
				c-1.6,0-3.1-0.2-4.6-0.8s-2.8-1.4-3.9-2.4c-1.1-1.1-2-2.4-2.7-3.9s-1-3.1-1.1-5c-0.1-4.3,0.6-8.6,2.1-12.8
				c1.5-4.3,3.5-8.1,6-11.6s5.4-6.3,8.6-8.4c3.2-2.2,6.4-3.3,9.7-3.4c2.4-0.1,4.4,0.2,6.1,0.7s3.1,1.2,4.1,1.8
				c1.2,0.8,2.2,1.7,2.9,2.7c0.9,0,1.8,0,2.8,0.2s1.9,0.5,2.8,0.9c0.8,0.4,1.6,1,2.1,1.7c0.6,0.7,0.9,1.6,0.9,2.6
				c0,0.9-0.3,2.3-0.9,4.3c-0.7,2-1.4,4.2-2.2,6.7c-0.8,2.4-1.5,5-2.2,7.6c-0.6,2.6-0.9,4.9-0.9,6.9c0,1,0.3,1.7,1,2.4
				c0.6,0.6,1.4,0.9,2.5,0.9c1.6,0,3.1-0.6,4.7-1.7c1.5-1.1,2.9-2.3,4-3.7c1.4-1.5,2.6-3.2,3.8-5.2c0.1-0.2,0.3-0.5,0.6-0.9
				c0.2-0.2,0.4-0.3,0.7-0.6c0.3-0.2,0.7-0.3,1.1-0.3c0.6,0,1.2,0.2,1.7,0.7s0.8,1,0.8,1.6c0,0.3,0,0.6-0.2,0.9
				c-0.1,0.3-0.2,0.6-0.4,0.9C379.4,225.5,379.2,225.9,379.1,226.3z M350.8,206c-0.1-1.7-0.5-3-1.4-3.8s-1.9-1.2-3.1-1.2
				c-1.7,0.1-3.5,1-5.3,2.9s-3.4,4.2-4.7,6.9c-1.4,2.7-2.5,5.6-3.4,8.7c-0.9,3.1-1.3,5.9-1.2,8.4c0.1,3.6,1.3,5.3,3.6,5.3
				c1.4,0,3-1,4.9-3c1.8-2,3.5-4.4,5.1-7.2s2.9-5.8,4-8.9S350.9,208.3,350.8,206z"/>
			<path class="st7" d="M388.9,228.1c0,1.4,0.4,2.4,1.1,3.2s1.6,1.2,2.8,1.2c1.6,0,3.1-0.6,4.7-1.7c1.5-1.1,2.9-2.3,4-3.7
				c1.4-1.5,2.6-3.2,3.8-5.2c0.1-0.2,0.3-0.5,0.6-0.9c0.2-0.2,0.4-0.3,0.7-0.6c0.3-0.2,0.7-0.3,1.1-0.3c0.6,0,1.2,0.2,1.7,0.7
				s0.8,1,0.8,1.6c0,0.3,0,0.6-0.2,0.9c-0.1,0.3-0.2,0.6-0.4,0.9c-0.2,0.3-0.3,0.7-0.4,1.1c-1.7,2.8-3.5,5.4-5.6,7.6
				c-1.8,1.9-3.9,3.6-6.3,5.2c-2.5,1.6-5.2,2.4-8.1,2.5c-4.5,0.1-8.2-1-11.1-3.3c-2.8-2.3-4.3-5.5-4.4-9.3c-0.1-2.1,0.2-4.7,0.8-7.8
				c0.6-3,1.4-6.1,2.2-9.2c0.9-3.1,1.8-6.1,2.8-8.9c1-2.8,1.8-5.1,2.5-6.8c0.3-0.6,0.7-1.2,1.3-1.6c0.5-0.5,1.2-0.7,1.9-0.7
				c0.9,0,1.9,0.2,3,0.7s2.2,1.1,3.2,1.8s1.8,1.4,2.4,2.1c0.7,0.7,1,1.3,1,1.8c0.1,1.8-0.2,3.8-0.9,5.9c-0.7,2.1-1.4,4.4-2.1,6.8
				c-0.8,2.4-1.4,5-2,7.6C389.1,222.5,388.8,225.3,388.9,228.1z M404.4,170.3c0,1.6-0.2,3.1-0.6,4.6c-0.5,1.5-1.2,2.8-2,4
				c-0.9,1.2-1.9,2.1-3,2.8s-2.3,1.1-3.6,1.1c-1.7,0.1-3.3-0.5-4.6-1.7c-1.3-1.2-2-2.8-2-4.9c0-1.5,0.2-3,0.7-4.4s1.2-2.8,2.1-3.9
				c0.9-1.2,1.9-2.1,3.1-2.8s2.4-1.1,3.8-1.1c1.7-0.1,3.2,0.5,4.4,1.7C403.7,166.8,404.3,168.3,404.4,170.3z"/>
			<path class="st7" d="M424.6,240.4c-2.9,0.1-5.7-0.4-8.4-1.5c-2.7-1.1-5-2.5-7-4.1c-2-1.7-3.6-3.5-4.8-5.6c-1.2-2-1.8-3.9-1.9-5.7
				c0-1.7,0.5-3.2,1.7-4.5c1.2-1.2,2.4-2.3,3.8-3.1c1.6-0.9,3.5-1.7,5.7-2.3c0.5-0.8,1.1-1.8,1.8-3c0.6-1,1.4-2.4,2.4-3.9
				c1-1.6,2.1-3.5,3.4-5.6c2.7-4.3,5-7.3,6.9-9s3.7-2.6,5.2-2.6c0.6,0,1.3,0.1,2,0.5c0.7,0.3,1.3,0.7,1.9,1.2s1.1,0.9,1.5,1.4
				s0.6,0.9,0.6,1.2c0,0.4-0.1,0.9-0.4,1.5s-0.6,1.3-1,1.9c-0.3,0.7-0.6,1.4-0.9,2.2s-0.4,1.5-0.3,2.3c0.1,2.4,0.4,4.4,0.9,6.2
				c0.5,1.7,1.1,3.4,1.7,4.9s1.2,3,1.7,4.5s0.8,3.1,0.9,4.9c0.1,2.5-0.3,4.9-1,7.1c-0.7,2.2-1.8,4.1-3.3,5.8
				c-1.5,1.6-3.3,2.9-5.5,3.9C430,239.8,427.5,240.3,424.6,240.4z M423.8,206.6c-1.6,2.6-3,4.9-4.2,7c-1.1,1.9-2,3.6-2.9,5.2
				c-0.9,1.6-1.3,2.6-1.3,3c0.1,1.7,0.2,3.4,0.4,5.1c0.2,1.6,0.6,3.1,1.1,4.3c0.5,1.3,1.1,2.3,1.9,3c0.7,0.7,1.7,1.1,2.8,1
				c1.8-0.1,3.4-1.1,4.6-3.1c1.3-2,1.8-4.4,1.8-7.1c0-1.5-0.3-3.1-0.7-4.7c-0.4-1.7-0.9-3.3-1.4-4.9c-0.5-1.6-0.9-3.2-1.4-4.7
				C424,209.1,423.8,207.8,423.8,206.6z"/>
		</g>
	</g>
</g>
<g>
	<path d="M150.4,140.6c-0.5-2.6-0.3-5.1,0.6-7.6c0.9-2.5,2.6-4.8,4.9-6.7c2.8-2.4,5.8-3.8,9.1-4.1c3.2-0.3,6.3,0.4,9.1,2.3l-6.3,5.4
		c-1.3-0.5-2.6-0.7-3.9-0.4c-1.3,0.3-2.5,0.9-3.6,1.8c-1.8,1.5-2.7,3.3-2.8,5.4c-0.1,2.1,0.8,4.1,2.5,6.1c1.7,1.9,3.7,3,5.8,3.2
		s4.1-0.4,5.9-2c1.1-0.9,1.9-2,2.3-3.3c0.4-1.2,0.5-2.5,0.1-3.8l6.3-5.4c1.5,3,1.8,6,1.1,9.1c-0.8,3.1-2.5,5.8-5.3,8.3
		c-2.3,2-4.8,3.2-7.4,3.8c-2.7,0.6-5.3,0.5-7.8-0.4c-2.5-0.8-4.8-2.4-6.7-4.6C152.2,145.6,151,143.2,150.4,140.6z"/>
	<path d="M192.8,103.1l13.4,26.5l-6.9,3.3l-13.4-26.5L192.8,103.1z"/>
	<path d="M246.9,118.2l-7.5,1.5l-16.2-15.3l3.7,17.9l-7.5,1.5l-6-28.9l7.5-1.5l16.3,15.4l-3.7-17.9l7.5-1.5L246.9,118.2z"/>
	<path d="M271.1,95.2l-0.6,5.9l10.2,1l-0.6,5.5l-10.2-1l-0.7,6.4l11.5,1.1l-0.6,5.7l-19.1-1.9l3-29.4l19.1,1.9l-0.6,5.7L271.1,95.2z
		"/>
	<path d="M338.4,110l-12.7,26.8l-6.9-3.1l7.6-16.1l-14,13.2l-5.6-2.5l1.2-19l-7.6,16.1l-6.9-3.1l12.7-26.8l8.2,3.7l-0.8,22.2
		l16.7-15L338.4,110z"/>
	<path d="M353.9,155.4l-8.1-8.2l-5.1,2.3l-5.6-5.6l29.5-12.6l6.2,6.2L357,166l-5.6-5.7L353.9,155.4z M356.6,150.1l5.2-10.3
		l-10.6,4.8L356.6,150.1z"/>
</g>
<line class="st4" x1="79.4" y1="285.2" x2="430.2" y2="285.2"/>
<path class="st3" d="M396.6,281.9"/>
</svg>
