<?xml version="1.0" encoding="utf-8"?>
<!-- Generator: Adobe Illustrator 24.0.0, SVG Export Plug-In . SVG Version: 6.00 Build 0)  -->
<svg version="1.1" id="Calque_1" xmlns="http://www.w3.org/2000/svg" xmlns:xlink="http://www.w3.org/1999/xlink" x="0px" y="0px"
	 viewBox="0 0 510 510" style="enable-background:new 0 0 510 510;" xml:space="preserve">
<style type="text/css">
	.st0{fill:#FCF8F0;}
	.st1{opacity:0.26;}
	.st2{fill:none;stroke:#000000;stroke-width:4;stroke-linecap:round;stroke-linejoin:round;stroke-dasharray:1.0019,20.0376;}
	.st3{opacity:0.26;fill:none;stroke:#000000;stroke-miterlimit:10;enable-background:new    ;}
	.st4{fill:none;stroke:#000000;stroke-miterlimit:10;}
	.st5{fill:#D3D2D1;}
	.st6{fill:#A51F1E;}
	.st7{fill:#C9C8C7;}
</style>
<polygon points="-86.9,-41.1 634,-42.3 634,566.6 -86.9,567.8 "/>
<g id="BACKGROUND">
</g>
<circle cx="254.8" cy="253.8" r="254"/>
<circle class="st0" cx="255" cy="253.8" r="224"/>
<g class="st1">
	<circle class="st0" cx="255.4" cy="260.4" r="197.6"/>
	<circle class="st2" cx="254.8" cy="259.8" r="197.6"/>
</g>
<path class="st3" d="M430.1,291.4c-13.2,82.7-87,145.2-175.3,145.2c-88.4,0-161.8-63.1-175.4-145.7"/>
<path class="st3" d="M81.4,285.2"/>
<g>
	<g>
		<path d="M122.4,304.4c1.9,1,3.4,2.5,4.4,4.3c1.1,1.9,1.6,3.9,1.6,6.3s-0.5,4.5-1.6,6.2c-1.1,1.9-2.5,3.2-4.4,4.3
			c-2,1-4.1,1.6-6.6,1.6h-9v-24h9C118.2,302.9,120.5,303.4,122.4,304.4z M120.6,320c1.3-1.2,1.9-2.9,1.9-5.2s-0.6-4-1.9-5.2
			c-1.3-1.3-2.9-1.9-5.2-1.9h-2.8v14h2.8C117.5,321.8,119.3,321.2,120.6,320z"/>
		<path d="M141.1,302.9h6l-3.8,9.1h-4L141.1,302.9z"/>
		<path d="M173.8,322.7h-8.9l-1.5,4.3h-6.1l8.6-24h6.8l8.6,24h-6.1L173.8,322.7z M172.2,318.1l-3-8.8l-2.9,8.8H172.2z"/>
		<path d="M198,302.9v14.4c0,1.5,0.4,2.5,1.1,3.3c0.7,0.8,1.8,1.2,3.1,1.2s2.5-0.4,3.1-1.2c0.8-0.8,1.1-1.9,1.1-3.3v-14.4h5.8v14.4
			c0,2.2-0.5,4-1.4,5.4c-0.9,1.5-2.2,2.6-3.7,3.4s-3.3,1.2-5.2,1.2s-3.6-0.4-5.1-1.1c-1.5-0.8-2.7-1.9-3.5-3.4
			c-0.9-1.5-1.3-3.3-1.3-5.4V303L198,302.9L198,302.9z"/>
		<path d="M241.8,302.9v4.7h-6.4v19.3h-5.7v-19.3h-6.4v-4.7H241.8z"/>
		<path d="M265.2,326.8l-5-9h-1.4v9H253v-24h9.8c1.9,0,3.5,0.3,4.9,1s2.4,1.6,3,2.7c0.7,1.2,1,2.5,1,3.9c0,1.6-0.5,3-1.4,4.3
			s-2.3,2.2-4,2.6l5.5,9.5H265.2L265.2,326.8z M258.9,313.7h3.6c1.1,0,1.9-0.3,2.5-0.8s0.8-1.3,0.8-2.3c0-0.9-0.3-1.7-0.8-2.2
			c-0.6-0.5-1.4-0.8-2.5-0.8h-3.6V313.7z"/>
		<path d="M289.4,307.5v4.9h7.8v4.6h-7.8v5.3h8.8v4.7h-14.8v-24h14.8v4.7h-8.8V307.5z"/>
		<path d="M325.9,302.9v4.7h-9.8v5.1h7.3v4.6h-7.3v9.7h-5.8v-24h15.6V302.9z"/>
		<path d="M342.4,325.5c-1.9-1.1-3.4-2.5-4.5-4.4s-1.7-4-1.7-6.3s0.6-4.5,1.7-6.3s2.6-3.3,4.5-4.4s4-1.6,6.2-1.6s4.4,0.5,6.2,1.6
			s3.4,2.5,4.5,4.4s1.7,4,1.7,6.3s-0.6,4.5-1.7,6.3s-2.6,3.3-4.5,4.4s-4,1.6-6.2,1.6C346.3,327.1,344.3,326.6,342.4,325.5z
			 M353.2,319.8c1.2-1.3,1.8-3,1.8-5.1c0-2.2-0.6-3.8-1.8-5.1c-1.2-1.3-2.7-2-4.6-2c-2,0-3.5,0.6-4.7,1.9s-1.8,2.9-1.8,5.2
			c0,2.2,0.6,3.8,1.8,5.1c1.2,1.3,2.7,2,4.7,2C350.4,321.8,352,321.1,353.2,319.8z"/>
		<path d="M378.2,302.9v24h-5.8v-24H378.2z"/>
		<path d="M394.5,326.2c-1.4-0.6-2.5-1.5-3.3-2.5c-0.9-1.2-1.3-2.5-1.4-4.1h6.2c0.1,0.9,0.4,1.6,1,2.1c0.5,0.5,1.2,0.7,2.1,0.7
			s1.6-0.2,2.1-0.6s0.8-1,0.8-1.7c0-0.6-0.2-1.1-0.6-1.5s-0.9-0.7-1.5-1s-1.5-0.6-2.5-0.9c-1.6-0.5-2.8-1-3.8-1.5s-1.9-1.2-2.5-2.2
			s-1.1-2.2-1.1-3.7c0-2.3,0.8-4,2.5-5.3s3.7-2,6.3-2s4.8,0.7,6.4,2c1.7,1.3,2.5,3,2.6,5.3h-6.3c0-0.8-0.3-1.4-0.9-1.9
			c-0.5-0.5-1.2-0.7-2.1-0.7c-0.7,0-1.3,0.2-1.8,0.6c-0.4,0.4-0.7,0.9-0.7,1.7c0,0.8,0.4,1.4,1.1,1.9c0.8,0.4,1.9,0.9,3.4,1.4
			s2.8,1.1,3.8,1.5c1,0.5,1.9,1.2,2.5,2.1s1.1,2.2,1.1,3.5s-0.4,2.6-1.1,3.7c-0.7,1.2-1.8,2.1-3,2.6c-1.4,0.7-2.9,1-4.7,1
			C397.6,327.1,396,326.8,394.5,326.2z"/>
	</g>
</g>
<g>
	<line class="st4" x1="93.3" y1="339.4" x2="415.9" y2="339.4"/>
</g>
<g>
	<g>
		<path class="st5" d="M431.6,188.5c-0.5-0.5-1.1-0.8-1.7-0.8c-0.5,0-1,0.2-1.3,0.5c-0.4,0.3-0.7,0.7-1,1c-0.6,0.7-1.2,1.3-1.9,1.7
			c-0.1,0-0.1,0.1-0.2,0.1c0.8-0.7,1.6-1.5,2.3-2.3c0.2-0.3,0.3-0.6,0.6-0.9c0.4-0.6,0.7-1.1,0.7-1.5c0-0.6-0.3-1.1-0.8-1.6
			c-0.5-0.5-1.1-0.8-1.7-0.8c-0.5,0-1,0.2-1.3,0.5c-0.4,0.3-0.7,0.7-1,1c-0.6,0.7-1.2,1.3-1.9,1.7c-0.6,0.4-1.2,0.8-1.8,1.2
			c-0.5,0.3-1.1,0.5-1.6,0.5c0.1-1.6,0.4-3.4,1-5.4c0.7-2.3,1.5-4.5,2.2-6.7s1.6-4.1,2.2-5.9c0.7-1.7,1-3,1-3.8
			c0-0.9-0.2-1.7-0.8-2.3c-0.5-0.7-1.2-1.2-1.9-1.5c-0.2-0.1-0.4-0.2-0.6-0.2c-0.1-0.7-0.3-1.4-0.7-1.8c-0.5-0.7-1.2-1.2-1.9-1.5
			c-0.8-0.4-1.6-0.7-2.5-0.9c-0.9-0.2-1.8-0.3-2.5-0.3c-0.7-0.9-1.5-1.6-2.6-2.4c-1-0.7-2.2-1.3-3.7-1.7c-1.6-0.6-3.3-0.9-5.6-0.9
			c-2.9,0-6,0.9-9,2.7c-3,1.8-5.7,4.3-8.1,7.2c-2.4,3-4.4,6.4-5.9,10.1c-1.1,2.5-1.8,5.1-2.1,7.7c-0.8,1.1-1.7,2-2.5,2.9
			c-1.1,1.2-2.3,2.2-3.8,3.2c-1.5,0.9-2.8,1.4-4.3,1.4c-0.1,0-0.2,0-0.3,0c0-0.1,0-0.2,0-0.4c0-2.1,0.4-4.3,1.1-6.5s1.5-4.4,2.4-6.4
			c0.9-2,1.7-4.1,2.3-5.9c0.7-1.8,1.1-3.5,1.1-4.8c0-0.9-0.2-1.8-0.7-2.8c-0.5-1-1.1-1.7-1.9-2.5c-0.4-0.4-0.8-0.7-1.2-1
			c0-0.1-0.1-0.1-0.1-0.2c-0.5-1-1.1-1.7-1.9-2.5c-0.8-0.8-1.7-1.4-2.6-1.8c-1-0.5-2-0.7-2.8-0.7c-2.1,0-4,0.4-6,1.2
			c-2,0.8-3.6,1.6-5.2,2.6c-1.5,1-2.9,2-4.3,3.1c-0.3-0.5-0.7-0.9-1-1.3c-0.4-0.4-0.9-0.8-1.3-1.1c-0.6-1-1.2-1.8-1.9-2.6
			c-1.4-1.5-3.2-2.2-5.7-2.3c-1.9,0-3.7,0.3-5.5,1c-1.8,0.7-3.4,1.5-4.9,2.3c-1.7,1-3.2,2-4.7,3.2c-0.2-0.2-0.4-0.3-0.5-0.5
			c-1.5-2.2-2.8-3.7-4-4.3c-1.3-0.7-2.3-1-3.1-1c-1.4,0-2.3,0.7-2.9,2c-0.7,1.5-1.5,3.5-2.5,6c-1,2.5-2,5.3-2.9,8.3
			c-1,3-1.9,6.2-2.5,9.5c0,0.2-0.1,0.4-0.1,0.5c-1.1,1.4-2.2,2.5-3.6,3.6c-1.5,1.2-3.2,2.3-5.4,3.3c-2.2,1-4.4,1.5-6.9,1.5
			c-2.1,0-3.9-0.6-5.5-1.6c-0.6-1.4-0.9-2.9-0.9-4.6c0.6,0.2,1.1,0.3,1.7,0.3c0.9,0.2,1.7,0.3,2.5,0.4c3.4,0,6.3-0.5,8.6-1.6
			c2.2-1.2,4.1-2.5,5.5-4.2c1.4-1.6,2.3-3.3,2.9-5.1c0.6-1.8,0.9-3.3,0.9-4.6c0-1.5-0.3-2.8-0.9-4.2c-0.6-1.4-1.5-2.5-2.5-3.6
			c-0.3-0.3-0.7-0.6-1.1-0.9c-0.6-1.1-1.3-1.9-2.2-2.8c-1.1-1.1-2.3-1.8-3.8-2.5c-1.5-0.7-3-1-4.7-1c-2.3,0-5,0.6-7.7,1.8
			c-2.7,1.3-5.3,3.1-7.6,5.4s-4.3,5.2-5.9,8.5c-1.6,3.3-2.3,7-2.3,11c0,0.2,0,0.4,0,0.7c-0.9,1.3-1.8,2.3-2.7,3.3
			c-1.1,1.2-2.3,2.2-3.8,3.2c-1.5,0.9-2.8,1.4-4.3,1.4c-0.1,0-0.2,0-0.3,0c0-0.1,0-0.2,0-0.4c0-1.9,0.3-3.9,1-5.8
			c0.6-1.9,1.3-3.9,2.1-5.8c0.7-1.9,1.4-3.8,2.1-5.5c0.6-1.8,1-3.5,1-5.1c0-1.1-0.2-2.1-0.8-3.2c-0.5-1.1-1.2-2-2.1-2.9
			c-0.4-0.4-0.9-0.9-1.4-1.2c-0.5-0.9-1.1-1.7-1.9-2.5c-0.9-0.9-1.9-1.6-2.9-2.2c-1.1-0.6-2.2-0.9-3.4-0.9c-2.3,0-4.5,0.3-6.6,1
			s-3.8,1.5-5.5,2.3c-1.9,1-3.5,2-5,3.2c-0.2-0.2-0.4-0.3-0.5-0.5c-1.5-2.2-2.8-3.7-4-4.3c-1.3-0.7-2.3-1-3.1-1
			c-1.4,0-2.3,0.7-2.9,2c-0.7,1.5-1.5,3.5-2.5,6.1c-1,2.6-2,5.4-2.9,8.5s-1.9,6.3-2.5,9.5c0,0.1,0,0.2-0.1,0.3
			c-0.9,1.2-1.8,2.2-2.7,3.2c-1.1,1.2-2.3,2.2-3.8,3.2c-1.5,0.9-2.8,1.4-4.3,1.4c-0.1,0-0.2,0-0.3,0c0-0.1,0-0.2,0-0.4
			c0-2.5,0.4-5,1-7.3c0.7-2.3,1.4-4.6,2.2-6.7c0.8-2.1,1.5-4.1,2.2-6c0.7-1.8,1-3.6,1-5.2c0-0.4-0.3-1-0.9-1.6s-1.3-1.4-2.2-1.9
			c-0.1,0-0.1-0.1-0.2-0.1c0-0.4-0.3-1-0.9-1.5c-0.6-0.7-1.3-1.4-2.2-1.9c-0.9-0.7-1.8-1.3-2.8-1.7c-1-0.5-2-0.8-2.7-0.8
			c-0.7,0-1.3,0.2-1.8,0.6c-0.5,0.4-0.9,0.9-1.2,1.5c-0.7,1.5-1.5,3.5-2.5,5.9c-1,2.4-2,5-2.8,7.8c-0.9,2.7-1.7,5.4-2.3,8.1
			c-0.4,1.5-0.6,2.7-0.8,3.9c-0.9,1.1-1.9,2-2.9,3c-1.6,1.5-3.3,2.7-5.2,3.7c-1.9,1.1-3.8,1.8-5.8,2.5c-2,0.6-3.9,1-5.9,0.9
			c-4.4,0-7.8-1.1-10.5-3.2c-1.7-3-2.4-7.1-2.4-12.3c0-3.6-0.4-17.8,0.5-21.5c6.7-0.1,12.8-1.1,18.3-3c5.4-1.9,10.1-4.4,13.9-7.2
			c3.8-2.9,5.9-6,7.9-9.3c2.1-3.3,3.1-7.3,3.2-10.1c0-1.5-0.4-3.1-1.2-4.8c-0.8-1.7-0.9-2.4-2.2-3.9c-0.4-0.5-0.8-0.9-1.3-1.3
			c-0.6-0.9-1.2-1.6-1.9-2.4c-1.4-1.5-3-2.7-4.9-3.8c-2-1-4-1.5-6.2-1.5c-3.5,0-7.2,0.9-11.1,2.7c-4,1.8-7.8,4.4-11.6,7.5
			s-6.4,17.6-9.7,21.9c4.8-6.3-2-0.6-8,13.5c-1.5-0.6-5-16.1-6.1-16.9c-1.1-2.2-1.7-4.5-1.7-6.8c0-2.2,0.3-4.1,0.9-5.7
			c0.6-1.5,1.4-3,2.2-4.2c0.9-1.2,1.9-2.1,2.8-2.9c1-0.8,1.9-1.5,2.6-2c0.7-0.5,1.2-0.9,1.6-1.2c0.4-0.3,0.6-0.7,0.6-1.2
			c0-0.8-0.6-2.1-1.9-2.1s-3,1.4-5.2,2.1c0.7-0.5,1.3-1,1.8-1.4c0.7-0.5,1.2-0.9,1.6-1.2c0.4-0.3,0.6-0.7,0.6-1.2
			c0-0.8-0.6-1.2-1.9-1.2c-1.6,0-3.6,0.5-6.3,1.5c-2.6,1.1-5.2,2.4-7.7,4.3c-2.5,1.8-4.7,4-6.6,6.5c-1.9,2.5-1.6,9.4-1.6,12.3
			c0,1.7,0.5,3.4,1.4,5.1c0.9,1.5,2.1,3,3.6,4.4c0.9,1.5,2.1,2.8,3.6,4.1c1.8,1.5,4,2.9,6.5,4.2c1.5,0.8,3.1,1.4,4.9,1.9
			c-0.3,1.2,0.4,13,0.2,14.1c-0.3,1.9-0.5,4-0.5,5.9c0,4.4,0.8,8.3,2.4,11.5c1.4,2.6,3,4.9,5.1,6.8c1.3,1.8,2.7,3.5,4.5,4.8
			c2.6,2.1,5.6,3.7,8.9,4.7c3.3,1.1,6.7,1.5,10.1,1.6c3.3,0,6.5-0.4,9.3-1.3c2.8-0.9,5.5-2,7.9-3.4c2.2-1.4,4.3-2.8,6.1-4.4
			c0.2,0.2,0.3,0.3,0.5,0.5c0.2,0.2,0.4,0.3,0.6,0.5c0.6,1.2,1.5,2.2,2.5,3.2c2.5,2.2,5.9,3.3,10,3.3c2.6,0,5.2-0.6,7.4-1.9
			c2-1.1,3.6-2.3,5.1-3.6c0.2,0.1,0.4,0.3,0.6,0.4c0.1,0.1,0.2,0.1,0.3,0.2c0.2,1.4,1.2,2.6,2.8,3.5c2,1.1,4.4,1.6,7.2,1.7
			c0.8,0,1.4-0.1,1.8-0.4c0.4-0.3,0.6-0.9,0.6-1.7c0-5.1,0.7-9.7,1.8-13.7c1.2-4.1,2.6-7.5,4.3-10.3c1.8-2.8,3.5-5,5.5-6.5
			c1.5-1.2,2.9-1.8,4.2-2.1c-0.2,1-0.4,1.9-0.7,3c-0.6,1.7-1.3,3.6-2,5.4c-0.7,1.9-1.4,3.9-2,5.9c-0.6,2-0.9,4.2-0.9,6.3
			c0,3,1.2,5.5,3.7,7.6c0.1,0.1,0.3,0.2,0.4,0.3c0.6,1.3,1.6,2.3,2.7,3.4c2.5,2.1,5.9,3.2,10,3.2c2.6,0,5.2-0.7,7.4-1.9
			c2.3-1.4,4.3-2.8,6-4.4c0.8-0.8,1.6-1.5,2.2-2.4c0.3,0.3,0.6,0.6,0.9,0.8c0.9,1.4,1.9,2.6,3.1,3.7c1.7,1.4,3.6,2.5,6,3.3
			s4.9,1.2,7.6,1.3c4.1,0,7.7-0.6,10.8-1.9c2.7-1.2,5-2.5,6.9-3.9c0.3,0.3,0.7,0.5,1.1,0.7c0.1,0.1,0.2,0.1,0.3,0.2
			c0.2,1.4,1.2,2.6,2.8,3.5c2,1.1,4.4,1.6,7.2,1.7c0.8,0,1.4-0.1,1.8-0.4c0.4-0.3,0.6-0.9,0.6-1.7c0-5.1,0.6-9.7,1.7-13.6
			c1.1-4,2.3-7.3,3.8-10.1c1.5-2.7,3.1-4.7,4.9-6.2c1.2-1,2.2-1.5,3.1-1.8c-0.2,1-0.4,2-0.9,3.3c-0.7,2-1.5,4.3-2.2,6.7
			c-0.9,2.4-1.7,4.8-2.2,7.3c-0.7,2.5-1,4.8-1.1,7.1c0,1.7,1,3.1,2.9,4.3c0.1,0.1,0.2,0.1,0.3,0.2c0.2,1.4,1.2,2.6,2.8,3.5
			c2,1.1,4.4,1.6,7.2,1.7c0.8,0,1.4-0.1,1.8-0.4c0.4-0.3,0.6-0.9,0.6-1.7c0-2.5,0.4-5.3,1.2-8.4c0.8-3.1,2-6.6,3.6-10.3
			c1.9-4.4,3.8-7.6,6-9.9c1.4-1.5,2.5-2.3,3.5-2.9c-0.2,0.6-0.4,1.2-0.6,1.8c-0.6,1.5-1.3,2.9-2,4.5c-0.7,1.6-1.4,3.4-2,5.4
			c-0.6,1.9-0.9,4.2-0.9,6.6c0,3.5,1.2,6.3,3.7,8.4c0.2,0.2,0.4,0.3,0.6,0.5c0.6,1.2,1.5,2.2,2.5,3.2c2.5,2.2,5.9,3.3,10,3.3
			c2.6,0,5.2-0.7,7.4-1.9c2.3-1.4,4.3-2.8,6-4.4c0.1-0.1,0.3-0.3,0.4-0.4c0.1,0.1,0.1,0.1,0.2,0.2c0.4,0.4,0.9,0.8,1.3,1.1
			c0.5,1,1.1,1.8,1.9,2.6c1,1,2.2,1.7,3.4,2.3c1.4,0.6,2.7,0.8,4.2,0.9c2.2,0,4.1-0.4,5.9-1.4c1.9-0.9,3.4-1.9,4.9-3
			c1.2-0.9,2.3-1.9,3.5-3.1c0.5,0.7,1.1,1.2,1.8,1.7c0.1,0.1,0.3,0.2,0.4,0.3c0.6,1.4,1.6,2.5,2.7,3.4c2.1,1.5,4.7,2.3,7.7,2.3
			c1.6,0,3.1-0.4,4.6-1.1c1.5-0.8,2.8-1.5,4-2.6c1.3-1.1,2.6-2.3,3.8-3.7c0.2-0.3,0.3-0.6,0.6-0.9c0.4-0.6,0.7-1.1,0.7-1.5
			C432.4,189.5,432.1,189,431.6,188.5z M394.2,186.7c0-2.2,0.5-4.6,1.4-7.4c0.9-2.7,2.1-5.3,3.4-7.6c1.4-2.3,2.9-4.4,4.6-6
			c1.7-1.6,3.3-2.4,4.9-2.4c0.2,0,0.5,0,0.7,0.1c0,0.3,0.1,0.6,0,0.9c0,2-0.6,4.4-1.7,7.2c-1.1,2.7-2.3,5.3-3.9,7.7
			c-1.6,2.4-3.2,4.5-4.9,6.2c-1.7,1.6-3.1,2.5-4.5,2.5C394.2,187.5,394.2,187.1,394.2,186.7z M289.9,163.3c1-0.8,2-1.4,3-1.5
			c-0.2,0.8-0.5,1.5-0.9,2.4c-0.8,1.6-1.8,3.2-3,4.7c-1.3,1.5-2.8,2.8-4.6,3.9c-0.5,0.3-0.9,0.5-1.4,0.7c0-0.1,0.1-0.2,0.1-0.4
			c0.8-1.9,1.7-3.7,2.8-5.4C287.1,166,288.4,164.6,289.9,163.3z M266.3,185.6c-0.2,0.3-0.5,0.5-0.7,0.8
			C265.9,186.1,266.1,185.9,266.3,185.6L266.3,185.6z M182.4,116.5c0,0.1,0,0.2,0,0.3c0,2.5-0.8,5.3-2.2,8.2c-1.5,3-3.6,5.7-6.4,8.3
			s-4.7,7.5-8.7,9.4c-2.6,1.2-10.5,2.8-13.5,3.3c1.2-2.5,6-8.7,7.4-11c2.2-3.6,4.6-6.8,7.1-9.6c2.5-2.8,5.1-4.9,7.7-6.6
			c2.6-1.6,5.2-2.4,7.5-2.4C181.8,116.4,182.1,116.4,182.4,116.5z M349.5,164.5c-0.1-0.2-0.1-0.3-0.2-0.4c1.8-1.7,3.1-2.6,4.3-2.6
			C352.3,162.4,350.9,163.4,349.5,164.5z"/>
		<path class="st5" d="M202.1,142.5c0.3,1.1,0.7,1.8,1.5,2.6c1.2,1.1,2.5,1.6,4.1,1.6c1.2,0,2.2-0.3,3.3-0.9s2.1-1.4,2.8-2.4
			c0.9-1.1,1.5-2.2,2-3.5s0.7-2.7,0.8-4.1c0-1.7-0.5-3.2-1.6-4.3c-0.6-0.6-1.2-1-1.9-1.3c-0.2-1-0.7-1.7-1.3-2.4
			c-1.1-1.1-2.3-1.6-4-1.6c-1.3,0-2.4,0.3-3.5,0.9c-1.1,0.6-2.1,1.4-2.9,2.4c-0.9,1.1-1.6,2.1-2.1,3.4c-0.5,1.3-0.8,2.6-0.8,3.9
			c0,1.9,0.6,3.4,1.7,4.4C201,141.9,201.5,142.3,202.1,142.5z"/>
	</g>
	<g>
		<g>
			<path class="st6" d="M156.8,190.8c-3.6,0-7-0.7-10.6-1.9c-3.5-1.3-6.7-3.1-9.4-5.6c-2.7-2.5-5-5.6-6.7-9.5
				c-1.8-3.8-2.5-8.3-2.5-13.5c0-2.3,0.2-4.6,0.5-7c0.3-2.3,0.8-4.6,1.5-7c-3.4-0.9-6.5-2.1-9.2-3.7c-2.6-1.5-4.9-3.1-6.7-4.9
				c-1.9-1.8-3.3-3.8-4.3-5.7c-1.1-2-1.5-4-1.5-6c0-3.5,1.1-6.7,2.9-9.7c2-3,4.3-5.6,6.8-7.6c2.6-2.1,5.4-3.9,8.1-5
				c2.7-1.3,4.9-1.8,6.6-1.8c1.4,0,2,0.5,2,1.4c0,0.6-0.2,1.1-0.6,1.4c-0.4,0.4-0.9,0.8-1.7,1.4c-0.8,0.7-1.8,1.5-2.7,2.4
				c-1,1-2.1,2-2.9,3.4c-0.9,1.4-1.8,3-2.3,4.9c-0.6,1.8-0.9,4.1-0.9,6.7c0,2.7,0.6,5.5,1.9,8.2c1.3,2.7,3.6,4.9,7.2,6.6
				c2.2-5.7,5-10.9,8.4-16s7-9.4,11.1-13.1c4-3.8,8-6.7,12.2-8.9c4.2-2.1,8.1-3.2,11.7-3.2c2.2,0,4.4,0.6,6.5,1.8
				c2.1,1.2,3.7,2.6,5.2,4.4c1.5,1.7,2.5,3.7,3.4,5.7c0.8,2,1.3,4,1.3,5.7c0,3.2-1.2,6.9-3.4,10.7c-2.2,3.9-5.4,7.5-9.4,10.9
				c-4,3.4-8.9,6.2-14.6,8.4c-5.7,2.3-12.1,3.4-19.2,3.5c-0.9,4.3-1.5,8.4-1.5,12.7c-0.1,7.9,1.4,13.7,4.3,17.2
				c2.8,3.5,7,5.2,12.6,5.3c2.1,0,4.1-0.4,6.2-1.1c2.1-0.7,4.1-1.7,6.1-3s3.8-2.7,5.5-4.4c1.7-1.7,3.2-3.5,4.5-5.3
				c0.1-0.2,0.3-0.6,0.6-0.9c0.1-0.1,0.4-0.4,0.7-0.6s0.6-0.4,1.1-0.4c0.7,0,1.3,0.2,1.8,0.8c0.4,0.5,0.7,1.2,0.7,1.7
				c0,0.4-0.1,0.7-0.2,0.9c-0.1,0.4-0.2,0.6-0.4,0.9c-0.2,0.4-0.3,0.7-0.5,1.2c-1.4,2.1-2.9,4.3-4.8,6.4c-2,2-4.1,4-6.7,5.6
				c-2.5,1.7-5.4,3.1-8.3,4C163.7,190.3,160.3,190.8,156.8,190.8z M176.7,105.4c-2.4,0-5.2,0.9-7.9,2.8c-2.7,1.9-5.5,4.4-8.1,7.7
				s-5.2,7.1-7.5,11.3s-4.2,8.8-5.9,13.4c5.2-0.1,9.9-1.3,14.1-3.3c4.2-2,7.7-4.6,10.7-7.7c2.8-3.1,5.2-6.3,6.7-9.8
				c1.6-3.5,2.3-6.7,2.3-9.7c0-1.4-0.4-2.6-1.2-3.4C179.2,105.9,178.2,105.5,176.7,105.4z"/>
			<path class="st6" d="M195.7,177.9c0,1.2,0.3,2.2,0.9,2.9c0.6,0.8,1.5,1.2,2.5,1.2c1.5,0,2.9-0.4,4.3-1.4c1.5-0.9,2.6-1.9,3.8-3.2
				c1.3-1.3,2.5-2.8,3.6-4.5c0.1-0.2,0.3-0.5,0.6-0.8c0.1-0.1,0.4-0.3,0.7-0.5c0.3-0.2,0.6-0.3,1-0.3c0.6,0,1.1,0.2,1.6,0.7
				c0.5,0.4,0.7,1,0.7,1.5c0,0.3-0.1,0.6-0.2,0.8c-0.1,0.3-0.2,0.5-0.4,0.8c-0.2,0.3-0.3,0.6-0.5,1c-1.7,2.4-3.4,4.6-5.4,6.5
				c-1.7,1.6-3.7,3.1-6,4.4c-2.3,1.4-4.8,1.9-7.4,1.9c-4.1,0-7.4-1.2-10-3.3c-2.5-2.2-3.8-5-3.7-8.4c0-1.9,0.4-4.2,1.1-6.9
				c0.7-2.7,1.5-5.4,2.3-8.1c0.9-2.7,1.9-5.3,2.8-7.8c1-2.4,1.9-4.4,2.5-5.9c0.3-0.6,0.7-1.1,1.2-1.5c0.5-0.4,1.1-0.6,1.8-0.6
				c0.8,0,1.7,0.3,2.7,0.8c1,0.5,2,1.1,2.8,1.7s1.6,1.3,2.2,1.9c0.6,0.7,0.9,1.3,0.9,1.6c0,1.6-0.4,3.4-1,5.2
				c-0.7,1.8-1.4,3.9-2.2,6c-0.8,2.1-1.5,4.4-2.2,6.7C195.9,172.9,195.7,175.4,195.7,177.9z M211.8,127.1c0,1.5-0.3,2.8-0.8,4.1
				c-0.5,1.3-1.2,2.4-2,3.5c-0.9,1.1-1.8,1.8-2.8,2.4c-1.1,0.6-2.2,0.9-3.3,0.9c-1.6,0-2.9-0.6-4.1-1.6c-1.2-1.1-1.8-2.5-1.7-4.4
				c0-1.4,0.3-2.6,0.8-3.9c0.5-1.3,1.2-2.4,2.1-3.4c0.9-1.1,1.9-1.8,2.9-2.4c1.1-0.6,2.2-0.9,3.5-0.9c1.6,0,2.9,0.6,4,1.6
				C211.2,123.9,211.8,125.3,211.8,127.1z"/>
			<path class="st6" d="M248.9,178.4c0,1.2,0.3,2.2,0.9,2.9c0.6,0.8,1.5,1.2,2.5,1.2c1.5,0,2.9-0.4,4.3-1.4c1.5-0.9,2.6-1.9,3.8-3.2
				c1.3-1.3,2.5-2.8,3.6-4.5c0.1-0.2,0.3-0.5,0.6-0.8c0.1-0.1,0.4-0.3,0.7-0.5s0.6-0.3,1-0.3c0.6,0,1.1,0.2,1.6,0.7
				c0.5,0.4,0.7,1,0.7,1.5c0,0.3-0.1,0.6-0.2,0.8c-0.1,0.3-0.2,0.5-0.4,0.8c-0.2,0.3-0.3,0.6-0.5,1c-1.7,2.4-3.4,4.6-5.4,6.5
				c-1.7,1.6-3.7,3.1-6,4.4c-2.2,1.4-4.8,1.9-7.4,1.9c-4.1,0-7.4-1.1-10-3.2c-2.5-2.1-3.8-4.6-3.7-7.6c0-2.2,0.3-4.3,0.9-6.3
				c0.6-2,1.3-4,2-5.9c0.7-1.9,1.4-3.7,2-5.4c0.6-1.7,0.9-3.4,0.9-5c0-0.5-0.2-0.9-0.7-1.3c-0.4-0.3-1-0.5-1.6-0.5
				c-1.7,0-3.5,0.8-5.4,2.2c-2,1.5-3.8,3.7-5.5,6.5c-1.8,2.8-3.1,6.3-4.3,10.3s-1.8,8.6-1.8,13.7c0,1-0.2,1.5-0.6,1.7
				c-0.4,0.3-1,0.4-1.8,0.4c-2.9,0-5.4-0.6-7.2-1.7c-2-1.1-2.9-2.5-2.9-4.3c0-3,0.4-6.1,1.1-9.4c0.7-3.3,1.6-6.5,2.5-9.5
				c1-3.1,2-5.9,2.9-8.5c1-2.6,1.9-4.6,2.5-6.1c0.6-1.4,1.6-2,2.9-2c0.8,0,1.9,0.3,3.1,1c1.3,0.7,2.7,2.2,4.4,4.8
				c1.6-1.3,3.2-2.4,5.2-3.4c1.6-0.9,3.4-1.6,5.5-2.3s4.2-1.1,6.6-1c1.2,0,2.3,0.3,3.4,0.9s2.2,1.4,2.9,2.2c0.9,0.9,1.6,1.8,2.1,2.9
				c0.5,1.1,0.8,2.1,0.8,3.2c0,1.6-0.3,3.4-1,5.1c-0.6,1.8-1.3,3.7-2.1,5.5c-0.7,1.9-1.4,3.9-2.1,5.8
				C249.3,174.6,248.9,176.5,248.9,178.4z"/>
			<path class="st6" d="M306.4,177c-1.7,2.4-3.6,4.6-6.1,6.5c-2.1,1.6-4.6,3.1-7.6,4.4c-3,1.4-6.7,1.9-10.8,1.9
				c-2.7,0-5.3-0.4-7.6-1.3c-2.3-0.8-4.3-1.9-6-3.3s-2.9-3.1-3.9-4.9c-0.9-1.9-1.4-4-1.4-6.3c0-4.1,0.8-7.7,2.3-11s3.5-6.1,5.9-8.5
				c2.3-2.3,4.9-4.2,7.6-5.4c2.7-1.3,5.3-1.8,7.7-1.8c1.7,0,3.2,0.4,4.7,1c1.5,0.7,2.7,1.5,3.8,2.5c1.1,1.1,2,2.2,2.5,3.6
				s0.9,2.7,0.9,4.2c0,1.3-0.3,2.8-0.9,4.6c-0.6,1.8-1.6,3.5-2.9,5.1c-1.4,1.6-3.2,3-5.5,4.2c-2.2,1.2-5.2,1.7-8.6,1.6
				c-0.8,0-1.7-0.1-2.5-0.4c-0.5-0.1-1.1-0.2-1.7-0.3c0,3.2,0.9,5.6,2.7,7.3c1.9,1.7,4.1,2.6,6.7,2.6c2.5,0,4.9-0.5,6.9-1.5
				c2.2-1,3.9-2.1,5.4-3.3c1.8-1.4,3.2-3,4.5-4.8c0.1-0.2,0.3-0.5,0.6-0.8c0.1-0.1,0.4-0.3,0.7-0.5c0.3-0.2,0.6-0.3,1-0.3
				c0.6,0,1.1,0.2,1.6,0.7c0.5,0.4,0.7,1,0.7,1.5c0,0.3-0.1,0.6-0.2,0.8c-0.1,0.3-0.2,0.5-0.4,0.8
				C306.7,176.3,306.6,176.6,306.4,177z M277.1,169.1c2,0,3.8-0.5,5.6-1.5c1.8-1.1,3.2-2.3,4.6-3.9c1.3-1.5,2.2-3.1,3-4.7
				c0.8-1.6,1.1-3,1.2-4.2c0-1.5-0.6-2.1-2-2.1c-1.6,0-3,0.6-4.5,1.7s-2.7,2.6-3.9,4.4c-1.2,1.6-2.1,3.5-2.8,5.4
				C277.5,166.1,277.2,167.8,277.1,169.1z"/>
			<path class="st6" d="M348.3,178.7c0-2.4,0.3-4.5,0.9-6.6c0.6-1.9,1.3-3.8,2-5.4c0.7-1.6,1.4-3.1,2-4.5c0.6-1.5,0.9-2.7,0.9-3.9
				c0-0.7-0.2-1.3-0.5-1.5c-0.4-0.3-0.8-0.5-1.4-0.5c-1.3,0-2.9,1.1-5.1,3.3c-2.2,2.2-4.1,5.5-6,9.9c-1.7,3.8-2.8,7.2-3.6,10.3
				c-0.8,3.1-1.2,5.9-1.2,8.4c0,1-0.2,1.5-0.6,1.7c-0.4,0.3-1,0.4-1.8,0.4c-2.9,0-5.4-0.6-7.2-1.7c-2-1.1-2.9-2.5-2.9-4.3
				c0-2.2,0.4-4.5,1.1-7.1c0.7-2.5,1.5-4.9,2.2-7.3c0.9-2.4,1.7-4.6,2.2-6.7c0.7-2,1-3.7,1-4.9c0-1.5-0.6-2.2-2-2.2
				c-1.3,0-2.8,0.7-4.5,2.1c-1.8,1.4-3.3,3.5-4.9,6.2c-1.5,2.7-2.8,6.1-3.8,10.1c-1.1,4-1.6,8.5-1.7,13.6c0,1-0.2,1.5-0.6,1.7
				c-0.4,0.3-1,0.4-1.8,0.4c-2.9,0-5.4-0.6-7.2-1.7c-1.9-1.2-2.9-2.5-2.9-4.3c0-3.1,0.4-6.3,1.1-9.7c0.7-3.3,1.6-6.5,2.5-9.5
				c1-3,2-5.8,2.9-8.3c1-2.5,1.9-4.5,2.5-6c0.6-1.4,1.6-2,2.9-2c0.8,0,1.9,0.3,3.1,1c1.3,0.7,2.7,2.2,4.4,4.8
				c1.6-1.3,3.1-2.4,4.8-3.4c1.5-0.9,3.1-1.6,4.9-2.3s3.6-1.1,5.5-1c2.3,0,4.3,0.8,5.7,2.3c1.4,1.5,2.4,3.4,3.2,5.6
				c1.7-1.4,3.4-2.7,5.3-3.9c1.6-1,3.2-1.8,5.2-2.6c2-0.8,3.9-1.2,6-1.2c1,0,1.9,0.3,2.8,0.7c1,0.5,1.9,1.1,2.6,1.8
				c0.8,0.8,1.5,1.5,1.9,2.5c0.5,1,0.7,1.8,0.7,2.8c0,1.5-0.4,3-1.1,4.8s-1.5,3.8-2.3,5.9c-0.9,2-1.7,4.3-2.4,6.4
				c-0.7,2.2-1.1,4.4-1.1,6.5c0,1.2,0.3,2.2,0.9,2.9c0.6,0.8,1.5,1.2,2.5,1.2c1.5,0,2.9-0.4,4.3-1.4c1.5-0.9,2.6-1.9,3.8-3.2
				c1.3-1.3,2.5-2.8,3.6-4.5c0.1-0.2,0.3-0.5,0.6-0.8c0.1-0.1,0.4-0.3,0.7-0.5s0.6-0.3,1-0.3c0.6,0,1.1,0.2,1.6,0.7
				c0.5,0.4,0.7,1,0.7,1.5c0,0.3-0.1,0.6-0.2,0.8c-0.1,0.3-0.2,0.5-0.4,0.8c-0.2,0.3-0.3,0.6-0.5,1c-1.7,2.4-3.4,4.6-5.4,6.5
				c-1.7,1.6-3.7,3.1-6,4.4c-2.2,1.4-4.8,1.9-7.4,1.9c-4.1,0-7.4-1.2-10-3.3C349.5,185,348.3,182.2,348.3,178.7z"/>
			<path class="st6" d="M426.3,183.6c-1.3,1.5-2.5,2.6-3.8,3.7c-1.2,1-2.5,1.8-4,2.6c-1.5,0.8-3,1.1-4.6,1.1c-3,0-5.6-0.8-7.7-2.3
				c-2.1-1.5-3.3-3.8-3.6-6.8c-1.5,1.7-3,3.3-4.7,4.5c-1.5,1.2-3.1,2.1-4.9,3c-1.9,0.9-3.8,1.4-5.9,1.4c-1.5,0-2.8-0.3-4.2-0.9
				c-1.4-0.6-2.4-1.4-3.4-2.3c-1-1-1.8-2.1-2.3-3.5c-0.6-1.4-0.9-2.8-0.9-4.4c0-3.8,0.8-7.5,2.3-11.3s3.5-7.1,5.9-10.1
				c2.4-3,5.1-5.4,8.1-7.2c3-1.8,6-2.7,9-2.7c2.2,0,4,0.3,5.6,0.9s2.7,1.2,3.7,1.7c1.1,0.8,2,1.6,2.6,2.4c0.8,0,1.7,0.1,2.5,0.3
				c0.9,0.2,1.8,0.5,2.5,0.9c0.8,0.4,1.4,0.9,1.9,1.5c0.5,0.7,0.8,1.5,0.8,2.3c0,0.8-0.4,2-1,3.8c-0.7,1.7-1.4,3.7-2.2,5.9
				c-0.8,2.1-1.6,4.4-2.2,6.7c-0.7,2.3-1,4.4-1.1,6.1c0,0.9,0.3,1.5,0.8,2.1c0.6,0.6,1.3,0.9,2.2,0.9c0.6,0,1.2-0.2,1.8-0.5
				c0.6-0.4,1.2-0.8,1.8-1.2c0.7-0.5,1.3-1.1,1.9-1.7c0.3-0.4,0.6-0.7,1-1c0.4-0.3,0.8-0.5,1.3-0.5c0.6,0,1.1,0.3,1.7,0.8
				c0.5,0.5,0.8,1.1,0.8,1.6c0,0.4-0.2,0.9-0.7,1.5C426.6,183.1,426.4,183.4,426.3,183.6z M407.5,159.1c0-1.5-0.4-2.7-1.1-3.5
				c-0.8-0.8-1.7-1.2-2.7-1.2c-1.6,0-3.2,0.8-4.9,2.4c-1.7,1.6-3.2,3.6-4.6,6c-1.4,2.3-2.4,4.9-3.4,7.6c-0.9,2.7-1.4,5.2-1.4,7.4
				c0,3.2,1,4.7,3.1,4.8c1.3,0,2.8-0.9,4.5-2.5c1.8-1.6,3.3-3.8,4.9-6.2s2.8-5,3.9-7.7C406.9,163.5,407.5,161.1,407.5,159.1z"/>
		</g>
	</g>
</g>
<g>
	<g>
		<g>
			<g>
				<path class="st5" d="M115.4,256.3c-0.7,1.2-1.6,2.5-2.6,4c-1,1.5-2.3,2.9-3.8,4.2c-1.5,1.3-4.5,2.5-7.9,3.1
					c-2.3,0.5-5.3,0.2-8,0.2c1.2,1.2,2.3,2.5,3.2,4.2c0.9,1.4,1.6,3.1,2.3,5.2c0.7,2.1,1,4.4,1,7.2c0,1.5-0.2,3.2-0.8,4.9
					c-0.5,1.7-1.2,3.3-2.2,4.8c-0.9,1.5-2.1,2.7-3.5,3.7c-1.4,1-3,1.5-4.8,1.5c-1.6,0.1-3.4-0.2-5.4-1c-2-0.7-3.8-1.7-5.5-3.5
					s-3.1-3.8-4.1-6.4c-1.2-2.6-1.7-6-1.7-10c0-6.7,0.5-13.7,1.4-21.1c1-7.3,2.3-14.6,3.9-21.7c1.7-7.1,3.7-13.8,5.9-20.2
					c2.4-6.4,4.8-12,7.3-16.7c2.7-4.8,6.7-12.1,8.1-15.9c3.1-8.2,7-12.3,9.8-12.4c1.3,0,2.4,2.3,3.6,3c1.2,0.7,2.4,1.5,3.4,2.6
					c1,1.1,1.8,2.2,2.4,3.5c0.6,1.3,1,2.4,1,3.5c0,1.7-1.5,14.4-2.3,17.1c-0.8,2.8-2.1,5.8-3.6,9.1c-1.4,3.3-3.3,6.8-5.2,10.3
					c-1.9,3.7-4.1,7.2-6.1,10.3c-2.1,3.4-4.5,6.5-6.6,9.3c-2.2,2.9-4.4,5.3-6.4,7.1c-0.6,1.9-1,4-1.4,6.1c-0.3,2.1-0.5,4.4-0.8,6.5
					c0.5,0.8,1.2,1.4,1.9,1.8c0.6,0.4,1.4,0.8,2.3,1.1c0.9,0.4,1.3,1.1,2.5,1c1.9-0.1,4.9,0.2,6.5,0c3.5-0.6,5.6-1.9,6.7-2.9
					c1.2-1.1,1.1-1.3,2.4-2.3c1.8-1.5,3.2-3.9,4.1-5c0.1-0.3,0.5,0.1,0.8-0.3c0.1-0.2-0.3,0.2,0,0s0.6-1.5,1-1.5
					c0.6,0,1.1,0.2,1.6,0.7s0.8,1.1,0.8,1.7c0,0.3,0,0.7-0.1,1s-0.2,0.6-0.4,1C115.7,255.5,115.5,255.9,115.4,256.3z M84.7,265.5
					c-0.1,1.6-0.2,3.4-0.4,5.1c-0.1,1.5-0.2,3.1-0.3,4.9c0,1.7,0,3.5-0.1,5.1c0,4.9,0.5,8.2,1.6,10.2c1.1,1.8,2.1,2.8,3,2.7
					c0.7,0,1.2-0.3,1.7-0.9c0.5-0.6,0.8-1.3,1.1-2.1c0.3-0.9,0.5-1.7,0.6-2.8c0.1-1.1,0.2-2,0.1-3.1c-0.1-2.6-0.4-5.1-1.2-7.5
					c-0.8-2.4-1.6-4.4-2.6-6.1C87.2,269.1,85.9,267.2,84.7,265.5z M111.4,193.4c0-1.6,0.2-12.9-1.4-12.8c-1,0-1.4-1.7-3.8,0.1
					c-5,3.7-9.7,26.4-11.3,30.7c-1.6,4.3,2.2,3,0.4,8.4c-1.8,5.4-3.2,10.8-4.6,16.3c1.2-1.1,2.5-2.6,4.1-4.8
					c1.5-2.2,3.1-4.6,4.7-7.3c1.5-2.7,3-5.6,4.5-8.7c1.4-3.1,2.7-6,3.9-8.8c1.2-2.8,2.1-5.4,2.8-7.7
					C111.1,196.5,111.4,194.7,111.4,193.4z"/>
				<path class="st5" d="M140.8,260.5c0,1.4,0.4,2.3,1.2,3c0.7,0.7,1.7,1,2.9,1c1.6,0,3.1-0.6,4.7-1.5c1.5-1.1,2.9-2.2,4-3.6
					c1.4-1.5,2.6-3.1,3.9-5c0.1-0.2,0.3-0.5,0.6-0.9c0.2-0.2,0.4-0.3,0.7-0.6c0.3-0.2,0.7-0.3,1.1-0.3c0.6,0,1.2,0.2,1.7,0.7
					s0.8,1,0.8,1.5c0,0.3,0,0.6-0.2,0.9c-0.1,0.3-0.2,0.6-0.4,0.9c-0.2,0.3-0.3,0.7-0.4,1.1c-1.7,2.7-3.6,5.2-5.7,7.3
					c-1.8,1.8-3.9,3.5-6.3,4.9c-2.5,1.5-5.2,2.2-8,2.2c-2.3,0.1-4.4-0.2-6.1-0.9c-1.8-0.6-3.5-1.4-4.8-2.4c-1.4-1-2.4-2.2-3.2-3.6
					c-0.8-1.4-1.2-2.8-1.1-4.4c-0.1-2.5,0.4-4.9,1.2-7.2c0.7-2.2,1.5-4.4,2.5-6.2c0.9-1.8,1.7-3.5,2.5-4.9s1.1-2.6,1.1-3.6
					c0-0.6-0.4-1.1-1.2-1.4s-1.6-0.5-2.5-0.8c-1-0.2-2.2-0.4-3.6-0.5c-2.2,5.7-4.4,10.3-6.3,13.8c-2,3.7-3.7,6.4-5,8
					c-0.2,0.2-0.4,0.6-0.9,1.1c-0.4,0.5-1,0.7-1.7,0.8c-0.6,0-1.2-0.2-1.7-0.7s-0.8-1.1-0.8-1.6s0.1-1.1,0.5-1.5
					c0.3-0.5,0.6-1,0.7-1.3c1.1-1.5,2.6-4.1,4.7-7.3c1.9-3.4,3.9-7.8,5.6-13.2c-0.8-0.5-1.5-1.2-2.1-2c-0.5-0.7-1-1.5-1.4-2.6
					c-0.4-1.1-0.7-2.3-0.7-3.8c0-1.2,0.2-2.2,0.6-3.3c0.4-1.1,1-1.9,1.6-2.7c0.7-0.8,1.4-1.5,2.2-1.9c0.8-0.5,1.5-0.8,2.2-0.8
					c0.8,0,1.6,0.2,2.5,0.6c0.9,0.4,1.7,0.9,2.4,1.5c0.7,0.6,1.3,1.2,1.8,1.9c0.5,0.7,0.8,1.4,0.8,1.8c0,1.5-0.2,2.8-0.7,3.9
					c-0.5,1-0.7,1.9-0.7,2.9c0,0.9,0.5,1.5,1.5,1.8c1,0.4,2.2,0.5,3.6,0.5c1.3,0,2.5-0.2,3.4-0.3c0.9-0.2,1.7-0.4,2.4-0.6
					c0.7-0.2,1.4-0.4,2-0.6c0.6-0.2,1.3-0.3,2-0.3c1.4,0,2.6,0.5,3.6,1.5c0.9,1.1,1.4,2.3,1.5,3.9c0,1.4-0.4,2.9-1.3,4.7
					c-0.9,1.8-1.8,3.9-3,6c-1,2.2-2.1,4.4-3,6.9C141.1,255.9,140.7,258.2,140.8,260.5z"/>
				<path class="st5" d="M217,257.2c-1.7,2.7-3.6,5.2-5.7,7.3c-1.8,1.8-3.9,3.5-6.3,4.9c-2.5,1.5-5.2,2.2-8,2.2
					c-3.3,0.1-6.1-0.8-8.4-2.4c-2.4-1.5-3.8-4-4.1-7.2c-1.5,1.9-3.2,3.7-5.1,5c-1.6,1.3-3.3,2.4-5.3,3.4c-2,1.1-4.1,1.6-6.3,1.5
					c-1.6,0-3.1-0.2-4.6-0.9c-1.5-0.6-2.8-1.4-3.9-2.3c-1.1-1.1-2-2.3-2.7-3.8s-1-3-1-4.8c-0.1-4.2,0.8-8.3,2.3-12.4
					c1.5-4.2,3.7-7.8,6.1-11.1c2.5-3.4,5.5-6,8.7-7.9c3.2-2.1,6.3-3.1,9.6-3.1c2.4-0.1,4.4,0.2,6,0.8c1.7,0.5,3.1,1.2,4.1,1.7
					c1.2,0.8,2.2,1.6,2.9,2.6c0.9,0,1.8,0,2.8,0.2c1,0.2,1.9,0.5,2.8,0.9c0.8,0.4,1.6,1,2.1,1.6c0.6,0.7,0.9,1.5,0.9,2.5
					c0,0.9-0.3,2.2-0.9,4.2c-0.7,1.9-1.4,4.1-2.4,6.5c-0.8,2.3-1.6,4.8-2.4,7.3c-0.6,2.5-1,4.7-1.1,6.7c0,1,0.3,1.6,1,2.3
					c0.6,0.6,1.4,0.9,2.5,0.9c1.6,0,3.1-0.6,4.7-1.5c1.5-1.1,2.9-2.2,4-3.6c1.4-1.5,2.6-3.1,3.9-5c0.1-0.2,0.3-0.5,0.6-0.9
					c0.2-0.2,0.4-0.3,0.7-0.6c0.3-0.2,0.7-0.3,1.1-0.3c0.6,0,1.2,0.2,1.7,0.7s0.8,1,0.8,1.5c0,0.3,0,0.6-0.2,0.9
					c-0.1,0.3-0.2,0.6-0.4,0.9C217.3,256.5,217.2,256.8,217,257.2z M189.4,237.1c-0.1-1.6-0.5-2.9-1.4-3.7c-0.9-0.8-1.9-1.2-3.1-1.2
					c-1.7,0.1-3.5,1-5.3,2.7c-1.8,1.8-3.4,4.1-4.9,6.6c-1.4,2.6-2.6,5.4-3.6,8.4c-0.9,3-1.4,5.7-1.4,8.1c0.1,3.5,1.2,5.1,3.5,5.1
					c1.4,0,3-1,4.9-2.8c1.8-1.9,3.5-4.3,5.3-6.9c1.7-2.7,3-5.6,4.2-8.6C189,242,189.5,239.3,189.4,237.1z"/>
				<path class="st5" d="M254.6,258.9c0,1.4,0.4,2.3,1.1,3.1c0.7,0.8,1.6,1.2,2.8,1.2c1.6,0,3.1-0.6,4.7-1.5c1.5-1.1,2.9-2.2,4-3.6
					c1.4-1.5,2.6-3.1,3.9-5c0.1-0.2,0.3-0.5,0.6-0.9c0.2-0.2,0.4-0.3,0.7-0.6c0.3-0.2,0.7-0.3,1.1-0.3c0.6,0,1.2,0.2,1.7,0.7
					s0.8,1,0.8,1.5c0,0.3,0,0.6-0.2,0.9c-0.1,0.3-0.2,0.6-0.4,0.9c-0.2,0.3-0.3,0.7-0.4,1.1c-1.7,2.7-3.6,5.2-5.7,7.3
					c-1.8,1.8-3.9,3.5-6.3,4.9c-2.5,1.5-5.2,2.2-8,2.2c-4.5,0.1-8.1-1.1-11-3.3c-2.8-2.2-4.2-4.9-4.2-8.1c-0.1-2.4,0.3-4.6,0.9-6.9
					s1.2-4.4,2.1-6.5c0.7-2.1,1.3-4.1,2-6c0.6-1.9,0.8-3.8,0.9-5.5c0-0.6-0.3-1-0.8-1.3c-0.5-0.3-1-0.5-1.7-0.5
					c-1.8,0.1-3.8,1-5.7,2.5c-2.1,1.7-4,4.2-5.8,7.3c-1.8,3.2-3.4,7-4.5,11.4c-1.2,4.4-1.8,9.5-1.7,15c0,1-0.2,1.6-0.6,1.9
					s-1.1,0.5-2,0.5c-3.2,0.1-5.8-0.5-7.9-1.7c-2.2-1.2-3.3-2.6-3.2-4.4c-0.1-3.2,0.4-6.7,1-10.2c0.6-3.6,1.6-7.1,2.6-10.4
					c0.9-3.4,2.1-6.5,3.1-9.4c1-2.9,1.9-5.1,2.7-6.8c0.6-1.5,1.6-2.2,3.1-2.3c0.9,0,2,0.3,3.5,1c1.4,0.7,3.1,2.3,4.9,5.1
					c1.6-1.5,3.5-2.7,5.5-3.8c1.7-1,3.7-1.8,5.8-2.6c2.2-0.9,4.6-1.2,7-1.2c1.3,0,2.5,0.2,3.8,0.8c1.2,0.6,2.4,1.4,3.3,2.2
					c1,1,1.8,1.9,2.4,3.1c0.6,1.2,0.9,2.3,0.9,3.4c0.1,1.7-0.2,3.7-0.9,5.6c-0.6,1.9-1.3,4.1-2.1,6.1c-0.7,2.1-1.3,4.3-2.2,6.4
					C255,254.7,254.6,256.8,254.6,258.9z"/>
				<path class="st5" d="M318.5,256.2c-1.7,2.2-3.6,4.3-5.8,6.2c-1.9,1.6-4.2,3.3-6.9,4.6c-2.7,1.5-5.8,2.6-9.3,3.1
					c0,0.9,0.2,1.7,0.5,2.7c0.3,1,0.9,1.5,1.8,1.4c1,0,2-0.1,3-0.3c1.1-0.2,2-0.3,2.9-0.3c1.1,0,2,0.3,2.5,1.1
					c0.6,0.7,0.9,1.6,0.9,2.8c0,1.5-0.3,3.1-1.1,4.8c-0.7,1.7-1.9,3.5-3.6,5c-1.6,1.5-3.5,2.9-5.8,4c-2.4,1.1-5.1,1.6-8.2,1.6
					c-2.5,0.1-4.5-0.4-6-1.4c-1.6-0.9-2.4-2.1-2.5-3.7c0-1.3,0.4-2.3,1.2-3.3c0.8-1,1.8-1.5,2.9-1.5c0.8,0,1.4,0.1,1.9,0.5
					c0.5,0.3,1,0.7,1.4,1.2c0.4,0.5,1,0.9,1.6,1.2c0.6,0.3,1.6,0.5,2.8,0.5c1.2,0,2.4-0.3,3.6-0.8c1.2-0.5,2.2-1.1,3.1-1.7
					s1.6-1.4,2.1-1.9c0.5-0.7,0.8-1.1,0.8-1.5s-0.2-0.6-0.6-0.6c-1.7,0.1-3.5,0.4-5.2,0.9c-1.7,0.6-3.2,1-4.6,0.9
					c-1,0-1.7-0.3-2.2-0.9c-0.5-0.7-0.8-1.3-0.8-1.8c0-1.3,0.1-2.7,0.4-4.5c0.3-1.7,0.5-3.2,0.7-4.3c-2.4-0.1-4.7-0.6-7-1.3
					c-2.3-0.6-4.4-1.6-6.2-3s-3.4-3.1-4.5-5.2c-1.2-2.1-1.7-4.6-1.7-7.6c-0.1-3.9,0.8-7.5,2.3-11c1.5-3.6,3.7-6.7,6.1-9.3
					c2.5-2.6,5.4-4.7,8.5-6.3c3.1-1.6,6.1-2.4,9.1-2.4c2.1-0.1,4.1,0.2,5.7,0.9c1.7,0.6,3.1,1.5,4.3,2.5c1.2,1.1,2.1,2.2,2.8,3.6
					s1,2.6,1.1,4c0,1-0.2,2-0.6,3.1c-0.4,1.1-1,2-1.6,2.9c-0.7,0.9-1.4,1.5-2.3,2.1c-0.8,0.6-1.6,0.9-2.4,0.9c-1.6,0-3-0.4-4.3-1.4
					c-1.3-1-1.9-2-1.9-3.4c0-1,0.2-1.8,0.6-2.4c0.5-0.6,1-1.2,1.6-1.7c0.6-0.5,1.1-1,1.6-1.5c0.5-0.5,0.7-1,0.7-1.5
					s-0.4-1.2-1.1-1.6c-0.7-0.5-1.5-0.7-2.5-0.7c-1.7,0.1-3.4,0.8-5,1.9c-1.6,1.4-3,3-4.3,5.1c-1.3,2.1-2.3,4.4-3.1,7.1
					c-0.7,2.6-1.1,5.2-1.2,7.8c0.1,4,1.1,7,3.5,8.8c2.3,1.8,5.1,2.8,8.4,2.8c2.7-0.1,5.1-0.6,7.2-1.6c2.2-1.2,4.1-2.4,5.6-3.7
					c1.9-1.5,3.5-3.4,4.9-5.3c0.2-0.2,0.4-0.5,0.7-0.9c0.2-0.2,0.5-0.4,0.8-0.6c0.3-0.2,0.7-0.3,1.1-0.3c0.7,0,1.3,0.2,1.8,0.7
					c0.5,0.5,0.7,1,0.8,1.5c0,0.3-0.1,0.6-0.2,0.9c-0.2,0.3-0.3,0.6-0.5,0.9C318.8,255.4,318.6,255.8,318.5,256.2z"/>
				<path class="st5" d="M374.5,255.6c-1.7,2.7-3.6,5.2-5.7,7.3c-1.8,1.8-3.9,3.5-6.3,4.9c-2.5,1.5-5.2,2.2-8,2.2
					c-3.3,0.1-6.1-0.8-8.4-2.4c-2.4-1.5-3.8-4-4.1-7.2c-1.5,1.9-3.2,3.7-5.1,5c-1.6,1.3-3.3,2.4-5.3,3.4c-2,1-4.1,1.6-6.3,1.5
					c-1.6,0-3.1-0.2-4.6-0.9c-1.5-0.6-2.8-1.4-3.9-2.3c-1.1-1.1-2-2.3-2.7-3.8c-0.7-1.5-1-3-1-4.8c-0.1-4.2,0.8-8.3,2.3-12.4
					c1.5-4.2,3.7-7.8,6.1-11.1c2.5-3.4,5.5-6,8.7-7.9c3.2-2.1,6.3-3.1,9.6-3.1c2.4-0.1,4.4,0.2,6,0.8c1.7,0.6,3.1,1.2,4.1,1.7
					c1.2,0.8,2.2,1.6,2.9,2.6c0.9,0,1.8,0,2.8,0.2c1,0.2,1.9,0.5,2.8,0.9c0.8,0.4,1.6,1,2.1,1.6c0.6,0.7,0.9,1.5,0.9,2.5
					c0,0.9-0.3,2.2-0.9,4.2c-0.7,1.9-1.4,4.1-2.4,6.5c-0.8,2.3-1.6,4.8-2.4,7.3c-0.6,2.5-1,4.7-1.1,6.7c0,1,0.3,1.6,1,2.3
					c0.6,0.6,1.4,0.9,2.5,0.9c1.6,0,3.1-0.6,4.7-1.5c1.5-1.1,2.9-2.2,4-3.6c1.4-1.5,2.6-3.1,3.9-5c0.1-0.2,0.3-0.5,0.6-0.9
					c0.2-0.2,0.4-0.3,0.7-0.6c0.3-0.2,0.7-0.3,1.1-0.3c0.6,0,1.2,0.2,1.7,0.7c0.5,0.5,0.8,1,0.8,1.5c0,0.3,0,0.6-0.2,0.9
					c-0.1,0.3-0.2,0.6-0.4,0.9C374.8,254.8,374.7,255.2,374.5,255.6z M347,235.5c-0.1-1.6-0.5-2.9-1.4-3.7c-0.9-0.8-1.9-1.2-3.1-1.2
					c-1.7,0.1-3.5,1-5.3,2.7c-1.8,1.8-3.4,4.1-4.9,6.6c-1.4,2.6-2.6,5.4-3.6,8.4c-0.9,3-1.4,5.7-1.4,8.1c0.1,3.5,1.2,5.1,3.5,5.1
					c1.4,0,3-1,4.9-2.8c1.8-1.9,3.5-4.3,5.3-6.9c1.6-2.7,3-5.6,4.2-8.6C346.5,240.2,347,237.7,347,235.5z"/>
				<path class="st5" d="M384.3,257.5c0,1.4,0.4,2.3,1.1,3.1c0.7,0.8,1.6,1.2,2.8,1.2c1.6,0,3.1-0.6,4.7-1.5c1.5-1.1,2.9-2.2,4-3.6
					c1.4-1.5,2.6-3.1,3.9-5c0.1-0.2,0.3-0.5,0.6-0.9c0.2-0.2,0.4-0.3,0.7-0.6c0.3-0.2,0.7-0.3,1.1-0.3c0.6,0,1.2,0.2,1.7,0.7
					c0.5,0.5,0.8,1,0.8,1.5c0,0.3,0,0.6-0.2,0.9c-0.1,0.3-0.2,0.6-0.4,0.9c-0.2,0.3-0.3,0.7-0.4,1.1c-1.7,2.7-3.6,5.2-5.7,7.3
					c-1.8,1.8-3.9,3.5-6.3,4.9c-2.5,1.5-5.2,2.2-8,2.2c-4.5,0.1-8.1-1.2-11-3.4c-2.8-2.2-4.2-5.3-4.2-9c-0.1-2,0.3-4.5,1-7.5
					c0.6-2.9,1.5-5.9,2.4-8.9c0.9-3,1.9-5.9,3-8.6c1.1-2.7,0.4-3.2,1.2-4.8c0.3-0.6,0.7-1.2,1.3-1.5c0.5-0.5,1.2-0.7,1.9-0.7
					c0.9,0,1.9,0.2,3,0.7c1.1,0.5,2.2,1.1,3.2,1.7c1,0.7,2.3,1.9,2.9,2.6c0.7,0.7,1,1.3,1,1.7c0.1,1.7-0.2,3.7-1,5.7
					c-0.7,2-0.5,2-1.4,4.4c-0.8,2.3-1.5,4.8-2.2,7.3C384.5,252.1,384.2,254.8,384.3,257.5z"/>
				<path class="st5" d="M419.5,270c-2.9,0.1-5.7-0.5-8.3-1.6c-2.7-1.1-5-2.5-6.9-4.2s-3.6-3.4-4.7-5.5c-1.2-1.9-1.8-3.8-1.8-5.5
					c0-1.6,0.5-3.1,1.7-4.4c1.2-1.2,2.4-2.2,3.8-3c1.6-0.9,3.5-1.6,5.7-2.1c0.5-0.8,1.1-1.7,1.8-2.9c0.6-1,1.4-2.3,2.4-3.8
					c1-1.5,2.1-3.4,3.5-5.4c2.7-4.2,5.2-7,7-8.5c1.9-1.6,3.7-2.5,5.2-2.4c0.6,0,1.3,0.1,2,0.5c0.7,0.3,1.3,0.7,1.9,1.2
					s1.1,0.9,1.5,1.4c0.4,0.5,0.6,0.9,0.6,1.2c0,0.4-0.1,0.9-0.4,1.5s-0.6,1.3-1,1.8c-0.3,0.7-0.6,1.4-0.9,2.1
					c-0.3,0.8-0.4,1.5-0.3,2.2c0.1,2.3,0.4,4.3,0.8,6c0.5,1.6,1.1,3.3,1.6,4.7c0.5,1.5,1.2,2.9,1.7,4.4c0.5,1.5,0.8,3,0.8,4.7
					c0.1,2.4-0.4,4.7-1.2,6.9c-0.7,2.1-1.8,4-3.4,5.6c-1.5,1.5-3.3,2.8-5.5,3.7C424.9,269.5,422.4,270,419.5,270z M419.3,237.3
					c-1.6,2.5-3.1,4.7-4.4,6.8c-1.1,1.8-2,3.5-3,5c-0.9,1.5-1.3,2.5-1.3,2.9c0.1,1.6,0.2,3.3,0.3,4.9c0.2,1.5,0.6,3,1.1,4.2
					c0.5,1.3,1.1,2.2,1.9,2.9c0.7,0.7,1.7,1.1,2.8,1c1.8-0.1,3.4-1.1,4.6-2.9c1.3-1.9,1.8-4.3,2-6.9c0-1.5-0.3-3-0.6-4.5
					c-0.4-1.6-0.9-3.2-1.3-4.7c-0.5-1.5-0.9-3.1-1.3-4.5C419.4,239.7,419.2,238.5,419.3,237.3z"/>
			</g>
			<g>
				<path class="st5" d="M112.8,251.8c-0.7,1.2-1.6,2.5-2.6,4c-1,1.5-2.3,2.9-3.8,4.2c-1.5,1.3-4.5,2.5-7.9,3.1
					c-2.3,0.5-5.3,0.2-8,0.2c1.2,1.2,2.3,2.5,3.2,4.2c0.9,1.4,1.6,3.1,2.3,5.2c0.7,2.1,1,4.4,1,7.2c0,1.5-0.2,3.2-0.8,4.9
					c-0.5,1.7-1.2,3.3-2.2,4.8c-0.9,1.5-2.1,2.7-3.5,3.7c-1.4,1-3,1.5-4.8,1.5c-1.6,0.1-3.4-0.2-5.4-1c-2-0.7-3.8-1.7-5.5-3.5
					c-1.7-1.6-3.1-3.8-4.1-6.4c-1.2-2.6-1.7-6-1.7-10c0-6.7,0.5-13.7,1.4-21.1c1-7.3,2.3-14.6,3.9-21.7c1.7-7.1,3.7-13.8,5.9-20.2
					c2.4-6.4,4.8-12,7.3-16.7c2.7-4.8,6.7-12.1,8.1-15.9c3.1-8.2,7-12.3,9.8-12.4c1.3,0,2.4,2.3,3.6,3c1.2,0.7,2.4,1.5,3.4,2.6
					c1,1.1,1.8,2.2,2.4,3.5s1,2.4,1,3.5c0,1.7-1.5,14.4-2.3,17.1c-0.8,2.8-2.1,5.8-3.6,9.1c-1.4,3.3-3.3,6.8-5.2,10.3
					c-1.9,3.7-4.1,7.2-6.1,10.3c-2.1,3.4-4.5,6.5-6.6,9.3c-2.2,2.9-4.4,5.3-6.4,7.1c-0.6,1.9-1,4-1.4,6.1c-0.3,2.1-0.5,4.4-0.8,6.5
					c0.5,0.8,1.2,1.4,1.9,1.8c0.6,0.4,1.4,0.8,2.3,1.1c0.9,0.4,1.3,1.1,2.5,1c1.9-0.1,4.9,0.2,6.5,0c3.5-0.6,5.6-1.9,6.7-2.9
					s1.1-1.3,2.4-2.3c1.8-1.5,3.2-3.9,4.1-5c0.1-0.3,0.5,0.1,0.8-0.3c0.1-0.2-0.3,0.2,0,0s0.6-1.5,1-1.5c0.6,0,1.1,0.2,1.6,0.7
					s0.8,1.1,0.8,1.7c0,0.3,0,0.7-0.1,1c-0.1,0.3-0.2,0.6-0.4,1C113.1,250.9,112.9,251.3,112.8,251.8z M82,260.8
					c-0.1,1.6-0.2,3.4-0.4,5.1c-0.1,1.5-0.2,3.1-0.3,4.9c0,1.7,0,3.5-0.1,5.1c0,4.9,0.5,8.2,1.6,10.2c1.1,1.8,2.1,2.8,3,2.7
					c0.7,0,1.2-0.3,1.7-0.9c0.5-0.6,0.8-1.3,1.1-2.1c0.3-0.9,0.5-1.7,0.6-2.8c0.1-1.1,0.2-2,0.1-3.1c-0.1-2.6-0.4-5.1-1.2-7.5
					c-0.8-2.4-1.6-4.4-2.6-6.1C84.6,264.6,83.3,262.5,82,260.8z M108.8,188.8c0-1.6,0.2-12.9-1.4-12.8c-1,0-1.4-1.7-3.8,0.1
					c-5,3.7-9.7,26.4-11.3,30.7c-1.6,4.3,2.2,3,0.4,8.4c-1.7,5.4-3.2,10.8-4.6,16.3c1.2-1.1,2.5-2.6,4.1-4.8s3.1-4.6,4.7-7.3
					c1.5-2.7,3-5.6,4.5-8.7c1.4-3.1,2.7-6,3.9-8.8c1.1-2.8,2.1-5.4,2.8-7.7C108.4,191.9,108.8,190,108.8,188.8z"/>
				<path class="st5" d="M138,255.9c0,1.4,0.4,2.3,1.2,3c0.7,0.7,1.7,1,2.9,1c1.6,0,3.1-0.6,4.7-1.5c1.5-1.1,2.9-2.2,4-3.6
					c1.4-1.5,2.6-3.1,3.9-5c0.1-0.2,0.3-0.5,0.6-0.9c0.2-0.2,0.4-0.3,0.7-0.6c0.3-0.2,0.7-0.3,1.1-0.3c0.6,0,1.2,0.2,1.7,0.7
					c0.5,0.5,0.8,1,0.8,1.5c0,0.3,0,0.6-0.2,0.9c-0.1,0.3-0.2,0.6-0.4,0.9c-0.2,0.3-0.3,0.7-0.4,1.1c-1.7,2.7-3.6,5.2-5.7,7.3
					c-1.8,1.8-3.9,3.5-6.3,4.9c-2.5,1.5-5.2,2.2-8,2.2c-2.3,0.1-4.4-0.2-6.1-0.9c-1.8-0.6-3.5-1.4-4.8-2.4c-1.4-1-2.4-2.2-3.2-3.6
					c-0.8-1.4-1.2-2.8-1.1-4.4c-0.1-2.5,0.4-4.9,1.2-7.2c0.7-2.2,1.5-4.4,2.5-6.2c0.9-1.8,1.7-3.5,2.5-4.9c0.8-1.5,1.1-2.6,1.1-3.6
					c0-0.6-0.4-1.1-1.2-1.4c-0.8-0.3-1.6-0.5-2.5-0.8c-1-0.2-2.2-0.4-3.6-0.5c-2.2,5.7-4.4,10.3-6.3,13.8c-2,3.7-3.7,6.4-5,8
					c-0.2,0.2-0.4,0.6-0.9,1.1c-0.4,0.5-1,0.7-1.7,0.8c-0.6,0-1.2-0.2-1.7-0.7c-0.5-0.5-0.8-1.1-0.8-1.6s0.1-1.1,0.5-1.5
					c0.3-0.5,0.6-1,0.7-1.3c1.1-1.5,2.6-4.1,4.7-7.3c1.9-3.4,3.9-7.8,5.6-13.2c-0.8-0.5-1.5-1.2-2.1-2c-0.5-0.7-1-1.5-1.4-2.6
					c-0.4-1.1-0.7-2.3-0.7-3.8c0-1.2,0.2-2.2,0.6-3.3c0.4-1.1,1-1.9,1.6-2.7c0.7-0.8,1.4-1.5,2.2-1.9c0.8-0.5,1.5-0.8,2.2-0.8
					c0.8,0,1.6,0.2,2.5,0.6c0.9,0.4,1.7,0.9,2.4,1.5c0.7,0.6,1.3,1.2,1.8,1.9c0.5,0.7,0.8,1.4,0.8,1.8c0,1.5-0.2,2.8-0.7,3.9
					c-0.5,1-0.7,1.9-0.7,2.9c0,0.9,0.5,1.5,1.5,1.8c1,0.4,2.2,0.5,3.6,0.5c1.3,0,2.5-0.2,3.4-0.3c0.9-0.2,1.7-0.4,2.4-0.6
					c0.7-0.2,1.4-0.4,2-0.6c0.6-0.2,1.3-0.3,2-0.3c1.4,0,2.6,0.5,3.6,1.5c0.9,1.1,1.4,2.3,1.5,3.9c0,1.4-0.4,2.9-1.3,4.7
					s-1.8,3.9-3,6c-1,2.2-2.1,4.4-3,6.9C138.5,251.3,138,253.6,138,255.9z"/>
				<path class="st5" d="M214.4,252.7c-1.7,2.7-3.6,5.2-5.7,7.3c-1.8,1.8-3.9,3.5-6.3,4.9c-2.5,1.5-5.2,2.2-8,2.2
					c-3.3,0.1-6.1-0.8-8.4-2.4c-2.4-1.5-3.8-4-4.1-7.2c-1.5,1.9-3.2,3.7-5.1,5c-1.6,1.3-3.3,2.4-5.3,3.4c-2,1.1-4.1,1.6-6.3,1.5
					c-1.6,0-3.1-0.2-4.6-0.9c-1.5-0.6-2.8-1.4-3.9-2.3c-1.1-1.1-2-2.3-2.7-3.8s-1-3-1-4.8c-0.1-4.2,0.8-8.3,2.3-12.4
					c1.5-4.2,3.7-7.8,6.1-11.1c2.5-3.4,5.5-6,8.7-7.9c3.2-2.1,6.3-3.1,9.6-3.1c2.4-0.1,4.4,0.2,6,0.8c1.7,0.5,3.1,1.2,4.1,1.7
					c1.2,0.8,2.2,1.6,2.9,2.6c0.9,0,1.8,0,2.8,0.2s1.9,0.5,2.8,0.9c0.8,0.4,1.6,1,2.1,1.6c0.6,0.7,0.9,1.5,0.9,2.5
					c0,0.9-0.3,2.2-0.9,4.2c-0.7,1.9-1.4,4.1-2.4,6.5c-0.8,2.3-1.6,4.8-2.4,7.3c-0.6,2.5-1,4.7-1.1,6.7c0,1,0.3,1.6,1,2.3
					c0.6,0.6,1.4,0.9,2.5,0.9c1.6,0,3.1-0.6,4.7-1.5c1.5-1.1,2.9-2.2,4-3.6c1.4-1.5,2.6-3.1,3.9-5c0.1-0.2,0.3-0.5,0.6-0.9
					c0.2-0.2,0.4-0.3,0.7-0.6c0.3-0.2,0.7-0.3,1.1-0.3c0.6,0,1.2,0.2,1.7,0.7s0.8,1,0.8,1.5c0,0.3,0,0.6-0.2,0.9
					c-0.1,0.3-0.2,0.6-0.4,0.9C214.7,252,214.6,252.3,214.4,252.7z M186.8,232.6c-0.1-1.6-0.5-2.9-1.4-3.7c-0.9-0.8-1.9-1.2-3.1-1.2
					c-1.7,0.1-3.5,1-5.3,2.7c-1.8,1.8-3.4,4.1-4.9,6.6c-1.4,2.6-2.6,5.4-3.6,8.4c-0.9,3-1.4,5.7-1.4,8.1c0.1,3.5,1.2,5.1,3.5,5.1
					c1.4,0,3-1,4.9-2.8c1.8-1.9,3.5-4.3,5.3-6.9c1.6-2.7,3-5.6,4.2-8.6C186.3,237.4,186.9,234.8,186.8,232.6z"/>
				<path class="st5" d="M251.9,254.3c0,1.4,0.4,2.3,1.1,3.1s1.6,1.2,2.8,1.2c1.6,0,3.1-0.6,4.7-1.5c1.5-1.1,2.9-2.2,4-3.6
					c1.4-1.5,2.6-3.1,3.9-5c0.1-0.2,0.3-0.5,0.6-0.9c0.2-0.2,0.4-0.3,0.7-0.6c0.3-0.2,0.7-0.3,1.1-0.3c0.6,0,1.2,0.2,1.7,0.7
					c0.5,0.5,0.8,1,0.8,1.5c0,0.3,0,0.6-0.2,0.9c-0.1,0.3-0.2,0.6-0.4,0.9c-0.2,0.3-0.3,0.7-0.4,1.1c-1.7,2.7-3.6,5.2-5.7,7.3
					c-1.8,1.8-3.9,3.5-6.3,4.9c-2.5,1.5-5.2,2.2-8,2.2c-4.5,0.1-8.1-1.1-11-3.3c-2.8-2.2-4.2-4.9-4.2-8.1c-0.1-2.4,0.3-4.6,0.9-6.9
					c0.6-2.2,1.2-4.4,2.1-6.5c0.7-2.1,1.3-4.1,2-6c0.6-1.9,0.8-3.8,0.9-5.5c0-0.6-0.3-1-0.8-1.3c-0.5-0.3-1-0.5-1.7-0.5
					c-1.8,0.1-3.8,1-5.7,2.5c-2.1,1.7-4,4.2-5.8,7.3c-1.8,3.2-3.4,7-4.5,11.4c-1.2,4.4-1.8,9.5-1.7,15c0,1-0.2,1.6-0.6,1.9
					c-0.4,0.3-1.1,0.5-2,0.5c-3.2,0.1-5.8-0.5-7.9-1.7c-2.2-1.2-3.3-2.6-3.2-4.4c-0.1-3.2,0.4-6.7,1-10.2c0.6-3.6,1.6-7.1,2.6-10.4
					c0.9-3.4,2.1-6.5,3.1-9.4c1-2.9,1.9-5.1,2.7-6.8c0.6-1.5,1.6-2.2,3.1-2.3c0.9,0,2,0.3,3.5,1c1.4,0.7,3.1,2.3,4.9,5.1
					c1.6-1.5,3.5-2.7,5.5-3.8c1.7-1,3.7-1.8,5.8-2.6c2.2-0.9,4.6-1.2,7-1.2c1.3,0,2.5,0.2,3.8,0.8c1.2,0.6,2.4,1.4,3.3,2.2
					c1,1,1.8,1.9,2.4,3.1s0.9,2.3,0.9,3.4c0.1,1.7-0.2,3.7-0.9,5.6c-0.7,1.9-1.3,4.1-2.1,6.1c-0.7,2.1-1.3,4.3-2.2,6.4
					C252.3,250.2,252,252.3,251.9,254.3z"/>
				<path class="st5" d="M315.8,251.5c-1.7,2.2-3.6,4.3-5.8,6.2c-1.9,1.6-4.2,3.3-6.9,4.6c-2.7,1.5-5.8,2.6-9.3,3.1
					c0,0.9,0.2,1.7,0.5,2.7s0.9,1.5,1.8,1.4c1,0,2-0.1,3-0.3c1.1-0.2,2-0.3,2.9-0.3c1.1,0,2,0.3,2.5,1.1c0.6,0.7,0.9,1.6,0.9,2.8
					c0,1.5-0.3,3.1-1.1,4.8c-0.8,1.7-1.9,3.5-3.6,5c-1.6,1.5-3.5,2.9-5.8,4c-2.4,1.1-5.1,1.6-8.2,1.6c-2.5,0.1-4.5-0.4-6-1.4
					c-1.6-0.9-2.4-2.1-2.5-3.7c0-1.3,0.4-2.3,1.2-3.3s1.8-1.5,2.9-1.5c0.8,0,1.4,0.1,1.9,0.5c0.5,0.3,1,0.7,1.4,1.2s1,0.9,1.6,1.2
					s1.6,0.5,2.8,0.5c1.2,0,2.4-0.3,3.6-0.8s2.2-1.1,3.1-1.7c0.9-0.7,1.6-1.4,2.1-1.9c0.5-0.7,0.8-1.1,0.8-1.5
					c0-0.4-0.2-0.6-0.6-0.6c-1.7,0.1-3.5,0.4-5.2,0.9c-1.7,0.6-3.2,1-4.6,0.9c-1,0-1.7-0.3-2.2-0.9c-0.5-0.7-0.8-1.3-0.8-1.8
					c0-1.3,0.1-2.7,0.4-4.5c0.3-1.7,0.5-3.2,0.7-4.3c-2.4-0.1-4.7-0.6-7-1.3c-2.3-0.6-4.4-1.6-6.2-3s-3.4-3.1-4.5-5.2
					c-1.2-2.1-1.7-4.6-1.7-7.6c-0.1-3.9,0.8-7.5,2.3-11c1.5-3.6,3.7-6.7,6.1-9.3c2.5-2.7,5.4-4.7,8.5-6.3c3.1-1.6,6.1-2.4,9.1-2.4
					c2.1-0.1,4.1,0.2,5.7,0.9c1.7,0.6,3.1,1.5,4.3,2.5c1.2,1.1,2.1,2.2,2.8,3.6c0.7,1.4,1,2.6,1.1,4c0,1-0.2,2-0.6,3.1s-1,2-1.6,2.9
					c-0.7,0.9-1.4,1.5-2.3,2.1c-0.8,0.6-1.6,0.9-2.4,0.9c-1.6,0-3-0.4-4.3-1.4c-1.3-1-1.9-2-1.9-3.4c0-1,0.2-1.8,0.6-2.4
					c0.5-0.6,1-1.2,1.6-1.7c0.6-0.5,1.1-1,1.6-1.5c0.5-0.5,0.7-1,0.7-1.5s-0.4-1.2-1.1-1.6s-1.5-0.7-2.5-0.7c-1.7,0.1-3.4,0.8-5,1.9
					c-1.6,1.4-3,3-4.3,5.1c-1.2,2.1-2.3,4.4-3.1,7.1c-0.7,2.6-1.1,5.2-1.2,7.8c0.1,4,1.1,7,3.5,8.8c2.3,1.8,5.1,2.8,8.4,2.8
					c2.7-0.1,5.1-0.6,7.2-1.6c2.2-1.2,4.1-2.4,5.6-3.7c1.9-1.5,3.5-3.4,4.9-5.3c0.2-0.2,0.4-0.5,0.7-0.9c0.2-0.2,0.5-0.4,0.8-0.6
					c0.3-0.2,0.7-0.3,1.1-0.3c0.7,0,1.3,0.2,1.8,0.7c0.5,0.5,0.7,1,0.8,1.5c0,0.3-0.1,0.6-0.2,0.9c-0.2,0.3-0.3,0.6-0.5,0.9
					C316.1,250.8,315.9,251.1,315.8,251.5z"/>
				<path class="st5" d="M371.9,250.9c-1.7,2.7-3.6,5.2-5.7,7.3c-1.8,1.8-3.9,3.5-6.3,4.9c-2.5,1.5-5.2,2.2-8,2.2
					c-3.3,0.1-6.1-0.8-8.4-2.4c-2.4-1.5-3.8-4-4.1-7.2c-1.5,1.9-3.2,3.7-5.1,5c-1.6,1.3-3.3,2.4-5.3,3.4c-2,1.1-4.1,1.6-6.3,1.5
					c-1.6,0-3.1-0.2-4.6-0.9c-1.5-0.6-2.8-1.4-3.9-2.3c-1.1-1.1-2-2.3-2.7-3.8s-1-3-1-4.8c-0.1-4.2,0.8-8.3,2.3-12.4
					c1.5-4.2,3.7-7.8,6.1-11.1c2.5-3.4,5.5-6,8.7-7.9c3.2-2.1,6.3-3.1,9.6-3.1c2.4-0.1,4.4,0.2,6,0.8c1.7,0.5,3.1,1.2,4.1,1.7
					c1.2,0.8,2.2,1.6,2.9,2.6c0.9,0,1.8,0,2.8,0.2s1.9,0.5,2.8,0.9c0.8,0.4,1.6,1,2.1,1.6c0.6,0.7,0.9,1.5,0.9,2.5
					c0,0.9-0.3,2.2-0.9,4.2c-0.7,1.9-1.4,4.1-2.4,6.5c-0.8,2.3-1.6,4.8-2.4,7.3c-0.6,2.5-1,4.7-1.1,6.7c0,1,0.3,1.6,1,2.3
					c0.6,0.6,1.4,0.9,2.5,0.9c1.6,0,3.1-0.6,4.7-1.5c1.5-1.1,2.9-2.2,4-3.6c1.4-1.5,2.6-3.1,3.9-5c0.1-0.2,0.3-0.5,0.6-0.9
					c0.2-0.2,0.4-0.3,0.7-0.6c0.3-0.2,0.7-0.3,1.1-0.3c0.6,0,1.2,0.2,1.7,0.7c0.5,0.5,0.8,1,0.8,1.5c0,0.3,0,0.6-0.2,0.9
					c-0.1,0.3-0.2,0.6-0.4,0.9C372.2,250.2,372.1,250.6,371.9,250.9z M344.3,230.8c-0.1-1.6-0.5-2.9-1.4-3.7
					c-0.9-0.8-1.9-1.2-3.1-1.2c-1.7,0.1-3.5,1-5.3,2.7c-1.8,1.8-3.4,4.1-4.9,6.6c-1.4,2.6-2.6,5.4-3.6,8.4c-0.9,3-1.4,5.7-1.4,8.1
					c0.1,3.5,1.2,5.1,3.5,5.1c1.4,0,3-1,4.9-2.8c1.8-1.9,3.5-4.3,5.3-6.9c1.6-2.7,3-5.6,4.2-8.6
					C343.9,235.7,344.3,233.1,344.3,230.8z"/>
				<path class="st5" d="M381.7,252.8c0,1.4,0.4,2.3,1.1,3.1s1.6,1.2,2.8,1.2c1.6,0,3.1-0.6,4.7-1.5c1.5-1.1,2.9-2.2,4-3.6
					c1.4-1.5,2.6-3.1,3.9-5c0.1-0.2,0.3-0.5,0.6-0.9c0.2-0.2,0.4-0.3,0.7-0.6c0.3-0.2,0.7-0.3,1.1-0.3c0.6,0,1.2,0.2,1.7,0.7
					c0.5,0.5,0.8,1,0.8,1.5c0,0.3,0,0.6-0.2,0.9c-0.1,0.3-0.2,0.6-0.4,0.9c-0.2,0.3-0.3,0.7-0.4,1.1c-1.7,2.7-3.6,5.2-5.7,7.3
					c-1.8,1.8-3.9,3.5-6.3,4.9c-2.5,1.5-5.2,2.2-8,2.2c-4.5,0.1-8.1-1.2-11-3.4c-2.8-2.2-4.2-5.3-4.2-9c-0.1-2,0.3-4.5,1-7.5
					c0.6-2.9,1.5-5.9,2.4-8.9c0.9-3,1.9-5.9,3-8.6c1.1-2.7,0.8-3.1,1.6-4.7c0.3-0.6,0.7-1.2,1.3-1.5c0.5-0.5,1.2-0.7,1.9-0.7
					c0.9,0,2.5,0.8,3.5,1.3c1.1,0.5,2.2,1.1,3.2,1.7s1.8,1.4,2.4,2c0.7,0.7,1,1.3,1,1.7c0.1,1.7-0.8,3.1-1.5,5.1s-0.4,2.4-1.2,4.7
					c-0.8,2.3-1.5,4.8-2.2,7.3C381.8,247.5,381.6,250.1,381.7,252.8z"/>
				<path class="st5" d="M416.8,265.4c-2.9,0.1-5.7-0.5-8.3-1.6c-2.7-1.1-5-2.5-6.9-4.2s-3.6-3.4-4.7-5.5c-1.2-1.9-1.8-3.8-1.8-5.5
					c0-1.6,0.5-3.1,1.7-4.4c1.2-1.2,2.4-2.2,3.8-3c1.6-0.9,3.5-1.6,5.7-2.1c0.5-0.8,1.1-1.7,1.8-2.9c0.6-1,1.4-2.3,2.4-3.8
					c1-1.5,2.1-3.4,3.5-5.4c2.7-4.2,5.2-7,7-8.5c1.9-1.6,3.7-2.5,5.2-2.4c0.6,0,1.3,0.1,2,0.5c0.7,0.3,1.3,0.7,1.9,1.2
					s1.1,0.9,1.5,1.4c0.4,0.5,0.6,0.9,0.6,1.2c0,0.4-0.1,0.9-0.4,1.5c-0.3,0.6-0.6,1.3-1,1.8c-0.3,0.7-0.6,1.4-0.9,2.1
					c-0.3,0.8-0.4,1.5-0.3,2.2c0.1,2.3,0.4,4.3,0.8,6c0.5,1.6,1.1,3.3,1.6,4.7c0.6,1.5,1.2,2.9,1.7,4.4c0.5,1.5,0.8,3,0.8,4.7
					c0.1,2.4-0.4,4.7-1.2,6.9c-0.8,2.1-1.8,4-3.4,5.6c-1.5,1.5-3.3,2.8-5.5,3.7C422.1,265,419.6,265.4,416.8,265.4z M416.7,232.7
					c-1.6,2.5-3.1,4.7-4.4,6.8c-1.1,1.8-2,3.5-3,5c-0.9,1.5-1.3,2.5-1.3,2.9c0.1,1.6,0.2,3.3,0.3,4.9c0.2,1.5,0.6,3,1.1,4.2
					c0.5,1.3,1.1,2.2,1.9,2.9c0.7,0.7,1.7,1.1,2.8,1c1.8-0.1,3.4-1.1,4.6-2.9c1.3-1.9,1.8-4.3,2-6.9c0-1.5-0.3-3-0.6-4.5
					c-0.4-1.6-0.9-3.2-1.3-4.7c-0.5-1.5-0.9-3.1-1.3-4.5C416.8,235.1,416.6,233.8,416.7,232.7z"/>
			</g>
		</g>
	</g>
</g>
<path class="st7" d="M251,477.8l4.4-12.6v12.6h7v-12.6l5.2,12.2l5.4-0.4l-6.7-15.5h22.1c1.6,0,0.1-4,0.1-5.6v-10.1l10.7,0.2
	l12.8,5.5c0.1,0,0.1,0.5,0.2,0.5v0.9h5.1c0.1,0,0.3-0.9,0.4-1s0.2-1,0.2-1.2v-25.2c0-0.3-0.2-0.2-0.5-0.2l-5.1,0.6
	c-0.1,0-0.3,0.1-0.4,0.2v0.1l-11.1,6.4h-12.4v-11.1c0-1.6,1.5-2.4-0.1-2.4h-8.5v-1.7c3.4,0.4,6.9,0.8,9.4,0.8
	c16.4,0,32.1-12.8,32.1-28.6c0-15.8-13.4-28.6-29.7-28.6c-3.5,0-6.8,0.6-9.9,1.7c1.4,0.3,2.6,1,3.6,1.9c1.2,1.1,1.9,2.8,1.9,4.7
	c0,3.1-2.1,5.8-5.2,6.5c-2.1,0.5-4.2,0.1-5.8-1c-1.3-0.9-2.1-2.1-2.6-3.4c-0.2-0.6-0.4-1.4-0.4-2.1c0-0.8,0.2-1.6,0.4-2.3
	c-7.1,5.3-11.7,13.7-11.7,23c0,1.6,0.1,3.6,0.4,5.3h-4c0,0-0.2-0.4-0.3,0c0.4-1.7,0.4-4.1,0.4-6c0-15.8-13.5-28.7-29.8-28.7
	c-3.8,0-7.4,0.7-10.7,1.9c1.8,0.1,3.5,0.9,4.7,2.1c1.2,1.1,1.9,2.8,1.9,4.7c0,3.1-2.1,5.8-5.2,6.5c-2.1,0.5-4.2,0.1-5.8-1
	c-1.3-0.9-2.1-2.1-2.6-3.4c-0.2-0.6-0.4-1.4-0.4-2.1c0-1.3,0.4-2.5,1-3.5c-7.8,5.2-12.9,13.8-12.9,23.5c0,15.8,12.7,28.7,29.1,28.7
	c3.6,0.5,3.4-0.1,8.6-1.1v2.4h-2.1c-1.6,0-6.6,0.8-6.6,2.4v0.4h-1.9l-5.1-3c-0.2-0.1-0.4,0-0.6,0.1l-2.8,0.1c-0.1,0-0.3-0.1-0.4,0
	c-0.1,0.1-0.2,0.1-0.2,0.2l-0.1,14.5c0,0.1,0,0.3,0.1,0.4s0.2,0.1,0.3,0.1h2.6l6-2.9h1.9v24.2c0,1.6,5,5.6,6.6,5.6h16V459
	c0,1,1.9,1.8,2.7,2.3l-5.8,16.3L251,477.8z M310.1,378.1c3.5,0.5,6.1,3.3,6.1,6.7c0,0.2,0,0.4,0,0.6c-0.2,1.7-1,3.3-2.3,4.4
	c-1,0.9-2.3,1.5-3.7,1.7c-0.4,0-0.7,0.1-1,0.1c-3.9,0-7-3-7-6.8c0-0.2,0-0.4,0-0.6c0.3-3.5,3.3-6.1,7-6.1
	C309.5,378.1,309.8,378.1,310.1,378.1z M294.2,364.7c1.3-1.2,3.1-2,5-2c3.9,0,7,3,7,6.8c0,0.6-0.1,1.3-0.3,1.9
	c-0.8,2.8-3.5,4.9-6.7,4.9c-3.9-0.1-7-3.1-7-6.8C292.2,367.6,293,366,294.2,364.7z M299.2,394.1c3.1,0,5.7,1.9,6.6,4.5
	c0.3,0.7,0.4,1.5,0.4,2.2c0,3.7-3.1,6.8-7,6.8c-2.2,0-4.1-1-5.4-2.5c-1-1.1-1.6-2.6-1.6-4.2C292.2,397.2,295.3,394.1,299.2,394.1z
	 M206.8,391.3c-3.5-0.4-6.3-3.2-6.3-6.7c0-1,0.3-2,0.7-3c0.7-1.4,1.9-2.5,3.4-3.2c0.8-0.3,1.6-0.5,2.4-0.6c0.1-0.1,0.3-0.1,0.5-0.1
	c3.9,0,7,3,7,6.8s-3.2,6.8-7,6.8C207.3,391.3,207,391.3,206.8,391.3z M222.8,405.2c-1.3,1.5-3.3,2.5-5.5,2.5c-3.6,0.1-6.9-3-6.9-6.8
	c0-0.9,0.2-1.7,0.5-2.5c1-2.5,3.5-4.3,6.5-4.3c3.9,0,7,3,7,6.8C224.4,402.5,223.8,404,222.8,405.2z M231.5,364.7c1.3-1.2,3.1-2,5-2
	c3.9-0.1,7,2.9,7,6.8c0,0.6-0.1,1.3-0.3,1.9c-0.8,2.8-3.5,4.9-6.7,4.9c-3.9,0-7-3-7-6.8C229.5,367.6,230.3,366,231.5,364.7z
	 M236.4,407.6c-2.2,0-4.1-1-5.4-2.5c-1-1.1-1.6-2.6-1.6-4.2c0-3.7,3.1-6.8,7-6.8c3.1,0,5.7,1.9,6.6,4.5c0.3,0.7,0.4,1.5,0.4,2.2
	C243.4,404.5,240.3,407.6,236.4,407.6z M253.5,385.3c-0.2,1.7-1,3.3-2.3,4.4c-1,0.9-2.3,1.5-3.7,1.7c-0.3,0-0.7,0.1-1,0.1
	c-3.9,0-7-3-7-6.8c0-0.2,0-0.4,0-0.6c0.3-3.5,3.3-6.1,7-6.1c0.3,0,0.6,0,0.9,0c3.5,0.4,6.1,3.2,6.1,6.7
	C253.5,384.9,253.5,385.1,253.5,385.3z M269.5,391.3c-3.5-0.4-6.3-3.2-6.3-6.7c0-1,0.3-2,0.7-3c0.7-1.4,1.9-2.5,3.4-3.2
	c0.8-0.3,1.6-0.5,2.4-0.6c0.2-0.1,0.4-0.1,0.5-0.1c3.9,0,7,3,7,6.8s-3.2,6.8-7,6.8C270,391.3,269.7,391.3,269.5,391.3z M273.1,401
	c0-0.9,0.2-1.7,0.5-2.5c1-2.5,3.5-4.3,6.5-4.3c3.9,0,7,3,7,6.8c0,1.6-0.6,3.1-1.6,4.3c-1.2,1.5-3.2,2.5-5.4,2.5
	C276.3,407.8,273.1,404.8,273.1,401z"/>
<path d="M229.8,408v2.3h-2c-1.5,0-6.4,0.8-6.4,2.3v0.4h-1.8l-4.9-2.9c-0.2-0.1-0.4,0-0.6,0.1l-2.7,0.1l0,0c-0.1,0-0.3-0.1-0.4,0
	c-0.1,0.1-0.2,0.1-0.2,0.2l-0.1,14c0,0.1,0,0.3,0.1,0.4s0.2,0.1,0.3,0.1h2.8c0.1,0-0.1,0-0.1,0c0.1,0-0.3,0-0.2,0l5.8-2.8h1.8v23.3
	c0,1.5,4.8,5.4,6.4,5.4H243v-2.3c0,1,1.8,1.7,2.6,2.2L234.9,481c-0.5,1.3-0.1,2.7,1.3,3.2c0.3,0.1,0.2,0.2,0.6,0.2
	c1,0,1.2-0.6,1.5-1.5l9.9-28.4v27.9c0,1.4,1.9,2.4,3.4,2.4c1.4,0,3.4-1.1,3.4-2.4v-28l12,28.4c0.4,1,1.9,1.5,3,1.5
	c0.3,0,0.4,0,0.7-0.2c1.3-0.5,1.5-1.9,1-3.2l-13-30.2c0.8-0.5-0.4-1.3-0.4-2.2v2.3H280c1.5,0,0.1-3.9,0.1-5.4v-9.7l10.3,0.2
	l12.3,5.3c0.1,0,0.1,0.5,0.2,0.5v0.9l0,0h4.9l0,0c0.1,0,0.3-0.9,0.4-1s0.2-1,0.2-1.2v-24.3c0-0.3-0.2-0.2-0.5-0.2l-4.9,0.6l0,0
	c-0.1,0-0.3,0.1-0.4,0.2v0.1l-10.7,6.3h-12v-10.7c0-1.5,1.5-2.3-0.1-2.3h-8.2v-1.6c3.4,0.5,6.7,0.9,9.2,0.9
	c15.8,0,30.9-12.3,30.9-27.6c0-15.3-12.9-27.6-28.6-27.6c-15.8,0-28.6,12.7-28.6,27.9c0,1.5,0.1,3.5,0.4,5.1h-4c0,0-0.2-0.4-0.3,0
	c0.4-1.6,0.4-4,0.4-5.8c0-15.2-13-27.7-28.7-27.7c-15.8,0-28.9,12.4-28.9,27.7s12.2,27.7,28,27.7C224.9,409.6,224.8,409,229.8,408z
	 M206.8,397.4c0-0.9,0.2-1.6,0.5-2.4c1-2.4,3.4-4.1,6.3-4.1c3.8,0,6.7,2.9,6.7,6.5c0,1.5-0.6,3-1.5,4.1c-1.3,1.5-3.2,2.4-5.3,2.4
	C209.8,404,206.8,400.9,206.8,397.4z M203.9,375c3.8,0,6.7,2.9,6.7,6.5s-3.1,6.5-6.7,6.5c-0.2,0-0.5,0-0.7,0
	c-3.4-0.4-6.1-3.1-6.1-6.5c0-1,0.3-1.9,0.7-2.9c0.7-1.4,1.8-2.4,3.3-3.1c0.8-0.3,1.5-0.5,2.3-0.6C203.7,375,203.8,375,203.9,375z
	 M220.4,367c0,3-2,5.6-5,6.3c-2,0.5-4.1,0.1-5.6-1c-1.3-0.9-2-2-2.5-3.3c-0.2-0.6-0.4-1.4-0.4-2c0-3.6,3-6.5,6.7-6.5
	c1.9,0,3.7,0.8,4.9,2C219.7,363.5,220.4,365.3,220.4,367z M301.8,388.4c-3.8,0-6.7-2.9-6.7-6.5c0-0.2,0-0.4,0-0.6
	c0.3-3.4,3.2-5.9,6.7-5.9c0.3,0,0.6,0,0.9,0c3.4,0.5,5.9,3.2,5.9,6.5c0,0.2,0,0.4,0,0.6c-0.2,1.6-1,3.2-2.2,4.2
	c-1,0.9-2.2,1.5-3.6,1.6C302.5,388.3,302.1,388.4,301.8,388.4z M285.6,397.4c0-3.6,3-6.5,6.7-6.5c3,0,5.5,1.8,6.4,4.3
	c0.3,0.7,0.4,1.4,0.4,2.1c0,3.6-3,6.5-6.7,6.5c-2.1,0-4-1-5.2-2.4C286.1,400.3,285.6,398.9,285.6,397.4z M285.6,367.1
	c0-1.8,0.8-3.4,1.9-4.6c1.3-1.2,3-1.9,4.8-1.9c3.8,0,6.7,2.9,6.7,6.5c0,0.6-0.1,1.3-0.3,1.8c-0.8,2.7-3.4,4.7-6.5,4.7
	C288.5,373.6,285.6,370.7,285.6,367.1z M264.4,375c3.8,0,6.7,2.9,6.7,6.5s-3.1,6.5-6.7,6.5c-0.2,0-0.5,0-0.7,0
	c-3.4-0.4-6.1-3.1-6.1-6.5c0-1,0.3-1.9,0.7-2.9c0.7-1.4,1.8-2.4,3.3-3.1c0.8-0.3,1.5-0.5,2.3-0.6C264,375,264.2,375,264.4,375z
	 M280.8,367c0,3-2,5.6-5,6.3c-2,0.5-4,0.1-5.6-1c-1.3-0.9-2-2-2.5-3.3c-0.2-0.6-0.4-1.4-0.4-2c0-3.6,3-6.5,6.7-6.5
	c1.9,0,3.7,0.8,4.9,2C280.1,363.5,280.8,365.3,280.8,367z M274,404c-3.7,0-6.7-2.9-6.7-6.5c0-0.9,0.2-1.6,0.5-2.4
	c1-2.4,3.4-4.1,6.3-4.1c3.8,0,6.7,2.9,6.7,6.5c0,1.5-0.6,3-1.5,4.1C278,403,276.1,404,274,404z M225.1,397.4c0-3.6,3-6.5,6.7-6.5
	c3,0,5.5,1.8,6.4,4.3c0.3,0.7,0.4,1.4,0.4,2.1c0,3.6-3,6.5-6.7,6.5c-2.1,0-3.9-1-5.2-2.4C225.6,400.3,225.1,398.9,225.1,397.4z
	 M238.7,367.1c0,0.6-0.1,1.3-0.3,1.8c-0.8,2.7-3.4,4.7-6.4,4.7c-3.8,0-6.7-2.9-6.7-6.5c0-1.8,0.8-3.4,1.9-4.6c1.3-1.2,3-1.9,4.8-1.9
	C235.6,360.5,238.7,363.3,238.7,367.1z M248.4,381.8c0,0.2,0,0.4,0,0.6c-0.2,1.6-1,3.2-2.2,4.2c-1,0.9-2.2,1.5-3.6,1.6
	c-0.3,0-0.7,0.1-1,0.1c-3.8,0-6.7-2.9-6.7-6.5c0-0.2,0-0.4,0-0.6c0.3-3.4,3.2-5.9,6.7-5.9c0.3,0,0.6,0,0.9,0
	C245.7,375.7,248.4,378.4,248.4,381.8z"/>
<line class="st4" x1="79.4" y1="289.7" x2="430.2" y2="289.7"/>
<g>
	<g>
		<path class="st6" d="M115.2,239.2c-0.8,1.3,1.8,4.8,0.7,6.5c-1.1,1.6-2.4,3.1-4,4.5c-1.5,1.4-4.9,2.4-8.3,2.7
			c-2.4,0.3-5.5,0.2-8.4,0.2c1.2,1.2,2.3,2.7,3.2,4.5c0.9,1.5,1.6,3.4,2.3,5.6c0.8,2.3,1.1,4.9,1.1,7.7c0,1.7-0.2,3.5-0.8,5.3
			c-0.5,1.9-1.2,3.6-2.3,5.3c-1,1.6-2.1,2.9-3.6,3.9c-1.4,1-3.1,1.6-4.9,1.6c-1.6,0.1-3.6-0.3-5.5-1c-2-0.7-3.8-1.9-5.6-3.8
			c-1.7-1.8-3.2-4-4.2-6.9c-1.2-2.9-1.6-6.5-1.7-10.8c0-7.3,0.5-14.9,1.5-23c1.1-8,2.3-15.8,4.1-23.6c1.7-7.7,3.7-15.1,6.2-21.9
			c2.4-6.9,5-13,7.6-18.2c2.7-5.3,5.6-9.4,8.5-12.5c2.9-3.2,5.9-4.7,8.8-4.7c1.2-0.1,2.6,0.3,3.8,1c1.2,0.8,2.4,1.7,3.5,2.8
			c1.1,1.2,1.8,2.4,2.5,3.8s1,2.6,1,3.8c0,1.9-0.5,4.3-1.4,7.3c-0.9,3-2.2,6.3-3.7,9.9c-1.4,3.7-3.4,7.4-5.3,11.3
			c-1.9,3.9-4.1,7.8-6.3,11.3c-2.2,3.7-4.6,6.9-6.8,10c-2.2,3.2-4.5,5.6-6.6,7.6c-0.6,2.1-1.1,4.3-1.5,6.7c-0.3,2.3-0.7,4.7-0.9,7
			c0.6,0.8,1.2,1.4,2,2c0.6,0.5,1.4,0.8,2.3,1.2c1,0.4,2,0.4,3.2,0.5c5.9,0.6,4,0.6,5.9,0.6c4.9-0.1,6.1-1.3,7.3-2.4
			c1.2-1.2,2.4-2.4,3.4-3.9c1-1.4,1.9-2.8,2.7-4.1c0.1-0.3,0.3-0.6,0.6-0.9c0.2-0.2,0.4-0.4,0.7-0.7c0.3-0.2,0.7-0.4,1.1-0.4
			c0.6,0,1.2,0.2,1.6,0.8c0.5,0.6,0.8,1.1,0.8,1.9c0,0.4,0,0.7-0.2,1c-0.1,0.3-0.2,0.7-0.4,1C118.9,240.5,115.3,238.8,115.2,239.2z
			 M86.7,250.6c-0.1,1.8-0.2,3.7-0.4,5.5c-0.1,1.6-0.2,3.4-0.3,5.3c0,2,0,3.8-0.1,5.6c0,5.3,0.6,9,1.6,11.1c1.1,2.1,2.1,3,3.1,3
			c0.7,0,1.2-0.4,1.7-0.9s0.9-1.4,1.2-2.3c0.3-0.9,0.5-2,0.6-3.1s0.2-2.3,0.2-3.3c-0.1-2.9-0.5-5.6-1.2-8.2
			c-0.9-2.6-1.6-4.8-2.5-6.7C89.3,254.6,88.2,252.4,86.7,250.6z M114.5,172.3c0-1.8-0.9-2.7-2.5-2.6c-1.1,0-2.3,1.5-3.9,4.4
			c-1.5,2.9-3.3,6.7-5,11.3c-1.7,4.6-3.6,9.9-5.3,15.7c-1.7,5.9-3.3,11.8-4.7,17.7c1.2-1.1,2.6-2.9,4.1-5.3c1.5-2.4,3.2-5.1,4.8-8
			c1.5-3,3.2-6.2,4.6-9.4c1.4-3.4,2.9-6.6,3.9-9.6c1.2-3.1,2.1-5.9,2.9-8.4C114.1,175.5,114.5,173.6,114.5,172.3z"/>
		<path class="st6" d="M140.3,249.7c0,1.3,0.4,2.3,1.2,2.9c0.7,0.7,1.6,0.9,2.8,0.9c1.5,0,3-0.6,4.5-1.5c1.4-1,2.8-2.2,3.8-3.5
			c1.3-1.4,2.5-3,3.7-4.9c0.1-0.2,0.3-0.5,0.6-0.8c0.2-0.2,0.4-0.3,0.7-0.6c0.3-0.2,0.7-0.3,1.1-0.3c0.6,0,1.2,0.2,1.6,0.7
			c0.5,0.5,0.8,0.9,0.8,1.5c0,0.3,0,0.6-0.2,0.8c-0.1,0.3-0.2,0.6-0.4,0.8c-0.2,0.3-0.3,0.7-0.4,1c-1.6,2.6-3.5,5.1-5.6,7
			c-1.7,1.8-3.7,3.4-6.2,4.8c-2.4,1.5-5,2.2-7.8,2.2c-2.2,0.1-4.2-0.2-6-0.8c-1.7-0.6-3.4-1.3-4.6-2.3c-1.3-0.9-2.3-2.2-3.1-3.5
			c-0.8-1.3-1.2-2.7-1.1-4.3c-0.1-2.4,0.4-4.8,1.2-6.9c0.7-2.2,1.4-4.2,2.4-6c0.9-1.8,1.6-3.4,2.4-4.8c0.8-1.4,1.1-2.5,1.1-3.5
			c0-0.6-0.4-1-1.2-1.3c-0.8-0.3-1.5-0.5-2.4-0.8c-1-0.2-2.1-0.4-3.5-0.5c-2.1,5.5-4.2,10-6.2,13.4c-4.2,7.6-7.2,9.8-5.8,7.8
			c-0.2,0.2-3.6,0.7-3.9,1c-0.4,0.5,3.2,0.7,2.5,0.7c-0.6,0-1.2-0.2-1.6-0.7c-0.5-0.5-0.8-1-0.8-1.6c0-0.6,0.1-1,0.5-1.5
			c0.3-0.5,0.6-0.9,0.7-1.2c1.1-1.5-2,2.4-0.1-0.8c1.8-3.3,8.3-13.8,9.9-19.1c-0.8-0.5-1.4-1.1-2-2c-0.5-0.7-1-1.5-1.3-2.5
			c-0.4-1-0.7-2.3-0.7-3.7c0-1.1,0.2-2.2,0.6-3.2c0.4-1,1-1.9,1.5-2.6c0.7-0.8,1.3-1.4,2.1-1.9c0.8-0.5,1.4-0.8,2.1-0.8
			c0.8,0,1.5,0.2,2.4,0.6c0.9,0.4,1.6,0.8,2.3,1.4c0.7,0.6,1.2,1.1,1.7,1.9c0.5,0.7,0.8,1.3,0.8,1.8c0,1.5-0.2,2.7-0.7,3.8
			c-0.5,0.9-0.7,1.9-0.7,2.8c0,0.8,0.5,1.4,1.4,1.8c1,0.4,2.1,0.5,3.5,0.5c1.2,0,2.4-0.2,3.3-0.3c0.9-0.2,1.6-0.4,2.3-0.6
			c0.7-0.2,1.3-0.4,1.9-0.6c0.6-0.2,1.2-0.3,1.9-0.3c1.3,0,2.5,0.5,3.5,1.5c0.9,1,1.3,2.3,1.4,3.8c0,1.3-0.4,2.8-1.2,4.6
			s-1.7,3.8-2.9,5.8c-1,2.2-2,4.3-2.9,6.7C140.5,245.2,140.2,247.5,140.3,249.7z"/>
		<path class="st6" d="M214.2,246.6c-1.6,2.6-3.5,5.1-5.6,7c-1.7,1.8-3.7,3.4-6.2,4.8c-2.4,1.5-5,2.2-7.8,2.2
			c-3.2,0.1-6-0.8-8.2-2.3c-2.3-1.5-3.7-3.8-3.9-6.9c-1.4,1.9-3.1,3.6-4.9,4.9c-1.5,1.2-3.2,2.3-5.1,3.3c-1.9,0.9-3.9,1.6-6.2,1.5
			c-1.5,0-3-0.2-4.4-0.8c-1.4-0.6-2.7-1.3-3.7-2.3c-1.1-1-1.9-2.3-2.6-3.7c-0.7-1.4-1-2.9-1-4.7c-0.1-4,0.8-8.1,2.2-12
			c1.4-4,3.6-7.6,6-10.8s5.3-5.8,8.5-7.7c3.1-2.1,6.2-3,9.3-3c2.3-0.1,4.2,0.2,5.9,0.8c1.6,0.5,3,1.1,3.9,1.7
			c1.2,0.8,2.1,1.6,2.8,2.5c0.9,0,1.7,0,2.7,0.2s1.8,0.5,2.7,0.8c0.8,0.4,1.5,0.9,2,1.6c0.6,0.7,0.9,1.5,0.9,2.4
			c0,0.8-0.3,2.2-0.9,4c-0.7,1.9-1.3,3.9-2.3,6.3c-0.8,2.3-1.5,4.7-2.3,7.1c-0.6,2.4-1,4.6-1.1,6.5c0,0.9,0.3,1.6,1,2.3
			c0.6,0.6,1.3,0.8,2.4,0.8c1.5,0,3-0.6,4.5-1.5c1.4-1,2.8-2.2,3.8-3.5c1.3-1.4,2.5-3,3.7-4.9c0.1-0.2,0.3-0.5,0.6-0.8
			c0.2-0.2,0.4-0.3,0.7-0.6c0.3-0.2,0.7-0.3,1.1-0.3c0.6,0,1.2,0.2,1.6,0.7s0.8,0.9,0.8,1.5c0,0.3,0,0.6-0.2,0.8
			c-0.1,0.3-0.2,0.6-0.4,0.8C214.5,245.9,214.4,246.2,214.2,246.6z M187.5,227.1c-0.1-1.6-0.5-2.8-1.3-3.6c-0.9-0.8-1.8-1.1-3-1.1
			c-1.6,0.1-3.4,0.9-5.1,2.6c-1.7,1.7-3.3,3.9-4.7,6.4c-1.3,2.5-2.5,5.3-3.5,8.2c-0.9,2.9-1.3,5.5-1.3,7.9c0.1,3.4,1.2,5,3.4,5
			c1.3,0,2.9-0.9,4.7-2.7c1.7-1.9,3.4-4.1,5.1-6.7c1.5-2.6,2.9-5.4,4-8.3C187,231.8,187.6,229.3,187.5,227.1z"/>
		<path class="st6" d="M250.7,248.1c0,1.3,0.4,2.3,1.1,3c0.7,0.8,1.5,1.1,2.7,1.1c1.5,0,3-0.6,4.5-1.5c1.4-1,2.8-2.2,3.8-3.5
			c1.3-1.4,2.5-3,3.7-4.9c0.1-0.2,0.3-0.5,0.6-0.8c0.2-0.2,0.4-0.3,0.7-0.6c0.3-0.2,0.7-0.3,1.1-0.3c0.6,0,1.2,0.2,1.6,0.7
			c0.5,0.5,0.8,0.9,0.8,1.5c0,0.3,0,0.6-0.2,0.8c-0.1,0.3-0.2,0.6-0.4,0.8c-0.2,0.3-0.3,0.7-0.4,1c-1.6,2.6-3.5,5.1-5.6,7
			c-1.7,1.8-3.7,3.4-6.2,4.8c-2.4,1.5-5,2.2-7.8,2.2c-4.3,0.1-7.9-1-10.7-3.2c-2.7-2.2-4-4.8-4-7.9c-0.1-2.3,0.3-4.5,0.9-6.7
			c0.6-2.2,1.2-4.2,2-6.3c0.7-2.1,1.2-3.9,1.9-5.8c0.7-1.9,0.8-3.7,0.9-5.3c0-0.6-0.3-0.9-0.8-1.2c-0.5-0.3-1-0.5-1.6-0.5
			c-1.7,0.1-3.7,0.9-5.6,2.4c-2,1.7-3.8,4-5.7,7c-1.7,3.1-3.3,6.8-4.3,11.1c-1.1,4.3-1.7,9.2-1.6,14.5c0,0.9-0.2,1.6-0.6,1.9
			c-0.4,0.3-1.1,0.5-1.9,0.5c-3.1,0.1-5.7-0.5-7.7-1.7c-2.1-1.1-3.2-2.5-3.1-4.3c-0.1-3.1,0.4-6.5,1-9.9c0.6-3.5,1.5-6.8,2.5-10.1
			c0.9-3.3,2-6.3,3-9.1s1.8-5,2.6-6.6c0.6-1.4,1.5-2.2,3-2.3c0.9,0,1.9,0.3,3.4,0.9c1.3,0.7,3,2.3,4.7,5c1.5-1.4,3.4-2.6,5.3-3.7
			c1.6-0.9,3.6-1.8,5.7-2.5c2.1-0.8,4.4-1.1,6.8-1.1c1.2,0,2.4,0.2,3.7,0.8c1.2,0.6,2.3,1.3,3.2,2.2c1,0.9,1.7,1.9,2.3,3
			c0.6,1.1,0.9,2.3,0.9,3.3c0.1,1.7-0.2,3.6-0.9,5.4c-0.6,1.9-1.2,3.9-2,5.9c-0.7,2.1-1.2,4.1-2.1,6.2
			C250.9,244.1,250.6,246.2,250.7,248.1z"/>
		<path class="st6" d="M312.5,245.5c-1.6,2.2-3.5,4.1-5.7,6c-1.8,1.6-4,3.2-6.7,4.5c-2.6,1.5-5.7,2.5-9,3c0,0.8,0.2,1.7,0.5,2.6
			c0.3,0.9,0.9,1.4,1.7,1.3c1,0,1.9-0.1,2.9-0.3c1.1-0.2,1.9-0.3,2.8-0.3c1.1,0,1.9,0.3,2.4,1c0.6,0.7,0.9,1.6,0.9,2.7
			c0,1.4-0.3,3-1.1,4.7c-0.8,1.7-1.8,3.4-3.5,4.9c-1.5,1.5-3.4,2.8-5.7,3.8c-2.3,1-4.9,1.6-8,1.6c-2.4,0.1-4.3-0.4-5.9-1.3
			c-1.5-0.8-2.3-2.1-2.4-3.6c0-1.2,0.4-2.3,1.2-3.2c0.8-0.9,1.7-1.4,2.8-1.5c0.8,0,1.3,0.1,1.8,0.5c0.5,0.3,1,0.7,1.3,1.1
			c0.4,0.5,1,0.8,1.5,1.1c0.6,0.3,1.5,0.5,2.7,0.5c1.2,0,2.3-0.3,3.5-0.8c1.2-0.5,2.1-1,3-1.7c0.9-0.7,1.5-1.3,2-1.9
			c0.5-0.7,0.8-1,0.8-1.4c0-0.4-0.2-0.6-0.6-0.6c-1.6,0.1-3.4,0.4-5,0.8s-3.1,0.9-4.4,0.8c-1,0-1.6-0.3-2.1-0.8
			c-0.5-0.7-0.8-1.2-0.8-1.8c0-1.2,0.1-2.6,0.4-4.4c0.3-1.7,0.5-3.1,0.7-4.1c-2.3-0.1-4.5-0.6-6.8-1.2c-2.2-0.6-4.2-1.6-6.1-2.9
			c-1.8-1.3-3.3-3-4.3-5.1c-1.2-2.1-1.6-4.5-1.6-7.4c-0.1-3.8,0.8-7.3,2.2-10.7c1.4-3.5,3.6-6.5,6-9c2.4-2.6,5.2-4.6,8.3-6.1
			c3-1.6,6-2.3,8.8-2.3c2-0.1,3.9,0.2,5.5,0.8c1.6,0.6,3,1.4,4.1,2.4c1.2,1,2,2.2,2.7,3.5s1,2.5,1.1,3.8c0,0.9-0.2,2-0.6,3
			c-0.4,1-1,2-1.5,2.8c-0.7,0.8-1.3,1.5-2.2,2.1c-0.8,0.6-1.5,0.8-2.3,0.8c-1.5,0-2.9-0.4-4.1-1.3c-1.2-0.9-1.8-2-1.8-3.3
			c0-0.9,0.2-1.8,0.6-2.3c0.5-0.6,1-1.1,1.5-1.7c0.6-0.5,1.1-0.9,1.5-1.4c0.5-0.5,0.7-0.9,0.7-1.5c0-0.6-0.4-1.1-1.1-1.6
			c-0.7-0.5-1.4-0.7-2.4-0.7c-1.6,0.1-3.3,0.8-4.8,1.9c-1.5,1.3-2.9,2.9-4.1,5c-1.2,2.1-2.2,4.3-3,6.8c-0.7,2.5-1.1,5.1-1.2,7.6
			c0.1,3.8,1.1,6.8,3.4,8.5c2.2,1.8,4.9,2.7,8.2,2.7c2.6-0.1,4.9-0.6,7-1.6c2.1-1,3.9-2.3,5.4-3.6c1.8-1.5,3.4-3.3,4.7-5.2
			c0.2-0.2,0.4-0.5,0.7-0.8c0.2-0.2,0.5-0.4,0.8-0.6c0.3-0.2,0.7-0.3,1.1-0.3c0.7,0,1.2,0.2,1.7,0.7c0.5,0.5,0.7,0.9,0.8,1.5
			c0,0.3-0.1,0.6-0.2,0.8c-0.2,0.3-0.3,0.6-0.5,0.8C312.8,244.7,312.7,245.1,312.5,245.5z"/>
		<path class="st6" d="M367,244.9c-1.6,2.6-3.5,5.1-5.6,7c-1.7,1.8-3.7,3.4-6.2,4.8c-2.4,1.5-5,2.2-7.8,2.2c-3.2,0.1-6-0.8-8.2-2.3
			c-2.3-1.5-3.7-3.8-3.9-6.9c-1.4,1.9-3.1,3.6-4.9,4.9c-1.5,1.2-3.2,2.3-5.1,3.3s-3.9,1.6-6.2,1.5c-1.5,0-3-0.2-4.4-0.8
			c-1.4-0.6-2.7-1.3-3.7-2.3c-1.1-1-1.9-2.3-2.6-3.7c-0.7-1.4-1-2.9-1-4.7c-0.1-4,0.8-8.1,2.2-12c1.4-4,3.6-7.6,6-10.8
			c2.4-3.3,5.3-5.8,8.5-7.7c3.1-2.1,6.2-3,9.3-3c2.3-0.1,4.2,0.2,5.9,0.8c1.6,0.5,3,1.1,3.9,1.7c1.2,0.8,2.1,1.6,2.8,2.5
			c0.9,0,1.7,0,2.7,0.2c1,0.2,1.8,0.5,2.7,0.8c0.8,0.4,1.5,0.9,2,1.6c0.6,0.7,0.9,1.5,0.9,2.4c0,0.8-0.3,2.2-0.9,4
			c-0.7,1.9-1.3,3.9-2.3,6.3c-0.8,2.3-1.5,4.7-2.3,7.1c-0.6,2.4-1,4.6-1.1,6.5c0,0.9,0.3,1.6,1,2.3c0.6,0.6,1.3,0.8,2.4,0.8
			c1.5,0,3-0.6,4.5-1.5c1.4-1,2.8-2.2,3.8-3.5c1.3-1.4,2.5-3,3.7-4.9c0.1-0.2,0.3-0.5,0.6-0.8c0.2-0.2,0.4-0.3,0.7-0.6
			c0.3-0.2,0.7-0.3,1.1-0.3c0.6,0,1.2,0.2,1.6,0.7c0.5,0.5,0.8,0.9,0.8,1.5c0,0.3,0,0.6-0.2,0.8c-0.1,0.3-0.2,0.6-0.4,0.8
			C367.3,244.2,367.1,244.6,367,244.9z M340.2,225.3c-0.1-1.6-0.5-2.8-1.3-3.6c-0.9-0.8-1.8-1.1-3-1.1c-1.6,0.1-3.4,0.9-5.1,2.6
			c-1.7,1.8-3.3,3.9-4.7,6.4c-1.3,2.5-2.5,5.3-3.5,8.2c-1,2.9-1.3,5.5-1.3,7.9c0.1,3.4,1.2,5,3.4,5c1.3,0,2.9-0.9,4.7-2.7
			c1.7-1.9,3.4-4.1,5.1-6.7c1.5-2.6,2.9-5.4,4-8.3C339.7,230,340.2,227.5,340.2,225.3z"/>
		<path class="st6" d="M376.4,246.7c0,1.3,0.4,2.3,1.1,3c0.7,0.8,1.5,1.1,2.7,1.1c1.5,0,3-0.6,4.5-1.5c1.4-1,2.8-2.2,3.8-3.5
			c1.3-1.4,2.5-3,3.7-4.9c0.1-0.2,0.3-0.5,0.6-0.8c0.2-0.2,0.4-0.3,0.7-0.6c0.3-0.2,0.7-0.3,1.1-0.3c0.6,0,1.2,0.2,1.6,0.7
			c0.5,0.5,0.8,0.9,0.8,1.5c0,0.3,0,0.6-0.2,0.8c-0.1,0.3-0.2,0.6-0.4,0.8s-0.3,0.7-0.4,1c-1.6,2.6-3.5,5.1-5.6,7
			c-1.7,1.8-3.7,3.4-6.2,4.8c-2.4,1.5-5,2.2-7.8,2.2c-4.3,0.1-7.9-1.1-10.7-3.3c-2.7-2.2-4-5.2-4-8.7c-0.1-2,0.3-4.4,1-7.3
			c0.6-2.8,1.4-5.7,2.3-8.6c0.9-2.9,1-3.5,2-6.1c1-2.6,1.8-4.8,2.6-6.4c0.3-0.6,0.7-1.1,1.2-1.5c0.5-0.5,1.2-0.7,1.8-0.7
			c0.9,0,1.8,0.2,2.9,0.7c1.1,0.5,2.1,1,3.1,1.7c1,0.7,1.7,1.3,2.3,2c0.7,0.7,1,1.2,1,1.7c0.1,1.7-0.2,3.6-1,5.5
			c-0.8,2-0.5,1.9-1.3,4.1c-0.8,2.3-1.4,4.7-2.1,7.1C376.7,241.5,376.4,244.1,376.4,246.7z"/>
		<path class="st6" d="M410.5,258.9c-2.8,0.1-5.5-0.5-8.1-1.6c-2.6-1-4.8-2.4-6.7-4s-3.5-3.3-4.5-5.3c-1.2-1.9-1.7-3.7-1.7-5.3
			c0-1.6,0.5-3,1.6-4.2c1.2-1.1,2.3-2.2,3.7-2.9c1.5-0.8,3.4-1.6,5.5-2.1c0.5-0.8,1.1-1.7,1.7-2.8c0.6-0.9,1.3-2.3,2.3-3.7
			c1-1.5,2-3.3,3.4-5.3c2.6-4,5-6.8,6.8-8.3c1.8-1.6,3.6-2.4,5-2.3c0.6,0,1.2,0.1,1.9,0.5c0.7,0.3,1.2,0.7,1.8,1.1
			c0.6,0.5,1.1,0.8,1.4,1.3c0.4,0.5,0.6,0.8,0.6,1.1c0,0.4-0.1,0.8-0.4,1.4s-0.6,1.2-1,1.8c-0.3,0.7-0.6,1.3-0.9,2.1
			s-0.4,1.4-0.3,2.2c0.1,2.3,0.4,4.1,0.8,5.8c0.5,1.6,1.1,3.2,1.5,4.6c0.6,1.4,1.2,2.8,1.6,4.2c0.5,1.4,0.8,2.9,0.8,4.6
			c0.1,2.3-0.4,4.6-1.2,6.7c-0.7,2.1-1.7,3.8-3.3,5.4c-1.4,1.5-3.2,2.7-5.3,3.6C415.7,258.5,413.3,258.8,410.5,258.9z M410.3,227.2
			c-1.5,2.4-3,4.6-4.2,6.6c-1.1,1.8-1.9,3.4-2.9,4.9c-0.9,1.5-1.2,2.4-1.2,2.8c0.1,1.6,0.2,3.2,0.3,4.8c0.2,1.5,0.6,2.9,1.1,4
			c0.5,1.2,1.1,2.2,1.8,2.8c0.7,0.7,1.6,1,2.7,0.9c1.7-0.1,3.3-1,4.4-2.8c1.2-1.9,1.7-4.1,1.9-6.7c0-1.4-0.3-2.9-0.6-4.4
			c-0.4-1.6-0.9-3.1-1.2-4.6c-0.5-1.5-0.9-3-1.2-4.4C410.5,229.6,410.3,228.3,410.3,227.2z"/>
	</g>
</g>
<g>
	<path class="st5" d="M389.8,208c0.1,1.1-0.1,2.3-0.6,3.3s-1,2-1.8,2.8c-0.8,0.8-1.7,1.5-2.7,2.1c-1,0.5-2.2,0.8-3.3,0.8
		c-1.6,0-3-0.4-4.2-1.1c-1.2-0.8-1.8-2-1.9-3.5c-0.1-1,0.2-2.2,0.7-3.2c0.5-1,1.1-2,1.9-2.8c0.8-0.8,1.7-1.5,2.8-2.1
		c1-0.5,2.3-0.8,3.5-0.8c1.6,0,2.9,0.4,4,1.1C389.1,205.5,389.7,206.6,389.8,208z"/>
	<path class="st6" d="M384.6,205.1c0.1,1.1-0.1,2.2-0.6,3.2c-0.4,1-1,2-1.8,2.8c-0.8,0.8-1.7,1.5-2.6,2c-1,0.5-2.1,0.8-3.2,0.8
		c-1.6,0-2.9-0.4-4.1-1.1c-1.1-0.8-1.8-2-1.9-3.5c-0.1-1,0.2-2.1,0.6-3.1c0.5-1,1-2,1.9-2.7c0.8-0.8,1.7-1.5,2.7-2s2.2-0.8,3.4-0.8
		c1.6,0,2.9,0.4,3.9,1.1C384.1,202.6,384.6,203.7,384.6,205.1z"/>
</g>
</svg>
