<?xml version="1.0" encoding="utf-8"?>
<!-- Generator: Adobe Illustrator 24.0.1, SVG Export Plug-In . SVG Version: 6.00 Build 0)  -->
<svg version="1.1" id="Calque_1" xmlns="http://www.w3.org/2000/svg" xmlns:xlink="http://www.w3.org/1999/xlink" x="0px" y="0px"
	 viewBox="0 0 140.1 6.4" style="enable-background:new 0 0 140.1 6.4;" xml:space="preserve">
<style type="text/css">
	.st0{fill:#A51F1E;}
</style>
<polygon class="st0" points="70.1,0 71.1,2.1 73.4,2.5 71.8,4.1 72.2,6.4 70.1,5.3 68,6.4 68.4,4.1 66.7,2.5 69,2.1 "/>
<polygon class="st0" points="59.8,0 60.8,2.1 63.2,2.5 61.5,4.1 61.9,6.4 59.8,5.3 57.7,6.4 58.1,4.1 56.4,2.5 58.7,2.1 "/>
<polygon class="st0" points="80.3,0 81.4,2.1 83.7,2.5 82,4.1 82.4,6.4 80.3,5.3 78.2,6.4 78.6,4.1 76.9,2.5 79.3,2.1 "/>
<rect y="3.1" class="st0" width="60" height="1"/>
<rect x="80.1" y="3.1" class="st0" width="60" height="1"/>
</svg>
